<?xml version="1.0" encoding="UTF-8" standalone="no"?>
<!-- Created with Inkscape (http://www.inkscape.org/) -->

<svg
   xmlns:dc="http://purl.org/dc/elements/1.1/"
   xmlns:cc="http://creativecommons.org/ns#"
   xmlns:rdf="http://www.w3.org/1999/02/22-rdf-syntax-ns#"
   xmlns:svg="http://www.w3.org/2000/svg"
   xmlns="http://www.w3.org/2000/svg"
   xmlns:xlink="http://www.w3.org/1999/xlink"
   xmlns:sodipodi="http://sodipodi.sourceforge.net/DTD/sodipodi-0.dtd"
   xmlns:inkscape="http://www.inkscape.org/namespaces/inkscape"
   width="17cm"
   height="10.95565cm"
   viewBox="0 0 170 109.5565"
   version="1.1"
   id="svg40814"
   inkscape:version="0.92.5 (2060ec1f9f, 2020-04-08)"
   sodipodi:docname="AE current toy model 2.svg">
  <defs
     id="defs40808">
    <linearGradient
       id="linearGradient5506"
       inkscape:collect="always">
      <stop
         id="stop5502"
         offset="0"
         style="stop-color:#0000ff;stop-opacity:0.75320513" />
      <stop
         style="stop-color:#a4a4ff;stop-opacity:1"
         offset="0.13620599"
         id="stop5508" />
      <stop
         id="stop5510"
         offset="0.32386211"
         style="stop-color:#0000ff;stop-opacity:0.75320513" />
      <stop
         style="stop-color:#a4a4ff;stop-opacity:1"
         offset="0.51459455"
         id="stop5512" />
      <stop
         id="stop5514"
         offset="0.69917434"
         style="stop-color:#0000ff;stop-opacity:0.75320513" />
      <stop
         style="stop-color:#a4a4ff;stop-opacity:1"
         offset="0.89195764"
         id="stop5516" />
      <stop
         id="stop5504"
         offset="1"
         style="stop-color:#0000ff;stop-opacity:0.75320513" />
    </linearGradient>
    <marker
       inkscape:stockid="TriangleInS"
       orient="auto"
       refY="0"
       refX="0"
       id="TriangleInS"
       style="overflow:visible"
       inkscape:isstock="true">
      <path
         id="path4325"
         d="M 5.77,0 -2.88,5 V -5 Z"
         style="fill:#ffffff;fill-opacity:1;fill-rule:evenodd;stroke:#ffffff;stroke-width:1.00000003pt;stroke-opacity:1"
         transform="scale(-0.2)"
         inkscape:connector-curvature="0" />
    </marker>
    <marker
       inkscape:stockid="TriangleOutS"
       orient="auto"
       refY="0"
       refX="0"
       id="TriangleOutS"
       style="overflow:visible"
       inkscape:isstock="true">
      <path
         id="path4334"
         d="M 5.77,0 -2.88,5 V -5 Z"
         style="fill:#8f8f8f;fill-opacity:1;fill-rule:evenodd;stroke:#8f8f8f;stroke-width:1.00000003pt;stroke-opacity:1"
         transform="scale(0.2)"
         inkscape:connector-curvature="0" />
    </marker>
    <marker
       inkscape:stockid="StopM"
       orient="auto"
       refY="0"
       refX="0"
       id="marker70960"
       style="overflow:visible"
       inkscape:isstock="true">
      <path
         id="path70958"
         d="M 0,5.65 V -5.65"
         style="fill:none;fill-opacity:0.75;fill-rule:evenodd;stroke:#000000;stroke-width:1.00000003pt;stroke-opacity:1"
         transform="scale(0.4)"
         inkscape:connector-curvature="0" />
    </marker>
    <marker
       inkscape:stockid="StopM"
       orient="auto"
       refY="0"
       refX="0"
       id="StopM"
       style="overflow:visible"
       inkscape:isstock="true">
      <path
         id="path4358"
         d="M 0,5.65 V -5.65"
         style="fill:none;fill-opacity:0.75;fill-rule:evenodd;stroke:#000000;stroke-width:1.00000003pt;stroke-opacity:1"
         transform="scale(0.4)"
         inkscape:connector-curvature="0" />
    </marker>
    <linearGradient
       inkscape:collect="always"
       id="linearGradient70932">
      <stop
         style="stop-color:#0000ff;stop-opacity:1;"
         offset="0"
         id="stop70928" />
      <stop
         style="stop-color:#0000ff;stop-opacity:0;"
         offset="1"
         id="stop70930" />
    </linearGradient>
    <linearGradient
       inkscape:collect="always"
       xlink:href="#linearGradient70932"
       id="linearGradient70934"
       x1="45.97036"
       y1="47.771164"
       x2="45.97036"
       y2="19.975134"
       gradientUnits="userSpaceOnUse"
       gradientTransform="matrix(0.26841371,0,0,0.60086953,68.690734,-84.514446)" />
    <marker
       inkscape:stockid="TriangleOutS"
       orient="auto"
       refY="0"
       refX="0"
       id="TriangleOutS-6"
       style="overflow:visible"
       inkscape:isstock="true">
      <path
         inkscape:connector-curvature="0"
         id="path4334-4"
         d="M 5.77,0 -2.88,5 V -5 Z"
         style="fill:#000000;fill-opacity:1;fill-rule:evenodd;stroke:#000000;stroke-width:1.00000003pt;stroke-opacity:1"
         transform="scale(0.2)" />
    </marker>
    <marker
       inkscape:stockid="TriangleOutS"
       orient="auto"
       refY="0"
       refX="0"
       id="TriangleOutS-6-5"
       style="overflow:visible"
       inkscape:isstock="true">
      <path
         inkscape:connector-curvature="0"
         id="path4334-4-7"
         d="M 5.77,0 -2.88,5 V -5 Z"
         style="fill:#000000;fill-opacity:1;fill-rule:evenodd;stroke:#000000;stroke-width:1.00000003pt;stroke-opacity:1"
         transform="scale(0.2)" />
    </marker>
    <marker
       inkscape:stockid="TriangleInS"
       orient="auto"
       refY="0"
       refX="0"
       id="TriangleInS-0"
       style="overflow:visible"
       inkscape:isstock="true">
      <path
         inkscape:connector-curvature="0"
         id="path4325-2"
         d="M 5.77,0 -2.88,5 V -5 Z"
         style="fill:#000000;fill-opacity:0.23831775;fill-rule:evenodd;stroke:#000000;stroke-width:1.00000003pt;stroke-opacity:0.23831775"
         transform="scale(-0.2)" />
    </marker>
    <marker
       inkscape:stockid="TriangleInS"
       orient="auto"
       refY="0"
       refX="0"
       id="TriangleInS-8"
       style="overflow:visible"
       inkscape:isstock="true">
      <path
         inkscape:connector-curvature="0"
         id="path4325-0"
         d="M 5.77,0 -2.88,5 V -5 Z"
         style="fill:#000000;fill-opacity:0.23831775;fill-rule:evenodd;stroke:#000000;stroke-width:1.00000003pt;stroke-opacity:0.23831775"
         transform="scale(-0.2)" />
    </marker>
    <marker
       inkscape:stockid="TriangleInS"
       orient="auto"
       refY="0"
       refX="0"
       id="TriangleInS-0-5"
       style="overflow:visible"
       inkscape:isstock="true">
      <path
         inkscape:connector-curvature="0"
         id="path4325-2-6"
         d="M 5.77,0 -2.88,5 V -5 Z"
         style="fill:#8f8f8f;fill-opacity:1;fill-rule:evenodd;stroke:#8f8f8f;stroke-width:1.00000003pt;stroke-opacity:1"
         transform="scale(-0.2)" />
    </marker>
    <marker
       inkscape:stockid="TriangleInS"
       orient="auto"
       refY="0"
       refX="0"
       id="TriangleInS-0-5-2"
       style="overflow:visible"
       inkscape:isstock="true">
      <path
         inkscape:connector-curvature="0"
         id="path4325-2-6-9"
         d="M 5.77,0 -2.88,5 V -5 Z"
         style="fill:#8f8f8f;fill-opacity:1;fill-rule:evenodd;stroke:#8f8f8f;stroke-width:1.00000003pt;stroke-opacity:1"
         transform="scale(-0.2)" />
    </marker>
    <marker
       inkscape:stockid="TriangleInS"
       orient="auto"
       refY="0"
       refX="0"
       id="TriangleInS-9"
       style="overflow:visible"
       inkscape:isstock="true">
      <path
         inkscape:connector-curvature="0"
         id="path4325-5"
         d="M 5.77,0 -2.88,5 V -5 Z"
         style="fill:#8f8f8f;fill-opacity:1;fill-rule:evenodd;stroke:#8f8f8f;stroke-width:1.00000003pt;stroke-opacity:1"
         transform="scale(-0.2)" />
    </marker>
    <marker
       inkscape:stockid="TriangleInS"
       orient="auto"
       refY="0"
       refX="0"
       id="TriangleInS-2"
       style="overflow:visible"
       inkscape:isstock="true">
      <path
         inkscape:connector-curvature="0"
         id="path4325-05"
         d="M 5.77,0 -2.88,5 V -5 Z"
         style="fill:#ffffff;fill-opacity:1;fill-rule:evenodd;stroke:#ffffff;stroke-width:1.00000003pt;stroke-opacity:1"
         transform="scale(-0.2)" />
    </marker>
    <marker
       inkscape:stockid="TriangleInS"
       orient="auto"
       refY="0"
       refX="0"
       id="TriangleInS-2-6"
       style="overflow:visible"
       inkscape:isstock="true">
      <path
         inkscape:connector-curvature="0"
         id="path4325-05-5"
         d="M 5.77,0 -2.88,5 V -5 Z"
         style="fill:#ffffff;fill-opacity:1;fill-rule:evenodd;stroke:#ffffff;stroke-width:1.00000003pt;stroke-opacity:1"
         transform="scale(-0.2)" />
    </marker>
    <marker
       inkscape:stockid="TriangleInS"
       orient="auto"
       refY="0"
       refX="0"
       id="TriangleInS-3"
       style="overflow:visible"
       inkscape:isstock="true">
      <path
         inkscape:connector-curvature="0"
         id="path4325-29"
         d="M 5.77,0 -2.88,5 V -5 Z"
         style="fill:#ffffff;fill-opacity:1;fill-rule:evenodd;stroke:#ffffff;stroke-width:1.00000003pt;stroke-opacity:1"
         transform="scale(-0.2)" />
    </marker>
    <marker
       inkscape:stockid="TriangleInS"
       orient="auto"
       refY="0"
       refX="0"
       id="TriangleInS-5"
       style="overflow:visible"
       inkscape:isstock="true">
      <path
         inkscape:connector-curvature="0"
         id="path4325-55"
         d="M 5.77,0 -2.88,5 V -5 Z"
         style="fill:#8f8f8f;fill-opacity:1;fill-rule:evenodd;stroke:#8f8f8f;stroke-width:1.00000003pt;stroke-opacity:1"
         transform="scale(-0.2)" />
    </marker>
    <marker
       inkscape:stockid="TriangleInS"
       orient="auto"
       refY="0"
       refX="0"
       id="TriangleInS-2-4"
       style="overflow:visible"
       inkscape:isstock="true">
      <path
         inkscape:connector-curvature="0"
         id="path4325-05-2"
         d="M 5.77,0 -2.88,5 V -5 Z"
         style="fill:#ffffff;fill-opacity:1;fill-rule:evenodd;stroke:#ffffff;stroke-width:1.00000003pt;stroke-opacity:1"
         transform="scale(-0.2)" />
    </marker>
    <marker
       inkscape:stockid="TriangleInS"
       orient="auto"
       refY="0"
       refX="0"
       id="TriangleInS-3-4"
       style="overflow:visible"
       inkscape:isstock="true">
      <path
         inkscape:connector-curvature="0"
         id="path4325-29-1"
         d="M 5.77,0 -2.88,5 V -5 Z"
         style="fill:#ffffff;fill-opacity:1;fill-rule:evenodd;stroke:#ffffff;stroke-width:1.00000003pt;stroke-opacity:1"
         transform="scale(-0.2)" />
    </marker>
    <linearGradient
       inkscape:collect="always"
       xlink:href="#linearGradient5506"
       id="linearGradient5492"
       x1="8.3907032"
       y1="20.792671"
       x2="64.379463"
       y2="20.792671"
       gradientUnits="userSpaceOnUse"
       gradientTransform="translate(2.7606185,-85.254394)" />
    <linearGradient
       inkscape:collect="always"
       xlink:href="#linearGradient5506"
       id="linearGradient5492-7"
       x1="8.3907032"
       y1="20.792671"
       x2="64.379463"
       y2="20.792671"
       gradientUnits="userSpaceOnUse"
       gradientTransform="translate(2.7606186,-64.350728)" />
    <radialGradient
       cx="176212"
       cy="176212"
       r="249202"
       fx="176213"
       fy="176213"
       gradientUnits="userSpaceOnUse"
       spreadMethod="pad"
       id="fill8-4-3"
       gradientTransform="matrix(4.9092958e-6,0,0,4.9092958e-6,103.15481,-32.657101)">
      <stop
         offset="0"
         stop-color="#0432FF"
         id="stop21272-8" />
      <stop
         offset="0.37"
         stop-color="#0432FF"
         id="stop21274-7" />
      <stop
         offset="0.72"
         stop-color="#0432FF"
         stop-opacity="0"
         id="stop21276-6" />
      <stop
         offset="1"
         stop-color="#0432FF"
         stop-opacity="0"
         id="stop21278-9" />
    </radialGradient>
    <radialGradient
       cx="176212"
       cy="176212"
       r="249202"
       fx="176213"
       fy="176213"
       gradientUnits="userSpaceOnUse"
       spreadMethod="pad"
       id="fill8-4-1-55"
       gradientTransform="matrix(4.9092958e-6,0,0,4.9092958e-6,104.99449,-31.997032)">
      <stop
         offset="0"
         stop-color="#0432FF"
         id="stop21272-2-73" />
      <stop
         offset="0.37"
         stop-color="#0432FF"
         id="stop21274-4-6" />
      <stop
         offset="0.72"
         stop-color="#0432FF"
         stop-opacity="0"
         id="stop21276-4-5" />
      <stop
         offset="1"
         stop-color="#0432FF"
         stop-opacity="0"
         id="stop21278-4-2" />
    </radialGradient>
    <radialGradient
       cx="176212"
       cy="176212"
       r="249202"
       fx="176213"
       fy="176213"
       gradientUnits="userSpaceOnUse"
       spreadMethod="pad"
       id="fill8-4-1-5-6"
       gradientTransform="matrix(4.9092958e-6,0,0,4.9092958e-6,106.99026,-32.034201)">
      <stop
         offset="0"
         stop-color="#0432FF"
         id="stop21272-2-7-0" />
      <stop
         offset="0.37"
         stop-color="#0432FF"
         id="stop21274-4-5-0" />
      <stop
         offset="0.72"
         stop-color="#0432FF"
         stop-opacity="0"
         id="stop21276-4-9-4" />
      <stop
         offset="1"
         stop-color="#0432FF"
         stop-opacity="0"
         id="stop21278-4-5-6" />
    </radialGradient>
    <radialGradient
       cx="176212"
       cy="176212"
       r="249202"
       fx="176213"
       fy="176213"
       gradientUnits="userSpaceOnUse"
       spreadMethod="pad"
       id="fill8-4-1-5-8-4"
       gradientTransform="matrix(4.9092958e-6,0,0,4.9092958e-6,108.79774,-32.64325)">
      <stop
         offset="0"
         stop-color="#0432FF"
         id="stop21272-2-7-6-6" />
      <stop
         offset="0.37"
         stop-color="#0432FF"
         id="stop21274-4-5-1-0" />
      <stop
         offset="0.72"
         stop-color="#0432FF"
         stop-opacity="0"
         id="stop21276-4-9-2-5" />
      <stop
         offset="1"
         stop-color="#0432FF"
         stop-opacity="0"
         id="stop21278-4-5-4-7" />
    </radialGradient>
    <radialGradient
       cx="185737"
       cy="180975"
       r="259327"
       fx="185738"
       fy="180975"
       gradientUnits="userSpaceOnUse"
       spreadMethod="pad"
       id="fill9-8-55"
       gradientTransform="matrix(4.8209136e-6,0,0,4.8209136e-6,93.728533,-31.855583)">
      <stop
         offset="0"
         stop-color="#FF0000"
         id="stop21281-8" />
      <stop
         offset="0.37"
         stop-color="#FF0000"
         id="stop21283-4" />
      <stop
         offset="0.69"
         stop-color="#FF0000"
         stop-opacity="0"
         id="stop21285-2" />
      <stop
         offset="1"
         stop-color="#FF0000"
         stop-opacity="0"
         id="stop21287-3" />
    </radialGradient>
    <radialGradient
       cx="185737"
       cy="180975"
       r="259327"
       fx="185738"
       fy="180975"
       gradientUnits="userSpaceOnUse"
       spreadMethod="pad"
       id="fill9-8-5-3"
       gradientTransform="matrix(4.8209136e-6,0,0,4.8209136e-6,95.682132,-32.421117)">
      <stop
         offset="0"
         stop-color="#FF0000"
         id="stop21281-2-8" />
      <stop
         offset="0.37"
         stop-color="#FF0000"
         id="stop21283-1-6" />
      <stop
         offset="0.69"
         stop-color="#FF0000"
         stop-opacity="0"
         id="stop21285-6-90" />
      <stop
         offset="1"
         stop-color="#FF0000"
         stop-opacity="0"
         id="stop21287-4-4" />
    </radialGradient>
    <radialGradient
       cx="185737"
       cy="180975"
       r="259327"
       fx="185738"
       fy="180975"
       gradientUnits="userSpaceOnUse"
       spreadMethod="pad"
       id="fill9-8-5-2-9"
       gradientTransform="matrix(4.8209136e-6,0,0,4.8209136e-6,97.682762,-32.381106)">
      <stop
         offset="0"
         stop-color="#FF0000"
         id="stop21281-2-7-48" />
      <stop
         offset="0.37"
         stop-color="#FF0000"
         id="stop21283-1-7-7" />
      <stop
         offset="0.69"
         stop-color="#FF0000"
         stop-opacity="0"
         id="stop21285-6-0-8" />
      <stop
         offset="1"
         stop-color="#FF0000"
         stop-opacity="0"
         id="stop21287-4-1-9" />
    </radialGradient>
    <radialGradient
       cx="185737"
       cy="180975"
       r="259327"
       fx="185738"
       fy="180975"
       gradientUnits="userSpaceOnUse"
       spreadMethod="pad"
       id="fill9-8-5-2-7-4"
       gradientTransform="matrix(4.8209136e-6,0,0,4.8209136e-6,99.603367,-31.82093)">
      <stop
         offset="0"
         stop-color="#FF0000"
         id="stop21281-2-7-1-8" />
      <stop
         offset="0.37"
         stop-color="#FF0000"
         id="stop21283-1-7-4-8" />
      <stop
         offset="0.69"
         stop-color="#FF0000"
         stop-opacity="0"
         id="stop21285-6-0-2-8" />
      <stop
         offset="1"
         stop-color="#FF0000"
         stop-opacity="0"
         id="stop21287-4-1-1-0" />
    </radialGradient>
    <radialGradient
       cx="176212"
       cy="176212"
       r="249202"
       fx="176213"
       fy="176213"
       gradientUnits="userSpaceOnUse"
       spreadMethod="pad"
       id="fill8-4-3-0"
       gradientTransform="matrix(4.9092958e-6,0,0,4.9092958e-6,121.68589,-32.703911)">
      <stop
         offset="0"
         stop-color="#0432FF"
         id="stop21272-8-0" />
      <stop
         offset="0.37"
         stop-color="#0432FF"
         id="stop21274-7-9" />
      <stop
         offset="0.72"
         stop-color="#0432FF"
         stop-opacity="0"
         id="stop21276-6-4" />
      <stop
         offset="1"
         stop-color="#0432FF"
         stop-opacity="0"
         id="stop21278-9-4" />
    </radialGradient>
    <radialGradient
       cx="176212"
       cy="176212"
       r="249202"
       fx="176213"
       fy="176213"
       gradientUnits="userSpaceOnUse"
       spreadMethod="pad"
       id="fill8-4-1-55-7"
       gradientTransform="matrix(4.9092958e-6,0,0,4.9092958e-6,123.52558,-32.043842)">
      <stop
         offset="0"
         stop-color="#0432FF"
         id="stop21272-2-73-0" />
      <stop
         offset="0.37"
         stop-color="#0432FF"
         id="stop21274-4-6-9" />
      <stop
         offset="0.72"
         stop-color="#0432FF"
         stop-opacity="0"
         id="stop21276-4-5-6" />
      <stop
         offset="1"
         stop-color="#0432FF"
         stop-opacity="0"
         id="stop21278-4-2-4" />
    </radialGradient>
    <radialGradient
       cx="176212"
       cy="176212"
       r="249202"
       fx="176213"
       fy="176213"
       gradientUnits="userSpaceOnUse"
       spreadMethod="pad"
       id="fill8-4-1-5-6-1"
       gradientTransform="matrix(4.9092958e-6,0,0,4.9092958e-6,125.52135,-32.081011)">
      <stop
         offset="0"
         stop-color="#0432FF"
         id="stop21272-2-7-0-3" />
      <stop
         offset="0.37"
         stop-color="#0432FF"
         id="stop21274-4-5-0-0" />
      <stop
         offset="0.72"
         stop-color="#0432FF"
         stop-opacity="0"
         id="stop21276-4-9-4-9" />
      <stop
         offset="1"
         stop-color="#0432FF"
         stop-opacity="0"
         id="stop21278-4-5-6-3" />
    </radialGradient>
    <radialGradient
       cx="176212"
       cy="176212"
       r="249202"
       fx="176213"
       fy="176213"
       gradientUnits="userSpaceOnUse"
       spreadMethod="pad"
       id="fill8-4-1-5-8-4-1"
       gradientTransform="matrix(4.9092958e-6,0,0,4.9092958e-6,127.32883,-32.69006)">
      <stop
         offset="0"
         stop-color="#0432FF"
         id="stop21272-2-7-6-6-0" />
      <stop
         offset="0.37"
         stop-color="#0432FF"
         id="stop21274-4-5-1-0-0" />
      <stop
         offset="0.72"
         stop-color="#0432FF"
         stop-opacity="0"
         id="stop21276-4-9-2-5-0" />
      <stop
         offset="1"
         stop-color="#0432FF"
         stop-opacity="0"
         id="stop21278-4-5-4-7-2" />
    </radialGradient>
    <radialGradient
       cx="185737"
       cy="180975"
       r="259327"
       fx="185738"
       fy="180975"
       gradientUnits="userSpaceOnUse"
       spreadMethod="pad"
       id="fill9-8-55-3"
       gradientTransform="matrix(4.8209136e-6,0,0,4.8209136e-6,112.25962,-31.902393)">
      <stop
         offset="0"
         stop-color="#FF0000"
         id="stop21281-8-5" />
      <stop
         offset="0.37"
         stop-color="#FF0000"
         id="stop21283-4-6" />
      <stop
         offset="0.69"
         stop-color="#FF0000"
         stop-opacity="0"
         id="stop21285-2-8" />
      <stop
         offset="1"
         stop-color="#FF0000"
         stop-opacity="0"
         id="stop21287-3-4" />
    </radialGradient>
    <radialGradient
       cx="185737"
       cy="180975"
       r="259327"
       fx="185738"
       fy="180975"
       gradientUnits="userSpaceOnUse"
       spreadMethod="pad"
       id="fill9-8-5-3-5"
       gradientTransform="matrix(4.8209136e-6,0,0,4.8209136e-6,114.21322,-32.467927)">
      <stop
         offset="0"
         stop-color="#FF0000"
         id="stop21281-2-8-4" />
      <stop
         offset="0.37"
         stop-color="#FF0000"
         id="stop21283-1-6-0" />
      <stop
         offset="0.69"
         stop-color="#FF0000"
         stop-opacity="0"
         id="stop21285-6-90-1" />
      <stop
         offset="1"
         stop-color="#FF0000"
         stop-opacity="0"
         id="stop21287-4-4-6" />
    </radialGradient>
    <radialGradient
       cx="185737"
       cy="180975"
       r="259327"
       fx="185738"
       fy="180975"
       gradientUnits="userSpaceOnUse"
       spreadMethod="pad"
       id="fill9-8-5-2-9-9"
       gradientTransform="matrix(4.8209136e-6,0,0,4.8209136e-6,116.21385,-32.427916)">
      <stop
         offset="0"
         stop-color="#FF0000"
         id="stop21281-2-7-48-6" />
      <stop
         offset="0.37"
         stop-color="#FF0000"
         id="stop21283-1-7-7-1" />
      <stop
         offset="0.69"
         stop-color="#FF0000"
         stop-opacity="0"
         id="stop21285-6-0-8-3" />
      <stop
         offset="1"
         stop-color="#FF0000"
         stop-opacity="0"
         id="stop21287-4-1-9-6" />
    </radialGradient>
    <radialGradient
       cx="185737"
       cy="180975"
       r="259327"
       fx="185738"
       fy="180975"
       gradientUnits="userSpaceOnUse"
       spreadMethod="pad"
       id="fill9-8-5-2-7-4-5"
       gradientTransform="matrix(4.8209136e-6,0,0,4.8209136e-6,118.13445,-31.867741)">
      <stop
         offset="0"
         stop-color="#FF0000"
         id="stop21281-2-7-1-8-1" />
      <stop
         offset="0.37"
         stop-color="#FF0000"
         id="stop21283-1-7-4-8-3" />
      <stop
         offset="0.69"
         stop-color="#FF0000"
         stop-opacity="0"
         id="stop21285-6-0-2-8-4" />
      <stop
         offset="1"
         stop-color="#FF0000"
         stop-opacity="0"
         id="stop21287-4-1-1-0-7" />
    </radialGradient>
    <linearGradient
       inkscape:collect="always"
       xlink:href="#linearGradient5506"
       id="linearGradient5492-7-5"
       x1="11.565701"
       y1="20.792671"
       x2="67.554466"
       y2="20.792671"
       gradientUnits="userSpaceOnUse"
       gradientTransform="translate(2.7606188,-41.330395)" />
  </defs>
  <sodipodi:namedview
     id="base"
     pagecolor="#ffffff"
     bordercolor="#666666"
     borderopacity="1.0"
     inkscape:pageopacity="0.0"
     inkscape:pageshadow="2"
     inkscape:zoom="4.6083983"
     inkscape:cx="135.43176"
     inkscape:cy="279.04179"
     inkscape:document-units="mm"
     inkscape:current-layer="layer1"
     showgrid="false"
     units="cm"
     showguides="false"
     inkscape:snap-bbox="true"
     inkscape:bbox-paths="true"
     inkscape:bbox-nodes="true"
     inkscape:snap-bbox-edge-midpoints="true"
     inkscape:snap-bbox-midpoints="true"
     inkscape:snap-global="true"
     inkscape:window-width="2560"
     inkscape:window-height="1377"
     inkscape:window-x="1912"
     inkscape:window-y="-8"
     inkscape:window-maximized="1"
     fit-margin-top="0.1"
     fit-margin-left="0.1"
     fit-margin-right="0.1"
     fit-margin-bottom="0.1" />
  <metadata
     id="metadata40811">
    <rdf:RDF>
      <cc:Work
         rdf:about="">
        <dc:format>image/svg+xml</dc:format>
        <dc:type
           rdf:resource="http://purl.org/dc/dcmitype/StillImage" />
        <dc:title></dc:title>
      </cc:Work>
    </rdf:RDF>
  </metadata>
  <g
     inkscape:label="Layer 1"
     inkscape:groupmode="layer"
     id="layer1"
     transform="translate(0.17384204,78.807122)">
    <rect
       style="opacity:0.97000002;fill:url(#linearGradient5492);fill-opacity:1;fill-rule:nonzero;stroke:#000000;stroke-width:0.26500002;stroke-linecap:round;stroke-linejoin:round;stroke-miterlimit:4;stroke-dasharray:none;stroke-dashoffset:0;stroke-opacity:1;paint-order:stroke fill markers"
       id="rect56606"
       width="55.723763"
       height="16.934496"
       x="11.283821"
       y="-72.92897" />
    <text
       xml:space="preserve"
       style="font-style:normal;font-weight:normal;font-size:7.78107977px;line-height:1.25;font-family:sans-serif;letter-spacing:0px;word-spacing:0px;fill:#000000;fill-opacity:1;stroke:none;stroke-width:0.26458332"
       x="82.893806"
       y="-62.249813"
       id="text70766"><tspan
         sodipodi:role="line"
         id="tspan70764"
         x="82.893806"
         y="-62.249813"
         style="font-style:italic;font-variant:normal;font-weight:normal;font-stretch:normal;font-size:3.52777767px;font-family:'DejaVu Sans';-inkscape-font-specification:'DejaVu Sans';stroke-width:0.26458332">n<tspan
   id="tspan75123"
   style="font-size:2.2930553px;baseline-shift:sub;stroke-width:0.26458332">0</tspan></tspan></text>
    <rect
       style="opacity:0.97;fill:url(#linearGradient70934);fill-opacity:1;fill-rule:nonzero;stroke:#000000;stroke-width:0.26499999;stroke-linecap:round;stroke-linejoin:round;stroke-miterlimit:4;stroke-dasharray:none;stroke-dashoffset:0;stroke-opacity:1;paint-order:stroke fill markers"
       id="rect70926"
       width="2.2597723"
       height="16.862383"
       x="79.881989"
       y="-72.512001" />
    <path
       style="fill:none;stroke:#000000;stroke-width:0.26500002;stroke-linecap:butt;stroke-linejoin:miter;stroke-miterlimit:4;stroke-dasharray:none;stroke-opacity:1;marker-start:url(#StopM);marker-end:url(#marker70960)"
       d="m 78.455517,-72.556875 v 16.981189"
       id="path70936"
       inkscape:connector-curvature="0" />
    <path
       style="fill:none;stroke:#000000;stroke-width:0.26499999;stroke-linecap:butt;stroke-linejoin:miter;stroke-miterlimit:4;stroke-dasharray:none;stroke-dashoffset:0;stroke-opacity:0.61214953"
       d="m 79.875995,-63.147467 h 2.835953"
       id="path71616"
       inkscape:connector-curvature="0" />
    <text
       xml:space="preserve"
       style="font-style:normal;font-weight:normal;font-size:7.78107977px;line-height:1.25;font-family:sans-serif;letter-spacing:0px;word-spacing:0px;fill:#000000;fill-opacity:1;stroke:none;stroke-width:0.26458332"
       x="72.735725"
       y="-62.159271"
       id="text70766-0"><tspan
         sodipodi:role="line"
         id="tspan70764-4"
         x="72.735725"
         y="-62.159271"
         style="font-style:italic;font-variant:normal;font-weight:normal;font-stretch:normal;font-size:3.52777767px;font-family:'DejaVu Sans';-inkscape-font-specification:'DejaVu Sans';stroke-width:0.26458332">∆n</tspan></text>
    <text
       style="font-style:normal;font-variant:normal;font-weight:normal;font-stretch:normal;font-size:2.41979909px;font-family:'DejaVu Sans';-inkscape-font-specification:'DejaVu Sans';stroke-width:0.30000001;stroke-miterlimit:8;stroke-dasharray:none"
       font-weight="400"
       font-size="24"
       id="text4570"
       x="3.5259442"
       y="-60.932339"
       transform="scale(1.0006144,0.99938598)">
      <tspan
         id="tspan75109"
         style="font-size:3.52777767px;stroke-width:0.30000001">𝜙</tspan>
      <tspan
         style="font-size:1.57286942px;baseline-shift:sub;stroke-width:0.30000001"
         id="tspan75121">SAW</tspan>
    </text>
    <text
       style="font-style:normal;font-variant:normal;font-weight:normal;font-stretch:normal;font-size:1.81484938px;font-family:'DejaVu Sans';-inkscape-font-specification:'DejaVu Sans';stroke-width:0.30000001;stroke-miterlimit:8;stroke-dasharray:none"
       font-weight="400"
       font-size="18"
       id="text4572"
       x="2.2333243"
       y="24.19989"
       transform="scale(1.0006144,0.99938598)" />
    <path
       style="fill:#ffffff;stroke:#ffffff;stroke-width:0.26499999;stroke-linecap:butt;stroke-linejoin:miter;stroke-miterlimit:4;stroke-dasharray:none;stroke-opacity:1;marker-start:url(#TriangleInS)"
       d="m 22.687537,-68.890715 3.061109,6.357608"
       id="path75711"
       inkscape:connector-curvature="0" />
    <path
       style="fill:#ffffff;stroke:#ffffff;stroke-width:0.26499999;stroke-linecap:butt;stroke-linejoin:miter;stroke-miterlimit:4;stroke-dasharray:none;stroke-opacity:1;marker-start:url(#TriangleInS-2)"
       d="m 35.586601,-68.890715 -3.061108,6.357608"
       id="path75711-1"
       inkscape:connector-curvature="0" />
    <path
       style="fill:#ffffff;stroke:#ffffff;stroke-width:0.26499999;stroke-linecap:butt;stroke-linejoin:miter;stroke-miterlimit:4;stroke-dasharray:none;stroke-opacity:1;marker-start:url(#TriangleInS-3)"
       d="m 43.946235,-68.789951 3.061108,6.357608"
       id="path75711-8"
       inkscape:connector-curvature="0" />
    <path
       style="fill:#ffffff;stroke:#ffffff;stroke-width:0.26499999;stroke-linecap:butt;stroke-linejoin:miter;stroke-miterlimit:4;stroke-dasharray:none;stroke-opacity:1;marker-start:url(#TriangleInS-2-6)"
       d="m 56.8453,-68.789951 -3.061108,6.357608"
       id="path75711-1-2"
       inkscape:connector-curvature="0" />
    <text
       xml:space="preserve"
       style="font-style:normal;font-weight:normal;font-size:10.58333302px;line-height:1.25;font-family:sans-serif;letter-spacing:0px;word-spacing:0px;fill:#ffffff;fill-opacity:1;stroke:none;stroke-width:0.26458332;"
       x="12.045936"
       y="-69.17675"
       id="text81046"><tspan
         sodipodi:role="line"
         id="tspan81044"
         x="12.045936"
         y="-69.17675"
         style="font-style:italic;font-size:2.82222223px;fill:#ffffff;fill-opacity:1;stroke-width:0.26458332;">E</tspan></text>
    <path
       style="fill:#ffffff;stroke:#ffffff;stroke-width:0.26499999;stroke-linecap:butt;stroke-linejoin:miter;stroke-miterlimit:4;stroke-dasharray:none;stroke-opacity:1;marker-start:url(#TriangleInS-2-4)"
       d="m 14.445242,-69.062295 -3.061114,6.357608"
       id="path75711-1-20"
       inkscape:connector-curvature="0" />
    <path
       style="fill:#ffffff;stroke:#ffffff;stroke-width:0.26499999;stroke-linecap:butt;stroke-linejoin:miter;stroke-miterlimit:4;stroke-dasharray:none;stroke-opacity:1;marker-start:url(#TriangleInS-3-4)"
       d="m 64.882864,-69.122596 2.089409,4.697348"
       id="path75711-8-0"
       inkscape:connector-curvature="0" />
    <path
       sodipodi:nodetypes="ccaaaaaaaaaaaaaaaaaaaaaaaaaaaaaaaaaaaaaaaaaaaaaaaaaaaaaaaaaaaaaaaaaac"
       style="fill:none;fill-opacity:1;fill-rule:evenodd;stroke:#000000;stroke-width:0.26499999;stroke-linecap:square;stroke-linejoin:round;stroke-miterlimit:4;stroke-dasharray:none;stroke-dashoffset:0;stroke-opacity:1"
       id="path21720-5"
       stroke-miterlimit="10"
       d="m 9.6022323,-61.04325 c 1.2659417,-0.04228 2.2135747,0.106345 2.8073427,-1.005509 0.369199,-0.685553 0.585681,-1.443089 0.893756,-2.158198 0.435459,-1.010799 0.879122,-2.018415 1.349179,-3.013596 0.215574,-0.456402 0.436845,-0.910432 0.674427,-1.355774 0.213504,-0.400209 0.431368,-0.798929 0.674428,-1.181909 0.209639,-0.330321 0.425923,-0.658439 0.674753,-0.960339 0.20621,-0.25019 0.421726,-0.497736 0.674427,-0.70086 0.205568,-0.165238 0.42746,-0.321541 0.674753,-0.413235 0.213632,-0.07921 0.447344,-0.123716 0.674735,-0.109333 0.234041,0.0148 0.464848,0.09457 0.674753,0.199138 0.250383,0.124731 0.469297,0.309206 0.674427,0.499393 0.252056,0.233695 0.467372,0.505676 0.674444,0.780024 0.247178,0.327484 0.463954,0.677461 0.67473,1.029478 0.241395,0.403153 0.459775,0.819889 0.674427,1.237894 0.236237,0.46004 0.456468,0.928212 0.67475,1.397037 0.92773,1.992572 1.744723,4.03617 2.698038,6.016628 0.213111,0.442725 0.435856,0.881188 0.675057,1.310379 0.212346,0.381007 0.429433,0.760461 0.674123,1.121548 0.2086,0.30783 0.424611,0.613258 0.675057,0.888122 0.205568,0.22561 0.421899,0.447905 0.674433,0.619324 0.206651,0.140274 0.432059,0.266752 0.674733,0.325833 0.218519,0.0532 0.453508,0.06076 0.674447,0.01872 0.240159,-0.04569 0.467118,-0.158578 0.674425,-0.288146 0.252248,-0.157656 0.469362,-0.368838 0.674755,-0.584008 0.250932,-0.262877 0.466342,-0.558671 0.674411,-0.856628 0.245465,-0.351509 0.462808,-0.722314 0.674748,-1.094997 0.239788,-0.421652 0.461148,-0.853815 0.674432,-1.289474 0.475777,-0.971835 0.905628,-1.965523 1.349181,-2.952482 0.456203,-1.015106 0.884812,-2.042584 1.349503,-3.053833 0.217889,-0.474165 0.438828,-0.947151 0.674425,-1.412771 0.21518,-0.425269 0.433993,-0.849273 0.674756,-1.260599 0.21121,-0.360837 0.428021,-0.719791 0.67441,-1.057585 0.207544,-0.284538 0.423034,-0.56672 0.674748,-0.813046 0.205165,-0.200773 0.423142,-0.396738 0.674432,-0.535503 0.208599,-0.115191 0.437747,-0.209376 0.674425,-0.237056 0.224637,-0.02627 0.459177,0.0028 0.674756,0.07122 0.245426,0.07786 0.468545,0.221962 0.674425,0.37659 0.252746,0.189827 0.46882,0.426485 0.674748,0.666295 0.249501,0.290552 0.465247,0.609351 0.674432,0.930151 0.24383,0.37393 0.461934,0.764383 0.675057,1.156627 0.238338,0.438651 0.459527,0.886611 0.674432,1.337206 0.4717,0.989023 0.901321,1.997575 1.349181,2.99762 0.451611,1.008421 0.880747,2.02707 1.34918,3.027788 0.216243,0.461962 0.437429,0.921898 0.67441,1.373572 0.214074,0.408014 0.432361,0.814562 0.674763,1.206409 0.210069,0.339579 0.426359,0.677119 0.674433,0.990012 0.206522,0.260483 0.42194,0.518397 0.674424,0.734625 0.205353,0.175865 0.42591,0.344379 0.674741,0.450119 0.211794,0.09 0.444312,0.149721 0.674425,0.147524 0.231345,-0.0022 0.463646,-0.06731 0.675079,-0.16123 0.249206,-0.110701 0.469205,-0.283444 0.674425,-0.463007 0.252481,-0.220915 0.46804,-0.482531 0.674756,-0.746763 0.247876,-0.316844 0.464107,-0.657895 0.67441,-1.000832 0.24205,-0.394707 0.460579,-0.803644 0.674748,-1.214148 0.236866,-0.454007 0.455283,-0.917467 0.674447,-1.380279 1.154193,-2.437324 2.125376,-4.962863 3.372771,-7.353828 0.205285,-0.393483 0.430972,-0.776956 0.675057,-1.147622 0.209024,-0.317423 0.424754,-0.632789 0.674447,-0.919323 0.205755,-0.236113 0.421724,-0.469143 0.674425,-0.654148 0.206099,-0.150887 0.429924,-0.29037 0.674756,-0.363179 0.21625,-0.06431 0.450879,-0.08747 0.674424,-0.05702 0.237686,0.03238 0.466451,0.131235 0.674741,0.250225 0.251637,0.143753 0.469198,0.344041 0.674425,0.548657 0.251472,0.250723 0.467076,0.536339 0.674748,0.824388 0.246175,0.341455 0.46305,0.703632 0.674433,1.067653 0.240415,0.414017 0.461818,0.839122 0.674424,1.268084 0.477525,0.963472 0.922194,1.94336 1.34918,2.93027 0.296006,0.68417 0.840246,2.072524 0.840246,2.072524"
       inkscape:connector-curvature="0"
       mask="none" />
    <rect
       style="opacity:0.97000002;fill:url(#linearGradient5492-7);fill-opacity:1;fill-rule:nonzero;stroke:#000000;stroke-width:0.26500002;stroke-linecap:round;stroke-linejoin:round;stroke-miterlimit:4;stroke-dasharray:none;stroke-dashoffset:0;stroke-opacity:1;paint-order:stroke fill markers"
       id="rect56606-9"
       width="55.723763"
       height="16.934496"
       x="11.283821"
       y="-52.025303" />
    <path
       sodipodi:nodetypes="ccaaaaaaaaaaaaaaaaaaaaaaaaaaaaaaaaaaaaaaaaaaaaaaaaaaaaaaaaaaaaaaaaaac"
       style="fill:none;fill-opacity:1;fill-rule:evenodd;stroke:#000000;stroke-width:0.26499999;stroke-linecap:square;stroke-linejoin:round;stroke-miterlimit:4;stroke-dasharray:none;stroke-dashoffset:0;stroke-opacity:1"
       id="path21720-5-8"
       stroke-miterlimit="10"
       d="m 13.306401,-40.139583 c 1.265943,-0.04228 2.213576,0.106345 2.807344,-1.005509 0.369199,-0.685553 0.585681,-1.443088 0.893756,-2.158197 0.435459,-1.0108 0.879122,-2.018416 1.349179,-3.013597 0.215574,-0.456402 0.436845,-0.910432 0.674427,-1.355774 0.213504,-0.400209 0.431368,-0.798929 0.674428,-1.181909 0.209639,-0.330321 0.425923,-0.658439 0.674753,-0.960339 0.20621,-0.25019 0.421726,-0.497736 0.674427,-0.70086 0.205568,-0.165238 0.42746,-0.321541 0.674753,-0.413235 0.213632,-0.07921 0.447344,-0.123716 0.674735,-0.109333 0.234041,0.0148 0.464848,0.09457 0.674753,0.199138 0.250383,0.124731 0.469297,0.309206 0.674427,0.499393 0.252056,0.233695 0.467372,0.505676 0.674444,0.780024 0.247178,0.327484 0.463954,0.677461 0.67473,1.029478 0.241395,0.403154 0.459775,0.819889 0.674427,1.237894 0.236237,0.46004 0.456468,0.928212 0.67475,1.397037 0.92773,1.992572 1.744723,4.03617 2.698038,6.016629 0.213111,0.442724 0.435856,0.881187 0.675057,1.310378 0.212346,0.381008 0.429433,0.760462 0.674123,1.121549 0.2086,0.30783 0.424611,0.613257 0.675057,0.888122 0.205568,0.22561 0.421899,0.447905 0.674433,0.619324 0.206651,0.140273 0.432059,0.266751 0.674733,0.325832 0.218519,0.0532 0.453508,0.06076 0.674447,0.01872 0.240159,-0.04569 0.467118,-0.158578 0.674425,-0.288146 0.252248,-0.157656 0.469362,-0.368838 0.674755,-0.584008 0.250932,-0.262877 0.466342,-0.558671 0.674411,-0.856628 0.245465,-0.351509 0.462808,-0.722314 0.674748,-1.094997 0.239788,-0.421652 0.461148,-0.853815 0.674432,-1.289474 0.475777,-0.971835 0.905628,-1.965523 1.349181,-2.952482 0.456203,-1.015106 0.884812,-2.042584 1.349503,-3.053833 0.217889,-0.474165 0.438827,-0.947151 0.674425,-1.412771 0.215181,-0.425269 0.433994,-0.849273 0.674757,-1.260599 0.211209,-0.360837 0.428019,-0.719791 0.674409,-1.057585 0.207545,-0.284538 0.423035,-0.56672 0.674749,-0.813046 0.205163,-0.200773 0.42314,-0.396738 0.674431,-0.535503 0.2086,-0.115191 0.437747,-0.209376 0.674425,-0.237056 0.224637,-0.02627 0.459177,0.0028 0.674757,0.07122 0.245424,0.07786 0.468545,0.221962 0.674425,0.37659 0.252746,0.189827 0.468818,0.426485 0.674746,0.666295 0.249502,0.290552 0.465248,0.609351 0.674433,0.93015 0.24383,0.373931 0.461934,0.764384 0.675058,1.156628 0.238337,0.438651 0.459526,0.886611 0.674431,1.337206 0.471699,0.989023 0.901322,1.997575 1.349182,2.99762 0.451609,1.008421 0.880745,2.02707 1.349179,3.027788 0.216244,0.461962 0.437428,0.921898 0.67441,1.373572 0.214074,0.408014 0.432361,0.814562 0.674764,1.206409 0.210069,0.339579 0.426358,0.677119 0.674431,0.990012 0.206523,0.260483 0.421942,0.518397 0.674425,0.734625 0.205354,0.175865 0.425911,0.344379 0.674741,0.450119 0.211794,0.09 0.444312,0.149721 0.674425,0.147524 0.231344,-0.0022 0.463646,-0.06731 0.67508,-0.16123 0.249205,-0.110701 0.469204,-0.283444 0.674425,-0.463007 0.252481,-0.220915 0.46804,-0.482531 0.674756,-0.746763 0.247875,-0.316844 0.464106,-0.657895 0.67441,-1.000832 0.242049,-0.394707 0.460579,-0.803644 0.674746,-1.214148 0.236868,-0.454007 0.455284,-0.917467 0.674449,-1.380279 1.154192,-2.437324 2.125374,-4.962863 3.372771,-7.353828 0.205285,-0.393483 0.430972,-0.776956 0.675055,-1.147622 0.209026,-0.317423 0.424754,-0.632789 0.674447,-0.919323 0.205756,-0.236113 0.421725,-0.469143 0.674425,-0.654148 0.2061,-0.150887 0.429925,-0.29037 0.674757,-0.363179 0.216249,-0.06431 0.450879,-0.08747 0.674425,-0.05702 0.237686,0.03238 0.46645,0.131235 0.674741,0.250225 0.251637,0.143753 0.469196,0.344041 0.674425,0.548657 0.251471,0.250723 0.467075,0.536339 0.674746,0.824388 0.246176,0.341454 0.46305,0.703632 0.674433,1.067653 0.240417,0.414016 0.46182,0.839121 0.674426,1.268084 0.477525,0.963472 0.922192,1.94336 1.349179,2.93027 0.296006,0.68417 0.840245,2.072524 0.840245,2.072524"
       inkscape:connector-curvature="0"
       mask="none" />
    <rect
       style="opacity:0.97000002;fill:url(#linearGradient5492-7-5);fill-opacity:1;fill-rule:nonzero;stroke:#000000;stroke-width:0.26500002;stroke-linecap:round;stroke-linejoin:round;stroke-miterlimit:4;stroke-dasharray:none;stroke-dashoffset:0;stroke-opacity:1;paint-order:stroke fill markers"
       id="rect56606-9-8"
       width="55.723763"
       height="16.934496"
       x="11.283821"
       y="-29.004967" />
    <path
       sodipodi:nodetypes="ccaaaaaaaaaaaaaaaaaaaaaaaaaaaaaaaaaaaaaaaaaaaaaaaaaaaaaaaaaaaaaaaaaac"
       style="fill:none;fill-opacity:1;fill-rule:evenodd;stroke:#000000;stroke-width:0.26499999;stroke-linecap:square;stroke-linejoin:round;stroke-miterlimit:4;stroke-dasharray:none;stroke-dashoffset:0;stroke-opacity:1"
       id="path21720-5-8-5"
       stroke-miterlimit="10"
       d="m 13.306401,-17.119251 c 1.265943,-0.04228 2.213576,0.106345 2.807344,-1.005509 0.369199,-0.685553 0.585681,-1.443088 0.893756,-2.158197 0.435459,-1.0108 0.879122,-2.018416 1.349179,-3.013597 0.215574,-0.456402 0.436845,-0.910432 0.674427,-1.355774 0.213504,-0.400209 0.431368,-0.798929 0.674428,-1.181909 0.209639,-0.330321 0.425923,-0.658439 0.674753,-0.960339 0.20621,-0.25019 0.421726,-0.497736 0.674427,-0.70086 0.205568,-0.165238 0.42746,-0.321541 0.674753,-0.413235 0.213632,-0.07921 0.447344,-0.123716 0.674735,-0.109333 0.234041,0.0148 0.464848,0.09457 0.674753,0.199138 0.250383,0.124731 0.469297,0.309206 0.674427,0.499393 0.252056,0.233695 0.467372,0.505676 0.674444,0.780024 0.247178,0.327484 0.463954,0.677461 0.67473,1.029478 0.241395,0.403154 0.459775,0.819889 0.674427,1.237894 0.236237,0.46004 0.456468,0.928212 0.67475,1.397037 0.92773,1.992572 1.744723,4.03617 2.698038,6.016629 0.213111,0.442724 0.435856,0.881187 0.675057,1.310378 0.212346,0.381008 0.429433,0.760462 0.674123,1.121549 0.2086,0.30783 0.424611,0.613257 0.675057,0.888122 0.205568,0.22561 0.421899,0.447905 0.674433,0.619324 0.206651,0.140273 0.432059,0.266751 0.674733,0.325832 0.218519,0.0532 0.453508,0.06076 0.674447,0.01872 0.240159,-0.04569 0.467118,-0.158578 0.674425,-0.288146 0.252248,-0.157656 0.469362,-0.368838 0.674755,-0.584008 0.250932,-0.262877 0.466342,-0.558671 0.674411,-0.856628 0.245465,-0.351509 0.462808,-0.722314 0.674748,-1.094997 0.239788,-0.421652 0.461148,-0.853815 0.674432,-1.289474 0.475777,-0.971835 0.905628,-1.965523 1.349181,-2.952482 0.456203,-1.015106 0.884812,-2.042584 1.349502,-3.053833 0.21789,-0.474165 0.438827,-0.947151 0.674426,-1.412771 0.21518,-0.425269 0.433993,-0.849273 0.674758,-1.260599 0.211209,-0.360837 0.428017,-0.719791 0.674408,-1.057585 0.207544,-0.284538 0.423034,-0.56672 0.674748,-0.813046 0.205163,-0.200773 0.42314,-0.396738 0.674433,-0.535503 0.208601,-0.115191 0.437746,-0.209376 0.674423,-0.237056 0.224639,-0.02627 0.459179,0.0028 0.674759,0.07122 0.245422,0.07786 0.468543,0.221962 0.674423,0.37659 0.252746,0.189827 0.468818,0.426485 0.674749,0.666295 0.249499,0.290552 0.465245,0.609351 0.67443,0.93015 0.243832,0.373931 0.461936,0.764384 0.675058,1.156628 0.238337,0.438651 0.459526,0.886611 0.674431,1.337206 0.471699,0.989023 0.901324,1.997575 1.349182,2.99762 0.451609,1.008421 0.880745,2.02707 1.349179,3.027788 0.216244,0.461962 0.437431,0.921898 0.674413,1.373572 0.214071,0.408014 0.43236,0.814562 0.674761,1.206409 0.210071,0.339579 0.42636,0.677119 0.674434,0.990012 0.20652,0.260483 0.421941,0.518397 0.674423,0.734625 0.205353,0.175865 0.425913,0.344379 0.674743,0.450119 0.211793,0.09 0.444309,0.149721 0.674423,0.147524 0.231343,-0.0022 0.463647,-0.06731 0.675081,-0.16123 0.249203,-0.110701 0.469204,-0.283444 0.674423,-0.463007 0.252481,-0.220915 0.46804,-0.482531 0.674756,-0.746763 0.247875,-0.316844 0.464106,-0.657895 0.67441,-1.000832 0.242052,-0.394707 0.460582,-0.803644 0.674748,-1.214148 0.236866,-0.454007 0.455282,-0.917467 0.674447,-1.380279 1.154192,-2.437324 2.125374,-4.962863 3.372774,-7.353828 0.205285,-0.393483 0.430971,-0.776956 0.675052,-1.147622 0.209026,-0.317423 0.424754,-0.632789 0.67445,-0.919323 0.205755,-0.236113 0.421724,-0.469143 0.674423,-0.654148 0.206099,-0.150887 0.429926,-0.29037 0.674758,-0.363179 0.21625,-0.06431 0.45088,-0.08747 0.674423,-0.05702 0.237686,0.03238 0.46645,0.131235 0.674743,0.250225 0.251638,0.143753 0.469197,0.344041 0.674423,0.548657 0.251474,0.250723 0.467077,0.536339 0.674749,0.824388 0.246173,0.341454 0.46305,0.703632 0.674431,1.067653 0.240419,0.414016 0.461819,0.839121 0.674428,1.268084 0.477522,0.963472 0.922192,1.94336 1.349176,2.93027 0.296008,0.68417 0.840246,2.072524 0.840246,2.072524"
       inkscape:connector-curvature="0"
       mask="none" />
  </g>
</svg>
