<?xml version="1.0" encoding="UTF-8" standalone="no"?>
<!-- Created with Inkscape (http://www.inkscape.org/) -->

<svg
   xmlns:dc="http://purl.org/dc/elements/1.1/"
   xmlns:cc="http://creativecommons.org/ns#"
   xmlns:rdf="http://www.w3.org/1999/02/22-rdf-syntax-ns#"
   xmlns:svg="http://www.w3.org/2000/svg"
   xmlns="http://www.w3.org/2000/svg"
   xmlns:xlink="http://www.w3.org/1999/xlink"
   xmlns:sodipodi="http://sodipodi.sourceforge.net/DTD/sodipodi-0.dtd"
   xmlns:inkscape="http://www.inkscape.org/namespaces/inkscape"
   width="8.4777956cm"
   height="7.9556499cm"
   viewBox="0 0 84.777956 79.556497"
   version="1.1"
   id="svg40814"
   inkscape:version="0.92.5 (2060ec1f9f, 2020-04-08)"
   sodipodi:docname="AE current toy model linear gradient for talk.svg"
   inkscape:export-filename="C:\Users\Dublin\Box\Minot Group Documents\Dublin\Documents\Dissertation\Figures\AE current toy model linear gradient.png"
   inkscape:export-xdpi="600"
   inkscape:export-ydpi="600">
  <defs
     id="defs40808">
    <marker
       inkscape:stockid="TriangleInM"
       orient="auto"
       refY="0.0"
       refX="0.0"
       id="marker5480"
       style="overflow:visible"
       inkscape:isstock="true">
      <path
         id="path5478"
         d="M 5.77,0.0 L -2.88,5.0 L -2.88,-5.0 L 5.77,0.0 z "
         style="fill-rule:evenodd;stroke:#000000;stroke-width:1pt;stroke-opacity:1;fill:#000000;fill-opacity:1"
         transform="scale(-0.4)" />
    </marker>
    <marker
       inkscape:stockid="TriangleInM"
       orient="auto"
       refY="0.0"
       refX="0.0"
       id="marker5468"
       style="overflow:visible"
       inkscape:isstock="true">
      <path
         id="path5466"
         d="M 5.77,0.0 L -2.88,5.0 L -2.88,-5.0 L 5.77,0.0 z "
         style="fill-rule:evenodd;stroke:#000000;stroke-width:1pt;stroke-opacity:1;fill:#000000;fill-opacity:1"
         transform="scale(-0.4)" />
    </marker>
    <marker
       inkscape:stockid="TriangleInM"
       orient="auto"
       refY="0.0"
       refX="0.0"
       id="marker5244"
       style="overflow:visible"
       inkscape:isstock="true">
      <path
         id="path5242"
         d="M 5.77,0.0 L -2.88,5.0 L -2.88,-5.0 L 5.77,0.0 z "
         style="fill-rule:evenodd;stroke:#000000;stroke-width:1pt;stroke-opacity:1;fill:#000000;fill-opacity:1"
         transform="scale(-0.4)" />
    </marker>
    <marker
       inkscape:isstock="true"
       style="overflow:visible"
       id="marker5072"
       refX="0.0"
       refY="0.0"
       orient="auto"
       inkscape:stockid="TriangleInM"
       inkscape:collect="always">
      <path
         transform="scale(-0.4)"
         style="fill-rule:evenodd;stroke:#000000;stroke-width:1pt;stroke-opacity:1;fill:#000000;fill-opacity:1"
         d="M 5.77,0.0 L -2.88,5.0 L -2.88,-5.0 L 5.77,0.0 z "
         id="path5070" />
    </marker>
    <marker
       inkscape:isstock="true"
       style="overflow:visible"
       id="marker4992"
       refX="0.0"
       refY="0.0"
       orient="auto"
       inkscape:stockid="TriangleInM"
       inkscape:collect="always">
      <path
         transform="scale(-0.4)"
         style="fill-rule:evenodd;stroke:#000000;stroke-width:1pt;stroke-opacity:1;fill:#000000;fill-opacity:1"
         d="M 5.77,0.0 L -2.88,5.0 L -2.88,-5.0 L 5.77,0.0 z "
         id="path4990" />
    </marker>
    <marker
       inkscape:stockid="TriangleInM"
       orient="auto"
       refY="0.0"
       refX="0.0"
       id="TriangleInM"
       style="overflow:visible"
       inkscape:isstock="true"
       inkscape:collect="always">
      <path
         id="path4860"
         d="M 5.77,0.0 L -2.88,5.0 L -2.88,-5.0 L 5.77,0.0 z "
         style="fill-rule:evenodd;stroke:#000000;stroke-width:1pt;stroke-opacity:1;fill:#000000;fill-opacity:1"
         transform="scale(-0.4)" />
    </marker>
    <marker
       inkscape:isstock="true"
       style="overflow:visible"
       id="marker4694"
       refX="0"
       refY="0"
       orient="auto"
       inkscape:stockid="TriangleInS">
      <path
         transform="scale(-0.2)"
         style="fill:#ffffff;fill-opacity:1;fill-rule:evenodd;stroke:#ffffff;stroke-width:1.00000003pt;stroke-opacity:1"
         d="M 5.77,0 -2.88,5 V -5 Z"
         id="path4692"
         inkscape:connector-curvature="0" />
    </marker>
    <marker
       inkscape:isstock="true"
       style="overflow:visible"
       id="marker4682"
       refX="0"
       refY="0"
       orient="auto"
       inkscape:stockid="TriangleInS">
      <path
         transform="scale(-0.2)"
         style="fill:#ffffff;fill-opacity:1;fill-rule:evenodd;stroke:#ffffff;stroke-width:1.00000003pt;stroke-opacity:1"
         d="M 5.77,0 -2.88,5 V -5 Z"
         id="path4680"
         inkscape:connector-curvature="0" />
    </marker>
    <marker
       inkscape:isstock="true"
       style="overflow:visible"
       id="marker4670"
       refX="0"
       refY="0"
       orient="auto"
       inkscape:stockid="TriangleInS">
      <path
         transform="scale(-0.2)"
         style="fill:#ffffff;fill-opacity:1;fill-rule:evenodd;stroke:#ffffff;stroke-width:1.00000003pt;stroke-opacity:1"
         d="M 5.77,0 -2.88,5 V -5 Z"
         id="path4668"
         inkscape:connector-curvature="0" />
    </marker>
    <marker
       inkscape:isstock="true"
       style="overflow:visible"
       id="marker951"
       refX="0"
       refY="0"
       orient="auto"
       inkscape:stockid="TriangleInS">
      <path
         transform="scale(-0.2)"
         style="fill:#ffffff;fill-opacity:1;fill-rule:evenodd;stroke:#ffffff;stroke-width:1.00000003pt;stroke-opacity:1"
         d="M 5.77,0 -2.88,5 V -5 Z"
         id="path949"
         inkscape:connector-curvature="0" />
    </marker>
    <marker
       inkscape:isstock="true"
       style="overflow:visible"
       id="marker947"
       refX="0"
       refY="0"
       orient="auto"
       inkscape:stockid="TriangleInS">
      <path
         transform="scale(-0.2)"
         style="fill:#ffffff;fill-opacity:1;fill-rule:evenodd;stroke:#ffffff;stroke-width:1.00000003pt;stroke-opacity:1"
         d="M 5.77,0 -2.88,5 V -5 Z"
         id="path945"
         inkscape:connector-curvature="0" />
    </marker>
    <marker
       inkscape:isstock="true"
       style="overflow:visible"
       id="marker943"
       refX="0"
       refY="0"
       orient="auto"
       inkscape:stockid="TriangleInS">
      <path
         inkscape:connector-curvature="0"
         transform="scale(-0.2)"
         style="fill:#ffffff;fill-opacity:1;fill-rule:evenodd;stroke:#ffffff;stroke-width:1.00000003pt;stroke-opacity:1"
         d="M 5.77,0 -2.88,5 V -5 Z"
         id="path941" />
    </marker>
    <marker
       inkscape:isstock="true"
       style="overflow:visible"
       id="marker7280"
       refX="0"
       refY="0"
       orient="auto"
       inkscape:stockid="StopM">
      <path
         inkscape:connector-curvature="0"
         transform="scale(0.4)"
         style="fill:none;fill-opacity:0.75;fill-rule:evenodd;stroke:#000000;stroke-width:1.00000003pt;stroke-opacity:1"
         d="M 0,5.65 V -5.65"
         id="path7278" />
    </marker>
    <marker
       inkscape:isstock="true"
       style="overflow:visible"
       id="marker7114"
       refX="0"
       refY="0"
       orient="auto"
       inkscape:stockid="StopM">
      <path
         inkscape:connector-curvature="0"
         transform="scale(0.4)"
         style="fill:none;fill-opacity:0.75;fill-rule:evenodd;stroke:#000000;stroke-width:1.00000003pt;stroke-opacity:1"
         d="M 0,5.65 V -5.65"
         id="path7112" />
    </marker>
    <marker
       inkscape:isstock="true"
       style="overflow:visible"
       id="marker6877"
       refX="0"
       refY="0"
       orient="auto"
       inkscape:stockid="StopM">
      <path
         inkscape:connector-curvature="0"
         transform="scale(0.4)"
         style="fill:none;fill-opacity:0.75;fill-rule:evenodd;stroke:#000000;stroke-width:1.00000003pt;stroke-opacity:1"
         d="M 0,5.65 V -5.65"
         id="path6875" />
    </marker>
    <marker
       inkscape:isstock="true"
       style="overflow:visible"
       id="marker6723"
       refX="0"
       refY="0"
       orient="auto"
       inkscape:stockid="StopM">
      <path
         inkscape:connector-curvature="0"
         transform="scale(0.4)"
         style="fill:none;fill-opacity:0.75;fill-rule:evenodd;stroke:#000000;stroke-width:1.00000003pt;stroke-opacity:1"
         d="M 0,5.65 V -5.65"
         id="path6721" />
    </marker>
    <marker
       inkscape:isstock="true"
       style="overflow:visible"
       id="marker6569"
       refX="0"
       refY="0"
       orient="auto"
       inkscape:stockid="TriangleInS">
      <path
         transform="scale(-0.2)"
         style="fill:#ffffff;fill-opacity:1;fill-rule:evenodd;stroke:#ffffff;stroke-width:1.00000003pt;stroke-opacity:1"
         d="M 5.77,0 -2.88,5 V -5 Z"
         id="path6567"
         inkscape:connector-curvature="0" />
    </marker>
    <marker
       inkscape:isstock="true"
       style="overflow:visible"
       id="marker6421"
       refX="0"
       refY="0"
       orient="auto"
       inkscape:stockid="TriangleInS">
      <path
         transform="scale(-0.2)"
         style="fill:#ffffff;fill-opacity:1;fill-rule:evenodd;stroke:#ffffff;stroke-width:1.00000003pt;stroke-opacity:1"
         d="M 5.77,0 -2.88,5 V -5 Z"
         id="path6419"
         inkscape:connector-curvature="0" />
    </marker>
    <marker
       inkscape:isstock="true"
       style="overflow:visible"
       id="marker6279"
       refX="0"
       refY="0"
       orient="auto"
       inkscape:stockid="TriangleInS">
      <path
         transform="scale(-0.2)"
         style="fill:#ffffff;fill-opacity:1;fill-rule:evenodd;stroke:#ffffff;stroke-width:1.00000003pt;stroke-opacity:1"
         d="M 5.77,0 -2.88,5 V -5 Z"
         id="path6277"
         inkscape:connector-curvature="0" />
    </marker>
    <marker
       inkscape:isstock="true"
       style="overflow:visible"
       id="marker6143"
       refX="0"
       refY="0"
       orient="auto"
       inkscape:stockid="TriangleInS">
      <path
         transform="scale(-0.2)"
         style="fill:#ffffff;fill-opacity:1;fill-rule:evenodd;stroke:#ffffff;stroke-width:1.00000003pt;stroke-opacity:1"
         d="M 5.77,0 -2.88,5 V -5 Z"
         id="path6141"
         inkscape:connector-curvature="0" />
    </marker>
    <marker
       inkscape:isstock="true"
       style="overflow:visible"
       id="marker6013"
       refX="0"
       refY="0"
       orient="auto"
       inkscape:stockid="TriangleInS">
      <path
         transform="scale(-0.2)"
         style="fill:#ffffff;fill-opacity:1;fill-rule:evenodd;stroke:#ffffff;stroke-width:1.00000003pt;stroke-opacity:1"
         d="M 5.77,0 -2.88,5 V -5 Z"
         id="path6011"
         inkscape:connector-curvature="0" />
    </marker>
    <marker
       inkscape:isstock="true"
       style="overflow:visible"
       id="marker5889"
       refX="0"
       refY="0"
       orient="auto"
       inkscape:stockid="TriangleInS">
      <path
         inkscape:connector-curvature="0"
         transform="scale(-0.2)"
         style="fill:#ffffff;fill-opacity:1;fill-rule:evenodd;stroke:#ffffff;stroke-width:1.00000003pt;stroke-opacity:1"
         d="M 5.77,0 -2.88,5 V -5 Z"
         id="path5887" />
    </marker>
    <linearGradient
       id="linearGradient5506"
       inkscape:collect="always">
      <stop
         id="stop5502"
         offset="0"
         style="stop-color:#0000ff;stop-opacity:0.75320513" />
      <stop
         style="stop-color:#a4a4ff;stop-opacity:1"
         offset="0.13620599"
         id="stop5508" />
      <stop
         id="stop5510"
         offset="0.32386211"
         style="stop-color:#0000ff;stop-opacity:0.75320513" />
      <stop
         style="stop-color:#a4a4ff;stop-opacity:1"
         offset="0.51459455"
         id="stop5512" />
      <stop
         id="stop5514"
         offset="0.69917434"
         style="stop-color:#0000ff;stop-opacity:0.75320513" />
      <stop
         style="stop-color:#a4a4ff;stop-opacity:1"
         offset="0.89195764"
         id="stop5516" />
      <stop
         id="stop5504"
         offset="1"
         style="stop-color:#0000ff;stop-opacity:0.75320513" />
    </linearGradient>
    <marker
       inkscape:stockid="TriangleOutS"
       orient="auto"
       refY="0"
       refX="0"
       id="TriangleOutS"
       style="overflow:visible"
       inkscape:isstock="true">
      <path
         id="path4334"
         d="M 5.77,0 -2.88,5 V -5 Z"
         style="fill:#8f8f8f;fill-opacity:1;fill-rule:evenodd;stroke:#8f8f8f;stroke-width:1.00000003pt;stroke-opacity:1"
         transform="scale(0.2)"
         inkscape:connector-curvature="0" />
    </marker>
    <marker
       inkscape:stockid="StopM"
       orient="auto"
       refY="0"
       refX="0"
       id="marker70960"
       style="overflow:visible"
       inkscape:isstock="true"
       inkscape:collect="always">
      <path
         id="path70958"
         d="M 0,5.65 V -5.65"
         style="fill:none;fill-opacity:0.75;fill-rule:evenodd;stroke:#000000;stroke-width:1.00000003pt;stroke-opacity:1"
         transform="scale(0.4)"
         inkscape:connector-curvature="0" />
    </marker>
    <marker
       inkscape:stockid="StopM"
       orient="auto"
       refY="0"
       refX="0"
       id="StopM"
       style="overflow:visible"
       inkscape:isstock="true"
       inkscape:collect="always">
      <path
         id="path4358"
         d="M 0,5.65 V -5.65"
         style="fill:none;fill-opacity:0.75;fill-rule:evenodd;stroke:#000000;stroke-width:1.00000003pt;stroke-opacity:1"
         transform="scale(0.4)"
         inkscape:connector-curvature="0" />
    </marker>
    <linearGradient
       inkscape:collect="always"
       id="linearGradient70932">
      <stop
         style="stop-color:#0000ff;stop-opacity:1;"
         offset="0"
         id="stop70928" />
      <stop
         style="stop-color:#0000ff;stop-opacity:0;"
         offset="1"
         id="stop70930" />
    </linearGradient>
    <linearGradient
       inkscape:collect="always"
       xlink:href="#linearGradient70932"
       id="linearGradient70934"
       x1="45.97036"
       y1="47.771164"
       x2="45.97036"
       y2="19.975134"
       gradientUnits="userSpaceOnUse"
       gradientTransform="matrix(0.26841371,0,0,0.60086953,68.690734,102.26972)" />
    <marker
       inkscape:stockid="TriangleOutS"
       orient="auto"
       refY="0"
       refX="0"
       id="TriangleOutS-6"
       style="overflow:visible"
       inkscape:isstock="true">
      <path
         inkscape:connector-curvature="0"
         id="path4334-4"
         d="M 5.77,0 -2.88,5 V -5 Z"
         style="fill:#000000;fill-opacity:1;fill-rule:evenodd;stroke:#000000;stroke-width:1.00000003pt;stroke-opacity:1"
         transform="scale(0.2)" />
    </marker>
    <marker
       inkscape:stockid="TriangleOutS"
       orient="auto"
       refY="0"
       refX="0"
       id="TriangleOutS-6-5"
       style="overflow:visible"
       inkscape:isstock="true">
      <path
         inkscape:connector-curvature="0"
         id="path4334-4-7"
         d="M 5.77,0 -2.88,5 V -5 Z"
         style="fill:#000000;fill-opacity:1;fill-rule:evenodd;stroke:#000000;stroke-width:1.00000003pt;stroke-opacity:1"
         transform="scale(0.2)" />
    </marker>
    <marker
       inkscape:stockid="TriangleInS"
       orient="auto"
       refY="0"
       refX="0"
       id="TriangleInS-0"
       style="overflow:visible"
       inkscape:isstock="true">
      <path
         inkscape:connector-curvature="0"
         id="path4325-2"
         d="M 5.77,0 -2.88,5 V -5 Z"
         style="fill:#000000;fill-opacity:0.23831775;fill-rule:evenodd;stroke:#000000;stroke-width:1.00000003pt;stroke-opacity:0.23831775"
         transform="scale(-0.2)" />
    </marker>
    <marker
       inkscape:stockid="TriangleInS"
       orient="auto"
       refY="0"
       refX="0"
       id="TriangleInS-8"
       style="overflow:visible"
       inkscape:isstock="true">
      <path
         inkscape:connector-curvature="0"
         id="path4325-0"
         d="M 5.77,0 -2.88,5 V -5 Z"
         style="fill:#000000;fill-opacity:0.23831775;fill-rule:evenodd;stroke:#000000;stroke-width:1.00000003pt;stroke-opacity:0.23831775"
         transform="scale(-0.2)" />
    </marker>
    <marker
       inkscape:stockid="TriangleInS"
       orient="auto"
       refY="0"
       refX="0"
       id="TriangleInS-0-5"
       style="overflow:visible"
       inkscape:isstock="true">
      <path
         inkscape:connector-curvature="0"
         id="path4325-2-6"
         d="M 5.77,0 -2.88,5 V -5 Z"
         style="fill:#8f8f8f;fill-opacity:1;fill-rule:evenodd;stroke:#8f8f8f;stroke-width:1.00000003pt;stroke-opacity:1"
         transform="scale(-0.2)" />
    </marker>
    <marker
       inkscape:stockid="TriangleInS"
       orient="auto"
       refY="0"
       refX="0"
       id="TriangleInS-0-5-2"
       style="overflow:visible"
       inkscape:isstock="true">
      <path
         inkscape:connector-curvature="0"
         id="path4325-2-6-9"
         d="M 5.77,0 -2.88,5 V -5 Z"
         style="fill:#8f8f8f;fill-opacity:1;fill-rule:evenodd;stroke:#8f8f8f;stroke-width:1.00000003pt;stroke-opacity:1"
         transform="scale(-0.2)" />
    </marker>
    <marker
       inkscape:stockid="TriangleInS"
       orient="auto"
       refY="0"
       refX="0"
       id="TriangleInS-9"
       style="overflow:visible"
       inkscape:isstock="true">
      <path
         inkscape:connector-curvature="0"
         id="path4325-5"
         d="M 5.77,0 -2.88,5 V -5 Z"
         style="fill:#8f8f8f;fill-opacity:1;fill-rule:evenodd;stroke:#8f8f8f;stroke-width:1.00000003pt;stroke-opacity:1"
         transform="scale(-0.2)" />
    </marker>
    <marker
       inkscape:stockid="TriangleInS"
       orient="auto"
       refY="0"
       refX="0"
       id="TriangleInS-5"
       style="overflow:visible"
       inkscape:isstock="true">
      <path
         inkscape:connector-curvature="0"
         id="path4325-55"
         d="M 5.77,0 -2.88,5 V -5 Z"
         style="fill:#8f8f8f;fill-opacity:1;fill-rule:evenodd;stroke:#8f8f8f;stroke-width:1.00000003pt;stroke-opacity:1"
         transform="scale(-0.2)" />
    </marker>
    <linearGradient
       inkscape:collect="always"
       xlink:href="#linearGradient5506"
       id="linearGradient5492"
       x1="8.3907032"
       y1="20.792671"
       x2="64.379463"
       y2="20.792671"
       gradientUnits="userSpaceOnUse"
       gradientTransform="translate(2.7606185,-89.557711)" />
    <linearGradient
       inkscape:collect="always"
       xlink:href="#linearGradient70932"
       id="linearGradient5885"
       gradientUnits="userSpaceOnUse"
       gradientTransform="matrix(0.26841371,0,0,0.60086953,68.407955,47.950494)"
       x1="45.97036"
       y1="47.771164"
       x2="45.97036"
       y2="19.975134" />
    <linearGradient
       inkscape:collect="always"
       xlink:href="#linearGradient70932"
       id="linearGradient7102"
       gradientUnits="userSpaceOnUse"
       gradientTransform="matrix(0.26841371,0,0,0.60086953,68.690734,75.231904)"
       x1="45.97036"
       y1="47.771164"
       x2="45.97036"
       y2="19.975134" />
  </defs>
  <sodipodi:namedview
     id="base"
     pagecolor="#ffffff"
     bordercolor="#666666"
     borderopacity="1.0"
     inkscape:pageopacity="0.0"
     inkscape:pageshadow="2"
     inkscape:zoom="3.2586298"
     inkscape:cx="215.19939"
     inkscape:cy="154.73803"
     inkscape:document-units="mm"
     inkscape:current-layer="layer1"
     showgrid="false"
     units="cm"
     showguides="true"
     inkscape:snap-bbox="true"
     inkscape:bbox-paths="true"
     inkscape:bbox-nodes="true"
     inkscape:snap-bbox-edge-midpoints="true"
     inkscape:snap-bbox-midpoints="true"
     inkscape:snap-global="false"
     inkscape:window-width="2560"
     inkscape:window-height="1377"
     inkscape:window-x="1912"
     inkscape:window-y="-8"
     inkscape:window-maximized="1"
     fit-margin-top="0.1"
     fit-margin-left="0.1"
     fit-margin-right="0.1"
     fit-margin-bottom="0.1" />
  <metadata
     id="metadata40811">
    <rdf:RDF>
      <cc:Work
         rdf:about="">
        <dc:format>image/svg+xml</dc:format>
        <dc:type
           rdf:resource="http://purl.org/dc/dcmitype/StillImage" />
        <dc:title></dc:title>
      </cc:Work>
    </rdf:RDF>
  </metadata>
  <g
     inkscape:label="Layer 1"
     inkscape:groupmode="layer"
     id="layer1"
     transform="translate(-2.6987476,134.06152)">
    <rect
       style="opacity:1;vector-effect:none;fill:#ffffff;fill-opacity:0.54509804;fill-rule:evenodd;stroke:none;stroke-width:0.26499999;stroke-linecap:butt;stroke-linejoin:miter;stroke-miterlimit:4;stroke-dasharray:none;stroke-dashoffset:0;stroke-opacity:1"
       id="rect7674"
       width="84.74202"
       height="24.228411"
       x="2.6987476"
       y="-133.85019" />
    <rect
       style="opacity:0.97000002;fill:url(#linearGradient5492);fill-opacity:1;fill-rule:nonzero;stroke:#000000;stroke-width:0.26500002;stroke-linecap:round;stroke-linejoin:round;stroke-miterlimit:4;stroke-dasharray:none;stroke-dashoffset:0;stroke-opacity:1;paint-order:stroke fill markers"
       id="rect56606"
       width="55.723763"
       height="16.934496"
       x="11.283821"
       y="-77.232285" />
    <text
       xml:space="preserve"
       style="font-style:normal;font-weight:normal;font-size:7.78107977px;line-height:1.25;font-family:sans-serif;letter-spacing:0px;word-spacing:0px;fill:#000000;fill-opacity:1;stroke:none;stroke-width:0.26458332"
       x="82.893806"
       y="-66.553131"
       id="text70766"><tspan
         sodipodi:role="line"
         id="tspan70764"
         x="82.893806"
         y="-66.553131"
         style="font-style:italic;font-variant:normal;font-weight:normal;font-stretch:normal;font-size:3.52777767px;font-family:'DejaVu Sans';-inkscape-font-specification:'DejaVu Sans';stroke-width:0.26458332">n<tspan
   id="tspan75123"
   style="font-size:2.2930553px;baseline-shift:sub;stroke-width:0.26458332">0</tspan></tspan></text>
    <rect
       style="opacity:0.97000002;fill:url(#linearGradient70934);fill-opacity:1;fill-rule:nonzero;stroke:#000000;stroke-width:0.26499999;stroke-linecap:round;stroke-linejoin:round;stroke-miterlimit:4;stroke-dasharray:none;stroke-dashoffset:0;stroke-opacity:1;paint-order:stroke fill markers"
       id="rect70926"
       width="2.2597723"
       height="16.862383"
       x="79.881989"
       y="114.27217"
       transform="scale(1,-1)" />
    <path
       style="fill:none;stroke:#000000;stroke-width:0.26500002;stroke-linecap:butt;stroke-linejoin:miter;stroke-miterlimit:4;stroke-dasharray:none;stroke-opacity:1;marker-start:url(#StopM);marker-end:url(#marker70960)"
       d="m 78.455517,-76.860192 v 16.981189"
       id="path70936"
       inkscape:connector-curvature="0" />
    <path
       style="fill:none;stroke:#000000;stroke-width:0.26499999;stroke-linecap:butt;stroke-linejoin:miter;stroke-miterlimit:4;stroke-dasharray:none;stroke-dashoffset:0;stroke-opacity:0.61214953"
       d="m 79.875995,-67.450784 h 2.835953"
       id="path71616"
       inkscape:connector-curvature="0" />
    <text
       xml:space="preserve"
       style="font-style:normal;font-weight:normal;font-size:7.78107977px;line-height:1.25;font-family:sans-serif;letter-spacing:0px;word-spacing:0px;fill:#000000;fill-opacity:1;stroke:none;stroke-width:0.26458332"
       x="72.735725"
       y="-66.462585"
       id="text70766-0"><tspan
         sodipodi:role="line"
         id="tspan70764-4"
         x="72.735725"
         y="-66.462585"
         style="font-style:italic;font-variant:normal;font-weight:normal;font-stretch:normal;font-size:3.52777767px;font-family:'DejaVu Sans';-inkscape-font-specification:'DejaVu Sans';stroke-width:0.26458332">∆n</tspan></text>
    <text
       style="font-style:normal;font-variant:normal;font-weight:normal;font-stretch:normal;font-size:2.41979909px;font-family:'DejaVu Sans';-inkscape-font-specification:'DejaVu Sans';stroke-width:0.30000001;stroke-miterlimit:8;stroke-dasharray:none"
       font-weight="400"
       font-size="24"
       id="text4570"
       x="3.5259442"
       y="-65.238297"
       transform="scale(1.0006144,0.99938598)">
      <tspan
         id="tspan75109"
         style="font-size:3.52777767px;stroke-width:0.30000001">𝜙</tspan>
      <tspan
         style="font-size:1.57286942px;baseline-shift:sub;stroke-width:0.30000001"
         id="tspan75121">SAW</tspan>
    </text>
    <text
       style="font-style:normal;font-variant:normal;font-weight:normal;font-stretch:normal;font-size:1.81484938px;font-family:'DejaVu Sans';-inkscape-font-specification:'DejaVu Sans';stroke-width:0.30000001;stroke-miterlimit:8;stroke-dasharray:none"
       font-weight="400"
       font-size="18"
       id="text4572"
       x="2.2333243"
       y="24.19989"
       transform="scale(1.0006144,0.99938598)" />
    <path
       sodipodi:nodetypes="ccaaaaaaaaaaaaaaaaaaaaaaaaaaaaaaaaaaaaaaaaaaaaaaaaaaaaaaaaaaaaaaaaaac"
       style="fill:none;fill-opacity:1;fill-rule:evenodd;stroke:#000000;stroke-width:0.26499999;stroke-linecap:square;stroke-linejoin:round;stroke-miterlimit:4;stroke-dasharray:none;stroke-dashoffset:0;stroke-opacity:1"
       id="path21720-5"
       stroke-miterlimit="10"
       d="m 9.6022323,-65.346567 c 1.2659417,-0.04228 2.2135747,0.106345 2.8073427,-1.005509 0.369199,-0.685553 0.585681,-1.443089 0.893756,-2.158198 0.435459,-1.010799 0.879122,-2.018415 1.349179,-3.013596 0.215574,-0.456402 0.436845,-0.910432 0.674427,-1.355774 0.213504,-0.400209 0.431368,-0.798929 0.674428,-1.181909 0.209639,-0.330321 0.425923,-0.658439 0.674753,-0.960339 0.20621,-0.25019 0.421726,-0.497736 0.674427,-0.70086 0.205568,-0.165238 0.42746,-0.321541 0.674753,-0.413235 0.213632,-0.07921 0.447344,-0.123716 0.674735,-0.109333 0.234041,0.0148 0.464848,0.09457 0.674753,0.199138 0.250383,0.124731 0.469297,0.309206 0.674427,0.499393 0.252056,0.233695 0.467372,0.505676 0.674444,0.780024 0.247178,0.327484 0.463954,0.677461 0.67473,1.029478 0.241395,0.403153 0.459775,0.819889 0.674427,1.237894 0.236237,0.46004 0.456468,0.928212 0.67475,1.397037 0.92773,1.992572 1.744723,4.03617 2.698038,6.016628 0.213111,0.442725 0.435856,0.881188 0.675057,1.310379 0.212346,0.381007 0.429433,0.760461 0.674123,1.121548 0.2086,0.30783 0.424611,0.613258 0.675057,0.888122 0.205568,0.22561 0.421899,0.447905 0.674433,0.619324 0.206651,0.140274 0.432059,0.266752 0.674733,0.325833 0.218519,0.0532 0.453508,0.06076 0.674447,0.01872 0.240159,-0.04569 0.467118,-0.158578 0.674425,-0.288146 0.252248,-0.157656 0.469362,-0.368838 0.674755,-0.584008 0.250932,-0.262877 0.466342,-0.558671 0.674411,-0.856628 0.245465,-0.351509 0.462808,-0.722314 0.674748,-1.094997 0.239788,-0.421652 0.461148,-0.853815 0.674432,-1.289474 0.475777,-0.971835 0.905628,-1.965523 1.349181,-2.952482 0.456203,-1.015106 0.884812,-2.042584 1.349503,-3.053833 0.217889,-0.474165 0.438828,-0.947151 0.674425,-1.412771 0.21518,-0.425269 0.433993,-0.849273 0.674756,-1.260599 0.21121,-0.360837 0.428021,-0.719791 0.67441,-1.057585 0.207544,-0.284538 0.423034,-0.56672 0.674748,-0.813046 0.205165,-0.200773 0.423142,-0.396738 0.674432,-0.535503 0.208599,-0.115191 0.437747,-0.209376 0.674425,-0.237056 0.224637,-0.02627 0.459177,0.0028 0.674756,0.07122 0.245426,0.07786 0.468545,0.221962 0.674425,0.37659 0.252746,0.189827 0.46882,0.426485 0.674748,0.666295 0.249501,0.290552 0.465247,0.609351 0.674432,0.930151 0.24383,0.37393 0.461934,0.764383 0.675057,1.156627 0.238338,0.438651 0.459527,0.886611 0.674432,1.337206 0.4717,0.989023 0.901321,1.997575 1.349181,2.99762 0.451611,1.008421 0.880747,2.02707 1.34918,3.027788 0.216243,0.461962 0.437429,0.921898 0.67441,1.373572 0.214074,0.408014 0.432361,0.814562 0.674763,1.206409 0.210069,0.339579 0.426359,0.677119 0.674433,0.990012 0.206522,0.260483 0.42194,0.518397 0.674424,0.734625 0.205353,0.175865 0.42591,0.344379 0.674741,0.450119 0.211794,0.09 0.444312,0.149721 0.674425,0.147524 0.231345,-0.0022 0.463646,-0.06731 0.675079,-0.16123 0.249206,-0.110701 0.469205,-0.283444 0.674425,-0.463007 0.252481,-0.220915 0.46804,-0.482531 0.674756,-0.746763 0.247876,-0.316844 0.464107,-0.657895 0.67441,-1.000832 0.24205,-0.394707 0.460579,-0.803644 0.674748,-1.214148 0.236866,-0.454007 0.455283,-0.917467 0.674447,-1.380279 1.154193,-2.437324 2.125376,-4.962863 3.372771,-7.353828 0.205285,-0.393483 0.430972,-0.776956 0.675057,-1.147622 0.209024,-0.317423 0.424754,-0.632789 0.674447,-0.919323 0.205755,-0.236113 0.421724,-0.469143 0.674425,-0.654148 0.206099,-0.150887 0.429924,-0.29037 0.674756,-0.363179 0.21625,-0.06431 0.450879,-0.08747 0.674424,-0.05702 0.237686,0.03238 0.466451,0.131235 0.674741,0.250225 0.251637,0.143753 0.469198,0.344041 0.674425,0.548657 0.251472,0.250723 0.467076,0.536339 0.674748,0.824388 0.246175,0.341455 0.46305,0.703632 0.674433,1.067653 0.240415,0.414017 0.461818,0.839122 0.674424,1.268084 0.477525,0.963472 0.922194,1.94336 1.34918,2.93027 0.296006,0.68417 0.840246,2.072524 0.840246,2.072524"
       inkscape:connector-curvature="0"
       mask="none" />
    <rect
       y="-131.55151"
       x="11.00104"
       height="16.934496"
       width="55.723763"
       id="rect5839"
       style="opacity:0.97000002;fill:#0000ff;fill-opacity:0.56078384;fill-rule:nonzero;stroke:#000000;stroke-width:0.26500002;stroke-linecap:round;stroke-linejoin:round;stroke-miterlimit:4;stroke-dasharray:none;stroke-dashoffset:0;stroke-opacity:1;paint-order:stroke fill markers" />
    <text
       id="text5845"
       y="-120.87236"
       x="82.611023"
       style="font-style:normal;font-weight:normal;font-size:7.78107977px;line-height:1.25;font-family:sans-serif;letter-spacing:0px;word-spacing:0px;fill:#000000;fill-opacity:1;stroke:none;stroke-width:0.26458332"
       xml:space="preserve"><tspan
         style="font-style:italic;font-variant:normal;font-weight:normal;font-stretch:normal;font-size:3.52777767px;font-family:'DejaVu Sans';-inkscape-font-specification:'DejaVu Sans';stroke-width:0.26458332"
         y="-120.87236"
         x="82.611023"
         id="tspan5843"
         sodipodi:role="line">n<tspan
   style="font-size:2.2930553px;baseline-shift:sub;stroke-width:0.26458332"
   id="tspan5841">0</tspan></tspan></text>
    <rect
       y="59.95293"
       x="79.599205"
       height="16.862383"
       width="2.2597723"
       id="rect5847"
       style="opacity:0.97000002;fill:url(#linearGradient5885);fill-opacity:1;fill-rule:nonzero;stroke:#000000;stroke-width:0.26499999;stroke-linecap:round;stroke-linejoin:round;stroke-miterlimit:4;stroke-dasharray:none;stroke-dashoffset:0;stroke-opacity:1;paint-order:stroke fill markers"
       transform="scale(1,-1)" />
    <path
       inkscape:connector-curvature="0"
       id="path5851"
       d="m 79.593216,-121.77001 h 2.835953"
       style="fill:none;stroke:#000000;stroke-width:0.26499999;stroke-linecap:butt;stroke-linejoin:miter;stroke-miterlimit:4;stroke-dasharray:none;stroke-dashoffset:0;stroke-opacity:0.61214953" />
    <text
       xml:space="preserve"
       style="font-style:normal;font-weight:normal;font-size:7.78107977px;line-height:1.25;font-family:sans-serif;letter-spacing:0px;word-spacing:0px;fill:#000000;fill-opacity:1;stroke:none;stroke-width:0.26458332"
       x="37.171848"
       y="-110.31651"
       id="text70766-1"><tspan
         sodipodi:role="line"
         id="tspan70764-7"
         x="37.171848"
         y="-110.31651"
         style="font-style:italic;font-variant:normal;font-weight:normal;font-stretch:normal;font-size:3.52777767px;font-family:'DejaVu Sans';-inkscape-font-specification:'DejaVu Sans';stroke-width:0.26458332">x</tspan></text>
    <rect
       y="-104.27011"
       x="11.283821"
       height="16.934496"
       width="55.723763"
       id="rect7056"
       style="opacity:0.97000002;fill:#0000ff;fill-opacity:0.54509804;fill-rule:nonzero;stroke:#000000;stroke-width:0.26500002;stroke-linecap:round;stroke-linejoin:round;stroke-miterlimit:4;stroke-dasharray:none;stroke-dashoffset:0;stroke-opacity:1;paint-order:stroke fill markers" />
    <text
       id="text7062"
       y="-93.59095"
       x="82.893806"
       style="font-style:normal;font-weight:normal;font-size:7.78107977px;line-height:1.25;font-family:sans-serif;letter-spacing:0px;word-spacing:0px;fill:#000000;fill-opacity:1;stroke:none;stroke-width:0.26458332"
       xml:space="preserve"><tspan
         style="font-style:italic;font-variant:normal;font-weight:normal;font-stretch:normal;font-size:3.52777767px;font-family:'DejaVu Sans';-inkscape-font-specification:'DejaVu Sans';stroke-width:0.26458332"
         y="-93.59095"
         x="82.893806"
         id="tspan7060"
         sodipodi:role="line">n<tspan
   style="font-size:2.2930553px;baseline-shift:sub;stroke-width:0.26458332"
   id="tspan7058">0</tspan></tspan></text>
    <rect
       y="87.234344"
       x="79.881989"
       height="16.862383"
       width="2.2597723"
       id="rect7064"
       style="opacity:0.97000002;fill:url(#linearGradient7102);fill-opacity:1;fill-rule:nonzero;stroke:#000000;stroke-width:0.26499999;stroke-linecap:round;stroke-linejoin:round;stroke-miterlimit:4;stroke-dasharray:none;stroke-dashoffset:0;stroke-opacity:1;paint-order:stroke fill markers"
       transform="scale(1,-1)" />
    <path
       inkscape:connector-curvature="0"
       id="path7068"
       d="m 79.875995,-94.488605 h 2.835953"
       style="fill:none;stroke:#000000;stroke-width:0.26499999;stroke-linecap:butt;stroke-linejoin:miter;stroke-miterlimit:4;stroke-dasharray:none;stroke-dashoffset:0;stroke-opacity:0.61214953" />
    <text
       transform="scale(1.0006144,0.99938598)"
       y="-92.292732"
       x="3.5259442"
       id="text7078"
       font-size="24"
       font-weight="400"
       style="font-style:normal;font-variant:normal;font-weight:normal;font-stretch:normal;font-size:2.41979909px;font-family:'DejaVu Sans';-inkscape-font-specification:'DejaVu Sans';stroke-width:0.30000001;stroke-miterlimit:8;stroke-dasharray:none">
      <tspan
         style="font-size:3.52777767px;stroke-width:0.30000001"
         id="tspan7074">𝜙</tspan>
      <tspan
         id="tspan7076"
         style="font-size:1.57286942px;baseline-shift:sub;stroke-width:0.30000001">SAW</tspan>
    </text>
    <text
       id="text7092"
       y="-108.69141"
       x="16.394253"
       style="font-style:normal;font-weight:normal;font-size:10.58333302px;line-height:1.25;font-family:sans-serif;letter-spacing:0px;word-spacing:0px;fill:#000000;fill-opacity:1;stroke:none;stroke-width:0.26458332"
       xml:space="preserve"><tspan
         style="font-style:italic;font-size:2.82222223px;fill:#000000;fill-opacity:1;stroke-width:0.26458332"
         y="-108.69141"
         x="16.394253"
         id="tspan7090"
         sodipodi:role="line">E<tspan
   style="font-size:64.99999762%;baseline-shift:sub"
   id="tspan4720">SAW</tspan></tspan></text>
    <path
       mask="none"
       inkscape:connector-curvature="0"
       d="m 9.6022323,-92.384388 c 1.2659417,-0.04228 2.2135747,0.106345 2.8073427,-1.005509 0.369199,-0.685553 0.585681,-1.443089 0.893756,-2.158198 0.435459,-1.010799 0.879122,-2.018415 1.349179,-3.013596 0.215574,-0.456402 0.436845,-0.910432 0.674427,-1.355774 0.213504,-0.400205 0.431368,-0.798925 0.674428,-1.181905 0.209639,-0.33032 0.425923,-0.65844 0.674753,-0.96034 0.20621,-0.25019 0.421726,-0.49774 0.674427,-0.70086 0.205568,-0.16524 0.42746,-0.32154 0.674753,-0.41324 0.213632,-0.0792 0.447344,-0.12371 0.674735,-0.10933 0.234041,0.0148 0.464848,0.0946 0.674753,0.19914 0.250383,0.12473 0.469297,0.3092 0.674427,0.49939 0.252056,0.2337 0.467372,0.50568 0.674444,0.78002 0.247178,0.32749 0.463954,0.67747 0.67473,1.02948 0.241395,0.40316 0.459775,0.819891 0.674427,1.237896 0.236237,0.46004 0.456468,0.928212 0.67475,1.397037 0.92773,1.992572 1.744723,4.03617 2.698038,6.016628 0.213111,0.442725 0.435856,0.881188 0.675057,1.310379 0.212346,0.381007 0.429433,0.760461 0.674123,1.121548 0.2086,0.30783 0.424611,0.613258 0.675057,0.888122 0.205568,0.22561 0.421899,0.447905 0.674433,0.619324 0.206651,0.140274 0.432059,0.266752 0.674733,0.325833 0.218519,0.0532 0.453508,0.06076 0.674447,0.01872 0.240159,-0.04569 0.467118,-0.158578 0.674425,-0.288146 0.252248,-0.157656 0.469362,-0.368838 0.674755,-0.584008 0.250932,-0.262877 0.466342,-0.558671 0.674411,-0.856628 0.245465,-0.351509 0.462808,-0.722314 0.674748,-1.094997 0.239788,-0.421652 0.461148,-0.853815 0.674432,-1.289474 0.475777,-0.971835 0.905628,-1.965523 1.349181,-2.952482 0.456203,-1.015106 0.884812,-2.042584 1.349503,-3.053833 0.217889,-0.474165 0.438828,-0.947151 0.674425,-1.412771 0.21518,-0.425269 0.433993,-0.849268 0.674756,-1.260598 0.21121,-0.36084 0.428021,-0.71979 0.67441,-1.05759 0.207544,-0.28453 0.423034,-0.56672 0.674748,-0.81304 0.205165,-0.20077 0.423142,-0.39674 0.674432,-0.5355 0.208599,-0.1152 0.437747,-0.20938 0.674425,-0.23706 0.224637,-0.0263 0.459177,0.003 0.674756,0.0712 0.245426,0.0779 0.468545,0.22196 0.674425,0.37659 0.252746,0.18983 0.46882,0.42648 0.674748,0.66629 0.249501,0.29056 0.465247,0.60936 0.674432,0.93016 0.24383,0.37393 0.461934,0.76438 0.675057,1.15662 0.238338,0.438653 0.459527,0.886613 0.674432,1.337208 0.4717,0.989023 0.901321,1.997575 1.349181,2.99762 0.451611,1.008421 0.880747,2.02707 1.34918,3.027788 0.216243,0.461962 0.437429,0.921898 0.67441,1.373572 0.214074,0.408014 0.432361,0.814562 0.674763,1.206409 0.210069,0.339579 0.426359,0.677119 0.674433,0.990012 0.206522,0.260483 0.42194,0.518397 0.674424,0.734625 0.205353,0.175865 0.42591,0.344379 0.674741,0.450119 0.211794,0.09 0.444312,0.149721 0.674425,0.147524 0.231345,-0.0022 0.463646,-0.06731 0.675079,-0.16123 0.249206,-0.110701 0.469205,-0.283444 0.674425,-0.463007 0.252481,-0.220915 0.46804,-0.482531 0.674756,-0.746763 0.247876,-0.316844 0.464107,-0.657895 0.67441,-1.000832 0.24205,-0.394707 0.460579,-0.803644 0.674748,-1.214148 0.236866,-0.454007 0.455283,-0.917467 0.674447,-1.380279 1.154193,-2.437324 2.125376,-4.962863 3.372771,-7.353828 0.205285,-0.39348 0.430972,-0.77696 0.675057,-1.14762 0.209024,-0.31742 0.424754,-0.63279 0.674447,-0.91932 0.205755,-0.23612 0.421724,-0.46915 0.674425,-0.65415 0.206099,-0.15089 0.429924,-0.29037 0.674756,-0.36318 0.21625,-0.0643 0.450879,-0.0875 0.674424,-0.057 0.237686,0.0324 0.466451,0.13123 0.674741,0.25022 0.251637,0.14376 0.469198,0.34404 0.674425,0.54866 0.251472,0.25072 0.467076,0.53634 0.674748,0.82439 0.246175,0.34145 0.46305,0.70363 0.674433,1.06765 0.240415,0.41402 0.461818,0.839123 0.674424,1.268085 0.477525,0.963472 0.922194,1.94336 1.34918,2.93027 0.296006,0.68417 0.840246,2.072524 0.840246,2.072524"
       stroke-miterlimit="10"
       id="path7098"
       style="fill:none;fill-opacity:1;fill-rule:evenodd;stroke:#000000;stroke-width:0.26499999;stroke-linecap:square;stroke-linejoin:round;stroke-miterlimit:4;stroke-dasharray:none;stroke-dashoffset:0;stroke-opacity:1"
       sodipodi:nodetypes="ccaaaaaaaaaaaaaaaaaaaaaaaaaaaaaaaaaaaaaaaaaaaaaaaaaaaaaaaaaaaaaaaaaac" />
    <text
       id="text8350"
       y="-84.136055"
       x="37.171848"
       style="font-style:normal;font-weight:normal;font-size:7.78107977px;line-height:1.25;font-family:sans-serif;letter-spacing:0px;word-spacing:0px;fill:#000000;fill-opacity:1;stroke:none;stroke-width:0.26458332"
       xml:space="preserve"><tspan
         style="font-style:italic;font-variant:normal;font-weight:normal;font-stretch:normal;font-size:3.52777767px;font-family:'DejaVu Sans';-inkscape-font-specification:'DejaVu Sans';stroke-width:0.26458332"
         y="-84.136055"
         x="37.171848"
         id="tspan8348"
         sodipodi:role="line">x</tspan></text>
    <text
       xml:space="preserve"
       style="font-style:normal;font-weight:normal;font-size:7.78107977px;line-height:1.25;font-family:sans-serif;letter-spacing:0px;word-spacing:0px;fill:#000000;fill-opacity:1;stroke:none;stroke-width:0.26458332"
       x="37.171848"
       y="-57.156349"
       id="text8354"><tspan
         sodipodi:role="line"
         id="tspan8352"
         x="37.171848"
         y="-57.156349"
         style="font-style:italic;font-variant:normal;font-weight:normal;font-stretch:normal;font-size:3.52777767px;font-family:'DejaVu Sans';-inkscape-font-specification:'DejaVu Sans';stroke-width:0.26458332">x</tspan></text>
    <path
       style="fill:none;stroke:#000000;stroke-width:0.26499999;stroke-linecap:butt;stroke-linejoin:miter;stroke-miterlimit:4;stroke-dasharray:none;stroke-opacity:1;marker-start:url(#TriangleInM)"
       d="m 19.558528,-105.729 h 6.657964"
       id="path4722"
       inkscape:connector-curvature="0" />
    <path
       inkscape:connector-curvature="0"
       id="path4988"
       d="M 17.526159,-105.729 H 10.868195"
       style="fill:none;stroke:#000000;stroke-width:0.26499999;stroke-linecap:butt;stroke-linejoin:miter;stroke-miterlimit:4;stroke-dasharray:none;stroke-opacity:1;marker-start:url(#marker5468)" />
    <path
       inkscape:connector-curvature="0"
       id="path5066"
       d="m 40.912723,-105.729 h 6.657964"
       style="fill:none;stroke:#000000;stroke-width:0.26499999;stroke-linecap:butt;stroke-linejoin:miter;stroke-miterlimit:4;stroke-dasharray:none;stroke-opacity:1;marker-start:url(#marker5072)" />
    <path
       style="fill:none;stroke:#000000;stroke-width:0.26499999;stroke-linecap:butt;stroke-linejoin:miter;stroke-miterlimit:4;stroke-dasharray:none;stroke-opacity:1;marker-start:url(#marker5480)"
       d="M 38.880354,-105.729 H 32.22239"
       id="path5068"
       inkscape:connector-curvature="0" />
    <path
       style="fill:none;stroke:#000000;stroke-width:0.26499999;stroke-linecap:butt;stroke-linejoin:miter;stroke-miterlimit:4;stroke-dasharray:none;stroke-opacity:1;marker-start:url(#marker5244)"
       d="m 61.94214,-105.729 h 6.657964"
       id="path5234"
       inkscape:connector-curvature="0" />
    <path
       inkscape:connector-curvature="0"
       id="path5236"
       d="M 59.909771,-105.729 H 53.251807"
       style="fill:none;stroke:#000000;stroke-width:0.26499999;stroke-linecap:butt;stroke-linejoin:miter;stroke-miterlimit:4;stroke-dasharray:none;stroke-opacity:1;marker-start:url(#marker4992)" />
    <text
       xml:space="preserve"
       style="font-style:normal;font-weight:normal;font-size:10.58333302px;line-height:1.25;font-family:sans-serif;letter-spacing:0px;word-spacing:0px;fill:#000000;fill-opacity:1;stroke:none;stroke-width:0.26458332"
       x="16.394253"
       y="-81.734779"
       id="text5580"><tspan
         sodipodi:role="line"
         id="tspan5578"
         x="16.394253"
         y="-81.734779"
         style="font-style:italic;font-size:2.82222223px;fill:#000000;fill-opacity:1;stroke-width:0.26458332">E<tspan
   id="tspan5576"
   style="font-size:64.99999762%;baseline-shift:sub">SAW</tspan></tspan></text>
    <path
       inkscape:connector-curvature="0"
       id="path5582"
       d="m 19.558528,-78.772373 h 6.657964"
       style="fill:none;stroke:#000000;stroke-width:0.26499999;stroke-linecap:butt;stroke-linejoin:miter;stroke-miterlimit:4;stroke-dasharray:none;stroke-opacity:1;marker-start:url(#TriangleInM)" />
    <path
       style="fill:none;stroke:#000000;stroke-width:0.26499999;stroke-linecap:butt;stroke-linejoin:miter;stroke-miterlimit:4;stroke-dasharray:none;stroke-opacity:1;marker-start:url(#marker5468)"
       d="M 17.526159,-78.772373 H 10.868195"
       id="path5584"
       inkscape:connector-curvature="0" />
    <path
       style="fill:none;stroke:#000000;stroke-width:0.26499999;stroke-linecap:butt;stroke-linejoin:miter;stroke-miterlimit:4;stroke-dasharray:none;stroke-opacity:1;marker-start:url(#marker5072)"
       d="m 40.912723,-78.772373 h 6.657964"
       id="path5586"
       inkscape:connector-curvature="0" />
    <path
       inkscape:connector-curvature="0"
       id="path5588"
       d="M 38.880354,-78.772373 H 32.22239"
       style="fill:none;stroke:#000000;stroke-width:0.26499999;stroke-linecap:butt;stroke-linejoin:miter;stroke-miterlimit:4;stroke-dasharray:none;stroke-opacity:1;marker-start:url(#marker5480)" />
    <path
       inkscape:connector-curvature="0"
       id="path5590"
       d="m 61.94214,-78.772373 h 6.657964"
       style="fill:none;stroke:#000000;stroke-width:0.26499999;stroke-linecap:butt;stroke-linejoin:miter;stroke-miterlimit:4;stroke-dasharray:none;stroke-opacity:1;marker-start:url(#marker5244)" />
    <path
       style="fill:none;stroke:#000000;stroke-width:0.26499999;stroke-linecap:butt;stroke-linejoin:miter;stroke-miterlimit:4;stroke-dasharray:none;stroke-opacity:1;marker-start:url(#marker4992)"
       d="M 59.909771,-78.772373 H 53.251807"
       id="path5592"
       inkscape:connector-curvature="0" />
  </g>
</svg>
