<?xml version="1.0" encoding="utf-8" standalone="no"?>
<!DOCTYPE svg PUBLIC "-//W3C//DTD SVG 1.1//EN"
  "http://www.w3.org/Graphics/SVG/1.1/DTD/svg11.dtd">
<svg xmlns:xlink="http://www.w3.org/1999/xlink" width="240.48pt" height="180pt" viewBox="0 0 240.48 180" xmlns="http://www.w3.org/2000/svg" version="1.1">
 <metadata>
  <rdf:RDF xmlns:dc="http://purl.org/dc/elements/1.1/" xmlns:cc="http://creativecommons.org/ns#" xmlns:rdf="http://www.w3.org/1999/02/22-rdf-syntax-ns#">
   <cc:Work>
    <dc:type rdf:resource="http://purl.org/dc/dcmitype/StillImage"/>
    <dc:date>2024-06-20T14:59:40.293598</dc:date>
    <dc:format>image/svg+xml</dc:format>
    <dc:creator>
     <cc:Agent>
      <dc:title>Matplotlib v3.7.0, https://matplotlib.org/</dc:title>
     </cc:Agent>
    </dc:creator>
   </cc:Work>
  </rdf:RDF>
 </metadata>
 <defs>
  <style type="text/css">*{stroke-linejoin: round; stroke-linecap: butt}</style>
 </defs>
 <g id="figure_1">
  <g id="patch_1">
   <path d="M 0 180 
L 240.48 180 
L 240.48 0 
L 0 0 
z
" style="fill: #ffffff"/>
  </g>
  <g id="axes_1">
   <g id="patch_2">
    <path d="M 30.06 160.2 
L 216.432 160.2 
L 216.432 21.6 
L 30.06 21.6 
z
" style="fill: #ffffff"/>
   </g>
   <g id="matplotlib.axis_1">
    <g id="xtick_1">
     <g id="line2d_1">
      <defs>
       <path id="mf77687f817" d="M 0 0 
L 0 3.5 
" style="stroke: #000000; stroke-width: 0.8"/>
      </defs>
      <g>
       <use xlink:href="#mf77687f817" x="123.246" y="160.2" style="stroke: #000000; stroke-width: 0.8"/>
      </g>
     </g>
    </g>
    <g id="text_1">
     <!-- $f_0$ -->
     <g transform="translate(119.096 178.798438) scale(0.1 -0.1)">
      <defs>
       <path id="DejaVuSans-Oblique-66" d="M 3059 4863 
L 2969 4384 
L 2419 4384 
Q 2106 4384 1964 4261 
Q 1822 4138 1753 3809 
L 1691 3500 
L 2638 3500 
L 2553 3053 
L 1606 3053 
L 1013 0 
L 434 0 
L 1031 3053 
L 481 3053 
L 563 3500 
L 1113 3500 
L 1159 3744 
Q 1278 4363 1576 4613 
Q 1875 4863 2516 4863 
L 3059 4863 
z
" transform="scale(0.015625)"/>
       <path id="DejaVuSans-30" d="M 2034 4250 
Q 1547 4250 1301 3770 
Q 1056 3291 1056 2328 
Q 1056 1369 1301 889 
Q 1547 409 2034 409 
Q 2525 409 2770 889 
Q 3016 1369 3016 2328 
Q 3016 3291 2770 3770 
Q 2525 4250 2034 4250 
z
M 2034 4750 
Q 2819 4750 3233 4129 
Q 3647 3509 3647 2328 
Q 3647 1150 3233 529 
Q 2819 -91 2034 -91 
Q 1250 -91 836 529 
Q 422 1150 422 2328 
Q 422 3509 836 4129 
Q 1250 4750 2034 4750 
z
" transform="scale(0.015625)"/>
      </defs>
      <use xlink:href="#DejaVuSans-Oblique-66" transform="translate(0 0.015625)"/>
      <use xlink:href="#DejaVuSans-30" transform="translate(35.205078 -16.390625) scale(0.7)"/>
     </g>
    </g>
   </g>
   <g id="matplotlib.axis_2">
    <g id="text_2">
     <!-- $H(f) \; \mathrm{(arb. units)}$ -->
     <g transform="translate(23.980312 128.75) rotate(-90) scale(0.1 -0.1)">
      <defs>
       <path id="DejaVuSans-Oblique-48" d="M 1081 4666 
L 1716 4666 
L 1344 2753 
L 3634 2753 
L 4006 4666 
L 4641 4666 
L 3731 0 
L 3097 0 
L 3531 2222 
L 1241 2222 
L 806 0 
L 172 0 
L 1081 4666 
z
" transform="scale(0.015625)"/>
       <path id="DejaVuSans-28" d="M 1984 4856 
Q 1566 4138 1362 3434 
Q 1159 2731 1159 2009 
Q 1159 1288 1364 580 
Q 1569 -128 1984 -844 
L 1484 -844 
Q 1016 -109 783 600 
Q 550 1309 550 2009 
Q 550 2706 781 3412 
Q 1013 4119 1484 4856 
L 1984 4856 
z
" transform="scale(0.015625)"/>
       <path id="DejaVuSans-29" d="M 513 4856 
L 1013 4856 
Q 1481 4119 1714 3412 
Q 1947 2706 1947 2009 
Q 1947 1309 1714 600 
Q 1481 -109 1013 -844 
L 513 -844 
Q 928 -128 1133 580 
Q 1338 1288 1338 2009 
Q 1338 2731 1133 3434 
Q 928 4138 513 4856 
z
" transform="scale(0.015625)"/>
       <path id="DejaVuSans-61" d="M 2194 1759 
Q 1497 1759 1228 1600 
Q 959 1441 959 1056 
Q 959 750 1161 570 
Q 1363 391 1709 391 
Q 2188 391 2477 730 
Q 2766 1069 2766 1631 
L 2766 1759 
L 2194 1759 
z
M 3341 1997 
L 3341 0 
L 2766 0 
L 2766 531 
Q 2569 213 2275 61 
Q 1981 -91 1556 -91 
Q 1019 -91 701 211 
Q 384 513 384 1019 
Q 384 1609 779 1909 
Q 1175 2209 1959 2209 
L 2766 2209 
L 2766 2266 
Q 2766 2663 2505 2880 
Q 2244 3097 1772 3097 
Q 1472 3097 1187 3025 
Q 903 2953 641 2809 
L 641 3341 
Q 956 3463 1253 3523 
Q 1550 3584 1831 3584 
Q 2591 3584 2966 3190 
Q 3341 2797 3341 1997 
z
" transform="scale(0.015625)"/>
       <path id="DejaVuSans-72" d="M 2631 2963 
Q 2534 3019 2420 3045 
Q 2306 3072 2169 3072 
Q 1681 3072 1420 2755 
Q 1159 2438 1159 1844 
L 1159 0 
L 581 0 
L 581 3500 
L 1159 3500 
L 1159 2956 
Q 1341 3275 1631 3429 
Q 1922 3584 2338 3584 
Q 2397 3584 2469 3576 
Q 2541 3569 2628 3553 
L 2631 2963 
z
" transform="scale(0.015625)"/>
       <path id="DejaVuSans-62" d="M 3116 1747 
Q 3116 2381 2855 2742 
Q 2594 3103 2138 3103 
Q 1681 3103 1420 2742 
Q 1159 2381 1159 1747 
Q 1159 1113 1420 752 
Q 1681 391 2138 391 
Q 2594 391 2855 752 
Q 3116 1113 3116 1747 
z
M 1159 2969 
Q 1341 3281 1617 3432 
Q 1894 3584 2278 3584 
Q 2916 3584 3314 3078 
Q 3713 2572 3713 1747 
Q 3713 922 3314 415 
Q 2916 -91 2278 -91 
Q 1894 -91 1617 61 
Q 1341 213 1159 525 
L 1159 0 
L 581 0 
L 581 4863 
L 1159 4863 
L 1159 2969 
z
" transform="scale(0.015625)"/>
       <path id="DejaVuSans-2e" d="M 684 794 
L 1344 794 
L 1344 0 
L 684 0 
L 684 794 
z
" transform="scale(0.015625)"/>
       <path id="DejaVuSans-75" d="M 544 1381 
L 544 3500 
L 1119 3500 
L 1119 1403 
Q 1119 906 1312 657 
Q 1506 409 1894 409 
Q 2359 409 2629 706 
Q 2900 1003 2900 1516 
L 2900 3500 
L 3475 3500 
L 3475 0 
L 2900 0 
L 2900 538 
Q 2691 219 2414 64 
Q 2138 -91 1772 -91 
Q 1169 -91 856 284 
Q 544 659 544 1381 
z
M 1991 3584 
L 1991 3584 
z
" transform="scale(0.015625)"/>
       <path id="DejaVuSans-6e" d="M 3513 2113 
L 3513 0 
L 2938 0 
L 2938 2094 
Q 2938 2591 2744 2837 
Q 2550 3084 2163 3084 
Q 1697 3084 1428 2787 
Q 1159 2491 1159 1978 
L 1159 0 
L 581 0 
L 581 3500 
L 1159 3500 
L 1159 2956 
Q 1366 3272 1645 3428 
Q 1925 3584 2291 3584 
Q 2894 3584 3203 3211 
Q 3513 2838 3513 2113 
z
" transform="scale(0.015625)"/>
       <path id="DejaVuSans-69" d="M 603 3500 
L 1178 3500 
L 1178 0 
L 603 0 
L 603 3500 
z
M 603 4863 
L 1178 4863 
L 1178 4134 
L 603 4134 
L 603 4863 
z
" transform="scale(0.015625)"/>
       <path id="DejaVuSans-74" d="M 1172 4494 
L 1172 3500 
L 2356 3500 
L 2356 3053 
L 1172 3053 
L 1172 1153 
Q 1172 725 1289 603 
Q 1406 481 1766 481 
L 2356 481 
L 2356 0 
L 1766 0 
Q 1100 0 847 248 
Q 594 497 594 1153 
L 594 3053 
L 172 3053 
L 172 3500 
L 594 3500 
L 594 4494 
L 1172 4494 
z
" transform="scale(0.015625)"/>
       <path id="DejaVuSans-73" d="M 2834 3397 
L 2834 2853 
Q 2591 2978 2328 3040 
Q 2066 3103 1784 3103 
Q 1356 3103 1142 2972 
Q 928 2841 928 2578 
Q 928 2378 1081 2264 
Q 1234 2150 1697 2047 
L 1894 2003 
Q 2506 1872 2764 1633 
Q 3022 1394 3022 966 
Q 3022 478 2636 193 
Q 2250 -91 1575 -91 
Q 1294 -91 989 -36 
Q 684 19 347 128 
L 347 722 
Q 666 556 975 473 
Q 1284 391 1588 391 
Q 1994 391 2212 530 
Q 2431 669 2431 922 
Q 2431 1156 2273 1281 
Q 2116 1406 1581 1522 
L 1381 1569 
Q 847 1681 609 1914 
Q 372 2147 372 2553 
Q 372 3047 722 3315 
Q 1072 3584 1716 3584 
Q 2034 3584 2315 3537 
Q 2597 3491 2834 3397 
z
" transform="scale(0.015625)"/>
      </defs>
      <use xlink:href="#DejaVuSans-Oblique-48" transform="translate(0 0.015625)"/>
      <use xlink:href="#DejaVuSans-28" transform="translate(75.195312 0.015625)"/>
      <use xlink:href="#DejaVuSans-Oblique-66" transform="translate(114.208984 0.015625)"/>
      <use xlink:href="#DejaVuSans-29" transform="translate(149.414062 0.015625)"/>
      <use xlink:href="#DejaVuSans-28" transform="translate(215.48687 0.015625)"/>
      <use xlink:href="#DejaVuSans-61" transform="translate(254.500542 0.015625)"/>
      <use xlink:href="#DejaVuSans-72" transform="translate(315.779839 0.015625)"/>
      <use xlink:href="#DejaVuSans-62" transform="translate(356.89312 0.015625)"/>
      <use xlink:href="#DejaVuSans-2e" transform="translate(420.369683 0.015625)"/>
      <use xlink:href="#DejaVuSans-75" transform="translate(471.639214 0.015625)"/>
      <use xlink:href="#DejaVuSans-6e" transform="translate(535.01812 0.015625)"/>
      <use xlink:href="#DejaVuSans-69" transform="translate(598.397026 0.015625)"/>
      <use xlink:href="#DejaVuSans-74" transform="translate(626.180229 0.015625)"/>
      <use xlink:href="#DejaVuSans-73" transform="translate(665.389214 0.015625)"/>
      <use xlink:href="#DejaVuSans-29" transform="translate(717.488823 0.015625)"/>
     </g>
    </g>
   </g>
   <g id="line2d_2">
    <path d="M -1 151.113295 
L 2.1042 152.611506 
L 3.96792 153.571949 
L 5.83164 153.24311 
L 20.7414 145.147597 
L 24.46884 143.443424 
L 28.19628 142.027808 
L 31.92372 140.976723 
L 33.78744 140.609908 
L 35.65116 140.359635 
L 37.51488 140.233179 
L 39.3786 140.237125 
L 41.24232 140.377299 
L 43.10604 140.658717 
L 44.96976 141.085528 
L 46.83348 141.66097 
L 48.6972 142.387332 
L 50.56092 143.265915 
L 52.42464 144.297011 
L 54.28836 145.47988 
L 56.15208 146.81274 
L 58.0158 148.292761 
L 61.74324 151.677758 
L 63.60696 153.571903 
L 65.47068 152.217688 
L 69.19812 147.834048 
L 72.92556 143.054209 
L 78.51672 135.33392 
L 93.42648 114.009343 
L 97.15392 109.120822 
L 100.88136 104.631956 
L 104.6088 100.643884 
L 106.47252 98.866495 
L 108.33624 97.247406 
L 110.19996 95.795943 
L 112.06368 94.520494 
L 113.9274 93.428448 
L 115.79112 92.526147 
L 117.65484 91.818843 
L 119.51856 91.310657 
L 121.38228 91.004554 
L 123.246 90.90232 
L 125.10972 91.004554 
L 126.97344 91.310657 
L 128.83716 91.818843 
L 130.70088 92.526147 
L 132.5646 93.428448 
L 134.42832 94.520494 
L 136.29204 95.795943 
L 138.15576 97.247406 
L 140.01948 98.866495 
L 143.74692 102.569373 
L 147.47436 106.819899 
L 151.2018 111.521777 
L 154.92924 116.569714 
L 160.5204 124.545795 
L 169.839 137.964709 
L 173.56644 143.054209 
L 177.29388 147.834048 
L 181.02132 152.217688 
L 182.88504 153.571903 
L 186.61248 149.91607 
L 190.33992 146.81274 
L 192.20364 145.47988 
L 194.06736 144.297011 
L 195.93108 143.265915 
L 197.7948 142.387332 
L 199.65852 141.66097 
L 201.52224 141.085528 
L 203.38596 140.658717 
L 205.24968 140.377299 
L 207.1134 140.237125 
L 208.97712 140.233179 
L 210.84084 140.359635 
L 212.70456 140.609908 
L 216.432 141.452177 
L 220.15944 142.694675 
L 223.88688 144.264376 
L 227.61432 146.082986 
L 233.20548 149.10022 
L 240.66036 153.24311 
L 241.48 153.387729 
L 241.48 153.387729 
" clip-path="url(#p48854fdd84)" style="fill: none; stroke: #000000; stroke-width: 1.5; stroke-linecap: square"/>
   </g>
   <g id="line2d_3">
    <path d="M -1 148.581833 
L 0.24048 149.597751 
L 2.1042 151.34089 
L 3.96792 153.239627 
L 5.83164 152.584402 
L 9.55908 148.655491 
L 11.4228 146.86664 
L 13.28652 145.29512 
L 15.15024 144.009546 
L 17.01396 143.069904 
L 18.87768 142.525009 
L 20.7414 142.41029 
L 22.60512 142.745997 
L 24.46884 143.535922 
L 26.33256 144.766665 
L 28.19628 146.407525 
L 30.06 148.411011 
L 31.92372 150.713984 
L 33.78744 153.239411 
L 35.65116 151.910591 
L 39.3786 146.585423 
L 41.24232 144.127227 
L 43.10604 141.943256 
L 44.96976 140.130894 
L 46.83348 138.778107 
L 48.6972 137.959841 
L 50.56092 137.734743 
L 52.42464 138.142319 
L 54.28836 139.200638 
L 56.15208 140.904678 
L 58.0158 143.2254 
L 59.87952 146.109587 
L 61.74324 149.480486 
L 63.60696 153.239257 
L 65.47068 150.542076 
L 71.06184 138.261331 
L 72.92556 134.624111 
L 74.78928 131.484709 
L 76.653 128.999713 
L 78.51672 127.315176 
L 80.38044 126.561718 
L 82.24416 126.849958 
L 84.10788 128.266415 
L 85.9716 130.870023 
L 87.83532 134.689381 
L 89.69904 139.72084 
L 91.56276 145.927499 
L 93.42648 153.239165 
L 95.2902 146.255994 
L 97.15392 137.072411 
L 100.88136 116.763201 
L 108.33624 74.114045 
L 110.19996 64.337003 
L 112.06368 55.359271 
L 113.9274 47.383128 
L 115.79112 40.590172 
L 117.65484 35.136347 
L 119.51856 31.147654 
L 121.38228 28.716674 
L 123.246 27.9 
L 125.10972 28.716674 
L 126.97344 31.147654 
L 128.83716 35.136347 
L 130.70088 40.590172 
L 132.5646 47.383128 
L 134.42832 55.359271 
L 136.29204 64.337003 
L 140.01948 84.472945 
L 147.47436 127.179972 
L 149.33808 137.072411 
L 151.2018 146.255994 
L 153.06552 153.239165 
L 154.92924 145.927499 
L 156.79296 139.72084 
L 158.65668 134.689381 
L 160.5204 130.870023 
L 162.38412 128.266415 
L 164.24784 126.849958 
L 166.11156 126.561718 
L 167.97528 127.315176 
L 169.839 128.999713 
L 171.70272 131.484709 
L 173.56644 134.624111 
L 175.43016 138.261331 
L 179.1576 146.380544 
L 181.02132 150.542076 
L 182.88504 153.239257 
L 184.74876 149.480486 
L 186.61248 146.109587 
L 188.4762 143.2254 
L 190.33992 140.904678 
L 192.20364 139.200638 
L 194.06736 138.142319 
L 195.93108 137.734743 
L 197.7948 137.959841 
L 199.65852 138.778107 
L 201.52224 140.130894 
L 203.38596 141.943256 
L 205.24968 144.127227 
L 208.97712 149.214819 
L 210.84084 151.910591 
L 212.70456 153.239411 
L 214.56828 150.713984 
L 216.432 148.411011 
L 218.29572 146.407525 
L 220.15944 144.766665 
L 222.02316 143.535922 
L 223.88688 142.745997 
L 225.7506 142.41029 
L 227.61432 142.525009 
L 229.47804 143.069904 
L 231.34176 144.009546 
L 233.20548 145.29512 
L 235.0692 146.86664 
L 238.79664 150.587211 
L 240.66036 152.584402 
L 241.48 152.872562 
L 241.48 152.872562 
" clip-path="url(#p48854fdd84)" style="fill: none; stroke: #ffa500; stroke-width: 1.5; stroke-linecap: square"/>
   </g>
   <g id="patch_3">
    <path d="M 30.06 160.2 
L 30.06 21.6 
" style="fill: none; stroke: #000000; stroke-width: 0.8; stroke-linejoin: miter; stroke-linecap: square"/>
   </g>
   <g id="patch_4">
    <path d="M 216.432 160.2 
L 216.432 21.6 
" style="fill: none; stroke: #000000; stroke-width: 0.8; stroke-linejoin: miter; stroke-linecap: square"/>
   </g>
   <g id="patch_5">
    <path d="M 30.06 160.2 
L 216.432 160.2 
" style="fill: none; stroke: #000000; stroke-width: 0.8; stroke-linejoin: miter; stroke-linecap: square"/>
   </g>
   <g id="patch_6">
    <path d="M 30.06 21.6 
L 216.432 21.6 
" style="fill: none; stroke: #000000; stroke-width: 0.8; stroke-linejoin: miter; stroke-linecap: square"/>
   </g>
   <g id="legend_1">
    <g id="patch_7">
     <path d="M 140.232 60.996875 
L 209.432 60.996875 
Q 211.432 60.996875 211.432 58.996875 
L 211.432 28.6 
Q 211.432 26.6 209.432 26.6 
L 140.232 26.6 
Q 138.232 26.6 138.232 28.6 
L 138.232 58.996875 
Q 138.232 60.996875 140.232 60.996875 
z
" style="fill: #ffffff; opacity: 0.8; stroke: #cccccc; stroke-linejoin: miter"/>
    </g>
    <g id="line2d_4">
     <path d="M 142.232 34.698437 
L 152.232 34.698437 
L 162.232 34.698437 
" style="fill: none; stroke: #000000; stroke-width: 1.5; stroke-linecap: square"/>
    </g>
    <g id="text_3">
     <!-- $N_p = 5$ -->
     <g transform="translate(170.232 38.198437) scale(0.1 -0.1)">
      <defs>
       <path id="DejaVuSans-Oblique-4e" d="M 1081 4666 
L 1931 4666 
L 3219 666 
L 4000 4666 
L 4616 4666 
L 3706 0 
L 2853 0 
L 1569 4025 
L 788 0 
L 172 0 
L 1081 4666 
z
" transform="scale(0.015625)"/>
       <path id="DejaVuSans-Oblique-70" d="M 3175 2156 
Q 3175 2616 2975 2859 
Q 2775 3103 2400 3103 
Q 2144 3103 1911 2972 
Q 1678 2841 1497 2591 
Q 1319 2344 1212 1994 
Q 1106 1644 1106 1300 
Q 1106 863 1306 627 
Q 1506 391 1875 391 
Q 2147 391 2380 519 
Q 2613 647 2778 891 
Q 2956 1147 3065 1494 
Q 3175 1841 3175 2156 
z
M 1394 2969 
Q 1625 3272 1939 3428 
Q 2253 3584 2638 3584 
Q 3175 3584 3472 3232 
Q 3769 2881 3769 2247 
Q 3769 1728 3584 1258 
Q 3400 788 3053 416 
Q 2822 169 2531 39 
Q 2241 -91 1919 -91 
Q 1547 -91 1294 64 
Q 1041 219 916 525 
L 556 -1331 
L -19 -1331 
L 922 3500 
L 1497 3500 
L 1394 2969 
z
" transform="scale(0.015625)"/>
       <path id="DejaVuSans-3d" d="M 678 2906 
L 4684 2906 
L 4684 2381 
L 678 2381 
L 678 2906 
z
M 678 1631 
L 4684 1631 
L 4684 1100 
L 678 1100 
L 678 1631 
z
" transform="scale(0.015625)"/>
       <path id="DejaVuSans-35" d="M 691 4666 
L 3169 4666 
L 3169 4134 
L 1269 4134 
L 1269 2991 
Q 1406 3038 1543 3061 
Q 1681 3084 1819 3084 
Q 2600 3084 3056 2656 
Q 3513 2228 3513 1497 
Q 3513 744 3044 326 
Q 2575 -91 1722 -91 
Q 1428 -91 1123 -41 
Q 819 9 494 109 
L 494 744 
Q 775 591 1075 516 
Q 1375 441 1709 441 
Q 2250 441 2565 725 
Q 2881 1009 2881 1497 
Q 2881 1984 2565 2268 
Q 2250 2553 1709 2553 
Q 1456 2553 1204 2497 
Q 953 2441 691 2322 
L 691 4666 
z
" transform="scale(0.015625)"/>
      </defs>
      <use xlink:href="#DejaVuSans-Oblique-4e" transform="translate(0 0.09375)"/>
      <use xlink:href="#DejaVuSans-Oblique-70" transform="translate(74.804688 -16.3125) scale(0.7)"/>
      <use xlink:href="#DejaVuSans-3d" transform="translate(141.455078 0.09375)"/>
      <use xlink:href="#DejaVuSans-35" transform="translate(244.726562 0.09375)"/>
     </g>
    </g>
    <g id="line2d_5">
     <path d="M 142.232 50.396875 
L 152.232 50.396875 
L 162.232 50.396875 
" style="fill: none; stroke: #ffa500; stroke-width: 1.5; stroke-linecap: square"/>
    </g>
    <g id="text_4">
     <!-- $N_p = 10$ -->
     <g transform="translate(170.232 53.896875) scale(0.1 -0.1)">
      <defs>
       <path id="DejaVuSans-31" d="M 794 531 
L 1825 531 
L 1825 4091 
L 703 3866 
L 703 4441 
L 1819 4666 
L 2450 4666 
L 2450 531 
L 3481 531 
L 3481 0 
L 794 0 
L 794 531 
z
" transform="scale(0.015625)"/>
      </defs>
      <use xlink:href="#DejaVuSans-Oblique-4e" transform="translate(0 0.78125)"/>
      <use xlink:href="#DejaVuSans-Oblique-70" transform="translate(74.804688 -15.625) scale(0.7)"/>
      <use xlink:href="#DejaVuSans-3d" transform="translate(141.455078 0.78125)"/>
      <use xlink:href="#DejaVuSans-31" transform="translate(244.726562 0.78125)"/>
      <use xlink:href="#DejaVuSans-30" transform="translate(308.349609 0.78125)"/>
     </g>
    </g>
   </g>
  </g>
 </g>
 <defs>
  <clipPath id="p48854fdd84">
   <rect x="30.06" y="21.6" width="186.372" height="138.6"/>
  </clipPath>
 </defs>
</svg>
