<?xml version="1.0" encoding="utf-8" standalone="no"?>
<!DOCTYPE svg PUBLIC "-//W3C//DTD SVG 1.1//EN"
  "http://www.w3.org/Graphics/SVG/1.1/DTD/svg11.dtd">
<svg xmlns:xlink="http://www.w3.org/1999/xlink" width="482.4pt" height="576pt" viewBox="0 0 482.4 576" xmlns="http://www.w3.org/2000/svg" version="1.1">
 <metadata>
  <rdf:RDF xmlns:dc="http://purl.org/dc/elements/1.1/" xmlns:cc="http://creativecommons.org/ns#" xmlns:rdf="http://www.w3.org/1999/02/22-rdf-syntax-ns#">
   <cc:Work>
    <dc:type rdf:resource="http://purl.org/dc/dcmitype/StillImage"/>
    <dc:date>2024-06-06T18:29:05.337204</dc:date>
    <dc:format>image/svg+xml</dc:format>
    <dc:creator>
     <cc:Agent>
      <dc:title>Matplotlib v3.7.0, https://matplotlib.org/</dc:title>
     </cc:Agent>
    </dc:creator>
   </cc:Work>
  </rdf:RDF>
 </metadata>
 <defs>
  <style type="text/css">*{stroke-linejoin: round; stroke-linecap: butt}</style>
 </defs>
 <g id="figure_1">
  <g id="patch_1">
   <path d="M 0 576 
L 482.4 576 
L 482.4 0 
L 0 0 
z
" style="fill: #ffffff"/>
  </g>
  <g id="axes_1">
   <g id="patch_2">
    <path d="M 60.3 199.567059 
L 434.16 199.567059 
L 434.16 69.12 
L 60.3 69.12 
z
" style="fill: #ffffff"/>
   </g>
   <g id="matplotlib.axis_1">
    <g id="xtick_1">
     <g id="line2d_1">
      <defs>
       <path id="m6c362937de" d="M 0 0 
L 0 -3.5 
" style="stroke: #000000; stroke-width: 0.8"/>
      </defs>
      <g>
       <use xlink:href="#m6c362937de" x="77.293636" y="199.567059" style="stroke: #000000; stroke-width: 0.8"/>
      </g>
     </g>
     <g id="line2d_2">
      <defs>
       <path id="m1fdde30078" d="M 0 0 
L 0 3.5 
" style="stroke: #000000; stroke-width: 0.8"/>
      </defs>
      <g>
       <use xlink:href="#m1fdde30078" x="77.293636" y="69.12" style="stroke: #000000; stroke-width: 0.8"/>
      </g>
     </g>
    </g>
    <g id="xtick_2">
     <g id="line2d_3">
      <g>
       <use xlink:href="#m6c362937de" x="119.991215" y="199.567059" style="stroke: #000000; stroke-width: 0.8"/>
      </g>
     </g>
     <g id="line2d_4">
      <g>
       <use xlink:href="#m1fdde30078" x="119.991215" y="69.12" style="stroke: #000000; stroke-width: 0.8"/>
      </g>
     </g>
    </g>
    <g id="xtick_3">
     <g id="line2d_5">
      <g>
       <use xlink:href="#m6c362937de" x="162.688794" y="199.567059" style="stroke: #000000; stroke-width: 0.8"/>
      </g>
     </g>
     <g id="line2d_6">
      <g>
       <use xlink:href="#m1fdde30078" x="162.688794" y="69.12" style="stroke: #000000; stroke-width: 0.8"/>
      </g>
     </g>
    </g>
    <g id="xtick_4">
     <g id="line2d_7">
      <g>
       <use xlink:href="#m6c362937de" x="205.386373" y="199.567059" style="stroke: #000000; stroke-width: 0.8"/>
      </g>
     </g>
     <g id="line2d_8">
      <g>
       <use xlink:href="#m1fdde30078" x="205.386373" y="69.12" style="stroke: #000000; stroke-width: 0.8"/>
      </g>
     </g>
    </g>
    <g id="xtick_5">
     <g id="line2d_9">
      <g>
       <use xlink:href="#m6c362937de" x="248.083952" y="199.567059" style="stroke: #000000; stroke-width: 0.8"/>
      </g>
     </g>
     <g id="line2d_10">
      <g>
       <use xlink:href="#m1fdde30078" x="248.083952" y="69.12" style="stroke: #000000; stroke-width: 0.8"/>
      </g>
     </g>
    </g>
    <g id="xtick_6">
     <g id="line2d_11">
      <g>
       <use xlink:href="#m6c362937de" x="290.78153" y="199.567059" style="stroke: #000000; stroke-width: 0.8"/>
      </g>
     </g>
     <g id="line2d_12">
      <g>
       <use xlink:href="#m1fdde30078" x="290.78153" y="69.12" style="stroke: #000000; stroke-width: 0.8"/>
      </g>
     </g>
    </g>
    <g id="xtick_7">
     <g id="line2d_13">
      <g>
       <use xlink:href="#m6c362937de" x="333.479109" y="199.567059" style="stroke: #000000; stroke-width: 0.8"/>
      </g>
     </g>
     <g id="line2d_14">
      <g>
       <use xlink:href="#m1fdde30078" x="333.479109" y="69.12" style="stroke: #000000; stroke-width: 0.8"/>
      </g>
     </g>
    </g>
    <g id="xtick_8">
     <g id="line2d_15">
      <g>
       <use xlink:href="#m6c362937de" x="376.176688" y="199.567059" style="stroke: #000000; stroke-width: 0.8"/>
      </g>
     </g>
     <g id="line2d_16">
      <g>
       <use xlink:href="#m1fdde30078" x="376.176688" y="69.12" style="stroke: #000000; stroke-width: 0.8"/>
      </g>
     </g>
    </g>
    <g id="xtick_9">
     <g id="line2d_17">
      <g>
       <use xlink:href="#m6c362937de" x="418.874267" y="199.567059" style="stroke: #000000; stroke-width: 0.8"/>
      </g>
     </g>
     <g id="line2d_18">
      <g>
       <use xlink:href="#m1fdde30078" x="418.874267" y="69.12" style="stroke: #000000; stroke-width: 0.8"/>
      </g>
     </g>
    </g>
   </g>
   <g id="matplotlib.axis_2">
    <g id="ytick_1">
     <g id="line2d_19">
      <defs>
       <path id="m60b8c8eae2" d="M 0 0 
L 3.5 0 
" style="stroke: #000000; stroke-width: 0.8"/>
      </defs>
      <g>
       <use xlink:href="#m60b8c8eae2" x="60.3" y="193.637647" style="stroke: #000000; stroke-width: 0.8"/>
      </g>
     </g>
     <g id="text_1">
      <!-- −1 -->
      <g transform="translate(42.057813 197.436866) scale(0.1 -0.1)">
       <defs>
        <path id="DejaVuSans-2212" d="M 678 2272 
L 4684 2272 
L 4684 1741 
L 678 1741 
L 678 2272 
z
" transform="scale(0.015625)"/>
        <path id="DejaVuSans-31" d="M 794 531 
L 1825 531 
L 1825 4091 
L 703 3866 
L 703 4441 
L 1819 4666 
L 2450 4666 
L 2450 531 
L 3481 531 
L 3481 0 
L 794 0 
L 794 531 
z
" transform="scale(0.015625)"/>
       </defs>
       <use xlink:href="#DejaVuSans-2212"/>
       <use xlink:href="#DejaVuSans-31" x="83.789062"/>
      </g>
     </g>
    </g>
    <g id="ytick_2">
     <g id="line2d_20">
      <g>
       <use xlink:href="#m60b8c8eae2" x="60.3" y="134.343529" style="stroke: #000000; stroke-width: 0.8"/>
      </g>
     </g>
     <g id="text_2">
      <!-- 0 -->
      <g transform="translate(50.4375 138.142748) scale(0.1 -0.1)">
       <defs>
        <path id="DejaVuSans-30" d="M 2034 4250 
Q 1547 4250 1301 3770 
Q 1056 3291 1056 2328 
Q 1056 1369 1301 889 
Q 1547 409 2034 409 
Q 2525 409 2770 889 
Q 3016 1369 3016 2328 
Q 3016 3291 2770 3770 
Q 2525 4250 2034 4250 
z
M 2034 4750 
Q 2819 4750 3233 4129 
Q 3647 3509 3647 2328 
Q 3647 1150 3233 529 
Q 2819 -91 2034 -91 
Q 1250 -91 836 529 
Q 422 1150 422 2328 
Q 422 3509 836 4129 
Q 1250 4750 2034 4750 
z
" transform="scale(0.015625)"/>
       </defs>
       <use xlink:href="#DejaVuSans-30"/>
      </g>
     </g>
    </g>
    <g id="ytick_3">
     <g id="line2d_21">
      <g>
       <use xlink:href="#m60b8c8eae2" x="60.3" y="75.049412" style="stroke: #000000; stroke-width: 0.8"/>
      </g>
     </g>
     <g id="text_3">
      <!-- 1 -->
      <g transform="translate(50.4375 78.848631) scale(0.1 -0.1)">
       <use xlink:href="#DejaVuSans-31"/>
      </g>
     </g>
    </g>
   </g>
   <g id="line2d_22">
    <path d="M 77.293636 75.049412 
L 79.00154 75.166415 
L 80.709443 75.516964 
L 82.417346 76.099674 
L 84.125249 76.912246 
L 85.833152 77.951472 
L 87.541055 79.213253 
L 89.248958 80.692608 
L 90.956862 82.383698 
L 92.664765 84.27985 
L 94.372668 86.373581 
L 97.788474 91.119978 
L 101.20428 96.548036 
L 104.620087 102.572152 
L 108.035893 109.097322 
L 113.159603 119.597682 
L 119.991215 134.343529 
L 126.822828 149.089377 
L 131.946537 159.589737 
L 135.362344 166.114906 
L 138.77815 172.139022 
L 142.193956 177.567081 
L 145.609762 182.313478 
L 147.317666 184.407209 
L 149.025569 186.303361 
L 150.733472 187.994451 
L 152.441375 189.473806 
L 154.149278 190.735586 
L 155.857181 191.774813 
L 157.565085 192.587385 
L 159.272988 193.170095 
L 160.980891 193.520644 
L 162.688794 193.637647 
L 164.396697 193.520644 
L 166.1046 193.170095 
L 167.812503 192.587385 
L 169.520407 191.774813 
L 171.22831 190.735586 
L 172.936213 189.473806 
L 174.644116 187.994451 
L 176.352019 186.303361 
L 178.059922 184.407209 
L 179.767825 182.313478 
L 183.183632 177.567081 
L 186.599438 172.139022 
L 190.015244 166.114906 
L 193.431051 159.589737 
L 198.55476 149.089377 
L 205.386373 134.343529 
L 212.217985 119.597682 
L 217.341695 109.097322 
L 220.757501 102.572152 
L 224.173307 96.548036 
L 227.589114 91.119978 
L 231.00492 86.373581 
L 232.712823 84.27985 
L 234.420726 82.383698 
L 236.12863 80.692608 
L 237.836533 79.213253 
L 239.544436 77.951472 
L 241.252339 76.912246 
L 242.960242 76.099674 
L 244.668145 75.516964 
L 246.376048 75.166415 
L 248.083952 75.049412 
L 249.791855 75.166415 
L 251.499758 75.516964 
L 253.207661 76.099674 
L 254.915564 76.912246 
L 256.623467 77.951472 
L 258.33137 79.213253 
L 260.039274 80.692608 
L 261.747177 82.383698 
L 263.45508 84.27985 
L 265.162983 86.373581 
L 268.578789 91.119978 
L 271.994596 96.548036 
L 275.410402 102.572152 
L 278.826208 109.097322 
L 283.949918 119.597682 
L 290.78153 134.343529 
L 297.613143 149.089377 
L 302.736852 159.589737 
L 306.152659 166.114906 
L 309.568465 172.139022 
L 312.984271 177.567081 
L 316.400078 182.313478 
L 318.107981 184.407209 
L 319.815884 186.303361 
L 321.523787 187.994451 
L 323.23169 189.473806 
L 324.939593 190.735586 
L 326.647497 191.774813 
L 328.3554 192.587385 
L 330.063303 193.170095 
L 331.771206 193.520644 
L 333.479109 193.637647 
L 335.187012 193.520644 
L 336.894915 193.170095 
L 338.602819 192.587385 
L 340.310722 191.774813 
L 342.018625 190.735586 
L 343.726528 189.473806 
L 345.434431 187.994451 
L 347.142334 186.303361 
L 348.850238 184.407209 
L 350.558141 182.313478 
L 353.973947 177.567081 
L 357.389753 172.139022 
L 360.80556 166.114906 
L 364.221366 159.589737 
L 369.345075 149.089377 
L 376.176688 134.343529 
L 383.008301 119.597682 
L 388.13201 109.097322 
L 391.547816 102.572152 
L 394.963623 96.548036 
L 398.379429 91.119978 
L 401.795235 86.373581 
L 403.503138 84.27985 
L 405.211042 82.383698 
L 406.918945 80.692608 
L 408.626848 79.213253 
L 410.334751 77.951472 
L 412.042654 76.912246 
L 413.750557 76.099674 
L 415.45846 75.516964 
L 417.166364 75.166415 
L 417.166364 75.166415 
" clip-path="url(#p3a8640bbe9)" style="fill: none; stroke: #000000; stroke-width: 1.5; stroke-linecap: square"/>
   </g>
   <g id="line2d_23">
    <path d="M 77.293636 75.049412 
L 79.00154 75.166415 
L 80.709443 75.516964 
L 82.417346 76.099674 
L 84.125249 76.912246 
L 85.833152 77.951472 
L 87.541055 79.213253 
L 89.248958 80.692608 
L 90.956862 82.383698 
L 92.664765 84.27985 
L 94.372668 86.373581 
L 97.788474 91.119978 
L 101.20428 96.548036 
L 104.620087 102.572152 
L 108.035893 109.097322 
L 113.159603 119.597682 
L 119.991215 134.343529 
L 126.822828 149.089377 
L 131.946537 159.589737 
L 135.362344 166.114906 
L 138.77815 172.139022 
L 142.193956 177.567081 
L 145.609762 182.313478 
L 147.317666 184.407209 
L 149.025569 186.303361 
L 150.733472 187.994451 
L 152.441375 189.473806 
L 154.149278 190.735586 
L 155.857181 191.774813 
L 157.565085 192.587385 
L 159.272988 193.170095 
L 160.980891 193.520644 
L 162.688794 193.637647 
L 164.396697 193.520644 
L 166.1046 193.170095 
L 167.812503 192.587385 
L 169.520407 191.774813 
L 171.22831 190.735586 
L 172.936213 189.473806 
L 174.644116 187.994451 
L 176.352019 186.303361 
L 178.059922 184.407209 
L 179.767825 182.313478 
L 183.183632 177.567081 
L 186.599438 172.139022 
L 190.015244 166.114906 
L 193.431051 159.589737 
L 198.55476 149.089377 
L 205.386373 134.343529 
L 212.217985 119.597682 
L 217.341695 109.097322 
L 220.757501 102.572152 
L 224.173307 96.548036 
L 227.589114 91.119978 
L 231.00492 86.373581 
L 232.712823 84.27985 
L 234.420726 82.383698 
L 236.12863 80.692608 
L 237.836533 79.213253 
L 239.544436 77.951472 
L 241.252339 76.912246 
L 242.960242 76.099674 
L 244.668145 75.516964 
L 246.376048 75.166415 
L 248.083952 75.049412 
L 249.791855 75.166415 
L 251.499758 75.516964 
L 253.207661 76.099674 
L 254.915564 76.912246 
L 256.623467 77.951472 
L 258.33137 79.213253 
L 260.039274 80.692608 
L 261.747177 82.383698 
L 263.45508 84.27985 
L 265.162983 86.373581 
L 268.578789 91.119978 
L 271.994596 96.548036 
L 275.410402 102.572152 
L 278.826208 109.097322 
L 283.949918 119.597682 
L 290.78153 134.343529 
L 297.613143 149.089377 
L 302.736852 159.589737 
L 306.152659 166.114906 
L 309.568465 172.139022 
L 312.984271 177.567081 
L 316.400078 182.313478 
L 318.107981 184.407209 
L 319.815884 186.303361 
L 321.523787 187.994451 
L 323.23169 189.473806 
L 324.939593 190.735586 
L 326.647497 191.774813 
L 328.3554 192.587385 
L 330.063303 193.170095 
L 331.771206 193.520644 
L 333.479109 193.637647 
L 335.187012 193.520644 
L 336.894915 193.170095 
L 338.602819 192.587385 
L 340.310722 191.774813 
L 342.018625 190.735586 
L 343.726528 189.473806 
L 345.434431 187.994451 
L 347.142334 186.303361 
L 348.850238 184.407209 
L 350.558141 182.313478 
L 353.973947 177.567081 
L 357.389753 172.139022 
L 360.80556 166.114906 
L 364.221366 159.589737 
L 369.345075 149.089377 
L 376.176688 134.343529 
L 383.008301 119.597682 
L 388.13201 109.097322 
L 391.547816 102.572152 
L 394.963623 96.548036 
L 398.379429 91.119978 
L 401.795235 86.373581 
L 403.503138 84.27985 
L 405.211042 82.383698 
L 406.918945 80.692608 
L 408.626848 79.213253 
L 410.334751 77.951472 
L 412.042654 76.912246 
L 413.750557 76.099674 
L 415.45846 75.516964 
L 417.166364 75.166415 
L 417.166364 75.166415 
" clip-path="url(#p3a8640bbe9)" style="fill: none; stroke-dasharray: 5.55,2.4; stroke-dashoffset: 0; stroke: #0000ff; stroke-width: 1.5"/>
   </g>
   <g id="patch_3">
    <path d="M 60.3 199.567059 
L 60.3 69.12 
" style="fill: none; stroke: #000000; stroke-width: 0.8; stroke-linejoin: miter; stroke-linecap: square"/>
   </g>
   <g id="patch_4">
    <path d="M 434.16 199.567059 
L 434.16 69.12 
" style="fill: none; stroke: #000000; stroke-width: 0.8; stroke-linejoin: miter; stroke-linecap: square"/>
   </g>
   <g id="patch_5">
    <path d="M 60.3 199.567059 
L 434.16 199.567059 
" style="fill: none; stroke: #000000; stroke-width: 0.8; stroke-linejoin: miter; stroke-linecap: square"/>
   </g>
   <g id="patch_6">
    <path d="M 60.3 69.12 
L 434.16 69.12 
" style="fill: none; stroke: #000000; stroke-width: 0.8; stroke-linejoin: miter; stroke-linecap: square"/>
   </g>
   <g id="text_4">
    <!-- $\sigma_{2D} \ll \sigma_M$ -->
    <g transform="translate(221.13 63.12) scale(0.12 -0.12)">
     <defs>
      <path id="DejaVuSans-Oblique-3c3" d="M 2219 3044 
Q 1744 3044 1422 2700 
Q 1081 2341 969 1747 
Q 844 1119 1044 756 
Q 1241 397 1706 397 
Q 2166 397 2503 759 
Q 2844 1122 2966 1747 
Q 3075 2319 2881 2700 
Q 2700 3044 2219 3044 
z
M 2309 3503 
L 4219 3500 
L 4106 2925 
L 3463 2925 
Q 3706 2438 3575 1747 
Q 3406 888 2884 400 
Q 2359 -91 1609 -91 
Q 856 -91 525 400 
Q 194 888 363 1747 
Q 528 2609 1050 3097 
Q 1484 3503 2309 3503 
z
" transform="scale(0.015625)"/>
      <path id="DejaVuSans-32" d="M 1228 531 
L 3431 531 
L 3431 0 
L 469 0 
L 469 531 
Q 828 903 1448 1529 
Q 2069 2156 2228 2338 
Q 2531 2678 2651 2914 
Q 2772 3150 2772 3378 
Q 2772 3750 2511 3984 
Q 2250 4219 1831 4219 
Q 1534 4219 1204 4116 
Q 875 4013 500 3803 
L 500 4441 
Q 881 4594 1212 4672 
Q 1544 4750 1819 4750 
Q 2544 4750 2975 4387 
Q 3406 4025 3406 3419 
Q 3406 3131 3298 2873 
Q 3191 2616 2906 2266 
Q 2828 2175 2409 1742 
Q 1991 1309 1228 531 
z
" transform="scale(0.015625)"/>
      <path id="DejaVuSans-Oblique-44" d="M 1081 4666 
L 2438 4666 
Q 3519 4666 4070 4208 
Q 4622 3750 4622 2847 
Q 4622 2250 4412 1698 
Q 4203 1147 3834 769 
Q 3463 381 2891 190 
Q 2319 0 1538 0 
L 172 0 
L 1081 4666 
z
M 1613 4147 
L 909 519 
L 1734 519 
Q 2794 519 3375 1128 
Q 3956 1738 3956 2847 
Q 3956 3519 3581 3833 
Q 3206 4147 2406 4147 
L 1613 4147 
z
" transform="scale(0.015625)"/>
      <path id="DejaVuSans-226a" d="M 6238 3253 
L 3656 2003 
L 6238 759 
L 6238 144 
L 2869 1769 
L 2869 2266 
L 6238 3897 
L 6238 3253 
z
M 3831 3253 
L 1250 2003 
L 3831 759 
L 3831 144 
L 463 1769 
L 463 2266 
L 3831 3897 
L 3831 3253 
z
" transform="scale(0.015625)"/>
      <path id="DejaVuSans-Oblique-4d" d="M 1081 4666 
L 2028 4666 
L 2572 1522 
L 4378 4666 
L 5350 4666 
L 4441 0 
L 3828 0 
L 4622 4091 
L 2791 897 
L 2175 897 
L 1581 4103 
L 788 0 
L 172 0 
L 1081 4666 
z
" transform="scale(0.015625)"/>
     </defs>
     <use xlink:href="#DejaVuSans-Oblique-3c3" transform="translate(0 0.109375)"/>
     <use xlink:href="#DejaVuSans-32" transform="translate(63.378906 -16.296875) scale(0.7)"/>
     <use xlink:href="#DejaVuSans-Oblique-44" transform="translate(107.915039 -16.296875) scale(0.7)"/>
     <use xlink:href="#DejaVuSans-226a" transform="translate(184.033203 0.109375)"/>
     <use xlink:href="#DejaVuSans-Oblique-3c3" transform="translate(308.203125 0.109375)"/>
     <use xlink:href="#DejaVuSans-Oblique-4d" transform="translate(371.582031 -16.296875) scale(0.7)"/>
    </g>
   </g>
  </g>
  <g id="axes_2">
   <g id="patch_7">
    <path d="M 60.3 356.103529 
L 434.16 356.103529 
L 434.16 225.656471 
L 60.3 225.656471 
z
" style="fill: #ffffff"/>
   </g>
   <g id="matplotlib.axis_3">
    <g id="xtick_10">
     <g id="line2d_24">
      <g>
       <use xlink:href="#m6c362937de" x="77.293636" y="356.103529" style="stroke: #000000; stroke-width: 0.8"/>
      </g>
     </g>
     <g id="line2d_25">
      <g>
       <use xlink:href="#m1fdde30078" x="77.293636" y="225.656471" style="stroke: #000000; stroke-width: 0.8"/>
      </g>
     </g>
    </g>
    <g id="xtick_11">
     <g id="line2d_26">
      <g>
       <use xlink:href="#m6c362937de" x="119.991215" y="356.103529" style="stroke: #000000; stroke-width: 0.8"/>
      </g>
     </g>
     <g id="line2d_27">
      <g>
       <use xlink:href="#m1fdde30078" x="119.991215" y="225.656471" style="stroke: #000000; stroke-width: 0.8"/>
      </g>
     </g>
    </g>
    <g id="xtick_12">
     <g id="line2d_28">
      <g>
       <use xlink:href="#m6c362937de" x="162.688794" y="356.103529" style="stroke: #000000; stroke-width: 0.8"/>
      </g>
     </g>
     <g id="line2d_29">
      <g>
       <use xlink:href="#m1fdde30078" x="162.688794" y="225.656471" style="stroke: #000000; stroke-width: 0.8"/>
      </g>
     </g>
    </g>
    <g id="xtick_13">
     <g id="line2d_30">
      <g>
       <use xlink:href="#m6c362937de" x="205.386373" y="356.103529" style="stroke: #000000; stroke-width: 0.8"/>
      </g>
     </g>
     <g id="line2d_31">
      <g>
       <use xlink:href="#m1fdde30078" x="205.386373" y="225.656471" style="stroke: #000000; stroke-width: 0.8"/>
      </g>
     </g>
    </g>
    <g id="xtick_14">
     <g id="line2d_32">
      <g>
       <use xlink:href="#m6c362937de" x="248.083952" y="356.103529" style="stroke: #000000; stroke-width: 0.8"/>
      </g>
     </g>
     <g id="line2d_33">
      <g>
       <use xlink:href="#m1fdde30078" x="248.083952" y="225.656471" style="stroke: #000000; stroke-width: 0.8"/>
      </g>
     </g>
    </g>
    <g id="xtick_15">
     <g id="line2d_34">
      <g>
       <use xlink:href="#m6c362937de" x="290.78153" y="356.103529" style="stroke: #000000; stroke-width: 0.8"/>
      </g>
     </g>
     <g id="line2d_35">
      <g>
       <use xlink:href="#m1fdde30078" x="290.78153" y="225.656471" style="stroke: #000000; stroke-width: 0.8"/>
      </g>
     </g>
    </g>
    <g id="xtick_16">
     <g id="line2d_36">
      <g>
       <use xlink:href="#m6c362937de" x="333.479109" y="356.103529" style="stroke: #000000; stroke-width: 0.8"/>
      </g>
     </g>
     <g id="line2d_37">
      <g>
       <use xlink:href="#m1fdde30078" x="333.479109" y="225.656471" style="stroke: #000000; stroke-width: 0.8"/>
      </g>
     </g>
    </g>
    <g id="xtick_17">
     <g id="line2d_38">
      <g>
       <use xlink:href="#m6c362937de" x="376.176688" y="356.103529" style="stroke: #000000; stroke-width: 0.8"/>
      </g>
     </g>
     <g id="line2d_39">
      <g>
       <use xlink:href="#m1fdde30078" x="376.176688" y="225.656471" style="stroke: #000000; stroke-width: 0.8"/>
      </g>
     </g>
    </g>
    <g id="xtick_18">
     <g id="line2d_40">
      <g>
       <use xlink:href="#m6c362937de" x="418.874267" y="356.103529" style="stroke: #000000; stroke-width: 0.8"/>
      </g>
     </g>
     <g id="line2d_41">
      <g>
       <use xlink:href="#m1fdde30078" x="418.874267" y="225.656471" style="stroke: #000000; stroke-width: 0.8"/>
      </g>
     </g>
    </g>
   </g>
   <g id="matplotlib.axis_4">
    <g id="ytick_4">
     <g id="line2d_42">
      <g>
       <use xlink:href="#m60b8c8eae2" x="60.3" y="350.174118" style="stroke: #000000; stroke-width: 0.8"/>
      </g>
     </g>
     <g id="text_5">
      <!-- −1 -->
      <g transform="translate(42.057813 353.973336) scale(0.1 -0.1)">
       <use xlink:href="#DejaVuSans-2212"/>
       <use xlink:href="#DejaVuSans-31" x="83.789062"/>
      </g>
     </g>
    </g>
    <g id="ytick_5">
     <g id="line2d_43">
      <g>
       <use xlink:href="#m60b8c8eae2" x="60.3" y="290.88" style="stroke: #000000; stroke-width: 0.8"/>
      </g>
     </g>
     <g id="text_6">
      <!-- 0 -->
      <g transform="translate(50.4375 294.679219) scale(0.1 -0.1)">
       <use xlink:href="#DejaVuSans-30"/>
      </g>
     </g>
    </g>
    <g id="ytick_6">
     <g id="line2d_44">
      <g>
       <use xlink:href="#m60b8c8eae2" x="60.3" y="231.585882" style="stroke: #000000; stroke-width: 0.8"/>
      </g>
     </g>
     <g id="text_7">
      <!-- 1 -->
      <g transform="translate(50.4375 235.385101) scale(0.1 -0.1)">
       <use xlink:href="#DejaVuSans-31"/>
      </g>
     </g>
    </g>
   </g>
   <g id="line2d_45">
    <path d="M 77.293636 231.585882 
L 79.00154 231.702886 
L 80.709443 232.053434 
L 82.417346 232.636144 
L 84.125249 233.448716 
L 85.833152 234.487943 
L 87.541055 235.749724 
L 89.248958 237.229078 
L 90.956862 238.920169 
L 92.664765 240.816321 
L 94.372668 242.910051 
L 97.788474 247.656448 
L 101.20428 253.084507 
L 104.620087 259.108623 
L 108.035893 265.633793 
L 113.159603 276.134153 
L 119.991215 290.88 
L 126.822828 305.625847 
L 131.946537 316.126207 
L 135.362344 322.651377 
L 138.77815 328.675493 
L 142.193956 334.103552 
L 145.609762 338.849949 
L 147.317666 340.943679 
L 149.025569 342.839831 
L 150.733472 344.530922 
L 152.441375 346.010276 
L 154.149278 347.272057 
L 155.857181 348.311284 
L 157.565085 349.123856 
L 159.272988 349.706566 
L 160.980891 350.057114 
L 162.688794 350.174118 
L 164.396697 350.057114 
L 166.1046 349.706566 
L 167.812503 349.123856 
L 169.520407 348.311284 
L 171.22831 347.272057 
L 172.936213 346.010276 
L 174.644116 344.530922 
L 176.352019 342.839831 
L 178.059922 340.943679 
L 179.767825 338.849949 
L 183.183632 334.103552 
L 186.599438 328.675493 
L 190.015244 322.651377 
L 193.431051 316.126207 
L 198.55476 305.625847 
L 205.386373 290.88 
L 212.217985 276.134153 
L 217.341695 265.633793 
L 220.757501 259.108623 
L 224.173307 253.084507 
L 227.589114 247.656448 
L 231.00492 242.910051 
L 232.712823 240.816321 
L 234.420726 238.920169 
L 236.12863 237.229078 
L 237.836533 235.749724 
L 239.544436 234.487943 
L 241.252339 233.448716 
L 242.960242 232.636144 
L 244.668145 232.053434 
L 246.376048 231.702886 
L 248.083952 231.585882 
L 249.791855 231.702886 
L 251.499758 232.053434 
L 253.207661 232.636144 
L 254.915564 233.448716 
L 256.623467 234.487943 
L 258.33137 235.749724 
L 260.039274 237.229078 
L 261.747177 238.920169 
L 263.45508 240.816321 
L 265.162983 242.910051 
L 268.578789 247.656448 
L 271.994596 253.084507 
L 275.410402 259.108623 
L 278.826208 265.633793 
L 283.949918 276.134153 
L 290.78153 290.88 
L 297.613143 305.625847 
L 302.736852 316.126207 
L 306.152659 322.651377 
L 309.568465 328.675493 
L 312.984271 334.103552 
L 316.400078 338.849949 
L 318.107981 340.943679 
L 319.815884 342.839831 
L 321.523787 344.530922 
L 323.23169 346.010276 
L 324.939593 347.272057 
L 326.647497 348.311284 
L 328.3554 349.123856 
L 330.063303 349.706566 
L 331.771206 350.057114 
L 333.479109 350.174118 
L 335.187012 350.057114 
L 336.894915 349.706566 
L 338.602819 349.123856 
L 340.310722 348.311284 
L 342.018625 347.272057 
L 343.726528 346.010276 
L 345.434431 344.530922 
L 347.142334 342.839831 
L 348.850238 340.943679 
L 350.558141 338.849949 
L 353.973947 334.103552 
L 357.389753 328.675493 
L 360.80556 322.651377 
L 364.221366 316.126207 
L 369.345075 305.625847 
L 376.176688 290.88 
L 383.008301 276.134153 
L 388.13201 265.633793 
L 391.547816 259.108623 
L 394.963623 253.084507 
L 398.379429 247.656448 
L 401.795235 242.910051 
L 403.503138 240.816321 
L 405.211042 238.920169 
L 406.918945 237.229078 
L 408.626848 235.749724 
L 410.334751 234.487943 
L 412.042654 233.448716 
L 413.750557 232.636144 
L 415.45846 232.053434 
L 417.166364 231.702886 
L 417.166364 231.702886 
" clip-path="url(#p2d96e52157)" style="fill: none; stroke: #000000; stroke-width: 1.5; stroke-linecap: square"/>
   </g>
   <g id="line2d_46">
    <path d="M 77.293636 248.952727 
L 80.709443 244.028456 
L 82.417346 241.838987 
L 84.125249 239.843061 
L 85.833152 238.048554 
L 87.541055 236.462549 
L 89.248958 235.091305 
L 90.956862 233.940233 
L 92.664765 233.013877 
L 94.372668 232.315891 
L 96.080571 231.849032 
L 97.788474 231.61514 
L 99.496377 231.61514 
L 101.20428 231.849032 
L 102.912184 232.315891 
L 104.620087 233.013877 
L 106.32799 233.940233 
L 108.035893 235.091305 
L 109.743796 236.462549 
L 111.451699 238.048554 
L 113.159603 239.843061 
L 114.867506 241.838987 
L 116.575409 244.028456 
L 119.991215 248.952727 
L 123.407021 254.538217 
L 126.822828 260.696838 
L 130.238634 267.331466 
L 135.362344 277.945389 
L 152.441375 314.428534 
L 155.857181 321.063162 
L 159.272988 327.221783 
L 162.688794 332.807273 
L 166.1046 337.731544 
L 167.812503 339.921013 
L 169.520407 341.916939 
L 171.22831 343.711446 
L 172.936213 345.297451 
L 174.644116 346.668695 
L 176.352019 347.819767 
L 178.059922 348.746123 
L 179.767825 349.444109 
L 181.475729 349.910968 
L 183.183632 350.14486 
L 184.891535 350.14486 
L 186.599438 349.910968 
L 188.307341 349.444109 
L 190.015244 348.746123 
L 191.723148 347.819767 
L 193.431051 346.668695 
L 195.138954 345.297451 
L 196.846857 343.711446 
L 198.55476 341.916939 
L 200.262663 339.921013 
L 201.970566 337.731544 
L 205.386373 332.807273 
L 208.802179 327.221783 
L 212.217985 321.063162 
L 215.633792 314.428534 
L 220.757501 303.814611 
L 237.836533 267.331466 
L 241.252339 260.696838 
L 244.668145 254.538217 
L 248.083952 248.952727 
L 251.499758 244.028456 
L 253.207661 241.838987 
L 254.915564 239.843061 
L 256.623467 238.048554 
L 258.33137 236.462549 
L 260.039274 235.091305 
L 261.747177 233.940233 
L 263.45508 233.013877 
L 265.162983 232.315891 
L 266.870886 231.849032 
L 268.578789 231.61514 
L 270.286693 231.61514 
L 271.994596 231.849032 
L 273.702499 232.315891 
L 275.410402 233.013877 
L 277.118305 233.940233 
L 278.826208 235.091305 
L 280.534111 236.462549 
L 282.242015 238.048554 
L 283.949918 239.843061 
L 285.657821 241.838987 
L 287.365724 244.028456 
L 290.78153 248.952727 
L 294.197337 254.538217 
L 297.613143 260.696838 
L 301.028949 267.331466 
L 306.152659 277.945389 
L 323.23169 314.428534 
L 326.647497 321.063162 
L 330.063303 327.221783 
L 333.479109 332.807273 
L 336.894915 337.731544 
L 338.602819 339.921013 
L 340.310722 341.916939 
L 342.018625 343.711446 
L 343.726528 345.297451 
L 345.434431 346.668695 
L 347.142334 347.819767 
L 348.850238 348.746123 
L 350.558141 349.444109 
L 352.266044 349.910968 
L 353.973947 350.14486 
L 355.68185 350.14486 
L 357.389753 349.910968 
L 359.097656 349.444109 
L 360.80556 348.746123 
L 362.513463 347.819767 
L 364.221366 346.668695 
L 365.929269 345.297451 
L 367.637172 343.711446 
L 369.345075 341.916939 
L 371.052979 339.921013 
L 372.760882 337.731544 
L 376.176688 332.807273 
L 379.592494 327.221783 
L 383.008301 321.063162 
L 386.424107 314.428534 
L 391.547816 303.814611 
L 408.626848 267.331466 
L 412.042654 260.696838 
L 415.45846 254.538217 
L 417.166364 251.668096 
L 417.166364 251.668096 
" clip-path="url(#p2d96e52157)" style="fill: none; stroke-dasharray: 5.55,2.4; stroke-dashoffset: 0; stroke: #0000ff; stroke-width: 1.5"/>
   </g>
   <g id="patch_8">
    <path d="M 60.3 356.103529 
L 60.3 225.656471 
" style="fill: none; stroke: #000000; stroke-width: 0.8; stroke-linejoin: miter; stroke-linecap: square"/>
   </g>
   <g id="patch_9">
    <path d="M 434.16 356.103529 
L 434.16 225.656471 
" style="fill: none; stroke: #000000; stroke-width: 0.8; stroke-linejoin: miter; stroke-linecap: square"/>
   </g>
   <g id="patch_10">
    <path d="M 60.3 356.103529 
L 434.16 356.103529 
" style="fill: none; stroke: #000000; stroke-width: 0.8; stroke-linejoin: miter; stroke-linecap: square"/>
   </g>
   <g id="patch_11">
    <path d="M 60.3 225.656471 
L 434.16 225.656471 
" style="fill: none; stroke: #000000; stroke-width: 0.8; stroke-linejoin: miter; stroke-linecap: square"/>
   </g>
   <g id="text_8">
    <!-- $\sigma_{2D} = \sigma_M$ -->
    <g transform="translate(222.39 219.656471) scale(0.12 -0.12)">
     <defs>
      <path id="DejaVuSans-3d" d="M 678 2906 
L 4684 2906 
L 4684 2381 
L 678 2381 
L 678 2906 
z
M 678 1631 
L 4684 1631 
L 4684 1100 
L 678 1100 
L 678 1631 
z
" transform="scale(0.015625)"/>
     </defs>
     <use xlink:href="#DejaVuSans-Oblique-3c3" transform="translate(0 0.265625)"/>
     <use xlink:href="#DejaVuSans-32" transform="translate(63.378906 -16.140625) scale(0.7)"/>
     <use xlink:href="#DejaVuSans-Oblique-44" transform="translate(107.915039 -16.140625) scale(0.7)"/>
     <use xlink:href="#DejaVuSans-3d" transform="translate(184.033203 0.265625)"/>
     <use xlink:href="#DejaVuSans-Oblique-3c3" transform="translate(287.304688 0.265625)"/>
     <use xlink:href="#DejaVuSans-Oblique-4d" transform="translate(350.683594 -16.140625) scale(0.7)"/>
    </g>
   </g>
  </g>
  <g id="axes_3">
   <g id="patch_12">
    <path d="M 60.3 512.64 
L 434.16 512.64 
L 434.16 382.192941 
L 60.3 382.192941 
z
" style="fill: #ffffff"/>
   </g>
   <g id="matplotlib.axis_5">
    <g id="xtick_19">
     <g id="line2d_47">
      <g>
       <use xlink:href="#m1fdde30078" x="77.293636" y="512.64" style="stroke: #000000; stroke-width: 0.8"/>
      </g>
     </g>
     <g id="text_9">
      <!-- −1.00 -->
      <g transform="translate(61.97098 527.238438) scale(0.1 -0.1)">
       <defs>
        <path id="DejaVuSans-2e" d="M 684 794 
L 1344 794 
L 1344 0 
L 684 0 
L 684 794 
z
" transform="scale(0.015625)"/>
       </defs>
       <use xlink:href="#DejaVuSans-2212"/>
       <use xlink:href="#DejaVuSans-31" x="83.789062"/>
       <use xlink:href="#DejaVuSans-2e" x="147.412109"/>
       <use xlink:href="#DejaVuSans-30" x="179.199219"/>
       <use xlink:href="#DejaVuSans-30" x="242.822266"/>
      </g>
     </g>
    </g>
    <g id="xtick_20">
     <g id="line2d_48">
      <g>
       <use xlink:href="#m1fdde30078" x="119.991215" y="512.64" style="stroke: #000000; stroke-width: 0.8"/>
      </g>
     </g>
     <g id="text_10">
      <!-- −0.75 -->
      <g transform="translate(104.668559 527.238438) scale(0.1 -0.1)">
       <defs>
        <path id="DejaVuSans-37" d="M 525 4666 
L 3525 4666 
L 3525 4397 
L 1831 0 
L 1172 0 
L 2766 4134 
L 525 4134 
L 525 4666 
z
" transform="scale(0.015625)"/>
        <path id="DejaVuSans-35" d="M 691 4666 
L 3169 4666 
L 3169 4134 
L 1269 4134 
L 1269 2991 
Q 1406 3038 1543 3061 
Q 1681 3084 1819 3084 
Q 2600 3084 3056 2656 
Q 3513 2228 3513 1497 
Q 3513 744 3044 326 
Q 2575 -91 1722 -91 
Q 1428 -91 1123 -41 
Q 819 9 494 109 
L 494 744 
Q 775 591 1075 516 
Q 1375 441 1709 441 
Q 2250 441 2565 725 
Q 2881 1009 2881 1497 
Q 2881 1984 2565 2268 
Q 2250 2553 1709 2553 
Q 1456 2553 1204 2497 
Q 953 2441 691 2322 
L 691 4666 
z
" transform="scale(0.015625)"/>
       </defs>
       <use xlink:href="#DejaVuSans-2212"/>
       <use xlink:href="#DejaVuSans-30" x="83.789062"/>
       <use xlink:href="#DejaVuSans-2e" x="147.412109"/>
       <use xlink:href="#DejaVuSans-37" x="179.199219"/>
       <use xlink:href="#DejaVuSans-35" x="242.822266"/>
      </g>
     </g>
    </g>
    <g id="xtick_21">
     <g id="line2d_49">
      <g>
       <use xlink:href="#m1fdde30078" x="162.688794" y="512.64" style="stroke: #000000; stroke-width: 0.8"/>
      </g>
     </g>
     <g id="text_11">
      <!-- −0.50 -->
      <g transform="translate(147.366138 527.238438) scale(0.1 -0.1)">
       <use xlink:href="#DejaVuSans-2212"/>
       <use xlink:href="#DejaVuSans-30" x="83.789062"/>
       <use xlink:href="#DejaVuSans-2e" x="147.412109"/>
       <use xlink:href="#DejaVuSans-35" x="179.199219"/>
       <use xlink:href="#DejaVuSans-30" x="242.822266"/>
      </g>
     </g>
    </g>
    <g id="xtick_22">
     <g id="line2d_50">
      <g>
       <use xlink:href="#m1fdde30078" x="205.386373" y="512.64" style="stroke: #000000; stroke-width: 0.8"/>
      </g>
     </g>
     <g id="text_12">
      <!-- −0.25 -->
      <g transform="translate(190.063717 527.238438) scale(0.1 -0.1)">
       <use xlink:href="#DejaVuSans-2212"/>
       <use xlink:href="#DejaVuSans-30" x="83.789062"/>
       <use xlink:href="#DejaVuSans-2e" x="147.412109"/>
       <use xlink:href="#DejaVuSans-32" x="179.199219"/>
       <use xlink:href="#DejaVuSans-35" x="242.822266"/>
      </g>
     </g>
    </g>
    <g id="xtick_23">
     <g id="line2d_51">
      <g>
       <use xlink:href="#m1fdde30078" x="248.083952" y="512.64" style="stroke: #000000; stroke-width: 0.8"/>
      </g>
     </g>
     <g id="text_13">
      <!-- 0.00 -->
      <g transform="translate(236.951139 527.238438) scale(0.1 -0.1)">
       <use xlink:href="#DejaVuSans-30"/>
       <use xlink:href="#DejaVuSans-2e" x="63.623047"/>
       <use xlink:href="#DejaVuSans-30" x="95.410156"/>
       <use xlink:href="#DejaVuSans-30" x="159.033203"/>
      </g>
     </g>
    </g>
    <g id="xtick_24">
     <g id="line2d_52">
      <g>
       <use xlink:href="#m1fdde30078" x="290.78153" y="512.64" style="stroke: #000000; stroke-width: 0.8"/>
      </g>
     </g>
     <g id="text_14">
      <!-- 0.25 -->
      <g transform="translate(279.648718 527.238438) scale(0.1 -0.1)">
       <use xlink:href="#DejaVuSans-30"/>
       <use xlink:href="#DejaVuSans-2e" x="63.623047"/>
       <use xlink:href="#DejaVuSans-32" x="95.410156"/>
       <use xlink:href="#DejaVuSans-35" x="159.033203"/>
      </g>
     </g>
    </g>
    <g id="xtick_25">
     <g id="line2d_53">
      <g>
       <use xlink:href="#m1fdde30078" x="333.479109" y="512.64" style="stroke: #000000; stroke-width: 0.8"/>
      </g>
     </g>
     <g id="text_15">
      <!-- 0.50 -->
      <g transform="translate(322.346297 527.238438) scale(0.1 -0.1)">
       <use xlink:href="#DejaVuSans-30"/>
       <use xlink:href="#DejaVuSans-2e" x="63.623047"/>
       <use xlink:href="#DejaVuSans-35" x="95.410156"/>
       <use xlink:href="#DejaVuSans-30" x="159.033203"/>
      </g>
     </g>
    </g>
    <g id="xtick_26">
     <g id="line2d_54">
      <g>
       <use xlink:href="#m1fdde30078" x="376.176688" y="512.64" style="stroke: #000000; stroke-width: 0.8"/>
      </g>
     </g>
     <g id="text_16">
      <!-- 0.75 -->
      <g transform="translate(365.043875 527.238438) scale(0.1 -0.1)">
       <use xlink:href="#DejaVuSans-30"/>
       <use xlink:href="#DejaVuSans-2e" x="63.623047"/>
       <use xlink:href="#DejaVuSans-37" x="95.410156"/>
       <use xlink:href="#DejaVuSans-35" x="159.033203"/>
      </g>
     </g>
    </g>
    <g id="xtick_27">
     <g id="line2d_55">
      <g>
       <use xlink:href="#m1fdde30078" x="418.874267" y="512.64" style="stroke: #000000; stroke-width: 0.8"/>
      </g>
     </g>
     <g id="text_17">
      <!-- 1.00 -->
      <g transform="translate(407.741454 527.238438) scale(0.1 -0.1)">
       <use xlink:href="#DejaVuSans-31"/>
       <use xlink:href="#DejaVuSans-2e" x="63.623047"/>
       <use xlink:href="#DejaVuSans-30" x="95.410156"/>
       <use xlink:href="#DejaVuSans-30" x="159.033203"/>
      </g>
     </g>
    </g>
   </g>
   <g id="matplotlib.axis_6">
    <g id="ytick_7">
     <g id="line2d_56">
      <defs>
       <path id="mf2da52d163" d="M 0 0 
L -3.5 0 
" style="stroke: #000000; stroke-width: 0.8"/>
      </defs>
      <g>
       <use xlink:href="#mf2da52d163" x="60.3" y="506.710588" style="stroke: #000000; stroke-width: 0.8"/>
      </g>
     </g>
     <g id="text_18">
      <!-- −1.0 -->
      <g transform="translate(29.017188 510.509807) scale(0.1 -0.1)">
       <use xlink:href="#DejaVuSans-2212"/>
       <use xlink:href="#DejaVuSans-31" x="83.789062"/>
       <use xlink:href="#DejaVuSans-2e" x="147.412109"/>
       <use xlink:href="#DejaVuSans-30" x="179.199219"/>
      </g>
     </g>
    </g>
    <g id="ytick_8">
     <g id="line2d_57">
      <g>
       <use xlink:href="#mf2da52d163" x="60.3" y="477.063529" style="stroke: #000000; stroke-width: 0.8"/>
      </g>
     </g>
     <g id="text_19">
      <!-- −0.5 -->
      <g transform="translate(29.017188 480.862748) scale(0.1 -0.1)">
       <use xlink:href="#DejaVuSans-2212"/>
       <use xlink:href="#DejaVuSans-30" x="83.789062"/>
       <use xlink:href="#DejaVuSans-2e" x="147.412109"/>
       <use xlink:href="#DejaVuSans-35" x="179.199219"/>
      </g>
     </g>
    </g>
    <g id="ytick_9">
     <g id="line2d_58">
      <g>
       <use xlink:href="#mf2da52d163" x="60.3" y="447.416471" style="stroke: #000000; stroke-width: 0.8"/>
      </g>
     </g>
     <g id="text_20">
      <!-- 0.0 -->
      <g transform="translate(37.396875 451.215689) scale(0.1 -0.1)">
       <use xlink:href="#DejaVuSans-30"/>
       <use xlink:href="#DejaVuSans-2e" x="63.623047"/>
       <use xlink:href="#DejaVuSans-30" x="95.410156"/>
      </g>
     </g>
    </g>
    <g id="ytick_10">
     <g id="line2d_59">
      <g>
       <use xlink:href="#mf2da52d163" x="60.3" y="417.769412" style="stroke: #000000; stroke-width: 0.8"/>
      </g>
     </g>
     <g id="text_21">
      <!-- 0.5 -->
      <g transform="translate(37.396875 421.568631) scale(0.1 -0.1)">
       <use xlink:href="#DejaVuSans-30"/>
       <use xlink:href="#DejaVuSans-2e" x="63.623047"/>
       <use xlink:href="#DejaVuSans-35" x="95.410156"/>
      </g>
     </g>
    </g>
    <g id="ytick_11">
     <g id="line2d_60">
      <g>
       <use xlink:href="#mf2da52d163" x="60.3" y="388.122353" style="stroke: #000000; stroke-width: 0.8"/>
      </g>
     </g>
     <g id="text_22">
      <!-- 1.0 -->
      <g transform="translate(37.396875 391.921572) scale(0.1 -0.1)">
       <use xlink:href="#DejaVuSans-31"/>
       <use xlink:href="#DejaVuSans-2e" x="63.623047"/>
       <use xlink:href="#DejaVuSans-30" x="95.410156"/>
      </g>
     </g>
    </g>
   </g>
   <g id="line2d_61">
    <path d="M 77.293636 388.122353 
L 79.00154 388.239356 
L 80.709443 388.589905 
L 82.417346 389.172615 
L 84.125249 389.985187 
L 85.833152 391.024414 
L 87.541055 392.286194 
L 89.248958 393.765549 
L 90.956862 395.456639 
L 92.664765 397.352791 
L 94.372668 399.446522 
L 97.788474 404.192919 
L 101.20428 409.620978 
L 104.620087 415.645094 
L 108.035893 422.170263 
L 113.159603 432.670623 
L 119.991215 447.416471 
L 126.822828 462.162318 
L 131.946537 472.662678 
L 135.362344 479.187848 
L 138.77815 485.211964 
L 142.193956 490.640022 
L 145.609762 495.386419 
L 147.317666 497.48015 
L 149.025569 499.376302 
L 150.733472 501.067392 
L 152.441375 502.546747 
L 154.149278 503.808528 
L 155.857181 504.847754 
L 157.565085 505.660326 
L 159.272988 506.243036 
L 160.980891 506.593585 
L 162.688794 506.710588 
L 164.396697 506.593585 
L 166.1046 506.243036 
L 167.812503 505.660326 
L 169.520407 504.847754 
L 171.22831 503.808528 
L 172.936213 502.546747 
L 174.644116 501.067392 
L 176.352019 499.376302 
L 178.059922 497.48015 
L 179.767825 495.386419 
L 183.183632 490.640022 
L 186.599438 485.211964 
L 190.015244 479.187848 
L 193.431051 472.662678 
L 198.55476 462.162318 
L 205.386373 447.416471 
L 212.217985 432.670623 
L 217.341695 422.170263 
L 220.757501 415.645094 
L 224.173307 409.620978 
L 227.589114 404.192919 
L 231.00492 399.446522 
L 232.712823 397.352791 
L 234.420726 395.456639 
L 236.12863 393.765549 
L 237.836533 392.286194 
L 239.544436 391.024414 
L 241.252339 389.985187 
L 242.960242 389.172615 
L 244.668145 388.589905 
L 246.376048 388.239356 
L 248.083952 388.122353 
L 249.791855 388.239356 
L 251.499758 388.589905 
L 253.207661 389.172615 
L 254.915564 389.985187 
L 256.623467 391.024414 
L 258.33137 392.286194 
L 260.039274 393.765549 
L 261.747177 395.456639 
L 263.45508 397.352791 
L 265.162983 399.446522 
L 268.578789 404.192919 
L 271.994596 409.620978 
L 275.410402 415.645094 
L 278.826208 422.170263 
L 283.949918 432.670623 
L 290.78153 447.416471 
L 297.613143 462.162318 
L 302.736852 472.662678 
L 306.152659 479.187848 
L 309.568465 485.211964 
L 312.984271 490.640022 
L 316.400078 495.386419 
L 318.107981 497.48015 
L 319.815884 499.376302 
L 321.523787 501.067392 
L 323.23169 502.546747 
L 324.939593 503.808528 
L 326.647497 504.847754 
L 328.3554 505.660326 
L 330.063303 506.243036 
L 331.771206 506.593585 
L 333.479109 506.710588 
L 335.187012 506.593585 
L 336.894915 506.243036 
L 338.602819 505.660326 
L 340.310722 504.847754 
L 342.018625 503.808528 
L 343.726528 502.546747 
L 345.434431 501.067392 
L 347.142334 499.376302 
L 348.850238 497.48015 
L 350.558141 495.386419 
L 353.973947 490.640022 
L 357.389753 485.211964 
L 360.80556 479.187848 
L 364.221366 472.662678 
L 369.345075 462.162318 
L 376.176688 447.416471 
L 383.008301 432.670623 
L 388.13201 422.170263 
L 391.547816 415.645094 
L 394.963623 409.620978 
L 398.379429 404.192919 
L 401.795235 399.446522 
L 403.503138 397.352791 
L 405.211042 395.456639 
L 406.918945 393.765549 
L 408.626848 392.286194 
L 410.334751 391.024414 
L 412.042654 389.985187 
L 413.750557 389.172615 
L 415.45846 388.589905 
L 417.166364 388.239356 
L 417.166364 388.239356 
" clip-path="url(#pe4c2c8e419)" style="fill: none; stroke: #000000; stroke-width: 1.5; stroke-linecap: square"/>
   </g>
   <g id="line2d_62">
    <path d="M 77.293636 447.416471 
L 417.166364 447.416471 
L 417.166364 447.416471 
" clip-path="url(#pe4c2c8e419)" style="fill: none; stroke-dasharray: 5.55,2.4; stroke-dashoffset: 0; stroke: #0000ff; stroke-width: 1.5"/>
   </g>
   <g id="patch_13">
    <path d="M 60.3 512.64 
L 60.3 382.192941 
" style="fill: none; stroke: #000000; stroke-width: 0.8; stroke-linejoin: miter; stroke-linecap: square"/>
   </g>
   <g id="patch_14">
    <path d="M 434.16 512.64 
L 434.16 382.192941 
" style="fill: none; stroke: #000000; stroke-width: 0.8; stroke-linejoin: miter; stroke-linecap: square"/>
   </g>
   <g id="patch_15">
    <path d="M 60.3 512.64 
L 434.16 512.64 
" style="fill: none; stroke: #000000; stroke-width: 0.8; stroke-linejoin: miter; stroke-linecap: square"/>
   </g>
   <g id="patch_16">
    <path d="M 60.3 382.192941 
L 434.16 382.192941 
" style="fill: none; stroke: #000000; stroke-width: 0.8; stroke-linejoin: miter; stroke-linecap: square"/>
   </g>
  </g>
  <g id="axes_4">
   <g id="matplotlib.axis_7">
    <g id="ytick_12">
     <g id="line2d_63">
      <defs>
       <path id="md17936a399" d="M 0 0 
L -3.5 0 
" style="stroke: #0000ff; stroke-width: 0.8"/>
      </defs>
      <g>
       <use xlink:href="#md17936a399" x="434.16" y="186.522353" style="fill: #0000ff; stroke: #0000ff; stroke-width: 0.8"/>
      </g>
     </g>
     <g id="text_23">
      <!-- 0.0 -->
      <g transform="translate(437.66 190.321572) scale(0.1 -0.1)">
       <use xlink:href="#DejaVuSans-30"/>
       <use xlink:href="#DejaVuSans-2e" x="63.623047"/>
       <use xlink:href="#DejaVuSans-30" x="95.410156"/>
      </g>
     </g>
    </g>
    <g id="ytick_13">
     <g id="line2d_64">
      <g>
       <use xlink:href="#md17936a399" x="434.16" y="134.343529" style="fill: #0000ff; stroke: #0000ff; stroke-width: 0.8"/>
      </g>
     </g>
     <g id="text_24">
      <!-- 0.5 -->
      <g transform="translate(437.66 138.142748) scale(0.1 -0.1)">
       <use xlink:href="#DejaVuSans-30"/>
       <use xlink:href="#DejaVuSans-2e" x="63.623047"/>
       <use xlink:href="#DejaVuSans-35" x="95.410156"/>
      </g>
     </g>
    </g>
    <g id="ytick_14">
     <g id="line2d_65">
      <g>
       <use xlink:href="#md17936a399" x="434.16" y="82.164706" style="fill: #0000ff; stroke: #0000ff; stroke-width: 0.8"/>
      </g>
     </g>
     <g id="text_25">
      <!-- 1.0 -->
      <g transform="translate(437.66 85.963925) scale(0.1 -0.1)">
       <use xlink:href="#DejaVuSans-31"/>
       <use xlink:href="#DejaVuSans-2e" x="63.623047"/>
       <use xlink:href="#DejaVuSans-30" x="95.410156"/>
      </g>
     </g>
    </g>
   </g>
   <g id="patch_17">
    <path d="M 60.3 199.567059 
L 60.3 69.12 
" style="fill: none; stroke: #000000; stroke-width: 0.8; stroke-linejoin: miter; stroke-linecap: square"/>
   </g>
   <g id="patch_18">
    <path d="M 434.16 199.567059 
L 434.16 69.12 
" style="fill: none; stroke: #0000ff; stroke-width: 0.8; stroke-linejoin: miter; stroke-linecap: square"/>
   </g>
   <g id="patch_19">
    <path d="M 60.3 199.567059 
L 434.16 199.567059 
" style="fill: none; stroke: #000000; stroke-width: 0.8; stroke-linejoin: miter; stroke-linecap: square"/>
   </g>
   <g id="patch_20">
    <path d="M 60.3 69.12 
L 434.16 69.12 
" style="fill: none; stroke: #000000; stroke-width: 0.8; stroke-linejoin: miter; stroke-linecap: square"/>
   </g>
  </g>
  <g id="axes_5">
   <g id="matplotlib.axis_8">
    <g id="ytick_15">
     <g id="line2d_66">
      <g>
       <use xlink:href="#md17936a399" x="434.16" y="343.058824" style="fill: #0000ff; stroke: #0000ff; stroke-width: 0.8"/>
      </g>
     </g>
     <g id="text_26">
      <!-- 0.0 -->
      <g transform="translate(437.66 346.858042) scale(0.1 -0.1)">
       <use xlink:href="#DejaVuSans-30"/>
       <use xlink:href="#DejaVuSans-2e" x="63.623047"/>
       <use xlink:href="#DejaVuSans-30" x="95.410156"/>
      </g>
     </g>
    </g>
    <g id="ytick_16">
     <g id="line2d_67">
      <g>
       <use xlink:href="#md17936a399" x="434.16" y="290.88" style="fill: #0000ff; stroke: #0000ff; stroke-width: 0.8"/>
      </g>
     </g>
     <g id="text_27">
      <!-- 0.5 -->
      <g transform="translate(437.66 294.679219) scale(0.1 -0.1)">
       <use xlink:href="#DejaVuSans-30"/>
       <use xlink:href="#DejaVuSans-2e" x="63.623047"/>
       <use xlink:href="#DejaVuSans-35" x="95.410156"/>
      </g>
     </g>
    </g>
    <g id="ytick_17">
     <g id="line2d_68">
      <g>
       <use xlink:href="#md17936a399" x="434.16" y="238.701176" style="fill: #0000ff; stroke: #0000ff; stroke-width: 0.8"/>
      </g>
     </g>
     <g id="text_28">
      <!-- 1.0 -->
      <g transform="translate(437.66 242.500395) scale(0.1 -0.1)">
       <use xlink:href="#DejaVuSans-31"/>
       <use xlink:href="#DejaVuSans-2e" x="63.623047"/>
       <use xlink:href="#DejaVuSans-30" x="95.410156"/>
      </g>
     </g>
    </g>
   </g>
   <g id="patch_21">
    <path d="M 60.3 356.103529 
L 60.3 225.656471 
" style="fill: none; stroke: #000000; stroke-width: 0.8; stroke-linejoin: miter; stroke-linecap: square"/>
   </g>
   <g id="patch_22">
    <path d="M 434.16 356.103529 
L 434.16 225.656471 
" style="fill: none; stroke: #0000ff; stroke-width: 0.8; stroke-linejoin: miter; stroke-linecap: square"/>
   </g>
   <g id="patch_23">
    <path d="M 60.3 356.103529 
L 434.16 356.103529 
" style="fill: none; stroke: #000000; stroke-width: 0.8; stroke-linejoin: miter; stroke-linecap: square"/>
   </g>
   <g id="patch_24">
    <path d="M 60.3 225.656471 
L 434.16 225.656471 
" style="fill: none; stroke: #000000; stroke-width: 0.8; stroke-linejoin: miter; stroke-linecap: square"/>
   </g>
  </g>
 </g>
 <defs>
  <clipPath id="p3a8640bbe9">
   <rect x="60.3" y="69.12" width="373.86" height="130.447059"/>
  </clipPath>
  <clipPath id="p2d96e52157">
   <rect x="60.3" y="225.656471" width="373.86" height="130.447059"/>
  </clipPath>
  <clipPath id="pe4c2c8e419">
   <rect x="60.3" y="382.192941" width="373.86" height="130.447059"/>
  </clipPath>
 </defs>
</svg>
