<?xml version="1.0" encoding="utf-8" standalone="no"?>
<!DOCTYPE svg PUBLIC "-//W3C//DTD SVG 1.1//EN"
  "http://www.w3.org/Graphics/SVG/1.1/DTD/svg11.dtd">
<svg xmlns:xlink="http://www.w3.org/1999/xlink" width="399.030937pt" height="247.076562pt" viewBox="0 0 399.030937 247.076562" xmlns="http://www.w3.org/2000/svg" version="1.1">
 <metadata>
  <rdf:RDF xmlns:dc="http://purl.org/dc/elements/1.1/" xmlns:cc="http://creativecommons.org/ns#" xmlns:rdf="http://www.w3.org/1999/02/22-rdf-syntax-ns#">
   <cc:Work>
    <dc:type rdf:resource="http://purl.org/dc/dcmitype/StillImage"/>
    <dc:date>2024-06-21T14:08:18.219770</dc:date>
    <dc:format>image/svg+xml</dc:format>
    <dc:creator>
     <cc:Agent>
      <dc:title>Matplotlib v3.7.0, https://matplotlib.org/</dc:title>
     </cc:Agent>
    </dc:creator>
   </cc:Work>
  </rdf:RDF>
 </metadata>
 <defs>
  <style type="text/css">*{stroke-linejoin: round; stroke-linecap: butt}</style>
 </defs>
 <g id="figure_1">
  <g id="patch_1">
   <path d="M 0 247.076562 
L 399.030937 247.076562 
L 399.030937 0 
L 0 0 
z
" style="fill: #ffffff"/>
  </g>
  <g id="axes_1">
   <g id="patch_2">
    <path d="M 48.660938 239.876562 
L 216.060938 239.876562 
L 216.060938 73.556562 
L 48.660938 73.556562 
z
" style="fill: #ffffff"/>
   </g>
   <g id="matplotlib.axis_1">
    <g id="xtick_1">
     <g id="line2d_1">
      <defs>
       <path id="mcdc65f07f9" d="M 0 0 
L 0 -3.5 
" style="stroke: #000000; stroke-width: 0.8"/>
      </defs>
      <g>
       <use xlink:href="#mcdc65f07f9" x="65.400938" y="239.876562" style="stroke: #000000; stroke-width: 0.8"/>
      </g>
     </g>
     <g id="line2d_2">
      <defs>
       <path id="md6196278ee" d="M 0 0 
L 0 3.5 
" style="stroke: #000000; stroke-width: 0.8"/>
      </defs>
      <g>
       <use xlink:href="#md6196278ee" x="65.400938" y="73.556562" style="stroke: #000000; stroke-width: 0.8"/>
      </g>
     </g>
     <g id="text_1">
      <!-- 166 -->
      <g transform="translate(55.857188 67.976875) scale(0.1 -0.1)">
       <defs>
        <path id="DejaVuSans-31" d="M 794 531 
L 1825 531 
L 1825 4091 
L 703 3866 
L 703 4441 
L 1819 4666 
L 2450 4666 
L 2450 531 
L 3481 531 
L 3481 0 
L 794 0 
L 794 531 
z
" transform="scale(0.015625)"/>
        <path id="DejaVuSans-36" d="M 2113 2584 
Q 1688 2584 1439 2293 
Q 1191 2003 1191 1497 
Q 1191 994 1439 701 
Q 1688 409 2113 409 
Q 2538 409 2786 701 
Q 3034 994 3034 1497 
Q 3034 2003 2786 2293 
Q 2538 2584 2113 2584 
z
M 3366 4563 
L 3366 3988 
Q 3128 4100 2886 4159 
Q 2644 4219 2406 4219 
Q 1781 4219 1451 3797 
Q 1122 3375 1075 2522 
Q 1259 2794 1537 2939 
Q 1816 3084 2150 3084 
Q 2853 3084 3261 2657 
Q 3669 2231 3669 1497 
Q 3669 778 3244 343 
Q 2819 -91 2113 -91 
Q 1303 -91 875 529 
Q 447 1150 447 2328 
Q 447 3434 972 4092 
Q 1497 4750 2381 4750 
Q 2619 4750 2861 4703 
Q 3103 4656 3366 4563 
z
" transform="scale(0.015625)"/>
       </defs>
       <use xlink:href="#DejaVuSans-31"/>
       <use xlink:href="#DejaVuSans-36" x="63.623047"/>
       <use xlink:href="#DejaVuSans-36" x="127.246094"/>
      </g>
     </g>
    </g>
    <g id="xtick_2">
     <g id="line2d_3">
      <g>
       <use xlink:href="#mcdc65f07f9" x="98.880938" y="239.876562" style="stroke: #000000; stroke-width: 0.8"/>
      </g>
     </g>
     <g id="line2d_4">
      <g>
       <use xlink:href="#md6196278ee" x="98.880938" y="73.556562" style="stroke: #000000; stroke-width: 0.8"/>
      </g>
     </g>
     <g id="text_2">
      <!-- 168 -->
      <g transform="translate(89.337188 67.976875) scale(0.1 -0.1)">
       <defs>
        <path id="DejaVuSans-38" d="M 2034 2216 
Q 1584 2216 1326 1975 
Q 1069 1734 1069 1313 
Q 1069 891 1326 650 
Q 1584 409 2034 409 
Q 2484 409 2743 651 
Q 3003 894 3003 1313 
Q 3003 1734 2745 1975 
Q 2488 2216 2034 2216 
z
M 1403 2484 
Q 997 2584 770 2862 
Q 544 3141 544 3541 
Q 544 4100 942 4425 
Q 1341 4750 2034 4750 
Q 2731 4750 3128 4425 
Q 3525 4100 3525 3541 
Q 3525 3141 3298 2862 
Q 3072 2584 2669 2484 
Q 3125 2378 3379 2068 
Q 3634 1759 3634 1313 
Q 3634 634 3220 271 
Q 2806 -91 2034 -91 
Q 1263 -91 848 271 
Q 434 634 434 1313 
Q 434 1759 690 2068 
Q 947 2378 1403 2484 
z
M 1172 3481 
Q 1172 3119 1398 2916 
Q 1625 2713 2034 2713 
Q 2441 2713 2670 2916 
Q 2900 3119 2900 3481 
Q 2900 3844 2670 4047 
Q 2441 4250 2034 4250 
Q 1625 4250 1398 4047 
Q 1172 3844 1172 3481 
z
" transform="scale(0.015625)"/>
       </defs>
       <use xlink:href="#DejaVuSans-31"/>
       <use xlink:href="#DejaVuSans-36" x="63.623047"/>
       <use xlink:href="#DejaVuSans-38" x="127.246094"/>
      </g>
     </g>
    </g>
    <g id="xtick_3">
     <g id="line2d_5">
      <g>
       <use xlink:href="#mcdc65f07f9" x="132.360937" y="239.876562" style="stroke: #000000; stroke-width: 0.8"/>
      </g>
     </g>
     <g id="line2d_6">
      <g>
       <use xlink:href="#md6196278ee" x="132.360937" y="73.556562" style="stroke: #000000; stroke-width: 0.8"/>
      </g>
     </g>
     <g id="text_3">
      <!-- 170 -->
      <g transform="translate(122.817187 67.976875) scale(0.1 -0.1)">
       <defs>
        <path id="DejaVuSans-37" d="M 525 4666 
L 3525 4666 
L 3525 4397 
L 1831 0 
L 1172 0 
L 2766 4134 
L 525 4134 
L 525 4666 
z
" transform="scale(0.015625)"/>
        <path id="DejaVuSans-30" d="M 2034 4250 
Q 1547 4250 1301 3770 
Q 1056 3291 1056 2328 
Q 1056 1369 1301 889 
Q 1547 409 2034 409 
Q 2525 409 2770 889 
Q 3016 1369 3016 2328 
Q 3016 3291 2770 3770 
Q 2525 4250 2034 4250 
z
M 2034 4750 
Q 2819 4750 3233 4129 
Q 3647 3509 3647 2328 
Q 3647 1150 3233 529 
Q 2819 -91 2034 -91 
Q 1250 -91 836 529 
Q 422 1150 422 2328 
Q 422 3509 836 4129 
Q 1250 4750 2034 4750 
z
" transform="scale(0.015625)"/>
       </defs>
       <use xlink:href="#DejaVuSans-31"/>
       <use xlink:href="#DejaVuSans-37" x="63.623047"/>
       <use xlink:href="#DejaVuSans-30" x="127.246094"/>
      </g>
     </g>
    </g>
    <g id="xtick_4">
     <g id="line2d_7">
      <g>
       <use xlink:href="#mcdc65f07f9" x="165.840937" y="239.876562" style="stroke: #000000; stroke-width: 0.8"/>
      </g>
     </g>
     <g id="line2d_8">
      <g>
       <use xlink:href="#md6196278ee" x="165.840937" y="73.556562" style="stroke: #000000; stroke-width: 0.8"/>
      </g>
     </g>
     <g id="text_4">
      <!-- 172 -->
      <g transform="translate(156.297187 67.976875) scale(0.1 -0.1)">
       <defs>
        <path id="DejaVuSans-32" d="M 1228 531 
L 3431 531 
L 3431 0 
L 469 0 
L 469 531 
Q 828 903 1448 1529 
Q 2069 2156 2228 2338 
Q 2531 2678 2651 2914 
Q 2772 3150 2772 3378 
Q 2772 3750 2511 3984 
Q 2250 4219 1831 4219 
Q 1534 4219 1204 4116 
Q 875 4013 500 3803 
L 500 4441 
Q 881 4594 1212 4672 
Q 1544 4750 1819 4750 
Q 2544 4750 2975 4387 
Q 3406 4025 3406 3419 
Q 3406 3131 3298 2873 
Q 3191 2616 2906 2266 
Q 2828 2175 2409 1742 
Q 1991 1309 1228 531 
z
" transform="scale(0.015625)"/>
       </defs>
       <use xlink:href="#DejaVuSans-31"/>
       <use xlink:href="#DejaVuSans-37" x="63.623047"/>
       <use xlink:href="#DejaVuSans-32" x="127.246094"/>
      </g>
     </g>
    </g>
    <g id="xtick_5">
     <g id="line2d_9">
      <g>
       <use xlink:href="#mcdc65f07f9" x="199.320937" y="239.876562" style="stroke: #000000; stroke-width: 0.8"/>
      </g>
     </g>
     <g id="line2d_10">
      <g>
       <use xlink:href="#md6196278ee" x="199.320937" y="73.556562" style="stroke: #000000; stroke-width: 0.8"/>
      </g>
     </g>
     <g id="text_5">
      <!-- 174 -->
      <g transform="translate(189.777187 67.976875) scale(0.1 -0.1)">
       <defs>
        <path id="DejaVuSans-34" d="M 2419 4116 
L 825 1625 
L 2419 1625 
L 2419 4116 
z
M 2253 4666 
L 3047 4666 
L 3047 1625 
L 3713 1625 
L 3713 1100 
L 3047 1100 
L 3047 0 
L 2419 0 
L 2419 1100 
L 313 1100 
L 313 1709 
L 2253 4666 
z
" transform="scale(0.015625)"/>
       </defs>
       <use xlink:href="#DejaVuSans-31"/>
       <use xlink:href="#DejaVuSans-37" x="63.623047"/>
       <use xlink:href="#DejaVuSans-34" x="127.246094"/>
      </g>
     </g>
    </g>
    <g id="text_6">
     <!-- Frequency (MHz) -->
     <g transform="translate(90.342188 56.378437) scale(0.1 -0.1)">
      <defs>
       <path id="DejaVuSans-46" d="M 628 4666 
L 3309 4666 
L 3309 4134 
L 1259 4134 
L 1259 2759 
L 3109 2759 
L 3109 2228 
L 1259 2228 
L 1259 0 
L 628 0 
L 628 4666 
z
" transform="scale(0.015625)"/>
       <path id="DejaVuSans-72" d="M 2631 2963 
Q 2534 3019 2420 3045 
Q 2306 3072 2169 3072 
Q 1681 3072 1420 2755 
Q 1159 2438 1159 1844 
L 1159 0 
L 581 0 
L 581 3500 
L 1159 3500 
L 1159 2956 
Q 1341 3275 1631 3429 
Q 1922 3584 2338 3584 
Q 2397 3584 2469 3576 
Q 2541 3569 2628 3553 
L 2631 2963 
z
" transform="scale(0.015625)"/>
       <path id="DejaVuSans-65" d="M 3597 1894 
L 3597 1613 
L 953 1613 
Q 991 1019 1311 708 
Q 1631 397 2203 397 
Q 2534 397 2845 478 
Q 3156 559 3463 722 
L 3463 178 
Q 3153 47 2828 -22 
Q 2503 -91 2169 -91 
Q 1331 -91 842 396 
Q 353 884 353 1716 
Q 353 2575 817 3079 
Q 1281 3584 2069 3584 
Q 2775 3584 3186 3129 
Q 3597 2675 3597 1894 
z
M 3022 2063 
Q 3016 2534 2758 2815 
Q 2500 3097 2075 3097 
Q 1594 3097 1305 2825 
Q 1016 2553 972 2059 
L 3022 2063 
z
" transform="scale(0.015625)"/>
       <path id="DejaVuSans-71" d="M 947 1747 
Q 947 1113 1208 752 
Q 1469 391 1925 391 
Q 2381 391 2643 752 
Q 2906 1113 2906 1747 
Q 2906 2381 2643 2742 
Q 2381 3103 1925 3103 
Q 1469 3103 1208 2742 
Q 947 2381 947 1747 
z
M 2906 525 
Q 2725 213 2448 61 
Q 2172 -91 1784 -91 
Q 1150 -91 751 415 
Q 353 922 353 1747 
Q 353 2572 751 3078 
Q 1150 3584 1784 3584 
Q 2172 3584 2448 3432 
Q 2725 3281 2906 2969 
L 2906 3500 
L 3481 3500 
L 3481 -1331 
L 2906 -1331 
L 2906 525 
z
" transform="scale(0.015625)"/>
       <path id="DejaVuSans-75" d="M 544 1381 
L 544 3500 
L 1119 3500 
L 1119 1403 
Q 1119 906 1312 657 
Q 1506 409 1894 409 
Q 2359 409 2629 706 
Q 2900 1003 2900 1516 
L 2900 3500 
L 3475 3500 
L 3475 0 
L 2900 0 
L 2900 538 
Q 2691 219 2414 64 
Q 2138 -91 1772 -91 
Q 1169 -91 856 284 
Q 544 659 544 1381 
z
M 1991 3584 
L 1991 3584 
z
" transform="scale(0.015625)"/>
       <path id="DejaVuSans-6e" d="M 3513 2113 
L 3513 0 
L 2938 0 
L 2938 2094 
Q 2938 2591 2744 2837 
Q 2550 3084 2163 3084 
Q 1697 3084 1428 2787 
Q 1159 2491 1159 1978 
L 1159 0 
L 581 0 
L 581 3500 
L 1159 3500 
L 1159 2956 
Q 1366 3272 1645 3428 
Q 1925 3584 2291 3584 
Q 2894 3584 3203 3211 
Q 3513 2838 3513 2113 
z
" transform="scale(0.015625)"/>
       <path id="DejaVuSans-63" d="M 3122 3366 
L 3122 2828 
Q 2878 2963 2633 3030 
Q 2388 3097 2138 3097 
Q 1578 3097 1268 2742 
Q 959 2388 959 1747 
Q 959 1106 1268 751 
Q 1578 397 2138 397 
Q 2388 397 2633 464 
Q 2878 531 3122 666 
L 3122 134 
Q 2881 22 2623 -34 
Q 2366 -91 2075 -91 
Q 1284 -91 818 406 
Q 353 903 353 1747 
Q 353 2603 823 3093 
Q 1294 3584 2113 3584 
Q 2378 3584 2631 3529 
Q 2884 3475 3122 3366 
z
" transform="scale(0.015625)"/>
       <path id="DejaVuSans-79" d="M 2059 -325 
Q 1816 -950 1584 -1140 
Q 1353 -1331 966 -1331 
L 506 -1331 
L 506 -850 
L 844 -850 
Q 1081 -850 1212 -737 
Q 1344 -625 1503 -206 
L 1606 56 
L 191 3500 
L 800 3500 
L 1894 763 
L 2988 3500 
L 3597 3500 
L 2059 -325 
z
" transform="scale(0.015625)"/>
       <path id="DejaVuSans-20" transform="scale(0.015625)"/>
       <path id="DejaVuSans-28" d="M 1984 4856 
Q 1566 4138 1362 3434 
Q 1159 2731 1159 2009 
Q 1159 1288 1364 580 
Q 1569 -128 1984 -844 
L 1484 -844 
Q 1016 -109 783 600 
Q 550 1309 550 2009 
Q 550 2706 781 3412 
Q 1013 4119 1484 4856 
L 1984 4856 
z
" transform="scale(0.015625)"/>
       <path id="DejaVuSans-4d" d="M 628 4666 
L 1569 4666 
L 2759 1491 
L 3956 4666 
L 4897 4666 
L 4897 0 
L 4281 0 
L 4281 4097 
L 3078 897 
L 2444 897 
L 1241 4097 
L 1241 0 
L 628 0 
L 628 4666 
z
" transform="scale(0.015625)"/>
       <path id="DejaVuSans-48" d="M 628 4666 
L 1259 4666 
L 1259 2753 
L 3553 2753 
L 3553 4666 
L 4184 4666 
L 4184 0 
L 3553 0 
L 3553 2222 
L 1259 2222 
L 1259 0 
L 628 0 
L 628 4666 
z
" transform="scale(0.015625)"/>
       <path id="DejaVuSans-7a" d="M 353 3500 
L 3084 3500 
L 3084 2975 
L 922 459 
L 3084 459 
L 3084 0 
L 275 0 
L 275 525 
L 2438 3041 
L 353 3041 
L 353 3500 
z
" transform="scale(0.015625)"/>
       <path id="DejaVuSans-29" d="M 513 4856 
L 1013 4856 
Q 1481 4119 1714 3412 
Q 1947 2706 1947 2009 
Q 1947 1309 1714 600 
Q 1481 -109 1013 -844 
L 513 -844 
Q 928 -128 1133 580 
Q 1338 1288 1338 2009 
Q 1338 2731 1133 3434 
Q 928 4138 513 4856 
z
" transform="scale(0.015625)"/>
      </defs>
      <use xlink:href="#DejaVuSans-46"/>
      <use xlink:href="#DejaVuSans-72" x="50.269531"/>
      <use xlink:href="#DejaVuSans-65" x="89.132812"/>
      <use xlink:href="#DejaVuSans-71" x="150.65625"/>
      <use xlink:href="#DejaVuSans-75" x="214.132812"/>
      <use xlink:href="#DejaVuSans-65" x="277.511719"/>
      <use xlink:href="#DejaVuSans-6e" x="339.035156"/>
      <use xlink:href="#DejaVuSans-63" x="402.414062"/>
      <use xlink:href="#DejaVuSans-79" x="457.394531"/>
      <use xlink:href="#DejaVuSans-20" x="516.574219"/>
      <use xlink:href="#DejaVuSans-28" x="548.361328"/>
      <use xlink:href="#DejaVuSans-4d" x="587.375"/>
      <use xlink:href="#DejaVuSans-48" x="673.654297"/>
      <use xlink:href="#DejaVuSans-7a" x="748.849609"/>
      <use xlink:href="#DejaVuSans-29" x="801.339844"/>
     </g>
    </g>
   </g>
   <g id="matplotlib.axis_2">
    <g id="ytick_1">
     <g id="line2d_11">
      <defs>
       <path id="m4255248056" d="M 0 0 
L 3.5 0 
" style="stroke: #000000; stroke-width: 0.8"/>
      </defs>
      <g>
       <use xlink:href="#m4255248056" x="48.660938" y="212.156562" style="stroke: #000000; stroke-width: 0.8"/>
      </g>
     </g>
     <g id="line2d_12">
      <defs>
       <path id="mc1b3889dac" d="M 0 0 
L -3.5 0 
" style="stroke: #000000; stroke-width: 0.8"/>
      </defs>
      <g>
       <use xlink:href="#mc1b3889dac" x="216.060938" y="212.156562" style="stroke: #000000; stroke-width: 0.8"/>
      </g>
     </g>
     <g id="text_7">
      <!-- −2.5 -->
      <g transform="translate(20.878125 215.955781) scale(0.1 -0.1)">
       <defs>
        <path id="DejaVuSans-2212" d="M 678 2272 
L 4684 2272 
L 4684 1741 
L 678 1741 
L 678 2272 
z
" transform="scale(0.015625)"/>
        <path id="DejaVuSans-2e" d="M 684 794 
L 1344 794 
L 1344 0 
L 684 0 
L 684 794 
z
" transform="scale(0.015625)"/>
        <path id="DejaVuSans-35" d="M 691 4666 
L 3169 4666 
L 3169 4134 
L 1269 4134 
L 1269 2991 
Q 1406 3038 1543 3061 
Q 1681 3084 1819 3084 
Q 2600 3084 3056 2656 
Q 3513 2228 3513 1497 
Q 3513 744 3044 326 
Q 2575 -91 1722 -91 
Q 1428 -91 1123 -41 
Q 819 9 494 109 
L 494 744 
Q 775 591 1075 516 
Q 1375 441 1709 441 
Q 2250 441 2565 725 
Q 2881 1009 2881 1497 
Q 2881 1984 2565 2268 
Q 2250 2553 1709 2553 
Q 1456 2553 1204 2497 
Q 953 2441 691 2322 
L 691 4666 
z
" transform="scale(0.015625)"/>
       </defs>
       <use xlink:href="#DejaVuSans-2212"/>
       <use xlink:href="#DejaVuSans-32" x="83.789062"/>
       <use xlink:href="#DejaVuSans-2e" x="147.412109"/>
       <use xlink:href="#DejaVuSans-35" x="179.199219"/>
      </g>
     </g>
    </g>
    <g id="ytick_2">
     <g id="line2d_13">
      <g>
       <use xlink:href="#m4255248056" x="48.660938" y="156.716562" style="stroke: #000000; stroke-width: 0.8"/>
      </g>
     </g>
     <g id="line2d_14">
      <g>
       <use xlink:href="#mc1b3889dac" x="216.060938" y="156.716562" style="stroke: #000000; stroke-width: 0.8"/>
      </g>
     </g>
     <g id="text_8">
      <!-- −1.5 -->
      <g transform="translate(20.878125 160.515781) scale(0.1 -0.1)">
       <use xlink:href="#DejaVuSans-2212"/>
       <use xlink:href="#DejaVuSans-31" x="83.789062"/>
       <use xlink:href="#DejaVuSans-2e" x="147.412109"/>
       <use xlink:href="#DejaVuSans-35" x="179.199219"/>
      </g>
     </g>
    </g>
    <g id="ytick_3">
     <g id="line2d_15">
      <g>
       <use xlink:href="#m4255248056" x="48.660938" y="101.276562" style="stroke: #000000; stroke-width: 0.8"/>
      </g>
     </g>
     <g id="line2d_16">
      <g>
       <use xlink:href="#mc1b3889dac" x="216.060938" y="101.276562" style="stroke: #000000; stroke-width: 0.8"/>
      </g>
     </g>
     <g id="text_9">
      <!-- −0.5 -->
      <g transform="translate(20.878125 105.075781) scale(0.1 -0.1)">
       <use xlink:href="#DejaVuSans-2212"/>
       <use xlink:href="#DejaVuSans-30" x="83.789062"/>
       <use xlink:href="#DejaVuSans-2e" x="147.412109"/>
       <use xlink:href="#DejaVuSans-35" x="179.199219"/>
      </g>
     </g>
    </g>
    <g id="text_10">
     <!-- $S_{11} (\mathrm{(dB)}$ -->
     <g transform="translate(14.798437 176.966562) rotate(-90) scale(0.1 -0.1)">
      <defs>
       <path id="DejaVuSans-Oblique-53" d="M 3859 4513 
L 3738 3897 
Q 3422 4066 3111 4152 
Q 2800 4238 2509 4238 
Q 1944 4238 1609 3991 
Q 1275 3744 1275 3334 
Q 1275 3109 1398 2989 
Q 1522 2869 2034 2731 
L 2413 2638 
Q 3053 2472 3303 2217 
Q 3553 1963 3553 1503 
Q 3553 797 2998 353 
Q 2444 -91 1538 -91 
Q 1166 -91 791 -17 
Q 416 56 38 206 
L 166 856 
Q 513 641 861 531 
Q 1209 422 1556 422 
Q 2147 422 2503 684 
Q 2859 947 2859 1369 
Q 2859 1650 2717 1795 
Q 2575 1941 2106 2059 
L 1728 2156 
Q 1081 2325 845 2545 
Q 609 2766 609 3163 
Q 609 3859 1145 4304 
Q 1681 4750 2541 4750 
Q 2875 4750 3203 4690 
Q 3531 4631 3859 4513 
z
" transform="scale(0.015625)"/>
       <path id="DejaVuSans-64" d="M 2906 2969 
L 2906 4863 
L 3481 4863 
L 3481 0 
L 2906 0 
L 2906 525 
Q 2725 213 2448 61 
Q 2172 -91 1784 -91 
Q 1150 -91 751 415 
Q 353 922 353 1747 
Q 353 2572 751 3078 
Q 1150 3584 1784 3584 
Q 2172 3584 2448 3432 
Q 2725 3281 2906 2969 
z
M 947 1747 
Q 947 1113 1208 752 
Q 1469 391 1925 391 
Q 2381 391 2643 752 
Q 2906 1113 2906 1747 
Q 2906 2381 2643 2742 
Q 2381 3103 1925 3103 
Q 1469 3103 1208 2742 
Q 947 2381 947 1747 
z
" transform="scale(0.015625)"/>
       <path id="DejaVuSans-42" d="M 1259 2228 
L 1259 519 
L 2272 519 
Q 2781 519 3026 730 
Q 3272 941 3272 1375 
Q 3272 1813 3026 2020 
Q 2781 2228 2272 2228 
L 1259 2228 
z
M 1259 4147 
L 1259 2741 
L 2194 2741 
Q 2656 2741 2882 2914 
Q 3109 3088 3109 3444 
Q 3109 3797 2882 3972 
Q 2656 4147 2194 4147 
L 1259 4147 
z
M 628 4666 
L 2241 4666 
Q 2963 4666 3353 4366 
Q 3744 4066 3744 3513 
Q 3744 3084 3544 2831 
Q 3344 2578 2956 2516 
Q 3422 2416 3680 2098 
Q 3938 1781 3938 1306 
Q 3938 681 3513 340 
Q 3088 0 2303 0 
L 628 0 
L 628 4666 
z
" transform="scale(0.015625)"/>
      </defs>
      <use xlink:href="#DejaVuSans-Oblique-53" transform="translate(0 0.015625)"/>
      <use xlink:href="#DejaVuSans-31" transform="translate(63.476562 -16.390625) scale(0.7)"/>
      <use xlink:href="#DejaVuSans-31" transform="translate(108.012695 -16.390625) scale(0.7)"/>
      <use xlink:href="#DejaVuSans-28" transform="translate(155.283203 0.015625)"/>
      <use xlink:href="#DejaVuSans-28" transform="translate(194.296875 0.015625)"/>
      <use xlink:href="#DejaVuSans-64" transform="translate(233.310547 0.015625)"/>
      <use xlink:href="#DejaVuSans-42" transform="translate(296.787109 0.015625)"/>
      <use xlink:href="#DejaVuSans-29" transform="translate(365.390625 0.015625)"/>
     </g>
    </g>
   </g>
   <g id="line2d_17">
    <path d="M 48.627457 116.004775 
L 49.004107 116.375946 
L 49.380757 115.342838 
L 49.531417 115.489981 
L 50.360047 117.780302 
L 51.113347 120.825837 
L 51.264007 120.755606 
L 51.640657 122.035466 
L 51.941977 122.912926 
L 52.243297 123.72765 
L 52.393957 123.511778 
L 52.619947 123.213893 
L 52.770607 122.999607 
L 53.222587 120.424879 
L 53.297918 120.461308 
L 53.373247 120.388227 
L 53.599237 120.781546 
L 53.674567 120.770397 
L 54.126548 121.430777 
L 54.352537 121.636487 
L 54.578527 121.316354 
L 54.804517 121.003162 
L 54.879847 121.083739 
L 55.030507 121.528661 
L 55.105837 121.48798 
L 55.181167 121.379461 
L 55.859137 123.482206 
L 56.160457 122.184112 
L 56.386448 120.955822 
L 56.612437 120.45857 
L 56.687768 120.440979 
L 56.763097 120.29083 
L 57.290407 122.123516 
L 57.516398 123.18084 
L 57.591727 123.253461 
L 57.817717 124.158336 
L 57.893047 124.146444 
L 58.043707 124.716678 
L 58.119037 124.681446 
L 58.194367 124.832686 
L 58.947667 129.067082 
L 59.098327 128.772563 
L 59.173657 128.653516 
L 59.324317 127.66674 
L 59.625637 124.750208 
L 59.776298 124.557753 
L 59.926957 123.796911 
L 60.077617 123.069999 
L 60.152947 123.009614 
L 60.228277 122.762994 
L 60.604928 123.923564 
L 60.755587 123.838065 
L 61.056907 125.081406 
L 61.132237 125.057368 
L 61.207567 125.04073 
L 61.734878 126.260637 
L 62.111527 127.773573 
L 62.262187 128.338423 
L 62.714167 131.275257 
L 62.789497 131.47462 
L 63.090817 132.887342 
L 63.241477 132.038389 
L 63.542797 129.687234 
L 63.618127 129.761524 
L 63.693458 129.67038 
L 63.844117 128.57177 
L 63.919447 128.561403 
L 64.145437 128.099499 
L 64.597417 129.435924 
L 65.124728 132.302561 
L 65.576707 135.814518 
L 65.652038 135.814518 
L 65.727367 135.94957 
L 65.802697 136.636084 
L 65.878027 136.607144 
L 66.405337 131.430988 
L 66.781988 126.737432 
L 67.007977 124.52302 
L 67.233967 124.345706 
L 67.384627 124.665817 
L 67.459957 124.603242 
L 67.535287 124.607328 
L 68.062597 126.820265 
L 69.117217 133.334853 
L 69.644527 139.757522 
L 70.171838 143.531046 
L 70.473158 141.966529 
L 70.548487 140.899087 
L 70.623817 141.177618 
L 70.699147 141.053543 
L 70.925137 140.375179 
L 71.151127 140.944492 
L 71.226457 140.31802 
L 71.301788 140.398297 
L 71.527777 141.910534 
L 71.678437 143.42388 
L 72.055087 146.663627 
L 72.130418 146.482948 
L 72.205747 146.630197 
L 72.431738 150.322335 
L 72.657727 153.883856 
L 72.808387 154.357757 
L 73.109707 149.379245 
L 73.486357 141.045559 
L 73.863007 132.697127 
L 74.239657 130.33372 
L 74.314987 130.123325 
L 74.390318 130.343477 
L 74.616307 129.649202 
L 74.766967 129.559888 
L 74.992957 130.023921 
L 75.143617 130.320248 
L 75.369607 131.767287 
L 75.670927 133.65829 
L 76.122907 139.45238 
L 77.177527 154.561776 
L 77.252857 154.781485 
L 77.328187 154.592213 
L 77.478848 155.608871 
L 77.629507 156.716618 
L 77.704837 156.734691 
L 77.930827 158.40399 
L 78.081487 157.910075 
L 78.156817 158.319499 
L 78.307478 159.551265 
L 78.382807 159.561688 
L 79.136107 165.846144 
L 79.437428 173.660302 
L 79.663417 176.579772 
L 79.738748 176.872772 
L 79.889407 175.816807 
L 80.040067 172.920677 
L 80.567378 152.2741 
L 80.868698 143.549507 
L 81.094687 139.782636 
L 81.320677 140.183634 
L 81.396007 140.195553 
L 81.546667 139.139255 
L 81.697328 138.336927 
L 81.772657 138.269679 
L 81.847987 137.78408 
L 81.923317 137.836249 
L 82.073977 138.407946 
L 82.224637 137.939922 
L 82.375297 139.290274 
L 82.450627 139.22369 
L 82.525958 138.888389 
L 82.601287 139.059588 
L 82.751947 139.837577 
L 83.354587 146.815976 
L 83.806567 156.94941 
L 83.957228 157.103367 
L 84.183217 161.696571 
L 84.484537 166.635056 
L 84.559867 166.75209 
L 84.710527 168.252351 
L 84.785858 166.838132 
L 85.011847 168.794555 
L 85.087178 168.628235 
L 85.313167 166.797384 
L 85.539157 170.278406 
L 85.689817 170.066847 
L 85.765147 170.160762 
L 85.840477 170.635994 
L 85.915808 172.178723 
L 85.991137 172.066014 
L 86.443117 178.070554 
L 86.744438 183.08865 
L 86.819767 182.457465 
L 88.100377 149.18648 
L 88.251037 148.912329 
L 88.477027 147.040896 
L 88.703017 149.337 
L 88.853677 150.466368 
L 88.929007 149.790443 
L 89.004338 149.816666 
L 89.230327 152.006103 
L 89.305658 151.744648 
L 89.531647 152.415527 
L 89.606977 152.279866 
L 89.682307 152.613005 
L 89.757637 152.39762 
L 89.908297 153.937466 
L 89.983627 153.830023 
L 90.058957 153.735221 
L 90.134288 153.131036 
L 90.209617 153.715595 
L 90.510937 160.887979 
L 90.736927 163.836943 
L 91.113577 169.345684 
L 91.188907 169.244727 
L 91.339567 167.715803 
L 91.414897 167.784382 
L 91.490227 167.456233 
L 91.565558 167.940446 
L 91.716217 169.963507 
L 91.791547 169.126308 
L 91.866877 169.394859 
L 91.942207 169.353223 
L 92.620177 162.193314 
L 92.770837 163.202876 
L 92.996827 161.767978 
L 93.147487 162.546522 
L 93.298147 161.548269 
L 93.373477 161.572663 
L 93.599467 162.714616 
L 93.900787 166.514307 
L 94.352768 162.909488 
L 94.428097 162.68418 
L 94.578757 160.743558 
L 94.654088 161.352677 
L 94.804747 160.554507 
L 95.030737 158.552125 
L 95.106067 158.12047 
L 95.181398 158.633068 
L 95.256727 158.607621 
L 95.407387 158.903892 
L 95.558047 159.707606 
L 95.633377 159.64324 
L 95.708707 160.111874 
L 95.934697 162.483487 
L 96.010027 162.482544 
L 96.236017 163.567616 
L 96.386677 165.367087 
L 96.537337 167.68143 
L 96.687997 170.211379 
L 96.838657 169.766529 
L 97.064647 172.169631 
L 97.139977 171.445418 
L 97.215307 171.706984 
L 97.441298 173.446525 
L 97.516627 172.528217 
L 97.591957 173.188674 
L 97.667287 174.992525 
L 97.742618 174.440176 
L 97.893277 175.050182 
L 97.968607 174.962587 
L 98.119267 171.202757 
L 98.269927 172.881591 
L 98.420587 172.46934 
L 98.495917 172.876214 
L 98.721907 178.425092 
L 99.173887 170.019612 
L 99.249217 170.236771 
L 99.324547 171.314413 
L 99.851857 159.943392 
L 100.454497 146.600758 
L 100.680487 147.173232 
L 100.755817 147.227508 
L 100.831148 148.164055 
L 100.981807 146.447023 
L 101.057137 147.187203 
L 101.735107 155.151159 
L 101.885767 157.61591 
L 102.187087 162.498899 
L 102.413077 165.701391 
L 102.563737 167.364591 
L 103.015717 175.619662 
L 103.166377 176.907921 
L 103.543027 186.635923 
L 103.693687 185.683574 
L 103.844347 184.814109 
L 103.995007 189.05976 
L 104.070337 189.013966 
L 104.145667 188.726343 
L 104.220998 189.052164 
L 104.371657 190.789986 
L 104.748308 185.449673 
L 104.823637 185.627913 
L 104.898967 186.902589 
L 104.974297 186.368092 
L 105.049628 185.175467 
L 105.350948 189.643044 
L 105.501607 192.327338 
L 105.576937 192.163568 
L 105.727597 192.969887 
L 105.878258 196.305324 
L 105.953587 196.202427 
L 106.179578 193.048723 
L 106.254907 192.728668 
L 106.405567 189.366176 
L 107.384857 147.057085 
L 107.686177 140.532795 
L 107.987497 139.296261 
L 108.062827 139.510038 
L 108.213487 141.005698 
L 108.816127 152.593157 
L 109.569428 170.107984 
L 109.946077 175.355712 
L 110.398058 186.406013 
L 110.548717 185.717725 
L 110.699377 186.810836 
L 111.000697 183.043632 
L 111.302017 185.18284 
L 111.452677 184.117062 
L 111.603337 185.476062 
L 111.678667 185.135716 
L 111.753997 184.444324 
L 111.979987 191.873728 
L 112.431967 203.279177 
L 112.507297 204.12874 
L 112.959277 216.710515 
L 113.034607 216.42256 
L 113.260597 214.36507 
L 113.335927 214.566872 
L 113.486588 211.452973 
L 113.712577 199.893512 
L 114.390547 162.099288 
L 114.616538 157.074095 
L 114.917857 152.556733 
L 114.993187 152.624536 
L 115.219177 155.059627 
L 115.671157 165.972215 
L 115.897147 170.125225 
L 115.972477 170.167637 
L 116.047807 169.331546 
L 116.424457 174.896059 
L 116.725777 179.689235 
L 117.102427 183.420126 
L 117.177757 183.869467 
L 117.253087 183.639557 
L 117.403748 182.670909 
L 117.479077 183.237118 
L 117.705068 185.41214 
L 117.855727 186.02453 
L 118.307707 177.279092 
L 118.383037 177.596098 
L 118.533698 182.600168 
L 118.609027 182.026752 
L 118.684357 182.121444 
L 118.835018 185.411309 
L 119.286997 206.963221 
L 119.437657 205.055475 
L 119.738977 221.13313 
L 120.115627 236.081694 
L 120.190957 236.510246 
L 120.266287 235.428888 
L 120.341617 235.555292 
L 120.416947 235.144703 
L 120.567607 229.698666 
L 121.320907 181.010925 
L 121.546897 176.596127 
L 121.848217 170.392834 
L 121.998877 171.409604 
L 122.074207 170.580554 
L 122.224868 172.890185 
L 122.450857 179.121419 
L 122.601517 182.360612 
L 122.752178 183.805544 
L 122.827507 183.110715 
L 122.902837 183.208566 
L 123.053498 178.877649 
L 123.128827 179.605133 
L 123.279487 178.241974 
L 123.430147 180.50947 
L 124.032787 192.03589 
L 124.183448 189.64005 
L 124.258777 190.480798 
L 124.334107 191.594532 
L 124.409437 190.286924 
L 124.484767 191.018566 
L 124.861417 185.027941 
L 125.087407 178.573838 
L 125.162737 179.037704 
L 125.313398 178.144067 
L 125.539387 179.028446 
L 125.765377 181.609732 
L 126.066697 193.985714 
L 126.142028 192.793145 
L 126.292687 189.667105 
L 126.368017 188.112955 
L 126.970658 209.202996 
L 127.196647 217.309212 
L 127.422637 214.957336 
L 128.025277 189.137819 
L 128.175937 184.968288 
L 128.627917 166.146962 
L 128.703247 166.253739 
L 129.305887 172.306512 
L 129.682537 181.117259 
L 129.833197 177.307145 
L 129.908527 177.347394 
L 130.737157 198.531905 
L 130.887817 200.053123 
L 130.963147 201.010517 
L 131.189138 198.132737 
L 131.264467 198.583963 
L 131.415127 194.396913 
L 131.490458 195.001597 
L 131.565787 194.27184 
L 131.716447 185.915868 
L 132.093097 171.497587 
L 132.394417 165.465771 
L 132.469747 166.872949 
L 132.620408 168.222026 
L 132.771067 167.267626 
L 132.921727 168.490189 
L 132.997057 168.34039 
L 133.072387 167.91134 
L 133.449038 160.827438 
L 133.524367 162.141422 
L 133.599697 162.120965 
L 133.675027 162.19664 
L 133.750358 162.055601 
L 133.825687 162.286896 
L 133.976347 161.599163 
L 134.051677 162.609003 
L 134.127007 162.503445 
L 134.352997 163.514726 
L 134.503657 159.641466 
L 134.578988 160.661229 
L 134.804977 156.152072 
L 134.880308 155.877145 
L 135.030967 153.128208 
L 135.181627 148.773507 
L 135.332287 149.184595 
L 135.558277 144.229645 
L 135.784267 147.186593 
L 136.160917 152.147697 
L 136.236247 152.859934 
L 136.462237 159.557086 
L 136.537568 159.478916 
L 136.612897 159.937848 
L 136.763557 157.82503 
L 136.838888 157.766984 
L 136.914217 157.213638 
L 137.140207 159.11595 
L 137.366197 165.709263 
L 137.742847 179.058273 
L 137.893507 180.030524 
L 138.119497 183.231075 
L 138.194827 182.889232 
L 138.270157 183.015912 
L 138.496148 175.972094 
L 139.023457 158.097739 
L 139.174117 158.791183 
L 139.324777 158.380095 
L 139.852087 167.51827 
L 140.078077 163.078025 
L 140.228738 159.65078 
L 140.680717 146.419137 
L 141.057368 141.995857 
L 141.132697 141.581165 
L 141.434017 137.442736 
L 141.509347 137.165702 
L 141.660007 138.559741 
L 141.810667 138.408611 
L 141.885998 137.961931 
L 142.111987 134.660867 
L 142.187318 134.707271 
L 142.337977 135.943305 
L 142.413307 135.351594 
L 142.639297 137.574905 
L 142.789957 136.850137 
L 143.392597 147.862018 
L 143.618587 152.615555 
L 143.693917 152.789914 
L 143.769247 153.365658 
L 144.221227 146.460551 
L 144.296557 146.881063 
L 144.974528 158.384475 
L 145.200517 161.200162 
L 145.501837 164.200741 
L 145.652497 164.824219 
L 145.727827 164.717552 
L 145.953817 162.045234 
L 146.029147 161.971554 
L 146.104478 162.651858 
L 146.330467 166.180392 
L 146.481127 165.937953 
L 146.631787 169.978032 
L 147.008437 180.351743 
L 147.159097 179.680808 
L 147.385087 172.182715 
L 147.460417 172.28234 
L 147.611077 167.13956 
L 147.987727 150.981405 
L 148.665698 145.27103 
L 148.891687 147.372982 
L 149.042347 149.112523 
L 149.117677 149.154269 
L 149.418997 150.345176 
L 149.569657 151.983206 
L 149.946307 161.825747 
L 150.398287 176.587589 
L 150.473617 176.361449 
L 150.699607 173.701327 
L 150.774937 174.06834 
L 150.850267 174.307564 
L 150.925597 173.293233 
L 151.452908 150.413478 
L 151.603567 147.352137 
L 151.678897 147.802531 
L 152.733517 167.487667 
L 154.014127 223.785657 
L 154.089457 223.234029 
L 154.541438 204.720672 
L 155.068747 174.796877 
L 155.219407 171.039154 
L 155.520727 168.565421 
L 155.596057 169.331214 
L 155.746717 168.452157 
L 156.198697 180.508528 
L 156.274027 180.211757 
L 156.500018 185.79889 
L 156.726007 193.937648 
L 156.951997 203.784734 
L 157.027327 204.600811 
L 157.177987 207.795486 
L 157.253317 208.132672 
L 157.403977 202.836211 
L 157.931288 180.264037 
L 158.609257 146.249102 
L 158.684587 146.823849 
L 159.061238 153.105866 
L 159.211897 150.644995 
L 159.437887 156.764407 
L 159.739207 167.822969 
L 160.191188 193.051051 
L 160.266517 193.080102 
L 160.944487 207.753518 
L 161.095147 200.876297 
L 161.848448 150.373838 
L 162.074437 146.629476 
L 162.149768 146.917487 
L 162.225097 146.479511 
L 162.375757 143.484809 
L 162.451088 143.791558 
L 162.601747 146.44414 
L 162.752407 150.7123 
L 162.827737 150.202196 
L 162.903067 150.109667 
L 163.204387 162.178678 
L 163.279718 161.931526 
L 163.505707 165.079576 
L 163.807028 173.804778 
L 163.882357 174.10809 
L 163.957687 173.874965 
L 164.108348 176.490015 
L 164.334337 172.540968 
L 164.635657 164.955556 
L 164.861647 157.865058 
L 165.012307 152.545922 
L 165.238298 143.309119 
L 165.464287 138.115999 
L 165.539618 140.138672 
L 165.614947 140.063606 
L 165.690277 140.277327 
L 165.840937 142.734484 
L 166.066928 147.33423 
L 166.217587 145.492734 
L 166.443577 151.520005 
L 166.895557 160.57125 
L 167.121547 167.710758 
L 167.347537 168.438297 
L 167.573527 166.12473 
L 167.648857 166.790232 
L 167.799517 164.066077 
L 168.552817 125.978098 
L 168.778807 121.357224 
L 168.854137 121.501119 
L 169.155458 123.370484 
L 169.230787 124.034799 
L 169.381447 126.16609 
L 169.532107 125.229137 
L 169.607437 123.627154 
L 169.682767 124.131963 
L 169.758098 124.232576 
L 169.908757 127.159142 
L 171.189367 154.288623 
L 171.264697 155.098324 
L 171.490687 152.964439 
L 171.716678 146.567106 
L 171.792007 146.931458 
L 171.867337 146.821465 
L 172.017997 144.07336 
L 172.545308 134.340036 
L 172.695967 133.811637 
L 172.846628 132.468437 
L 172.921957 132.92931 
L 172.997287 132.056241 
L 173.147947 128.800383 
L 173.298607 131.404044 
L 173.373938 130.951266 
L 173.825917 136.497872 
L 173.901247 139.246421 
L 173.976578 138.207641 
L 174.051907 138.649332 
L 174.579217 134.36892 
L 174.729877 133.51775 
L 175.332517 115.437624 
L 175.859827 107.525748 
L 176.010487 108.880253 
L 176.085817 108.7218 
L 176.236477 108.057102 
L 176.537797 110.584262 
L 176.613127 109.874076 
L 176.688457 110.051229 
L 176.914447 112.426084 
L 177.441757 117.961508 
L 177.592418 118.367622 
L 177.743077 119.594887 
L 177.969067 122.273609 
L 178.119727 123.933554 
L 178.496377 128.033248 
L 178.647037 128.507499 
L 178.722368 128.334165 
L 178.797697 128.062931 
L 179.626327 121.126189 
L 179.701657 121.114214 
L 179.776987 121.650463 
L 179.852318 121.344373 
L 179.927647 121.572625 
L 180.002977 120.624125 
L 180.078307 120.657804 
L 180.228967 120.781552 
L 180.379627 123.040715 
L 180.680948 127.424955 
L 180.831607 129.138101 
L 181.358917 140.998768 
L 181.434247 140.953363 
L 181.509577 140.628817 
L 181.584907 138.589956 
L 181.660237 138.833614 
L 181.735567 138.471647 
L 182.187547 125.512086 
L 182.488867 119.652965 
L 182.564197 119.260439 
L 182.865517 116.688306 
L 182.940848 116.977503 
L 183.242168 121.350932 
L 183.392827 123.258888 
L 183.543488 122.850961 
L 183.694147 124.527123 
L 183.995467 131.269547 
L 184.070798 131.283795 
L 184.372118 136.684982 
L 184.447447 136.851856 
L 184.522777 136.327726 
L 184.824097 132.459567 
L 184.899428 132.32518 
L 185.050087 128.828468 
L 185.200748 130.515729 
L 185.351407 132.247675 
L 185.426737 131.963434 
L 185.502068 132.417155 
L 185.577397 132.39326 
L 185.652727 131.646872 
L 185.728057 131.845347 
L 185.803387 131.788022 
L 185.954047 133.061479 
L 186.029378 132.876753 
L 186.556687 137.65119 
L 187.008667 146.20974 
L 187.159328 148.892482 
L 187.535977 155.022482 
L 187.611307 155.364769 
L 187.912627 159.947827 
L 187.987957 159.060954 
L 188.213947 165.681709 
L 188.289278 169.243397 
L 188.364607 167.706489 
L 188.515267 166.116248 
L 188.665927 168.350757 
L 188.816587 165.360989 
L 189.117908 156.965876 
L 189.268567 153.295693 
L 189.419228 151.156319 
L 189.494557 150.75144 
L 189.795877 154.45389 
L 190.172527 163.85546 
L 190.247858 163.744192 
L 190.398517 165.115778 
L 190.624507 169.326058 
L 191.001157 159.581036 
L 191.603797 139.317883 
L 191.754457 137.826214 
L 191.905117 133.981007 
L 192.281767 139.304355 
L 192.357097 139.20667 
L 192.658417 141.34926 
L 192.959737 147.540744 
L 193.035067 148.136834 
L 193.487047 162.463861 
L 193.637708 162.158996 
L 193.713037 162.154894 
L 193.788367 162.683625 
L 193.863697 162.570805 
L 194.014357 161.292026 
L 194.315677 154.741568 
L 194.616997 145.198681 
L 194.918317 148.25847 
L 195.294967 141.683951 
L 195.671617 148.080674 
L 195.822277 145.727246 
L 196.048267 147.150668 
L 196.123597 145.714217 
L 196.198928 146.138555 
L 196.349587 145.718154 
L 196.424917 145.580385 
L 196.575577 147.595241 
L 196.801567 154.565879 
L 196.876897 156.290173 
L 196.952227 155.665753 
L 197.027558 156.04341 
L 197.554868 148.027618 
L 198.082177 135.131608 
L 198.383497 133.339399 
L 198.609487 130.387275 
L 198.684818 130.843047 
L 198.986138 135.215378 
L 199.212127 136.751731 
L 199.513447 138.482069 
L 199.588777 139.457869 
L 199.965427 134.01477 
L 200.191417 136.786603 
L 200.342077 142.644893 
L 200.417408 142.342855 
L 201.396697 119.683724 
L 201.698017 113.623572 
L 201.773347 113.69668 
L 201.999337 111.533861 
L 202.149997 112.530095 
L 202.225327 112.514134 
L 202.300657 112.252319 
L 202.451317 113.714538 
L 202.601977 115.139717 
L 202.752637 117.64932 
L 202.827967 116.994152 
L 203.053957 118.859237 
L 203.882587 128.322656 
L 204.108577 126.645036 
L 204.334568 123.808776 
L 204.485227 123.50655 
L 204.560557 123.169042 
L 204.711217 123.847572 
L 204.786547 123.65906 
L 205.012537 123.256283 
L 205.238527 122.430155 
L 205.464518 122.709578 
L 205.690507 126.054528 
L 205.765838 125.166884 
L 205.841167 124.515242 
L 205.916497 124.646513 
L 206.293148 123.128144 
L 206.519137 120.332571 
L 206.895787 115.115213 
L 207.046447 117.110082 
L 207.197107 118.436279 
L 207.573757 120.774517 
L 207.649087 120.238983 
L 208.101067 111.258296 
L 208.553048 105.40692 
L 208.703707 104.32166 
L 208.929697 102.914737 
L 209.080357 102.769972 
L 209.306347 100.612258 
L 209.457007 100.984887 
L 209.607667 100.719973 
L 209.758327 100.145243 
L 209.908987 100.818368 
L 210.059647 101.917277 
L 211.189597 115.788343 
L 211.566247 117.970716 
L 211.641578 117.704976 
L 211.867567 117.63694 
L 212.018227 117.088333 
L 212.244217 117.527623 
L 212.394877 116.828514 
L 212.545537 115.913282 
L 212.620867 116.016867 
L 212.846857 115.678755 
L 213.148177 113.609296 
L 213.298837 112.071612 
L 213.449497 110.534233 
L 213.524827 110.660692 
L 213.600158 110.684664 
L 213.750817 111.364469 
L 214.202798 117.649325 
L 214.428787 123.883525 
L 214.579447 123.066634 
L 214.654777 123.45498 
L 214.956097 121.095182 
L 215.182087 117.076563 
L 215.483407 108.775554 
L 215.709397 106.69361 
L 216.086047 104.15886 
L 216.086047 104.15886 
" clip-path="url(#p207005ade6)" style="fill: none; stroke: #000000; stroke-linecap: square"/>
   </g>
   <g id="patch_3">
    <path d="M 48.660938 239.876562 
L 48.660938 73.556562 
" style="fill: none; stroke: #000000; stroke-width: 0.8; stroke-linejoin: miter; stroke-linecap: square"/>
   </g>
   <g id="patch_4">
    <path d="M 216.060938 239.876562 
L 216.060938 73.556562 
" style="fill: none; stroke: #000000; stroke-width: 0.8; stroke-linejoin: miter; stroke-linecap: square"/>
   </g>
   <g id="patch_5">
    <path d="M 48.660937 239.876562 
L 216.060937 239.876562 
" style="fill: none; stroke: #000000; stroke-width: 0.8; stroke-linejoin: miter; stroke-linecap: square"/>
   </g>
   <g id="patch_6">
    <path d="M 48.660937 73.556562 
L 216.060937 73.556562 
" style="fill: none; stroke: #000000; stroke-width: 0.8; stroke-linejoin: miter; stroke-linecap: square"/>
   </g>
   <g id="patch_7">
    <path d="M 98.880938 239.876562 
L 132.360938 239.876562 
L 132.360938 101.276562 
L 98.880938 101.276562 
L 98.880938 239.876562 
z
" clip-path="url(#p207005ade6)" style="fill: none; opacity: 0.5; stroke: #808080; stroke-linejoin: miter"/>
   </g>
   <g id="patch_8">
    <path d="M 266.280938 31.976562 
Q 182.580938 66.626562 98.880938 101.276562 
" style="fill: none; opacity: 0.5; stroke: #808080; stroke-linecap: round"/>
   </g>
   <g id="patch_9">
    <path d="M 391.830938 156.716562 
Q 262.095937 198.296562 132.360937 239.876562 
" style="fill: none; opacity: 0.5; stroke: #808080; stroke-linecap: round"/>
   </g>
   <g id="axes_2">
    <g id="patch_10">
     <path d="M 266.280938 156.716562 
L 391.830938 156.716562 
L 391.830938 31.976562 
L 266.280938 31.976562 
z
" style="fill: #ffffff"/>
    </g>
    <g id="matplotlib.axis_3">
     <g id="xtick_6">
      <g id="line2d_18">
       <g>
        <use xlink:href="#mcdc65f07f9" x="297.668437" y="156.716562" style="stroke: #000000; stroke-width: 0.8"/>
       </g>
      </g>
      <g id="line2d_19">
       <g>
        <use xlink:href="#md6196278ee" x="297.668437" y="31.976562" style="stroke: #000000; stroke-width: 0.8"/>
       </g>
      </g>
      <g id="text_11">
       <!-- 168.5 -->
       <g transform="translate(283.354375 26.396875) scale(0.1 -0.1)">
        <use xlink:href="#DejaVuSans-31"/>
        <use xlink:href="#DejaVuSans-36" x="63.623047"/>
        <use xlink:href="#DejaVuSans-38" x="127.246094"/>
        <use xlink:href="#DejaVuSans-2e" x="190.869141"/>
        <use xlink:href="#DejaVuSans-35" x="222.65625"/>
       </g>
      </g>
     </g>
     <g id="xtick_7">
      <g id="line2d_20">
       <g>
        <use xlink:href="#mcdc65f07f9" x="360.443438" y="156.716562" style="stroke: #000000; stroke-width: 0.8"/>
       </g>
      </g>
      <g id="line2d_21">
       <g>
        <use xlink:href="#md6196278ee" x="360.443438" y="31.976562" style="stroke: #000000; stroke-width: 0.8"/>
       </g>
      </g>
      <g id="text_12">
       <!-- 169.5 -->
       <g transform="translate(346.129375 26.396875) scale(0.1 -0.1)">
        <defs>
         <path id="DejaVuSans-39" d="M 703 97 
L 703 672 
Q 941 559 1184 500 
Q 1428 441 1663 441 
Q 2288 441 2617 861 
Q 2947 1281 2994 2138 
Q 2813 1869 2534 1725 
Q 2256 1581 1919 1581 
Q 1219 1581 811 2004 
Q 403 2428 403 3163 
Q 403 3881 828 4315 
Q 1253 4750 1959 4750 
Q 2769 4750 3195 4129 
Q 3622 3509 3622 2328 
Q 3622 1225 3098 567 
Q 2575 -91 1691 -91 
Q 1453 -91 1209 -44 
Q 966 3 703 97 
z
M 1959 2075 
Q 2384 2075 2632 2365 
Q 2881 2656 2881 3163 
Q 2881 3666 2632 3958 
Q 2384 4250 1959 4250 
Q 1534 4250 1286 3958 
Q 1038 3666 1038 3163 
Q 1038 2656 1286 2365 
Q 1534 2075 1959 2075 
z
" transform="scale(0.015625)"/>
        </defs>
        <use xlink:href="#DejaVuSans-31"/>
        <use xlink:href="#DejaVuSans-36" x="63.623047"/>
        <use xlink:href="#DejaVuSans-39" x="127.246094"/>
        <use xlink:href="#DejaVuSans-2e" x="190.869141"/>
        <use xlink:href="#DejaVuSans-35" x="222.65625"/>
       </g>
      </g>
     </g>
     <g id="text_13">
      <!-- Frequency (MHz) -->
      <g transform="translate(287.037188 14.798437) scale(0.1 -0.1)">
       <use xlink:href="#DejaVuSans-46"/>
       <use xlink:href="#DejaVuSans-72" x="50.269531"/>
       <use xlink:href="#DejaVuSans-65" x="89.132812"/>
       <use xlink:href="#DejaVuSans-71" x="150.65625"/>
       <use xlink:href="#DejaVuSans-75" x="214.132812"/>
       <use xlink:href="#DejaVuSans-65" x="277.511719"/>
       <use xlink:href="#DejaVuSans-6e" x="339.035156"/>
       <use xlink:href="#DejaVuSans-63" x="402.414062"/>
       <use xlink:href="#DejaVuSans-79" x="457.394531"/>
       <use xlink:href="#DejaVuSans-20" x="516.574219"/>
       <use xlink:href="#DejaVuSans-28" x="548.361328"/>
       <use xlink:href="#DejaVuSans-4d" x="587.375"/>
       <use xlink:href="#DejaVuSans-48" x="673.654297"/>
       <use xlink:href="#DejaVuSans-7a" x="748.849609"/>
       <use xlink:href="#DejaVuSans-29" x="801.339844"/>
      </g>
     </g>
    </g>
    <g id="matplotlib.axis_4">
     <g id="ytick_4">
      <g id="line2d_22">
       <g>
        <use xlink:href="#m4255248056" x="266.280938" y="31.976562" style="stroke: #000000; stroke-width: 0.8"/>
       </g>
      </g>
      <g id="line2d_23">
       <g>
        <use xlink:href="#mc1b3889dac" x="391.830938" y="31.976562" style="stroke: #000000; stroke-width: 0.8"/>
       </g>
      </g>
      <g id="text_14">
       <!-- −0.5 -->
       <g transform="translate(238.498125 35.775781) scale(0.1 -0.1)">
        <use xlink:href="#DejaVuSans-2212"/>
        <use xlink:href="#DejaVuSans-30" x="83.789062"/>
        <use xlink:href="#DejaVuSans-2e" x="147.412109"/>
        <use xlink:href="#DejaVuSans-35" x="179.199219"/>
       </g>
      </g>
     </g>
     <g id="ytick_5">
      <g id="line2d_24">
       <g>
        <use xlink:href="#m4255248056" x="266.280938" y="81.872562" style="stroke: #000000; stroke-width: 0.8"/>
       </g>
      </g>
      <g id="line2d_25">
       <g>
        <use xlink:href="#mc1b3889dac" x="391.830938" y="81.872562" style="stroke: #000000; stroke-width: 0.8"/>
       </g>
      </g>
      <g id="text_15">
       <!-- −1.5 -->
       <g transform="translate(238.498125 85.671781) scale(0.1 -0.1)">
        <use xlink:href="#DejaVuSans-2212"/>
        <use xlink:href="#DejaVuSans-31" x="83.789062"/>
        <use xlink:href="#DejaVuSans-2e" x="147.412109"/>
        <use xlink:href="#DejaVuSans-35" x="179.199219"/>
       </g>
      </g>
     </g>
     <g id="ytick_6">
      <g id="line2d_26">
       <g>
        <use xlink:href="#m4255248056" x="266.280938" y="131.768562" style="stroke: #000000; stroke-width: 0.8"/>
       </g>
      </g>
      <g id="line2d_27">
       <g>
        <use xlink:href="#mc1b3889dac" x="391.830938" y="131.768562" style="stroke: #000000; stroke-width: 0.8"/>
       </g>
      </g>
      <g id="text_16">
       <!-- −2.5 -->
       <g transform="translate(238.498125 135.567781) scale(0.1 -0.1)">
        <use xlink:href="#DejaVuSans-2212"/>
        <use xlink:href="#DejaVuSans-32" x="83.789062"/>
        <use xlink:href="#DejaVuSans-2e" x="147.412109"/>
        <use xlink:href="#DejaVuSans-35" x="179.199219"/>
       </g>
      </g>
     </g>
     <g id="text_17">
      <!-- $S_{11}(\mathrm{(dB)}$ -->
      <g transform="translate(232.418438 114.596562) rotate(-90) scale(0.1 -0.1)">
       <use xlink:href="#DejaVuSans-Oblique-53" transform="translate(0 0.015625)"/>
       <use xlink:href="#DejaVuSans-31" transform="translate(63.476562 -16.390625) scale(0.7)"/>
       <use xlink:href="#DejaVuSans-31" transform="translate(108.012695 -16.390625) scale(0.7)"/>
       <use xlink:href="#DejaVuSans-28" transform="translate(155.283203 0.015625)"/>
       <use xlink:href="#DejaVuSans-28" transform="translate(194.296875 0.015625)"/>
       <use xlink:href="#DejaVuSans-64" transform="translate(233.310547 0.015625)"/>
       <use xlink:href="#DejaVuSans-42" transform="translate(296.787109 0.015625)"/>
       <use xlink:href="#DejaVuSans-29" transform="translate(365.390625 0.015625)"/>
      </g>
     </g>
    </g>
    <g id="line2d_28">
     <path d="M 266.24955 98.698841 
L 266.532037 97.867124 
L 267.097012 95.313846 
L 267.3795 93.845307 
L 267.661987 94.04075 
L 267.944475 95.010628 
L 268.226962 93.761981 
L 268.50945 91.471655 
L 268.791938 90.12596 
L 269.074425 89.48784 
L 269.6394 86.374978 
L 270.204375 82.97227 
L 271.334325 74.636395 
L 271.8993 73.32443 
L 272.181787 72.768339 
L 272.464275 73.098301 
L 273.02925 73.283565 
L 273.311738 73.332413 
L 273.594225 74.175306 
L 273.876712 73.725743 
L 274.1592 72.629977 
L 274.724175 74.234583 
L 275.28915 76.313599 
L 275.854125 78.798121 
L 276.136612 79.450311 
L 276.4191 79.573055 
L 276.701587 79.90681 
L 277.266562 81.164389 
L 278.114025 85.80322 
L 278.679 87.076665 
L 278.961487 88.546951 
L 279.526462 89.958908 
L 279.80895 90.497036 
L 280.091437 91.455788 
L 280.656412 94.723028 
L 281.221387 96.065579 
L 281.786362 98.885352 
L 282.351338 100.044785 
L 282.916312 104.363534 
L 283.1988 105.53574 
L 283.763775 108.799987 
L 284.046263 108.485492 
L 284.611237 107.225818 
L 284.893725 107.160354 
L 285.4587 110.98144 
L 285.741187 110.940226 
L 286.023675 110.681365 
L 286.306162 110.974604 
L 286.58865 112.040932 
L 286.871138 112.538644 
L 287.153625 111.521614 
L 287.436112 109.917956 
L 288.001087 109.058997 
L 288.283575 107.732362 
L 288.566063 107.892778 
L 288.84855 109.039986 
L 289.131037 108.558939 
L 289.413525 107.485576 
L 289.9785 109.400735 
L 290.825962 113.280498 
L 291.10845 113.92226 
L 291.390938 113.774867 
L 291.955912 114.500555 
L 292.2384 115.650458 
L 292.520887 117.502448 
L 292.803375 117.409841 
L 293.085863 115.647863 
L 293.36835 115.314658 
L 293.650837 114.571507 
L 293.933325 114.283457 
L 294.215812 113.197371 
L 294.4983 111.257215 
L 295.345762 102.48964 
L 295.62825 101.226971 
L 295.910737 98.938641 
L 297.323175 80.488697 
L 298.735612 69.500251 
L 299.300587 67.307172 
L 299.865562 66.516669 
L 300.14805 66.548553 
L 300.430537 66.194291 
L 300.713025 66.38669 
L 300.995512 66.925118 
L 301.560487 68.848609 
L 302.125463 71.176357 
L 302.40795 71.945254 
L 303.255412 76.158822 
L 303.820387 79.962993 
L 304.102875 80.653354 
L 304.385362 81.943415 
L 305.515312 91.047988 
L 306.080287 92.583986 
L 307.210237 97.487017 
L 307.492725 97.847465 
L 307.775212 98.647797 
L 309.18765 108.146698 
L 309.470137 108.593068 
L 309.752625 108.005343 
L 310.035112 107.973609 
L 310.3176 108.625999 
L 310.600087 108.957409 
L 311.165063 106.809935 
L 311.730037 105.566925 
L 312.859987 107.492213 
L 313.142475 106.866217 
L 313.424962 106.533012 
L 313.989937 107.756112 
L 314.272425 107.449801 
L 314.554912 106.827548 
L 314.8374 108.392237 
L 315.119887 111.670304 
L 315.96735 117.085467 
L 316.532325 121.889803 
L 316.814812 123.158159 
L 317.379788 124.543522 
L 318.792225 134.952776 
L 319.074712 135.86712 
L 319.3572 135.60796 
L 319.922175 134.089475 
L 320.204663 133.75622 
L 320.48715 133.937841 
L 320.769637 132.818524 
L 321.052125 131.135332 
L 321.6171 125.372394 
L 323.029537 103.470495 
L 324.159487 89.576355 
L 324.724462 84.168627 
L 325.289437 82.194342 
L 325.854412 79.621804 
L 326.1369 78.649331 
L 326.419388 78.128716 
L 326.701875 78.189739 
L 327.26685 79.64785 
L 327.549337 80.381321 
L 328.679287 85.839843 
L 329.52675 92.174689 
L 329.809237 93.528767 
L 330.091725 93.940359 
L 330.374212 93.97853 
L 330.6567 93.226048 
L 331.221675 95.253422 
L 331.78665 97.724971 
L 332.069137 98.23411 
L 332.634112 101.510131 
L 333.481575 103.411718 
L 333.764062 105.253529 
L 334.04655 105.476614 
L 334.329037 105.365645 
L 334.894012 106.310176 
L 335.1765 106.103258 
L 335.458988 105.416788 
L 335.741475 105.231475 
L 336.023962 105.741063 
L 336.30645 107.023939 
L 336.588937 107.582874 
L 337.153912 107.902408 
L 337.4364 108.249734 
L 337.718887 106.67791 
L 338.283862 102.477814 
L 338.56635 101.762605 
L 338.848837 100.582265 
L 339.131325 100.378839 
L 339.413812 100.664145 
L 339.6963 103.471244 
L 339.978788 105.167807 
L 340.261275 104.651733 
L 340.543762 104.736955 
L 341.108737 107.697834 
L 342.521175 125.581159 
L 342.803662 127.094555 
L 343.08615 125.862273 
L 343.368637 125.377583 
L 343.933612 131.098759 
L 344.498588 139.847473 
L 345.063562 145.650678 
L 345.628537 150.431263 
L 345.911025 153.301181 
L 346.193512 153.686877 
L 346.476 152.713656 
L 346.758487 152.827419 
L 347.040975 152.457889 
L 347.323462 150.978672 
L 347.60595 147.556455 
L 349.86585 109.070024 
L 350.713313 101.401108 
L 351.278287 99.76417 
L 351.843262 96.604806 
L 352.408237 94.181207 
L 352.973212 95.0963 
L 353.2557 94.350155 
L 353.538188 94.966221 
L 353.820675 96.428822 
L 354.38565 101.153924 
L 354.950625 102.921539 
L 355.5156 106.239973 
L 355.798087 106.252646 
L 356.080575 105.6273 
L 356.363062 105.715366 
L 356.64555 103.093281 
L 356.928037 101.81754 
L 357.210525 102.472276 
L 357.493012 102.005748 
L 357.7755 101.245433 
L 358.057987 101.87542 
L 358.622962 104.765296 
L 359.470425 110.848218 
L 359.752913 111.80637 
L 360.0354 112.157838 
L 360.600375 113.659957 
L 360.882862 112.982419 
L 361.16535 111.503701 
L 361.730325 113.262735 
L 362.012812 112.085888 
L 362.2953 112.744365 
L 362.577787 111.858412 
L 362.860275 110.468758 
L 363.142762 109.894306 
L 363.707737 107.352803 
L 364.272713 102.233374 
L 364.5552 101.54411 
L 364.837687 101.96159 
L 365.120175 101.311246 
L 365.402662 101.157317 
L 365.68515 101.346073 
L 365.967637 101.810655 
L 366.250125 101.953258 
L 366.532612 102.543677 
L 367.097587 104.276415 
L 367.662562 109.950638 
L 368.227537 115.414799 
L 368.510025 114.341486 
L 368.792513 111.530096 
L 369.075 111.528051 
L 369.357487 110.129316 
L 370.20495 116.312129 
L 370.487437 116.893417 
L 371.617387 129.110353 
L 371.899875 133.128927 
L 372.46485 136.405947 
L 373.029825 135.552525 
L 373.312313 134.289259 
L 375.007237 113.955241 
L 375.289725 113.008914 
L 375.572212 111.051693 
L 375.8547 109.919753 
L 376.137187 107.299115 
L 377.267137 93.147063 
L 377.549625 91.025135 
L 377.832113 90.359922 
L 378.1146 90.456022 
L 378.397087 91.072287 
L 378.679575 90.942907 
L 379.24455 93.625216 
L 379.527038 94.277656 
L 379.809525 94.649681 
L 380.092012 94.628076 
L 380.3745 95.903517 
L 381.221962 101.770439 
L 381.50445 103.674969 
L 381.786937 103.833189 
L 382.351913 100.404087 
L 382.6344 100.440311 
L 382.916887 102.322039 
L 383.199375 103.232491 
L 383.76435 107.529036 
L 384.046838 108.175389 
L 384.611812 111.131228 
L 385.176787 117.834456 
L 385.459275 119.112243 
L 386.02425 119.987718 
L 386.589225 121.737121 
L 386.871712 120.740698 
L 387.1542 119.224309 
L 387.436687 119.14712 
L 387.719175 119.553223 
L 388.001662 116.965816 
L 388.28415 115.784878 
L 388.566638 116.329094 
L 388.849125 115.672312 
L 389.131612 113.329496 
L 389.696587 104.515717 
L 389.979075 100.28748 
L 390.54405 96.392099 
L 391.391512 92.464435 
L 391.674 90.555165 
L 391.956487 89.74685 
L 391.956487 89.74685 
" clip-path="url(#p69b461cf05)" style="fill: none; stroke: #000000; stroke-linecap: square"/>
    </g>
    <g id="patch_11">
     <path d="M 266.280938 156.716562 
L 266.280938 31.976562 
" style="fill: none; stroke: #000000; stroke-width: 0.8; stroke-linejoin: miter; stroke-linecap: square"/>
    </g>
    <g id="patch_12">
     <path d="M 391.830938 156.716562 
L 391.830938 31.976562 
" style="fill: none; stroke: #000000; stroke-width: 0.8; stroke-linejoin: miter; stroke-linecap: square"/>
    </g>
    <g id="patch_13">
     <path d="M 266.280937 156.716562 
L 391.830937 156.716562 
" style="fill: none; stroke: #000000; stroke-width: 0.8; stroke-linejoin: miter; stroke-linecap: square"/>
    </g>
    <g id="patch_14">
     <path d="M 266.280937 31.976562 
L 391.830937 31.976562 
" style="fill: none; stroke: #000000; stroke-width: 0.8; stroke-linejoin: miter; stroke-linecap: square"/>
    </g>
   </g>
   <g id="legend_1">
    <g id="patch_15">
     <path d="M 55.660938 96.234687 
L 103.260938 96.234687 
Q 105.260938 96.234687 105.260938 94.234687 
L 105.260938 80.556562 
Q 105.260938 78.556562 103.260938 78.556562 
L 55.660938 78.556562 
Q 53.660938 78.556562 53.660938 80.556562 
L 53.660938 94.234687 
Q 53.660938 96.234687 55.660938 96.234687 
z
" style="fill: #ffffff; opacity: 0.8; stroke: #cccccc; stroke-linejoin: miter"/>
    </g>
    <g id="line2d_29">
     <path d="M 57.660938 86.655 
L 67.660938 86.655 
L 77.660938 86.655 
" style="fill: none; stroke: #000000; stroke-linecap: square"/>
    </g>
    <g id="text_18">
     <!-- $S_{21}$ -->
     <g transform="translate(85.660938 90.155) scale(0.1 -0.1)">
      <use xlink:href="#DejaVuSans-Oblique-53" transform="translate(0 0.78125)"/>
      <use xlink:href="#DejaVuSans-32" transform="translate(63.476562 -15.625) scale(0.7)"/>
      <use xlink:href="#DejaVuSans-31" transform="translate(108.012695 -15.625) scale(0.7)"/>
     </g>
    </g>
   </g>
  </g>
 </g>
 <defs>
  <clipPath id="p207005ade6">
   <rect x="48.660938" y="73.556562" width="167.4" height="166.32"/>
  </clipPath>
  <clipPath id="p69b461cf05">
   <rect x="266.280938" y="31.976562" width="125.55" height="124.74"/>
  </clipPath>
 </defs>
</svg>
