<?xml version="1.0" encoding="utf-8" standalone="no"?>
<!DOCTYPE svg PUBLIC "-//W3C//DTD SVG 1.1//EN"
  "http://www.w3.org/Graphics/SVG/1.1/DTD/svg11.dtd">
<svg xmlns:xlink="http://www.w3.org/1999/xlink" width="360pt" height="360pt" viewBox="0 0 360 360" xmlns="http://www.w3.org/2000/svg" version="1.1">
 <metadata>
  <rdf:RDF xmlns:dc="http://purl.org/dc/elements/1.1/" xmlns:cc="http://creativecommons.org/ns#" xmlns:rdf="http://www.w3.org/1999/02/22-rdf-syntax-ns#">
   <cc:Work>
    <dc:type rdf:resource="http://purl.org/dc/dcmitype/StillImage"/>
    <dc:date>2024-06-21T14:00:46.989349</dc:date>
    <dc:format>image/svg+xml</dc:format>
    <dc:creator>
     <cc:Agent>
      <dc:title>Matplotlib v3.7.0, https://matplotlib.org/</dc:title>
     </cc:Agent>
    </dc:creator>
   </cc:Work>
  </rdf:RDF>
 </metadata>
 <defs>
  <style type="text/css">*{stroke-linejoin: round; stroke-linecap: butt}</style>
 </defs>
 <g id="figure_1">
  <g id="patch_1">
   <path d="M 0 360 
L 360 360 
L 360 0 
L 0 0 
z
" style="fill: #ffffff"/>
  </g>
  <g id="axes_1">
   <g id="patch_2">
    <path d="M 45 320.4 
L 324 320.4 
L 324 43.2 
L 45 43.2 
z
" style="fill: #ffffff"/>
   </g>
   <g id="matplotlib.axis_1">
    <g id="xtick_1">
     <g id="line2d_1">
      <defs>
       <path id="ma3523723e0" d="M 0 0 
L 0 -3.5 
" style="stroke: #000000; stroke-width: 0.8"/>
      </defs>
      <g>
       <use xlink:href="#ma3523723e0" x="72.9" y="320.4" style="stroke: #000000; stroke-width: 0.8"/>
      </g>
     </g>
     <g id="line2d_2">
      <defs>
       <path id="mcffaf38ed4" d="M 0 0 
L 0 3.5 
" style="stroke: #000000; stroke-width: 0.8"/>
      </defs>
      <g>
       <use xlink:href="#mcffaf38ed4" x="72.9" y="43.2" style="stroke: #000000; stroke-width: 0.8"/>
      </g>
     </g>
     <g id="text_1">
      <!-- 166 -->
      <g transform="translate(63.35625 331.498438) scale(0.1 -0.1)">
       <defs>
        <path id="DejaVuSans-31" d="M 794 531 
L 1825 531 
L 1825 4091 
L 703 3866 
L 703 4441 
L 1819 4666 
L 2450 4666 
L 2450 531 
L 3481 531 
L 3481 0 
L 794 0 
L 794 531 
z
" transform="scale(0.015625)"/>
        <path id="DejaVuSans-36" d="M 2113 2584 
Q 1688 2584 1439 2293 
Q 1191 2003 1191 1497 
Q 1191 994 1439 701 
Q 1688 409 2113 409 
Q 2538 409 2786 701 
Q 3034 994 3034 1497 
Q 3034 2003 2786 2293 
Q 2538 2584 2113 2584 
z
M 3366 4563 
L 3366 3988 
Q 3128 4100 2886 4159 
Q 2644 4219 2406 4219 
Q 1781 4219 1451 3797 
Q 1122 3375 1075 2522 
Q 1259 2794 1537 2939 
Q 1816 3084 2150 3084 
Q 2853 3084 3261 2657 
Q 3669 2231 3669 1497 
Q 3669 778 3244 343 
Q 2819 -91 2113 -91 
Q 1303 -91 875 529 
Q 447 1150 447 2328 
Q 447 3434 972 4092 
Q 1497 4750 2381 4750 
Q 2619 4750 2861 4703 
Q 3103 4656 3366 4563 
z
" transform="scale(0.015625)"/>
       </defs>
       <use xlink:href="#DejaVuSans-31"/>
       <use xlink:href="#DejaVuSans-36" x="63.623047"/>
       <use xlink:href="#DejaVuSans-36" x="127.246094"/>
      </g>
     </g>
    </g>
    <g id="xtick_2">
     <g id="line2d_3">
      <g>
       <use xlink:href="#ma3523723e0" x="128.7" y="320.4" style="stroke: #000000; stroke-width: 0.8"/>
      </g>
     </g>
     <g id="line2d_4">
      <g>
       <use xlink:href="#mcffaf38ed4" x="128.7" y="43.2" style="stroke: #000000; stroke-width: 0.8"/>
      </g>
     </g>
     <g id="text_2">
      <!-- 168 -->
      <g transform="translate(119.15625 331.498438) scale(0.1 -0.1)">
       <defs>
        <path id="DejaVuSans-38" d="M 2034 2216 
Q 1584 2216 1326 1975 
Q 1069 1734 1069 1313 
Q 1069 891 1326 650 
Q 1584 409 2034 409 
Q 2484 409 2743 651 
Q 3003 894 3003 1313 
Q 3003 1734 2745 1975 
Q 2488 2216 2034 2216 
z
M 1403 2484 
Q 997 2584 770 2862 
Q 544 3141 544 3541 
Q 544 4100 942 4425 
Q 1341 4750 2034 4750 
Q 2731 4750 3128 4425 
Q 3525 4100 3525 3541 
Q 3525 3141 3298 2862 
Q 3072 2584 2669 2484 
Q 3125 2378 3379 2068 
Q 3634 1759 3634 1313 
Q 3634 634 3220 271 
Q 2806 -91 2034 -91 
Q 1263 -91 848 271 
Q 434 634 434 1313 
Q 434 1759 690 2068 
Q 947 2378 1403 2484 
z
M 1172 3481 
Q 1172 3119 1398 2916 
Q 1625 2713 2034 2713 
Q 2441 2713 2670 2916 
Q 2900 3119 2900 3481 
Q 2900 3844 2670 4047 
Q 2441 4250 2034 4250 
Q 1625 4250 1398 4047 
Q 1172 3844 1172 3481 
z
" transform="scale(0.015625)"/>
       </defs>
       <use xlink:href="#DejaVuSans-31"/>
       <use xlink:href="#DejaVuSans-36" x="63.623047"/>
       <use xlink:href="#DejaVuSans-38" x="127.246094"/>
      </g>
     </g>
    </g>
    <g id="xtick_3">
     <g id="line2d_5">
      <g>
       <use xlink:href="#ma3523723e0" x="184.5" y="320.4" style="stroke: #000000; stroke-width: 0.8"/>
      </g>
     </g>
     <g id="line2d_6">
      <g>
       <use xlink:href="#mcffaf38ed4" x="184.5" y="43.2" style="stroke: #000000; stroke-width: 0.8"/>
      </g>
     </g>
     <g id="text_3">
      <!-- 170 -->
      <g transform="translate(174.95625 331.498438) scale(0.1 -0.1)">
       <defs>
        <path id="DejaVuSans-37" d="M 525 4666 
L 3525 4666 
L 3525 4397 
L 1831 0 
L 1172 0 
L 2766 4134 
L 525 4134 
L 525 4666 
z
" transform="scale(0.015625)"/>
        <path id="DejaVuSans-30" d="M 2034 4250 
Q 1547 4250 1301 3770 
Q 1056 3291 1056 2328 
Q 1056 1369 1301 889 
Q 1547 409 2034 409 
Q 2525 409 2770 889 
Q 3016 1369 3016 2328 
Q 3016 3291 2770 3770 
Q 2525 4250 2034 4250 
z
M 2034 4750 
Q 2819 4750 3233 4129 
Q 3647 3509 3647 2328 
Q 3647 1150 3233 529 
Q 2819 -91 2034 -91 
Q 1250 -91 836 529 
Q 422 1150 422 2328 
Q 422 3509 836 4129 
Q 1250 4750 2034 4750 
z
" transform="scale(0.015625)"/>
       </defs>
       <use xlink:href="#DejaVuSans-31"/>
       <use xlink:href="#DejaVuSans-37" x="63.623047"/>
       <use xlink:href="#DejaVuSans-30" x="127.246094"/>
      </g>
     </g>
    </g>
    <g id="xtick_4">
     <g id="line2d_7">
      <g>
       <use xlink:href="#ma3523723e0" x="240.3" y="320.4" style="stroke: #000000; stroke-width: 0.8"/>
      </g>
     </g>
     <g id="line2d_8">
      <g>
       <use xlink:href="#mcffaf38ed4" x="240.3" y="43.2" style="stroke: #000000; stroke-width: 0.8"/>
      </g>
     </g>
     <g id="text_4">
      <!-- 172 -->
      <g transform="translate(230.75625 331.498438) scale(0.1 -0.1)">
       <defs>
        <path id="DejaVuSans-32" d="M 1228 531 
L 3431 531 
L 3431 0 
L 469 0 
L 469 531 
Q 828 903 1448 1529 
Q 2069 2156 2228 2338 
Q 2531 2678 2651 2914 
Q 2772 3150 2772 3378 
Q 2772 3750 2511 3984 
Q 2250 4219 1831 4219 
Q 1534 4219 1204 4116 
Q 875 4013 500 3803 
L 500 4441 
Q 881 4594 1212 4672 
Q 1544 4750 1819 4750 
Q 2544 4750 2975 4387 
Q 3406 4025 3406 3419 
Q 3406 3131 3298 2873 
Q 3191 2616 2906 2266 
Q 2828 2175 2409 1742 
Q 1991 1309 1228 531 
z
" transform="scale(0.015625)"/>
       </defs>
       <use xlink:href="#DejaVuSans-31"/>
       <use xlink:href="#DejaVuSans-37" x="63.623047"/>
       <use xlink:href="#DejaVuSans-32" x="127.246094"/>
      </g>
     </g>
    </g>
    <g id="xtick_5">
     <g id="line2d_9">
      <g>
       <use xlink:href="#ma3523723e0" x="296.1" y="320.4" style="stroke: #000000; stroke-width: 0.8"/>
      </g>
     </g>
     <g id="line2d_10">
      <g>
       <use xlink:href="#mcffaf38ed4" x="296.1" y="43.2" style="stroke: #000000; stroke-width: 0.8"/>
      </g>
     </g>
     <g id="text_5">
      <!-- 174 -->
      <g transform="translate(286.55625 331.498438) scale(0.1 -0.1)">
       <defs>
        <path id="DejaVuSans-34" d="M 2419 4116 
L 825 1625 
L 2419 1625 
L 2419 4116 
z
M 2253 4666 
L 3047 4666 
L 3047 1625 
L 3713 1625 
L 3713 1100 
L 3047 1100 
L 3047 0 
L 2419 0 
L 2419 1100 
L 313 1100 
L 313 1709 
L 2253 4666 
z
" transform="scale(0.015625)"/>
       </defs>
       <use xlink:href="#DejaVuSans-31"/>
       <use xlink:href="#DejaVuSans-37" x="63.623047"/>
       <use xlink:href="#DejaVuSans-34" x="127.246094"/>
      </g>
     </g>
    </g>
    <g id="text_6">
     <!-- Frequency (MHz) -->
     <g transform="translate(142.48125 345.176562) scale(0.1 -0.1)">
      <defs>
       <path id="DejaVuSans-46" d="M 628 4666 
L 3309 4666 
L 3309 4134 
L 1259 4134 
L 1259 2759 
L 3109 2759 
L 3109 2228 
L 1259 2228 
L 1259 0 
L 628 0 
L 628 4666 
z
" transform="scale(0.015625)"/>
       <path id="DejaVuSans-72" d="M 2631 2963 
Q 2534 3019 2420 3045 
Q 2306 3072 2169 3072 
Q 1681 3072 1420 2755 
Q 1159 2438 1159 1844 
L 1159 0 
L 581 0 
L 581 3500 
L 1159 3500 
L 1159 2956 
Q 1341 3275 1631 3429 
Q 1922 3584 2338 3584 
Q 2397 3584 2469 3576 
Q 2541 3569 2628 3553 
L 2631 2963 
z
" transform="scale(0.015625)"/>
       <path id="DejaVuSans-65" d="M 3597 1894 
L 3597 1613 
L 953 1613 
Q 991 1019 1311 708 
Q 1631 397 2203 397 
Q 2534 397 2845 478 
Q 3156 559 3463 722 
L 3463 178 
Q 3153 47 2828 -22 
Q 2503 -91 2169 -91 
Q 1331 -91 842 396 
Q 353 884 353 1716 
Q 353 2575 817 3079 
Q 1281 3584 2069 3584 
Q 2775 3584 3186 3129 
Q 3597 2675 3597 1894 
z
M 3022 2063 
Q 3016 2534 2758 2815 
Q 2500 3097 2075 3097 
Q 1594 3097 1305 2825 
Q 1016 2553 972 2059 
L 3022 2063 
z
" transform="scale(0.015625)"/>
       <path id="DejaVuSans-71" d="M 947 1747 
Q 947 1113 1208 752 
Q 1469 391 1925 391 
Q 2381 391 2643 752 
Q 2906 1113 2906 1747 
Q 2906 2381 2643 2742 
Q 2381 3103 1925 3103 
Q 1469 3103 1208 2742 
Q 947 2381 947 1747 
z
M 2906 525 
Q 2725 213 2448 61 
Q 2172 -91 1784 -91 
Q 1150 -91 751 415 
Q 353 922 353 1747 
Q 353 2572 751 3078 
Q 1150 3584 1784 3584 
Q 2172 3584 2448 3432 
Q 2725 3281 2906 2969 
L 2906 3500 
L 3481 3500 
L 3481 -1331 
L 2906 -1331 
L 2906 525 
z
" transform="scale(0.015625)"/>
       <path id="DejaVuSans-75" d="M 544 1381 
L 544 3500 
L 1119 3500 
L 1119 1403 
Q 1119 906 1312 657 
Q 1506 409 1894 409 
Q 2359 409 2629 706 
Q 2900 1003 2900 1516 
L 2900 3500 
L 3475 3500 
L 3475 0 
L 2900 0 
L 2900 538 
Q 2691 219 2414 64 
Q 2138 -91 1772 -91 
Q 1169 -91 856 284 
Q 544 659 544 1381 
z
M 1991 3584 
L 1991 3584 
z
" transform="scale(0.015625)"/>
       <path id="DejaVuSans-6e" d="M 3513 2113 
L 3513 0 
L 2938 0 
L 2938 2094 
Q 2938 2591 2744 2837 
Q 2550 3084 2163 3084 
Q 1697 3084 1428 2787 
Q 1159 2491 1159 1978 
L 1159 0 
L 581 0 
L 581 3500 
L 1159 3500 
L 1159 2956 
Q 1366 3272 1645 3428 
Q 1925 3584 2291 3584 
Q 2894 3584 3203 3211 
Q 3513 2838 3513 2113 
z
" transform="scale(0.015625)"/>
       <path id="DejaVuSans-63" d="M 3122 3366 
L 3122 2828 
Q 2878 2963 2633 3030 
Q 2388 3097 2138 3097 
Q 1578 3097 1268 2742 
Q 959 2388 959 1747 
Q 959 1106 1268 751 
Q 1578 397 2138 397 
Q 2388 397 2633 464 
Q 2878 531 3122 666 
L 3122 134 
Q 2881 22 2623 -34 
Q 2366 -91 2075 -91 
Q 1284 -91 818 406 
Q 353 903 353 1747 
Q 353 2603 823 3093 
Q 1294 3584 2113 3584 
Q 2378 3584 2631 3529 
Q 2884 3475 3122 3366 
z
" transform="scale(0.015625)"/>
       <path id="DejaVuSans-79" d="M 2059 -325 
Q 1816 -950 1584 -1140 
Q 1353 -1331 966 -1331 
L 506 -1331 
L 506 -850 
L 844 -850 
Q 1081 -850 1212 -737 
Q 1344 -625 1503 -206 
L 1606 56 
L 191 3500 
L 800 3500 
L 1894 763 
L 2988 3500 
L 3597 3500 
L 2059 -325 
z
" transform="scale(0.015625)"/>
       <path id="DejaVuSans-20" transform="scale(0.015625)"/>
       <path id="DejaVuSans-28" d="M 1984 4856 
Q 1566 4138 1362 3434 
Q 1159 2731 1159 2009 
Q 1159 1288 1364 580 
Q 1569 -128 1984 -844 
L 1484 -844 
Q 1016 -109 783 600 
Q 550 1309 550 2009 
Q 550 2706 781 3412 
Q 1013 4119 1484 4856 
L 1984 4856 
z
" transform="scale(0.015625)"/>
       <path id="DejaVuSans-4d" d="M 628 4666 
L 1569 4666 
L 2759 1491 
L 3956 4666 
L 4897 4666 
L 4897 0 
L 4281 0 
L 4281 4097 
L 3078 897 
L 2444 897 
L 1241 4097 
L 1241 0 
L 628 0 
L 628 4666 
z
" transform="scale(0.015625)"/>
       <path id="DejaVuSans-48" d="M 628 4666 
L 1259 4666 
L 1259 2753 
L 3553 2753 
L 3553 4666 
L 4184 4666 
L 4184 0 
L 3553 0 
L 3553 2222 
L 1259 2222 
L 1259 0 
L 628 0 
L 628 4666 
z
" transform="scale(0.015625)"/>
       <path id="DejaVuSans-7a" d="M 353 3500 
L 3084 3500 
L 3084 2975 
L 922 459 
L 3084 459 
L 3084 0 
L 275 0 
L 275 525 
L 2438 3041 
L 353 3041 
L 353 3500 
z
" transform="scale(0.015625)"/>
       <path id="DejaVuSans-29" d="M 513 4856 
L 1013 4856 
Q 1481 4119 1714 3412 
Q 1947 2706 1947 2009 
Q 1947 1309 1714 600 
Q 1481 -109 1013 -844 
L 513 -844 
Q 928 -128 1133 580 
Q 1338 1288 1338 2009 
Q 1338 2731 1133 3434 
Q 928 4138 513 4856 
z
" transform="scale(0.015625)"/>
      </defs>
      <use xlink:href="#DejaVuSans-46"/>
      <use xlink:href="#DejaVuSans-72" x="50.269531"/>
      <use xlink:href="#DejaVuSans-65" x="89.132812"/>
      <use xlink:href="#DejaVuSans-71" x="150.65625"/>
      <use xlink:href="#DejaVuSans-75" x="214.132812"/>
      <use xlink:href="#DejaVuSans-65" x="277.511719"/>
      <use xlink:href="#DejaVuSans-6e" x="339.035156"/>
      <use xlink:href="#DejaVuSans-63" x="402.414062"/>
      <use xlink:href="#DejaVuSans-79" x="457.394531"/>
      <use xlink:href="#DejaVuSans-20" x="516.574219"/>
      <use xlink:href="#DejaVuSans-28" x="548.361328"/>
      <use xlink:href="#DejaVuSans-4d" x="587.375"/>
      <use xlink:href="#DejaVuSans-48" x="673.654297"/>
      <use xlink:href="#DejaVuSans-7a" x="748.849609"/>
      <use xlink:href="#DejaVuSans-29" x="801.339844"/>
     </g>
    </g>
   </g>
   <g id="matplotlib.axis_2">
    <g id="ytick_1">
     <g id="line2d_11">
      <defs>
       <path id="m8b94d29770" d="M 0 0 
L 3.5 0 
" style="stroke: #000000; stroke-width: 0.8"/>
      </defs>
      <g>
       <use xlink:href="#m8b94d29770" x="45" y="274.2" style="stroke: #000000; stroke-width: 0.8"/>
      </g>
     </g>
     <g id="line2d_12">
      <defs>
       <path id="m8409f79d6e" d="M 0 0 
L -3.5 0 
" style="stroke: #000000; stroke-width: 0.8"/>
      </defs>
      <g>
       <use xlink:href="#m8409f79d6e" x="324" y="274.2" style="stroke: #000000; stroke-width: 0.8"/>
      </g>
     </g>
     <g id="text_7">
      <!-- −2.5 -->
      <g transform="translate(17.217187 277.999219) scale(0.1 -0.1)">
       <defs>
        <path id="DejaVuSans-2212" d="M 678 2272 
L 4684 2272 
L 4684 1741 
L 678 1741 
L 678 2272 
z
" transform="scale(0.015625)"/>
        <path id="DejaVuSans-2e" d="M 684 794 
L 1344 794 
L 1344 0 
L 684 0 
L 684 794 
z
" transform="scale(0.015625)"/>
        <path id="DejaVuSans-35" d="M 691 4666 
L 3169 4666 
L 3169 4134 
L 1269 4134 
L 1269 2991 
Q 1406 3038 1543 3061 
Q 1681 3084 1819 3084 
Q 2600 3084 3056 2656 
Q 3513 2228 3513 1497 
Q 3513 744 3044 326 
Q 2575 -91 1722 -91 
Q 1428 -91 1123 -41 
Q 819 9 494 109 
L 494 744 
Q 775 591 1075 516 
Q 1375 441 1709 441 
Q 2250 441 2565 725 
Q 2881 1009 2881 1497 
Q 2881 1984 2565 2268 
Q 2250 2553 1709 2553 
Q 1456 2553 1204 2497 
Q 953 2441 691 2322 
L 691 4666 
z
" transform="scale(0.015625)"/>
       </defs>
       <use xlink:href="#DejaVuSans-2212"/>
       <use xlink:href="#DejaVuSans-32" x="83.789062"/>
       <use xlink:href="#DejaVuSans-2e" x="147.412109"/>
       <use xlink:href="#DejaVuSans-35" x="179.199219"/>
      </g>
     </g>
    </g>
    <g id="ytick_2">
     <g id="line2d_13">
      <g>
       <use xlink:href="#m8b94d29770" x="45" y="181.8" style="stroke: #000000; stroke-width: 0.8"/>
      </g>
     </g>
     <g id="line2d_14">
      <g>
       <use xlink:href="#m8409f79d6e" x="324" y="181.8" style="stroke: #000000; stroke-width: 0.8"/>
      </g>
     </g>
     <g id="text_8">
      <!-- −1.5 -->
      <g transform="translate(17.217187 185.599219) scale(0.1 -0.1)">
       <use xlink:href="#DejaVuSans-2212"/>
       <use xlink:href="#DejaVuSans-31" x="83.789062"/>
       <use xlink:href="#DejaVuSans-2e" x="147.412109"/>
       <use xlink:href="#DejaVuSans-35" x="179.199219"/>
      </g>
     </g>
    </g>
    <g id="ytick_3">
     <g id="line2d_15">
      <g>
       <use xlink:href="#m8b94d29770" x="45" y="89.4" style="stroke: #000000; stroke-width: 0.8"/>
      </g>
     </g>
     <g id="line2d_16">
      <g>
       <use xlink:href="#m8409f79d6e" x="324" y="89.4" style="stroke: #000000; stroke-width: 0.8"/>
      </g>
     </g>
     <g id="text_9">
      <!-- −0.5 -->
      <g transform="translate(17.217187 93.199219) scale(0.1 -0.1)">
       <use xlink:href="#DejaVuSans-2212"/>
       <use xlink:href="#DejaVuSans-30" x="83.789062"/>
       <use xlink:href="#DejaVuSans-2e" x="147.412109"/>
       <use xlink:href="#DejaVuSans-35" x="179.199219"/>
      </g>
     </g>
    </g>
    <g id="text_10">
     <!-- $S_{11} (\mathrm{(dB)}$ -->
     <g transform="translate(11.1375 202.05) rotate(-90) scale(0.1 -0.1)">
      <defs>
       <path id="DejaVuSans-Oblique-53" d="M 3859 4513 
L 3738 3897 
Q 3422 4066 3111 4152 
Q 2800 4238 2509 4238 
Q 1944 4238 1609 3991 
Q 1275 3744 1275 3334 
Q 1275 3109 1398 2989 
Q 1522 2869 2034 2731 
L 2413 2638 
Q 3053 2472 3303 2217 
Q 3553 1963 3553 1503 
Q 3553 797 2998 353 
Q 2444 -91 1538 -91 
Q 1166 -91 791 -17 
Q 416 56 38 206 
L 166 856 
Q 513 641 861 531 
Q 1209 422 1556 422 
Q 2147 422 2503 684 
Q 2859 947 2859 1369 
Q 2859 1650 2717 1795 
Q 2575 1941 2106 2059 
L 1728 2156 
Q 1081 2325 845 2545 
Q 609 2766 609 3163 
Q 609 3859 1145 4304 
Q 1681 4750 2541 4750 
Q 2875 4750 3203 4690 
Q 3531 4631 3859 4513 
z
" transform="scale(0.015625)"/>
       <path id="DejaVuSans-64" d="M 2906 2969 
L 2906 4863 
L 3481 4863 
L 3481 0 
L 2906 0 
L 2906 525 
Q 2725 213 2448 61 
Q 2172 -91 1784 -91 
Q 1150 -91 751 415 
Q 353 922 353 1747 
Q 353 2572 751 3078 
Q 1150 3584 1784 3584 
Q 2172 3584 2448 3432 
Q 2725 3281 2906 2969 
z
M 947 1747 
Q 947 1113 1208 752 
Q 1469 391 1925 391 
Q 2381 391 2643 752 
Q 2906 1113 2906 1747 
Q 2906 2381 2643 2742 
Q 2381 3103 1925 3103 
Q 1469 3103 1208 2742 
Q 947 2381 947 1747 
z
" transform="scale(0.015625)"/>
       <path id="DejaVuSans-42" d="M 1259 2228 
L 1259 519 
L 2272 519 
Q 2781 519 3026 730 
Q 3272 941 3272 1375 
Q 3272 1813 3026 2020 
Q 2781 2228 2272 2228 
L 1259 2228 
z
M 1259 4147 
L 1259 2741 
L 2194 2741 
Q 2656 2741 2882 2914 
Q 3109 3088 3109 3444 
Q 3109 3797 2882 3972 
Q 2656 4147 2194 4147 
L 1259 4147 
z
M 628 4666 
L 2241 4666 
Q 2963 4666 3353 4366 
Q 3744 4066 3744 3513 
Q 3744 3084 3544 2831 
Q 3344 2578 2956 2516 
Q 3422 2416 3680 2098 
Q 3938 1781 3938 1306 
Q 3938 681 3513 340 
Q 3088 0 2303 0 
L 628 0 
L 628 4666 
z
" transform="scale(0.015625)"/>
      </defs>
      <use xlink:href="#DejaVuSans-Oblique-53" transform="translate(0 0.015625)"/>
      <use xlink:href="#DejaVuSans-31" transform="translate(63.476562 -16.390625) scale(0.7)"/>
      <use xlink:href="#DejaVuSans-31" transform="translate(108.012695 -16.390625) scale(0.7)"/>
      <use xlink:href="#DejaVuSans-28" transform="translate(155.283203 0.015625)"/>
      <use xlink:href="#DejaVuSans-28" transform="translate(194.296875 0.015625)"/>
      <use xlink:href="#DejaVuSans-64" transform="translate(233.310547 0.015625)"/>
      <use xlink:href="#DejaVuSans-42" transform="translate(296.787109 0.015625)"/>
      <use xlink:href="#DejaVuSans-29" transform="translate(365.390625 0.015625)"/>
     </g>
    </g>
   </g>
   <g id="line2d_17">
    <path d="M 44.9442 113.947021 
L 45.57195 114.565639 
L 46.07415 113.06546 
L 46.1997 112.843793 
L 46.32525 112.896738 
L 46.57635 113.396289 
L 47.9574 117.481127 
L 48.58515 119.961346 
L 48.7107 120.332073 
L 49.08735 121.982125 
L 49.33845 121.865073 
L 49.7151 123.182429 
L 50.2173 124.270078 
L 50.59395 125.840121 
L 50.84505 126.652455 
L 50.9706 126.81848 
L 51.2217 126.458692 
L 51.4728 126.06614 
L 51.7239 125.828386 
L 51.84945 125.605074 
L 52.60275 121.31386 
L 52.7283 121.374576 
L 52.85385 121.252775 
L 53.10495 121.914008 
L 53.35605 121.889725 
L 53.9838 123.006656 
L 54.10935 122.990357 
L 54.486 123.333207 
L 54.7371 122.857356 
L 54.9882 122.657098 
L 55.2393 122.277666 
L 55.4904 122.691147 
L 55.61595 123.153498 
L 55.86705 122.904831 
L 56.62035 125.410655 
L 56.87145 126.277644 
L 56.997 126.409406 
L 57.4992 124.245916 
L 57.7503 122.688625 
L 58.12695 121.464565 
L 58.5036 121.090446 
L 58.7547 122.082628 
L 59.13135 123.367303 
L 59.2569 123.521564 
L 59.7591 125.907129 
L 59.88465 126.028164 
L 60.2613 127.536289 
L 60.38685 127.516469 
L 60.63795 128.466859 
L 60.7635 128.408138 
L 60.88905 128.660206 
L 61.64235 133.173317 
L 61.7679 133.358348 
L 62.14455 135.717533 
L 62.2701 135.592312 
L 62.64675 134.456559 
L 63.0234 130.426977 
L 63.2745 128.522742 
L 63.40005 128.454865 
L 63.65115 127.8384 
L 64.0278 125.722394 
L 64.15335 125.621752 
L 64.2789 125.21072 
L 64.90665 127.145003 
L 65.15775 127.002503 
L 65.40885 128.050735 
L 65.65995 129.07474 
L 65.91105 129.006946 
L 66.7899 131.040125 
L 67.16655 132.490186 
L 67.7943 135.457002 
L 68.2965 138.735964 
L 68.92425 141.930139 
L 69.0498 142.084632 
L 69.17535 141.60831 
L 69.8031 136.751119 
L 69.92865 136.874935 
L 70.0542 136.72303 
L 70.3053 134.892013 
L 70.43085 134.874734 
L 70.8075 134.104894 
L 70.93305 134.425892 
L 71.0586 134.404991 
L 71.18415 134.616236 
L 71.93745 138.33772 
L 72.063 138.577867 
L 72.3141 140.076318 
L 73.19295 146.96326 
L 73.3185 146.96326 
L 73.44405 147.188346 
L 73.5696 148.332535 
L 73.69515 148.284302 
L 74.3229 142.916417 
L 75.0762 133.058455 
L 75.70395 127.978663 
L 75.8295 127.984983 
L 75.95505 127.848573 
L 76.20615 128.382091 
L 76.45725 128.284609 
L 77.21055 131.161677 
L 77.71275 133.964455 
L 77.8383 134.339165 
L 78.96825 141.417134 
L 80.6004 158.956964 
L 80.8515 159.824138 
L 81.3537 157.21661 
L 81.47925 155.437541 
L 81.6048 155.901758 
L 81.73035 155.694967 
L 81.98145 155.011484 
L 82.107 154.564361 
L 82.48365 155.513216 
L 82.6092 154.469096 
L 82.73475 154.602892 
L 82.98585 156.742414 
L 83.1114 157.123286 
L 83.23695 157.901849 
L 83.73915 164.325035 
L 83.99025 165.045108 
L 84.1158 164.743976 
L 84.24135 164.989391 
L 84.49245 168.497819 
L 84.99465 177.078822 
L 85.1202 177.867918 
L 85.24575 177.868657 
L 85.6224 173.159768 
L 85.99905 165.415078 
L 87.129 140.728754 
L 87.75675 137.477938 
L 87.8823 137.844858 
L 88.1334 137.116746 
L 88.3845 136.485192 
L 88.51005 136.538876 
L 88.76115 137.339892 
L 88.8867 137.312264 
L 89.1378 137.806142 
L 89.26335 138.342894 
L 89.64 140.88565 
L 89.8911 142.4449 
L 90.1422 144.662869 
L 90.76995 153.026363 
L 92.52765 178.208689 
L 92.6532 178.57487 
L 92.77875 178.259417 
L 92.9043 178.764383 
L 93.28095 181.800092 
L 93.4065 181.830215 
L 93.6576 184.540861 
L 93.78315 184.612379 
L 94.03425 183.789187 
L 94.1598 184.471561 
L 94.4109 186.524504 
L 94.53645 186.541876 
L 94.78755 188.462594 
L 94.9131 188.388028 
L 95.28975 194.18853 
L 95.4153 193.38733 
L 95.6664 195.551522 
L 95.79195 197.01597 
L 96.1686 208.009168 
L 96.6708 214.905349 
L 96.79635 215.393683 
L 97.04745 213.63374 
L 97.29855 208.806857 
L 97.54965 201.660364 
L 97.6752 200.370275 
L 98.6796 159.854908 
L 99.05625 153.57679 
L 99.30735 154.074271 
L 99.55845 154.264985 
L 99.684 153.701807 
L 100.06065 151.167275 
L 100.1862 151.055194 
L 100.31175 150.245862 
L 100.4373 150.33281 
L 100.56285 151.216894 
L 100.6884 151.285639 
L 100.9395 150.505598 
L 101.1906 152.756185 
L 101.31615 152.645213 
L 101.4417 152.086378 
L 101.6928 152.924815 
L 101.9439 155.046596 
L 102.4461 159.505174 
L 102.82275 165.299023 
L 103.4505 180.799308 
L 103.57605 182.18808 
L 103.82715 182.444675 
L 104.07825 189.487588 
L 104.2038 190.100015 
L 104.58045 197.035928 
L 104.9571 200.15951 
L 105.08265 201.026315 
L 105.2082 198.669283 
L 105.58485 201.929987 
L 105.7104 201.652787 
L 105.9615 199.11613 
L 106.08705 198.601369 
L 106.33815 202.362234 
L 106.4637 204.403073 
L 106.7148 204.050474 
L 106.84035 204.207 
L 106.9659 204.999053 
L 107.09145 207.570268 
L 107.217 207.382418 
L 107.7192 212.752706 
L 108.34695 225.727422 
L 108.4725 225.753479 
L 108.59805 224.701505 
L 109.35135 201.851632 
L 109.60245 193.203638 
L 110.2302 180.48986 
L 110.60685 170.710429 
L 110.85795 168.883034 
L 110.9835 168.792944 
L 111.2346 165.884654 
L 111.36015 165.67389 
L 111.61125 167.893523 
L 111.9879 171.383009 
L 112.11345 170.256468 
L 112.239 170.300173 
L 112.61565 173.949234 
L 112.7412 173.513476 
L 112.9923 174.474343 
L 113.11785 174.631608 
L 113.2434 174.405505 
L 113.36895 174.960737 
L 113.4945 174.601763 
L 113.7456 177.168173 
L 113.9967 176.831098 
L 114.12225 175.824122 
L 114.2478 176.798388 
L 114.62445 188.167099 
L 114.75 188.752361 
L 115.0011 191.595139 
L 115.7544 202.848535 
L 115.87995 202.680275 
L 116.13105 200.132068 
L 116.2566 200.246366 
L 116.38215 199.699451 
L 116.5077 200.506472 
L 116.7588 203.878241 
L 116.88435 202.482908 
L 117.0099 202.930494 
L 117.13545 202.861102 
L 117.38655 200.478106 
L 117.5121 200.607373 
L 117.7632 196.941126 
L 118.0143 193.655382 
L 118.2654 190.927919 
L 118.5165 192.610523 
L 118.89315 190.219026 
L 119.14425 191.516599 
L 119.39535 189.852845 
L 119.5209 189.893501 
L 119.89755 191.796756 
L 120.2742 197.25815 
L 120.39975 198.129575 
L 120.90195 192.104078 
L 121.0275 192.420826 
L 121.2786 191.746028 
L 121.5297 188.511659 
L 121.65525 189.526858 
L 121.90635 188.196575 
L 122.15745 185.157631 
L 122.283 184.859272 
L 122.40855 184.139845 
L 122.5341 184.994176 
L 122.65965 184.951764 
L 122.91075 185.44555 
L 123.16185 186.785072 
L 123.2874 186.677796 
L 123.41295 187.458853 
L 123.66405 190.713736 
L 123.7896 191.41154 
L 123.91515 191.40997 
L 124.0407 191.876035 
L 124.66845 197.721721 
L 125.0451 204.291361 
L 125.2962 203.549944 
L 125.67285 207.555114 
L 125.7984 206.348093 
L 125.92395 206.784036 
L 126.17505 208.588516 
L 126.3006 209.683271 
L 126.42615 208.152757 
L 126.5517 209.253518 
L 126.67725 212.259937 
L 126.8028 211.339356 
L 127.0539 212.356033 
L 127.17945 212.210041 
L 127.43055 205.943658 
L 127.68165 208.741715 
L 127.8072 208.114596 
L 127.93275 208.054628 
L 128.0583 208.732752 
L 128.43495 217.980883 
L 129.18825 203.97175 
L 129.3138 204.33368 
L 129.43935 206.129752 
L 129.69045 199.576097 
L 130.44375 183.836496 
L 130.94595 168.39969 
L 131.3226 164.940326 
L 131.5737 165.826904 
L 131.8248 165.984908 
L 131.95035 167.545822 
L 132.0759 166.713298 
L 132.20145 164.684101 
L 132.5781 169.306042 
L 133.0803 177.31435 
L 133.20585 177.541654 
L 133.45695 179.190994 
L 133.5825 180.488567 
L 134.0847 190.44134 
L 134.21025 191.437228 
L 134.46135 195.787882 
L 134.838 199.546714 
L 135.21465 206.901014 
L 135.3402 208.083365 
L 135.5913 213.305166 
L 135.8424 215.452265 
L 136.3446 228.951073 
L 136.47015 231.6656 
L 136.72125 230.078353 
L 136.8468 228.750473 
L 136.97235 228.629244 
L 137.22345 235.705328 
L 137.349 235.629006 
L 137.47455 235.149635 
L 137.6001 235.69267 
L 137.8512 238.58904 
L 138.47895 229.688518 
L 138.6045 229.985584 
L 138.73005 232.110044 
L 138.8556 231.219216 
L 138.98115 229.231507 
L 139.48335 236.677469 
L 139.73445 241.151292 
L 139.86 240.878342 
L 140.1111 242.222208 
L 140.3622 247.781269 
L 140.48775 247.609775 
L 140.73885 243.729806 
L 141.1155 239.808905 
L 141.3666 230.295216 
L 141.6177 219.979772 
L 141.8688 213.403849 
L 142.74765 170.360603 
L 143.1243 158.888311 
L 143.50095 154.076858 
L 143.6265 153.363161 
L 143.75205 153.422204 
L 143.8776 152.766164 
L 144.00315 153.122459 
L 144.25425 155.615226 
L 145.1331 171.218999 
L 145.50975 179.542206 
L 145.6353 181.931208 
L 146.1375 198.791528 
L 146.6397 205.702494 
L 147.01635 211.383154 
L 147.1419 212.86525 
L 147.8952 231.282418 
L 148.02075 230.194038 
L 148.1463 230.135272 
L 148.3974 231.957122 
L 148.77405 226.557451 
L 148.8996 225.67845 
L 149.4018 229.243796 
L 149.6529 227.467499 
L 149.904 229.7325 
L 150.02955 229.165256 
L 150.1551 228.012936 
L 150.28065 230.910508 
L 150.6573 244.281712 
L 150.9084 252.061699 
L 151.1595 258.254809 
L 151.4106 260.820295 
L 152.1639 281.789921 
L 152.28945 281.309995 
L 152.54055 278.497986 
L 152.6661 277.880846 
L 152.79165 278.217182 
L 153.04275 273.027352 
L 153.29385 262.355244 
L 154.1727 208.020348 
L 154.6749 186.051971 
L 155.05155 179.49656 
L 155.4282 174.866951 
L 155.55375 174.979956 
L 155.9304 179.038441 
L 156.55815 193.362382 
L 156.9348 203.385564 
L 157.06035 204.147772 
L 157.1859 204.218458 
L 157.31145 202.824973 
L 157.6881 208.82275 
L 158.31585 219.18929 
L 158.56695 221.687324 
L 158.81805 225.511206 
L 158.9436 225.305708 
L 159.1947 227.05484 
L 159.32025 226.671658 
L 159.57135 225.057245 
L 159.6969 226.000926 
L 159.948 229.411687 
L 160.1991 230.003417 
L 160.32465 230.646613 
L 160.9524 216.447598 
L 161.07795 216.070883 
L 161.2035 216.599226 
L 161.4546 224.939342 
L 161.58015 223.983649 
L 161.7057 224.141468 
L 161.9568 229.624577 
L 162.58455 262.741846 
L 162.7101 265.54443 
L 162.9612 262.364854 
L 163.33785 281.62665 
L 163.7145 299.90762 
L 164.2167 314.789472 
L 164.34225 312.98721 
L 164.4678 313.197882 
L 164.59335 312.513568 
L 164.7189 309.774277 
L 165.09555 285.557069 
L 165.7233 238.814958 
L 166.2255 217.963974 
L 166.4766 214.932607 
L 166.9788 204.593786 
L 167.2299 206.288402 
L 167.35545 204.906653 
L 167.481 206.047516 
L 167.60655 208.756037 
L 167.85765 217.506224 
L 168.10875 220.779587 
L 168.35985 226.924834 
L 168.4854 226.948303 
L 168.61095 225.790254 
L 168.7365 225.95334 
L 168.9876 218.735144 
L 169.11315 219.947617 
L 169.36425 217.675686 
L 169.4898 218.842328 
L 169.86645 228.110048 
L 170.2431 237.232978 
L 170.36865 237.883843 
L 170.61975 240.665545 
L 170.7453 239.410846 
L 170.87085 236.672479 
L 171.12195 239.929949 
L 171.2475 237.750602 
L 171.37305 238.970005 
L 171.87525 231.634462 
L 172.0008 228.985631 
L 172.2519 219.505206 
L 172.37745 218.228792 
L 172.503 219.001903 
L 172.7541 217.512508 
L 172.87965 217.862057 
L 173.38185 221.849117 
L 173.5074 223.288616 
L 174.0096 243.915253 
L 174.13515 241.927637 
L 174.2607 236.721359 
L 174.38625 236.71757 
L 174.5118 234.127321 
L 175.5162 269.27739 
L 175.7673 280.077656 
L 175.89285 282.787748 
L 176.2695 278.867956 
L 177.0228 241.212368 
L 177.14835 239.45991 
L 177.65055 222.10063 
L 177.90165 206.504249 
L 178.2783 197.517332 
L 178.40385 197.695295 
L 178.5294 198.836527 
L 178.65495 198.596934 
L 179.0316 204.772396 
L 179.15715 205.46133 
L 179.2827 205.421321 
L 179.5338 211.799785 
L 179.91045 222.174827 
L 180.036 222.467827 
L 180.2871 216.117637 
L 180.41265 216.18472 
L 180.91485 229.311988 
L 181.0404 230.508937 
L 181.41705 241.731564 
L 181.66815 250.76237 
L 181.91925 252.383621 
L 182.17035 255.623257 
L 182.547 250.826958 
L 182.67255 251.579002 
L 182.92365 244.600584 
L 183.0492 245.608391 
L 183.17475 244.39213 
L 183.3003 240.05358 
L 183.67695 215.901698 
L 184.0536 206.435041 
L 184.3047 201.41458 
L 184.5558 196.382014 
L 184.8069 200.843825 
L 184.93245 200.975772 
L 185.18355 199.385106 
L 185.43465 201.422711 
L 185.5602 201.173046 
L 185.68575 200.457962 
L 185.93685 193.270721 
L 186.18795 188.817595 
L 186.3135 188.65146 
L 186.43905 190.841432 
L 186.5646 190.807337 
L 186.69015 190.933463 
L 186.8157 190.698397 
L 186.94125 191.08389 
L 187.19235 189.937668 
L 187.3179 191.620734 
L 187.44345 191.444804 
L 187.69455 192.696824 
L 187.8201 193.130273 
L 188.0712 186.674839 
L 188.19675 188.374445 
L 188.44785 181.567244 
L 188.8245 179.035115 
L 189.20115 168.561575 
L 189.3267 168.892736 
L 189.45225 169.246721 
L 189.8289 160.988471 
L 190.08 163.769988 
L 190.70775 174.073882 
L 190.8333 174.185224 
L 190.95885 175.372286 
L 191.3355 186.534206 
L 191.46105 186.403922 
L 191.5866 187.16881 
L 191.8377 183.647446 
L 191.96325 183.550703 
L 192.0888 182.628458 
L 192.3399 184.404664 
L 192.46545 185.79898 
L 192.8421 196.787834 
L 193.3443 216.661042 
L 193.5954 219.712367 
L 193.72095 220.656602 
L 194.0976 225.990854 
L 194.22315 225.421116 
L 194.3487 225.63225 
L 194.5998 219.073883 
L 195.47865 185.316005 
L 195.6042 184.101961 
L 195.8553 185.2577 
L 195.98085 185.044626 
L 196.1064 184.572554 
L 196.48305 191.826047 
L 196.6086 192.725376 
L 196.98525 199.802846 
L 197.23635 193.232375 
L 197.3619 192.402438 
L 197.613 186.690362 
L 198.24075 165.75668 
L 198.49185 162.544856 
L 199.49625 152.266188 
L 199.74735 149.215232 
L 199.8729 149.890769 
L 199.99845 151.53863 
L 200.124 151.252283 
L 200.24955 151.286748 
L 200.3751 150.542281 
L 200.6262 146.20327 
L 200.75175 145.040508 
L 200.8773 145.117847 
L 201.1284 147.177905 
L 201.25395 146.19172 
L 201.50505 149.805484 
L 201.6306 149.897237 
L 201.8817 148.689292 
L 202.25835 154.927955 
L 202.3839 154.911046 
L 202.635 160.380479 
L 203.01165 170.478782 
L 203.26275 174.964987 
L 203.3883 175.255585 
L 203.51385 176.215159 
L 204.01605 168.607867 
L 204.26715 164.706647 
L 204.3927 165.407501 
L 205.146 178.408828 
L 205.3971 182.055024 
L 205.6482 185.697155 
L 206.4015 194.27363 
L 206.6526 195.312761 
L 206.77815 195.134983 
L 207.1548 190.681118 
L 207.28035 190.558319 
L 207.4059 191.692159 
L 207.657 196.717518 
L 207.78255 197.57305 
L 208.03365 197.168984 
L 208.1592 199.141724 
L 208.78695 219.074714 
L 208.9125 221.191968 
L 209.1636 220.073743 
L 209.54025 207.57692 
L 209.6658 207.742963 
L 209.9169 199.171662 
L 210.54465 172.241405 
L 210.79575 170.018353 
L 211.04685 166.082113 
L 211.4235 163.024228 
L 211.54905 163.02238 
L 211.6746 162.724112 
L 211.9257 164.524896 
L 212.30235 169.126601 
L 212.4279 169.196178 
L 212.80455 170.275502 
L 213.05565 172.302019 
L 213.30675 176.467042 
L 214.56225 214.918378 
L 214.6878 214.541478 
L 215.06445 210.107941 
L 215.31555 211.118335 
L 215.4411 209.427785 
L 216.06885 180.361609 
L 216.57105 166.192624 
L 216.6966 166.943281 
L 217.07325 174.936528 
L 217.1988 174.903449 
L 217.32435 175.214282 
L 217.82655 184.775742 
L 218.07765 193.227847 
L 218.2032 193.235794 
L 218.32875 194.986312 
L 218.7054 213.060676 
L 219.4587 243.265219 
L 219.7098 253.944719 
L 220.58865 293.581824 
L 220.7142 292.662444 
L 221.34195 268.233824 
L 222.09525 225.392749 
L 222.4719 207.143657 
L 222.9741 201.900696 
L 223.09965 201.548098 
L 223.2252 202.824419 
L 223.35075 201.380114 
L 223.4763 201.359324 
L 224.10405 220.828466 
L 224.2296 221.453275 
L 224.35515 220.958658 
L 224.4807 223.254521 
L 225.10845 243.835142 
L 225.35955 260.169984 
L 225.4851 260.246953 
L 225.61065 261.607081 
L 225.86175 266.931539 
L 225.9873 267.493516 
L 226.11285 264.910751 
L 226.4895 250.82548 
L 226.86615 234.841019 
L 227.4939 196.496128 
L 227.87055 177.080116 
L 228.2472 164.354233 
L 228.37275 165.312144 
L 228.87495 174.760136 
L 229.0005 175.782173 
L 229.2516 171.680722 
L 229.5027 177.883903 
L 230.13045 200.310677 
L 230.88375 242.357482 
L 231.0093 242.405899 
L 232.0137 265.600055 
L 232.13925 266.861592 
L 232.2648 263.449999 
L 233.2692 192.693406 
L 233.64585 171.228793 
L 233.89695 165.900085 
L 234.0225 164.98819 
L 234.14805 165.468208 
L 234.2736 164.738248 
L 234.5247 159.747077 
L 234.65025 160.258326 
L 234.90135 164.679296 
L 235.15245 171.792895 
L 235.40355 170.788507 
L 235.90575 190.903525 
L 236.0313 190.491606 
L 236.40795 195.738355 
L 236.91015 210.28036 
L 237.0357 210.78588 
L 237.16125 210.397338 
L 237.41235 214.755754 
L 237.66345 211.329377 
L 238.2912 195.531656 
L 238.5423 184.9878 
L 238.66785 183.714158 
L 238.7934 180.886903 
L 239.42115 154.841284 
L 239.5467 150.969908 
L 239.67225 150.799061 
L 239.7978 154.170182 
L 239.92335 154.045073 
L 240.0489 154.401275 
L 240.17445 155.68582 
L 240.67665 166.162778 
L 240.92775 163.09362 
L 241.17885 169.079754 
L 241.42995 175.412942 
L 241.93215 183.660474 
L 242.43435 200.123659 
L 242.68545 201.098294 
L 242.811 201.336224 
L 243.18765 197.48028 
L 243.3132 198.58945 
L 243.5643 194.049191 
L 244.69425 132.327266 
L 244.94535 127.259218 
L 245.19645 122.86777 
L 245.322 123.107594 
L 245.69865 125.877857 
L 245.8242 126.223202 
L 245.94975 127.330394 
L 246.20085 130.882546 
L 246.45195 129.320958 
L 246.5775 126.650986 
L 246.95415 129.077105 
L 248.0841 157.676578 
L 248.5863 168.025378 
L 248.71185 168.669775 
L 248.8374 170.370674 
L 249.21405 177.753434 
L 249.3396 179.102936 
L 249.71625 175.54646 
L 250.0929 164.88424 
L 250.21845 165.491492 
L 250.344 165.308171 
L 250.46955 163.894174 
L 251.22285 146.366356 
L 251.5995 144.116323 
L 251.72505 143.625125 
L 251.97615 141.386458 
L 252.1017 142.154579 
L 252.22725 140.699464 
L 252.47835 135.273033 
L 252.72945 139.61247 
L 252.855 138.857839 
L 253.23165 144.462638 
L 253.3572 142.905421 
L 253.48275 144.375598 
L 253.73385 152.683097 
L 253.8594 150.951798 
L 253.98495 151.687949 
L 254.73825 145.245913 
L 255.1149 143.135312 
L 255.99375 115.145569 
L 256.99815 99.81531 
L 257.24925 102.072817 
L 257.50035 101.348697 
L 257.6259 100.700899 
L 258.00255 103.867262 
L 258.1281 104.912833 
L 258.25365 103.729189 
L 258.3792 104.024444 
L 258.6303 107.609536 
L 258.75585 107.982536 
L 259.3836 114.969251 
L 259.76025 117.478087 
L 259.8858 117.8851 
L 260.1369 119.93054 
L 260.388 123.492329 
L 260.6391 125.379451 
L 261.26685 133.249252 
L 261.51795 134.2968 
L 261.6435 134.784893 
L 261.8946 134.043947 
L 262.02015 132.879033 
L 262.1457 132.910504 
L 262.27125 132.106236 
L 262.899 124.772623 
L 263.02455 124.634559 
L 263.4012 122.462753 
L 263.52675 123.356501 
L 263.6523 122.846351 
L 263.77785 123.226771 
L 263.9034 121.645937 
L 264.02895 121.70207 
L 264.1545 121.933513 
L 264.28005 121.908316 
L 264.4056 123.151567 
L 264.9078 131.534668 
L 265.41 138.513649 
L 265.78665 149.946578 
L 266.1633 155.603676 
L 266.28885 155.528 
L 266.4144 154.987091 
L 266.53995 151.588988 
L 266.6655 151.995086 
L 266.79105 151.391807 
L 267.29325 134.18677 
L 267.54435 129.79254 
L 268.04655 120.027338 
L 268.1721 119.373128 
L 268.54875 115.645074 
L 268.6743 115.086239 
L 268.79985 115.568234 
L 269.05095 120.308188 
L 269.30205 122.857282 
L 269.55315 126.03721 
L 269.80425 125.357331 
L 270.05535 128.150934 
L 270.432 138.065324 
L 270.55755 139.388308 
L 270.6831 139.412054 
L 271.05975 146.89821 
L 271.31085 148.692156 
L 271.4364 147.818606 
L 271.6875 143.155918 
L 271.81305 142.541827 
L 272.06415 141.147696 
L 272.31525 135.319843 
L 272.4408 136.274612 
L 272.81745 141.018521 
L 272.943 140.544786 
L 273.06855 141.300988 
L 273.1941 141.261163 
L 273.31965 140.017182 
L 273.4452 140.347974 
L 273.57075 140.252432 
L 273.82185 142.37486 
L 273.9474 142.066984 
L 274.1985 143.657742 
L 274.32405 143.78701 
L 274.7007 147.372776 
L 275.07735 157.234166 
L 275.32845 163.135292 
L 275.454 163.325452 
L 275.7051 165.721199 
L 276.2073 175.42477 
L 276.4584 178.976533 
L 276.58395 179.547011 
L 277.08615 187.185442 
L 277.2117 185.707319 
L 277.4628 191.585899 
L 277.7139 202.678057 
L 277.965 197.690028 
L 278.09055 197.466143 
L 278.34165 201.190325 
L 278.59275 196.207378 
L 278.9694 184.274749 
L 279.2205 180.451145 
L 279.4716 173.182591 
L 279.7227 171.85813 
L 280.2249 178.028879 
L 280.7271 191.306944 
L 280.85265 193.698163 
L 280.9782 193.512716 
L 281.2293 195.798692 
L 281.60595 202.815826 
L 282.10815 192.045866 
L 282.987 157.559692 
L 283.2381 152.8022 
L 283.36365 152.024377 
L 283.4892 150.316086 
L 283.7403 143.907407 
L 283.9914 148.980629 
L 284.11695 148.714147 
L 284.36805 152.779655 
L 284.4936 152.616846 
L 284.61915 153.294692 
L 284.87025 155.509243 
L 284.9958 156.187829 
L 285.37245 165.87486 
L 285.62355 167.500453 
L 286.12575 181.629892 
L 286.37685 191.378831 
L 286.5024 189.953191 
L 286.62795 190.870723 
L 286.7535 190.863886 
L 286.87905 191.745104 
L 287.0046 191.55707 
L 287.2557 189.425772 
L 287.7579 178.508342 
L 288.13455 164.978118 
L 288.2601 162.60353 
L 288.7623 167.703179 
L 289.39005 156.745648 
L 290.0178 167.406852 
L 290.2689 163.484472 
L 290.64555 165.856842 
L 290.7711 163.462758 
L 290.89665 164.169988 
L 291.0222 163.522541 
L 291.14775 163.469318 
L 291.2733 163.239704 
L 291.5244 166.597798 
L 291.7755 173.228237 
L 292.0266 181.089352 
L 292.15215 180.04865 
L 292.2777 180.678079 
L 293.15655 167.318425 
L 293.90985 146.110315 
L 294.0354 145.825076 
L 294.16095 145.124038 
L 294.2865 145.14298 
L 294.5376 142.838062 
L 294.91425 137.917854 
L 295.0398 138.677474 
L 295.41645 144.639122 
L 295.7931 148.483702 
L 295.91865 148.525282 
L 296.0442 149.178734 
L 296.16975 150.794718 
L 296.2953 150.365243 
L 296.5464 153.03551 
L 296.7975 150.216571 
L 296.92305 149.3372 
L 297.17415 143.963678 
L 297.5508 148.583401 
L 297.8019 158.347217 
L 297.92745 157.843822 
L 298.68075 136.689211 
L 298.93185 128.81492 
L 299.0574 128.301906 
L 299.5596 120.078602 
L 300.0618 109.978349 
L 300.18735 110.100196 
L 300.564 106.495497 
L 300.8151 108.155888 
L 300.94065 108.129286 
L 301.0662 107.692927 
L 301.19175 108.461917 
L 301.8195 116.687928 
L 301.94505 115.595982 
L 302.19615 118.523427 
L 302.3217 118.704457 
L 303.5772 133.965176 
L 303.70275 134.476823 
L 304.0794 131.680789 
L 304.3305 127.225234 
L 304.8327 125.887466 
L 305.0838 127.01835 
L 305.71155 125.274494 
L 305.8371 124.69485 
L 305.96265 124.655987 
L 306.3393 125.121692 
L 306.71595 130.696609 
L 306.96705 128.131132 
L 307.0926 128.349917 
L 307.46925 125.815838 
L 307.5948 125.931227 
L 307.72035 125.819303 
L 307.97145 121.405272 
L 308.097 121.160014 
L 308.72475 112.464417 
L 308.8503 113.459999 
L 309.1014 117.99743 
L 309.22695 117.999528 
L 309.47805 119.970448 
L 309.6036 119.676135 
L 309.72915 120.419003 
L 309.8547 121.89659 
L 309.98025 121.004034 
L 310.3569 113.271873 
L 310.608 109.348689 
L 310.98465 102.008488 
L 311.3613 96.450942 
L 311.48685 96.283929 
L 311.73795 94.475162 
L 311.98905 92.346719 
L 312.3657 91.889016 
L 312.6168 89.6355 
L 312.74235 88.292826 
L 312.99345 88.913874 
L 313.24455 88.47235 
L 313.49565 87.514467 
L 313.6212 87.828027 
L 313.99785 90.467858 
L 314.6256 97.39892 
L 314.8767 100.477891 
L 315.8811 113.586301 
L 316.1322 115.406959 
L 316.50885 117.22359 
L 316.75995 116.686838 
L 316.8855 116.791296 
L 317.01105 116.667295 
L 317.26215 115.752951 
L 317.51325 116.254711 
L 317.6388 116.485101 
L 317.8899 115.319919 
L 318.141 113.794533 
L 318.26655 113.967173 
L 318.3921 113.821468 
L 318.51765 113.940091 
L 318.6432 113.403654 
L 319.01985 110.047769 
L 319.1454 109.954556 
L 319.27095 109.133729 
L 319.6476 104.829451 
L 320.02425 105.583167 
L 320.1498 106.213178 
L 320.9031 116.687938 
L 321.27975 127.078271 
L 321.53085 125.716785 
L 321.6564 126.364029 
L 322.1586 122.431032 
L 322.4097 118.357051 
L 322.6608 111.061803 
L 322.9119 104.407248 
L 323.163 100.17676 
L 323.6652 97.250563 
L 323.79075 96.837322 
L 324.04185 94.20383 
L 324.04185 94.20383 
" clip-path="url(#pf433853ab4)" style="fill: none; stroke: #000000; stroke-linecap: square"/>
   </g>
   <g id="patch_3">
    <path d="M 45 320.4 
L 45 43.2 
" style="fill: none; stroke: #000000; stroke-width: 0.8; stroke-linejoin: miter; stroke-linecap: square"/>
   </g>
   <g id="patch_4">
    <path d="M 324 320.4 
L 324 43.2 
" style="fill: none; stroke: #000000; stroke-width: 0.8; stroke-linejoin: miter; stroke-linecap: square"/>
   </g>
   <g id="patch_5">
    <path d="M 45 320.4 
L 324 320.4 
" style="fill: none; stroke: #000000; stroke-width: 0.8; stroke-linejoin: miter; stroke-linecap: square"/>
   </g>
   <g id="patch_6">
    <path d="M 45 43.2 
L 324 43.2 
" style="fill: none; stroke: #000000; stroke-width: 0.8; stroke-linejoin: miter; stroke-linecap: square"/>
   </g>
   <g id="patch_7">
    <path d="M 156.6 320.4 
L 212.4 320.4 
L 212.4 89.4 
L 156.6 89.4 
L 156.6 320.4 
z
" clip-path="url(#pf433853ab4)" style="fill: none; opacity: 0.5; stroke: #808080; stroke-linejoin: miter"/>
   </g>
   <g id="patch_8">
    <path d="M 407.7 -26.1 
Q 282.15 31.65 156.6 89.4 
" style="fill: none; opacity: 0.5; stroke: #808080; stroke-linecap: round"/>
   </g>
   <g id="patch_9">
    <path d="M 616.95 181.8 
Q 414.675 251.1 212.4 320.4 
" style="fill: none; opacity: 0.5; stroke: #808080; stroke-linecap: round"/>
   </g>
   <g id="axes_2">
    <g id="patch_10">
     <path d="M 407.7 181.8 
L 616.95 181.8 
L 616.95 -26.1 
L 407.7 -26.1 
z
" style="fill: #ffffff"/>
    </g>
    <g id="matplotlib.axis_3">
     <g id="xtick_6">
      <g id="line2d_18">
       <g>
        <use xlink:href="#ma3523723e0" x="460.0125" y="181.8" style="stroke: #000000; stroke-width: 0.8"/>
       </g>
      </g>
      <g id="line2d_19">
       <g/>
      </g>
      <g id="text_11">
       <!-- 169.5 -->
       <g transform="translate(445.698438 -31.679688) scale(0.1 -0.1)">
        <defs>
         <path id="DejaVuSans-39" d="M 703 97 
L 703 672 
Q 941 559 1184 500 
Q 1428 441 1663 441 
Q 2288 441 2617 861 
Q 2947 1281 2994 2138 
Q 2813 1869 2534 1725 
Q 2256 1581 1919 1581 
Q 1219 1581 811 2004 
Q 403 2428 403 3163 
Q 403 3881 828 4315 
Q 1253 4750 1959 4750 
Q 2769 4750 3195 4129 
Q 3622 3509 3622 2328 
Q 3622 1225 3098 567 
Q 2575 -91 1691 -91 
Q 1453 -91 1209 -44 
Q 966 3 703 97 
z
M 1959 2075 
Q 2384 2075 2632 2365 
Q 2881 2656 2881 3163 
Q 2881 3666 2632 3958 
Q 2384 4250 1959 4250 
Q 1534 4250 1286 3958 
Q 1038 3666 1038 3163 
Q 1038 2656 1286 2365 
Q 1534 2075 1959 2075 
z
" transform="scale(0.015625)"/>
        </defs>
        <use xlink:href="#DejaVuSans-31"/>
        <use xlink:href="#DejaVuSans-36" x="63.623047"/>
        <use xlink:href="#DejaVuSans-39" x="127.246094"/>
        <use xlink:href="#DejaVuSans-2e" x="190.869141"/>
        <use xlink:href="#DejaVuSans-35" x="222.65625"/>
       </g>
      </g>
     </g>
     <g id="xtick_7">
      <g id="line2d_20">
       <g>
        <use xlink:href="#ma3523723e0" x="564.6375" y="181.8" style="stroke: #000000; stroke-width: 0.8"/>
       </g>
      </g>
      <g id="line2d_21">
       <g/>
      </g>
      <g id="text_12">
       <!-- 170.5 -->
       <g transform="translate(550.323438 -31.679688) scale(0.1 -0.1)">
        <use xlink:href="#DejaVuSans-31"/>
        <use xlink:href="#DejaVuSans-37" x="63.623047"/>
        <use xlink:href="#DejaVuSans-30" x="127.246094"/>
        <use xlink:href="#DejaVuSans-2e" x="190.869141"/>
        <use xlink:href="#DejaVuSans-35" x="222.65625"/>
       </g>
      </g>
     </g>
     <g id="text_13">
      <!-- Frequency (MHz) -->
      <g transform="translate(470.30625 -43.278125) scale(0.1 -0.1)">
       <use xlink:href="#DejaVuSans-46"/>
       <use xlink:href="#DejaVuSans-72" x="50.269531"/>
       <use xlink:href="#DejaVuSans-65" x="89.132812"/>
       <use xlink:href="#DejaVuSans-71" x="150.65625"/>
       <use xlink:href="#DejaVuSans-75" x="214.132812"/>
       <use xlink:href="#DejaVuSans-65" x="277.511719"/>
       <use xlink:href="#DejaVuSans-6e" x="339.035156"/>
       <use xlink:href="#DejaVuSans-63" x="402.414062"/>
       <use xlink:href="#DejaVuSans-79" x="457.394531"/>
       <use xlink:href="#DejaVuSans-20" x="516.574219"/>
       <use xlink:href="#DejaVuSans-28" x="548.361328"/>
       <use xlink:href="#DejaVuSans-4d" x="587.375"/>
       <use xlink:href="#DejaVuSans-48" x="673.654297"/>
       <use xlink:href="#DejaVuSans-7a" x="748.849609"/>
       <use xlink:href="#DejaVuSans-29" x="801.339844"/>
      </g>
     </g>
    </g>
    <g id="matplotlib.axis_4">
     <g id="ytick_4">
      <g id="line2d_22">
       <g/>
      </g>
      <g id="line2d_23">
       <g/>
      </g>
      <g id="text_14">
       <!-- −0.5 -->
       <g transform="translate(379.917188 -22.300781) scale(0.1 -0.1)">
        <use xlink:href="#DejaVuSans-2212"/>
        <use xlink:href="#DejaVuSans-30" x="83.789062"/>
        <use xlink:href="#DejaVuSans-2e" x="147.412109"/>
        <use xlink:href="#DejaVuSans-35" x="179.199219"/>
       </g>
      </g>
     </g>
     <g id="ytick_5">
      <g id="line2d_24">
       <g>
        <use xlink:href="#m8b94d29770" x="407.7" y="57.06" style="stroke: #000000; stroke-width: 0.8"/>
       </g>
      </g>
      <g id="line2d_25">
       <g>
        <use xlink:href="#m8409f79d6e" x="616.95" y="57.06" style="stroke: #000000; stroke-width: 0.8"/>
       </g>
      </g>
      <g id="text_15">
       <!-- −1.5 -->
       <g transform="translate(379.917188 60.859219) scale(0.1 -0.1)">
        <use xlink:href="#DejaVuSans-2212"/>
        <use xlink:href="#DejaVuSans-31" x="83.789062"/>
        <use xlink:href="#DejaVuSans-2e" x="147.412109"/>
        <use xlink:href="#DejaVuSans-35" x="179.199219"/>
       </g>
      </g>
     </g>
     <g id="ytick_6">
      <g id="line2d_26">
       <g>
        <use xlink:href="#m8b94d29770" x="407.7" y="140.22" style="stroke: #000000; stroke-width: 0.8"/>
       </g>
      </g>
      <g id="line2d_27">
       <g>
        <use xlink:href="#m8409f79d6e" x="616.95" y="140.22" style="stroke: #000000; stroke-width: 0.8"/>
       </g>
      </g>
      <g id="text_16">
       <!-- −2.5 -->
       <g transform="translate(379.917188 144.019219) scale(0.1 -0.1)">
        <use xlink:href="#DejaVuSans-2212"/>
        <use xlink:href="#DejaVuSans-32" x="83.789062"/>
        <use xlink:href="#DejaVuSans-2e" x="147.412109"/>
        <use xlink:href="#DejaVuSans-35" x="179.199219"/>
       </g>
      </g>
     </g>
     <g id="text_17">
      <!-- $S_{11}(\mathrm{(dB)}$ -->
      <g transform="translate(373.8375 98.1) rotate(-90) scale(0.1 -0.1)">
       <use xlink:href="#DejaVuSans-Oblique-53" transform="translate(0 0.015625)"/>
       <use xlink:href="#DejaVuSans-31" transform="translate(63.476562 -16.390625) scale(0.7)"/>
       <use xlink:href="#DejaVuSans-31" transform="translate(108.012695 -16.390625) scale(0.7)"/>
       <use xlink:href="#DejaVuSans-28" transform="translate(155.283203 0.015625)"/>
       <use xlink:href="#DejaVuSans-28" transform="translate(194.296875 0.015625)"/>
       <use xlink:href="#DejaVuSans-64" transform="translate(233.310547 0.015625)"/>
       <use xlink:href="#DejaVuSans-42" transform="translate(296.787109 0.015625)"/>
       <use xlink:href="#DejaVuSans-29" transform="translate(365.390625 0.015625)"/>
      </g>
     </g>
    </g>
    <g id="line2d_28">
     <path d="M 0 0 
" clip-path="url(#p4ae8c69a2a)" style="fill: none; stroke: #000000; stroke-linecap: square"/>
    </g>
    <g id="patch_11">
     <path style="fill: none; stroke: #000000; stroke-width: 0.8; stroke-linejoin: miter; stroke-linecap: square"/>
    </g>
    <g id="patch_12">
     <path style="fill: none; stroke: #000000; stroke-width: 0.8; stroke-linejoin: miter; stroke-linecap: square"/>
    </g>
    <g id="patch_13">
     <path style="fill: none; stroke: #000000; stroke-width: 0.8; stroke-linejoin: miter; stroke-linecap: square"/>
    </g>
    <g id="patch_14">
     <path style="fill: none; stroke: #000000; stroke-width: 0.8; stroke-linejoin: miter; stroke-linecap: square"/>
    </g>
   </g>
   <g id="legend_1">
    <g id="patch_15">
     <path d="M 52 65.878125 
L 99.6 65.878125 
Q 101.6 65.878125 101.6 63.878125 
L 101.6 50.2 
Q 101.6 48.2 99.6 48.2 
L 52 48.2 
Q 50 48.2 50 50.2 
L 50 63.878125 
Q 50 65.878125 52 65.878125 
z
" style="fill: #ffffff; opacity: 0.8; stroke: #cccccc; stroke-linejoin: miter"/>
    </g>
    <g id="line2d_29">
     <path d="M 54 56.298437 
L 64 56.298437 
L 74 56.298437 
" style="fill: none; stroke: #000000; stroke-linecap: square"/>
    </g>
    <g id="text_18">
     <!-- $S_{21}$ -->
     <g transform="translate(82 59.798437) scale(0.1 -0.1)">
      <use xlink:href="#DejaVuSans-Oblique-53" transform="translate(0 0.78125)"/>
      <use xlink:href="#DejaVuSans-32" transform="translate(63.476562 -15.625) scale(0.7)"/>
      <use xlink:href="#DejaVuSans-31" transform="translate(108.012695 -15.625) scale(0.7)"/>
     </g>
    </g>
   </g>
  </g>
 </g>
 <defs>
  <clipPath id="pf433853ab4">
   <rect x="45" y="43.2" width="279" height="277.2"/>
  </clipPath>
  <clipPath id="p4ae8c69a2a">
   <rect x="407.7" y="-26.1" width="209.25" height="207.9"/>
  </clipPath>
 </defs>
</svg>
