<?xml version="1.0" encoding="utf-8" standalone="no"?>
<!DOCTYPE svg PUBLIC "-//W3C//DTD SVG 1.1//EN"
  "http://www.w3.org/Graphics/SVG/1.1/DTD/svg11.dtd">
<svg xmlns:xlink="http://www.w3.org/1999/xlink" width="180pt" height="108pt" viewBox="0 0 180 108" xmlns="http://www.w3.org/2000/svg" version="1.1">
 <metadata>
  <rdf:RDF xmlns:dc="http://purl.org/dc/elements/1.1/" xmlns:cc="http://creativecommons.org/ns#" xmlns:rdf="http://www.w3.org/1999/02/22-rdf-syntax-ns#">
   <cc:Work>
    <dc:type rdf:resource="http://purl.org/dc/dcmitype/StillImage"/>
    <dc:date>2024-06-20T21:06:59.718179</dc:date>
    <dc:format>image/svg+xml</dc:format>
    <dc:creator>
     <cc:Agent>
      <dc:title>Matplotlib v3.7.0, https://matplotlib.org/</dc:title>
     </cc:Agent>
    </dc:creator>
   </cc:Work>
  </rdf:RDF>
 </metadata>
 <defs>
  <style type="text/css">*{stroke-linejoin: round; stroke-linecap: butt}</style>
 </defs>
 <g id="figure_1">
  <g id="patch_1">
   <path d="M 0 108 
L 180 108 
L 180 0 
L 0 0 
z
" style="fill: #ffffff"/>
  </g>
  <g id="axes_1">
   <g id="patch_2">
    <path d="M 22.5 96.12 
L 162 96.12 
L 162 12.96 
L 22.5 12.96 
z
" style="fill: #ffffff"/>
   </g>
   <g id="matplotlib.axis_1">
    <g id="xtick_1">
     <g id="line2d_1">
      <defs>
       <path id="m55707fe842" d="M 0 0 
L 0 3.5 
" style="stroke: #000000; stroke-width: 0.8"/>
      </defs>
      <g>
       <use xlink:href="#m55707fe842" x="22.5" y="96.12" style="stroke: #000000; stroke-width: 0.8"/>
      </g>
     </g>
     <g id="text_1">
      <!-- 172 -->
      <g transform="translate(12.95625 110.718438) scale(0.1 -0.1)">
       <defs>
        <path id="DejaVuSans-31" d="M 794 531 
L 1825 531 
L 1825 4091 
L 703 3866 
L 703 4441 
L 1819 4666 
L 2450 4666 
L 2450 531 
L 3481 531 
L 3481 0 
L 794 0 
L 794 531 
z
" transform="scale(0.015625)"/>
        <path id="DejaVuSans-37" d="M 525 4666 
L 3525 4666 
L 3525 4397 
L 1831 0 
L 1172 0 
L 2766 4134 
L 525 4134 
L 525 4666 
z
" transform="scale(0.015625)"/>
        <path id="DejaVuSans-32" d="M 1228 531 
L 3431 531 
L 3431 0 
L 469 0 
L 469 531 
Q 828 903 1448 1529 
Q 2069 2156 2228 2338 
Q 2531 2678 2651 2914 
Q 2772 3150 2772 3378 
Q 2772 3750 2511 3984 
Q 2250 4219 1831 4219 
Q 1534 4219 1204 4116 
Q 875 4013 500 3803 
L 500 4441 
Q 881 4594 1212 4672 
Q 1544 4750 1819 4750 
Q 2544 4750 2975 4387 
Q 3406 4025 3406 3419 
Q 3406 3131 3298 2873 
Q 3191 2616 2906 2266 
Q 2828 2175 2409 1742 
Q 1991 1309 1228 531 
z
" transform="scale(0.015625)"/>
       </defs>
       <use xlink:href="#DejaVuSans-31"/>
       <use xlink:href="#DejaVuSans-37" x="63.623047"/>
       <use xlink:href="#DejaVuSans-32" x="127.246094"/>
      </g>
     </g>
    </g>
    <g id="xtick_2">
     <g id="line2d_2">
      <g>
       <use xlink:href="#m55707fe842" x="57.375" y="96.12" style="stroke: #000000; stroke-width: 0.8"/>
      </g>
     </g>
     <g id="text_2">
      <!-- 173 -->
      <g transform="translate(47.83125 110.718438) scale(0.1 -0.1)">
       <defs>
        <path id="DejaVuSans-33" d="M 2597 2516 
Q 3050 2419 3304 2112 
Q 3559 1806 3559 1356 
Q 3559 666 3084 287 
Q 2609 -91 1734 -91 
Q 1441 -91 1130 -33 
Q 819 25 488 141 
L 488 750 
Q 750 597 1062 519 
Q 1375 441 1716 441 
Q 2309 441 2620 675 
Q 2931 909 2931 1356 
Q 2931 1769 2642 2001 
Q 2353 2234 1838 2234 
L 1294 2234 
L 1294 2753 
L 1863 2753 
Q 2328 2753 2575 2939 
Q 2822 3125 2822 3475 
Q 2822 3834 2567 4026 
Q 2313 4219 1838 4219 
Q 1578 4219 1281 4162 
Q 984 4106 628 3988 
L 628 4550 
Q 988 4650 1302 4700 
Q 1616 4750 1894 4750 
Q 2613 4750 3031 4423 
Q 3450 4097 3450 3541 
Q 3450 3153 3228 2886 
Q 3006 2619 2597 2516 
z
" transform="scale(0.015625)"/>
       </defs>
       <use xlink:href="#DejaVuSans-31"/>
       <use xlink:href="#DejaVuSans-37" x="63.623047"/>
       <use xlink:href="#DejaVuSans-33" x="127.246094"/>
      </g>
     </g>
    </g>
    <g id="xtick_3">
     <g id="line2d_3">
      <g>
       <use xlink:href="#m55707fe842" x="92.25" y="96.12" style="stroke: #000000; stroke-width: 0.8"/>
      </g>
     </g>
     <g id="text_3">
      <!-- 174 -->
      <g transform="translate(82.70625 110.718438) scale(0.1 -0.1)">
       <defs>
        <path id="DejaVuSans-34" d="M 2419 4116 
L 825 1625 
L 2419 1625 
L 2419 4116 
z
M 2253 4666 
L 3047 4666 
L 3047 1625 
L 3713 1625 
L 3713 1100 
L 3047 1100 
L 3047 0 
L 2419 0 
L 2419 1100 
L 313 1100 
L 313 1709 
L 2253 4666 
z
" transform="scale(0.015625)"/>
       </defs>
       <use xlink:href="#DejaVuSans-31"/>
       <use xlink:href="#DejaVuSans-37" x="63.623047"/>
       <use xlink:href="#DejaVuSans-34" x="127.246094"/>
      </g>
     </g>
    </g>
    <g id="xtick_4">
     <g id="line2d_4">
      <g>
       <use xlink:href="#m55707fe842" x="127.125" y="96.12" style="stroke: #000000; stroke-width: 0.8"/>
      </g>
     </g>
     <g id="text_4">
      <!-- 175 -->
      <g transform="translate(117.58125 110.718438) scale(0.1 -0.1)">
       <defs>
        <path id="DejaVuSans-35" d="M 691 4666 
L 3169 4666 
L 3169 4134 
L 1269 4134 
L 1269 2991 
Q 1406 3038 1543 3061 
Q 1681 3084 1819 3084 
Q 2600 3084 3056 2656 
Q 3513 2228 3513 1497 
Q 3513 744 3044 326 
Q 2575 -91 1722 -91 
Q 1428 -91 1123 -41 
Q 819 9 494 109 
L 494 744 
Q 775 591 1075 516 
Q 1375 441 1709 441 
Q 2250 441 2565 725 
Q 2881 1009 2881 1497 
Q 2881 1984 2565 2268 
Q 2250 2553 1709 2553 
Q 1456 2553 1204 2497 
Q 953 2441 691 2322 
L 691 4666 
z
" transform="scale(0.015625)"/>
       </defs>
       <use xlink:href="#DejaVuSans-31"/>
       <use xlink:href="#DejaVuSans-37" x="63.623047"/>
       <use xlink:href="#DejaVuSans-35" x="127.246094"/>
      </g>
     </g>
    </g>
    <g id="xtick_5">
     <g id="line2d_5">
      <g>
       <use xlink:href="#m55707fe842" x="162" y="96.12" style="stroke: #000000; stroke-width: 0.8"/>
      </g>
     </g>
     <g id="text_5">
      <!-- 176 -->
      <g transform="translate(152.45625 110.718438) scale(0.1 -0.1)">
       <defs>
        <path id="DejaVuSans-36" d="M 2113 2584 
Q 1688 2584 1439 2293 
Q 1191 2003 1191 1497 
Q 1191 994 1439 701 
Q 1688 409 2113 409 
Q 2538 409 2786 701 
Q 3034 994 3034 1497 
Q 3034 2003 2786 2293 
Q 2538 2584 2113 2584 
z
M 3366 4563 
L 3366 3988 
Q 3128 4100 2886 4159 
Q 2644 4219 2406 4219 
Q 1781 4219 1451 3797 
Q 1122 3375 1075 2522 
Q 1259 2794 1537 2939 
Q 1816 3084 2150 3084 
Q 2853 3084 3261 2657 
Q 3669 2231 3669 1497 
Q 3669 778 3244 343 
Q 2819 -91 2113 -91 
Q 1303 -91 875 529 
Q 447 1150 447 2328 
Q 447 3434 972 4092 
Q 1497 4750 2381 4750 
Q 2619 4750 2861 4703 
Q 3103 4656 3366 4563 
z
" transform="scale(0.015625)"/>
       </defs>
       <use xlink:href="#DejaVuSans-31"/>
       <use xlink:href="#DejaVuSans-37" x="63.623047"/>
       <use xlink:href="#DejaVuSans-36" x="127.246094"/>
      </g>
     </g>
    </g>
    <g id="text_6">
     <!-- Frequency (MHz) -->
     <g transform="translate(50.23125 124.396563) scale(0.1 -0.1)">
      <defs>
       <path id="DejaVuSans-46" d="M 628 4666 
L 3309 4666 
L 3309 4134 
L 1259 4134 
L 1259 2759 
L 3109 2759 
L 3109 2228 
L 1259 2228 
L 1259 0 
L 628 0 
L 628 4666 
z
" transform="scale(0.015625)"/>
       <path id="DejaVuSans-72" d="M 2631 2963 
Q 2534 3019 2420 3045 
Q 2306 3072 2169 3072 
Q 1681 3072 1420 2755 
Q 1159 2438 1159 1844 
L 1159 0 
L 581 0 
L 581 3500 
L 1159 3500 
L 1159 2956 
Q 1341 3275 1631 3429 
Q 1922 3584 2338 3584 
Q 2397 3584 2469 3576 
Q 2541 3569 2628 3553 
L 2631 2963 
z
" transform="scale(0.015625)"/>
       <path id="DejaVuSans-65" d="M 3597 1894 
L 3597 1613 
L 953 1613 
Q 991 1019 1311 708 
Q 1631 397 2203 397 
Q 2534 397 2845 478 
Q 3156 559 3463 722 
L 3463 178 
Q 3153 47 2828 -22 
Q 2503 -91 2169 -91 
Q 1331 -91 842 396 
Q 353 884 353 1716 
Q 353 2575 817 3079 
Q 1281 3584 2069 3584 
Q 2775 3584 3186 3129 
Q 3597 2675 3597 1894 
z
M 3022 2063 
Q 3016 2534 2758 2815 
Q 2500 3097 2075 3097 
Q 1594 3097 1305 2825 
Q 1016 2553 972 2059 
L 3022 2063 
z
" transform="scale(0.015625)"/>
       <path id="DejaVuSans-71" d="M 947 1747 
Q 947 1113 1208 752 
Q 1469 391 1925 391 
Q 2381 391 2643 752 
Q 2906 1113 2906 1747 
Q 2906 2381 2643 2742 
Q 2381 3103 1925 3103 
Q 1469 3103 1208 2742 
Q 947 2381 947 1747 
z
M 2906 525 
Q 2725 213 2448 61 
Q 2172 -91 1784 -91 
Q 1150 -91 751 415 
Q 353 922 353 1747 
Q 353 2572 751 3078 
Q 1150 3584 1784 3584 
Q 2172 3584 2448 3432 
Q 2725 3281 2906 2969 
L 2906 3500 
L 3481 3500 
L 3481 -1331 
L 2906 -1331 
L 2906 525 
z
" transform="scale(0.015625)"/>
       <path id="DejaVuSans-75" d="M 544 1381 
L 544 3500 
L 1119 3500 
L 1119 1403 
Q 1119 906 1312 657 
Q 1506 409 1894 409 
Q 2359 409 2629 706 
Q 2900 1003 2900 1516 
L 2900 3500 
L 3475 3500 
L 3475 0 
L 2900 0 
L 2900 538 
Q 2691 219 2414 64 
Q 2138 -91 1772 -91 
Q 1169 -91 856 284 
Q 544 659 544 1381 
z
M 1991 3584 
L 1991 3584 
z
" transform="scale(0.015625)"/>
       <path id="DejaVuSans-6e" d="M 3513 2113 
L 3513 0 
L 2938 0 
L 2938 2094 
Q 2938 2591 2744 2837 
Q 2550 3084 2163 3084 
Q 1697 3084 1428 2787 
Q 1159 2491 1159 1978 
L 1159 0 
L 581 0 
L 581 3500 
L 1159 3500 
L 1159 2956 
Q 1366 3272 1645 3428 
Q 1925 3584 2291 3584 
Q 2894 3584 3203 3211 
Q 3513 2838 3513 2113 
z
" transform="scale(0.015625)"/>
       <path id="DejaVuSans-63" d="M 3122 3366 
L 3122 2828 
Q 2878 2963 2633 3030 
Q 2388 3097 2138 3097 
Q 1578 3097 1268 2742 
Q 959 2388 959 1747 
Q 959 1106 1268 751 
Q 1578 397 2138 397 
Q 2388 397 2633 464 
Q 2878 531 3122 666 
L 3122 134 
Q 2881 22 2623 -34 
Q 2366 -91 2075 -91 
Q 1284 -91 818 406 
Q 353 903 353 1747 
Q 353 2603 823 3093 
Q 1294 3584 2113 3584 
Q 2378 3584 2631 3529 
Q 2884 3475 3122 3366 
z
" transform="scale(0.015625)"/>
       <path id="DejaVuSans-79" d="M 2059 -325 
Q 1816 -950 1584 -1140 
Q 1353 -1331 966 -1331 
L 506 -1331 
L 506 -850 
L 844 -850 
Q 1081 -850 1212 -737 
Q 1344 -625 1503 -206 
L 1606 56 
L 191 3500 
L 800 3500 
L 1894 763 
L 2988 3500 
L 3597 3500 
L 2059 -325 
z
" transform="scale(0.015625)"/>
       <path id="DejaVuSans-20" transform="scale(0.015625)"/>
       <path id="DejaVuSans-28" d="M 1984 4856 
Q 1566 4138 1362 3434 
Q 1159 2731 1159 2009 
Q 1159 1288 1364 580 
Q 1569 -128 1984 -844 
L 1484 -844 
Q 1016 -109 783 600 
Q 550 1309 550 2009 
Q 550 2706 781 3412 
Q 1013 4119 1484 4856 
L 1984 4856 
z
" transform="scale(0.015625)"/>
       <path id="DejaVuSans-4d" d="M 628 4666 
L 1569 4666 
L 2759 1491 
L 3956 4666 
L 4897 4666 
L 4897 0 
L 4281 0 
L 4281 4097 
L 3078 897 
L 2444 897 
L 1241 4097 
L 1241 0 
L 628 0 
L 628 4666 
z
" transform="scale(0.015625)"/>
       <path id="DejaVuSans-48" d="M 628 4666 
L 1259 4666 
L 1259 2753 
L 3553 2753 
L 3553 4666 
L 4184 4666 
L 4184 0 
L 3553 0 
L 3553 2222 
L 1259 2222 
L 1259 0 
L 628 0 
L 628 4666 
z
" transform="scale(0.015625)"/>
       <path id="DejaVuSans-7a" d="M 353 3500 
L 3084 3500 
L 3084 2975 
L 922 459 
L 3084 459 
L 3084 0 
L 275 0 
L 275 525 
L 2438 3041 
L 353 3041 
L 353 3500 
z
" transform="scale(0.015625)"/>
       <path id="DejaVuSans-29" d="M 513 4856 
L 1013 4856 
Q 1481 4119 1714 3412 
Q 1947 2706 1947 2009 
Q 1947 1309 1714 600 
Q 1481 -109 1013 -844 
L 513 -844 
Q 928 -128 1133 580 
Q 1338 1288 1338 2009 
Q 1338 2731 1133 3434 
Q 928 4138 513 4856 
z
" transform="scale(0.015625)"/>
      </defs>
      <use xlink:href="#DejaVuSans-46"/>
      <use xlink:href="#DejaVuSans-72" x="50.269531"/>
      <use xlink:href="#DejaVuSans-65" x="89.132812"/>
      <use xlink:href="#DejaVuSans-71" x="150.65625"/>
      <use xlink:href="#DejaVuSans-75" x="214.132812"/>
      <use xlink:href="#DejaVuSans-65" x="277.511719"/>
      <use xlink:href="#DejaVuSans-6e" x="339.035156"/>
      <use xlink:href="#DejaVuSans-63" x="402.414062"/>
      <use xlink:href="#DejaVuSans-79" x="457.394531"/>
      <use xlink:href="#DejaVuSans-20" x="516.574219"/>
      <use xlink:href="#DejaVuSans-28" x="548.361328"/>
      <use xlink:href="#DejaVuSans-4d" x="587.375"/>
      <use xlink:href="#DejaVuSans-48" x="673.654297"/>
      <use xlink:href="#DejaVuSans-7a" x="748.849609"/>
      <use xlink:href="#DejaVuSans-29" x="801.339844"/>
     </g>
    </g>
   </g>
   <g id="matplotlib.axis_2">
    <g id="ytick_1">
     <g id="line2d_6">
      <defs>
       <path id="m9e799618b2" d="M 0 0 
L -3.5 0 
" style="stroke: #000000; stroke-width: 0.8"/>
      </defs>
      <g>
       <use xlink:href="#m9e799618b2" x="22.5" y="96.12" style="stroke: #000000; stroke-width: 0.8"/>
      </g>
     </g>
     <g id="text_7">
      <!-- −26 -->
      <g transform="translate(-5.604688 99.919219) scale(0.1 -0.1)">
       <defs>
        <path id="DejaVuSans-2212" d="M 678 2272 
L 4684 2272 
L 4684 1741 
L 678 1741 
L 678 2272 
z
" transform="scale(0.015625)"/>
       </defs>
       <use xlink:href="#DejaVuSans-2212"/>
       <use xlink:href="#DejaVuSans-32" x="83.789062"/>
       <use xlink:href="#DejaVuSans-36" x="147.412109"/>
      </g>
     </g>
    </g>
    <g id="ytick_2">
     <g id="line2d_7">
      <g>
       <use xlink:href="#m9e799618b2" x="22.5" y="75.33" style="stroke: #000000; stroke-width: 0.8"/>
      </g>
     </g>
     <g id="text_8">
      <!-- −24 -->
      <g transform="translate(-5.604688 79.129219) scale(0.1 -0.1)">
       <use xlink:href="#DejaVuSans-2212"/>
       <use xlink:href="#DejaVuSans-32" x="83.789062"/>
       <use xlink:href="#DejaVuSans-34" x="147.412109"/>
      </g>
     </g>
    </g>
    <g id="ytick_3">
     <g id="line2d_8">
      <g>
       <use xlink:href="#m9e799618b2" x="22.5" y="54.54" style="stroke: #000000; stroke-width: 0.8"/>
      </g>
     </g>
     <g id="text_9">
      <!-- −22 -->
      <g transform="translate(-5.604688 58.339219) scale(0.1 -0.1)">
       <use xlink:href="#DejaVuSans-2212"/>
       <use xlink:href="#DejaVuSans-32" x="83.789062"/>
       <use xlink:href="#DejaVuSans-32" x="147.412109"/>
      </g>
     </g>
    </g>
    <g id="ytick_4">
     <g id="line2d_9">
      <g>
       <use xlink:href="#m9e799618b2" x="22.5" y="33.75" style="stroke: #000000; stroke-width: 0.8"/>
      </g>
     </g>
     <g id="text_10">
      <!-- −20 -->
      <g transform="translate(-5.604688 37.549219) scale(0.1 -0.1)">
       <defs>
        <path id="DejaVuSans-30" d="M 2034 4250 
Q 1547 4250 1301 3770 
Q 1056 3291 1056 2328 
Q 1056 1369 1301 889 
Q 1547 409 2034 409 
Q 2525 409 2770 889 
Q 3016 1369 3016 2328 
Q 3016 3291 2770 3770 
Q 2525 4250 2034 4250 
z
M 2034 4750 
Q 2819 4750 3233 4129 
Q 3647 3509 3647 2328 
Q 3647 1150 3233 529 
Q 2819 -91 2034 -91 
Q 1250 -91 836 529 
Q 422 1150 422 2328 
Q 422 3509 836 4129 
Q 1250 4750 2034 4750 
z
" transform="scale(0.015625)"/>
       </defs>
       <use xlink:href="#DejaVuSans-2212"/>
       <use xlink:href="#DejaVuSans-32" x="83.789062"/>
       <use xlink:href="#DejaVuSans-30" x="147.412109"/>
      </g>
     </g>
    </g>
    <g id="ytick_5">
     <g id="line2d_10">
      <g>
       <use xlink:href="#m9e799618b2" x="22.5" y="12.96" style="stroke: #000000; stroke-width: 0.8"/>
      </g>
     </g>
     <g id="text_11">
      <!-- −18 -->
      <g transform="translate(-5.604688 16.759219) scale(0.1 -0.1)">
       <defs>
        <path id="DejaVuSans-38" d="M 2034 2216 
Q 1584 2216 1326 1975 
Q 1069 1734 1069 1313 
Q 1069 891 1326 650 
Q 1584 409 2034 409 
Q 2484 409 2743 651 
Q 3003 894 3003 1313 
Q 3003 1734 2745 1975 
Q 2488 2216 2034 2216 
z
M 1403 2484 
Q 997 2584 770 2862 
Q 544 3141 544 3541 
Q 544 4100 942 4425 
Q 1341 4750 2034 4750 
Q 2731 4750 3128 4425 
Q 3525 4100 3525 3541 
Q 3525 3141 3298 2862 
Q 3072 2584 2669 2484 
Q 3125 2378 3379 2068 
Q 3634 1759 3634 1313 
Q 3634 634 3220 271 
Q 2806 -91 2034 -91 
Q 1263 -91 848 271 
Q 434 634 434 1313 
Q 434 1759 690 2068 
Q 947 2378 1403 2484 
z
M 1172 3481 
Q 1172 3119 1398 2916 
Q 1625 2713 2034 2713 
Q 2441 2713 2670 2916 
Q 2900 3119 2900 3481 
Q 2900 3844 2670 4047 
Q 2441 4250 2034 4250 
Q 1625 4250 1398 4047 
Q 1172 3844 1172 3481 
z
" transform="scale(0.015625)"/>
       </defs>
       <use xlink:href="#DejaVuSans-2212"/>
       <use xlink:href="#DejaVuSans-31" x="83.789062"/>
       <use xlink:href="#DejaVuSans-38" x="147.412109"/>
      </g>
     </g>
    </g>
    <g id="text_12">
     <!-- Magnitude (dB) -->
     <g transform="translate(-11.684375 93.125156) rotate(-90) scale(0.1 -0.1)">
      <defs>
       <path id="DejaVuSans-61" d="M 2194 1759 
Q 1497 1759 1228 1600 
Q 959 1441 959 1056 
Q 959 750 1161 570 
Q 1363 391 1709 391 
Q 2188 391 2477 730 
Q 2766 1069 2766 1631 
L 2766 1759 
L 2194 1759 
z
M 3341 1997 
L 3341 0 
L 2766 0 
L 2766 531 
Q 2569 213 2275 61 
Q 1981 -91 1556 -91 
Q 1019 -91 701 211 
Q 384 513 384 1019 
Q 384 1609 779 1909 
Q 1175 2209 1959 2209 
L 2766 2209 
L 2766 2266 
Q 2766 2663 2505 2880 
Q 2244 3097 1772 3097 
Q 1472 3097 1187 3025 
Q 903 2953 641 2809 
L 641 3341 
Q 956 3463 1253 3523 
Q 1550 3584 1831 3584 
Q 2591 3584 2966 3190 
Q 3341 2797 3341 1997 
z
" transform="scale(0.015625)"/>
       <path id="DejaVuSans-67" d="M 2906 1791 
Q 2906 2416 2648 2759 
Q 2391 3103 1925 3103 
Q 1463 3103 1205 2759 
Q 947 2416 947 1791 
Q 947 1169 1205 825 
Q 1463 481 1925 481 
Q 2391 481 2648 825 
Q 2906 1169 2906 1791 
z
M 3481 434 
Q 3481 -459 3084 -895 
Q 2688 -1331 1869 -1331 
Q 1566 -1331 1297 -1286 
Q 1028 -1241 775 -1147 
L 775 -588 
Q 1028 -725 1275 -790 
Q 1522 -856 1778 -856 
Q 2344 -856 2625 -561 
Q 2906 -266 2906 331 
L 2906 616 
Q 2728 306 2450 153 
Q 2172 0 1784 0 
Q 1141 0 747 490 
Q 353 981 353 1791 
Q 353 2603 747 3093 
Q 1141 3584 1784 3584 
Q 2172 3584 2450 3431 
Q 2728 3278 2906 2969 
L 2906 3500 
L 3481 3500 
L 3481 434 
z
" transform="scale(0.015625)"/>
       <path id="DejaVuSans-69" d="M 603 3500 
L 1178 3500 
L 1178 0 
L 603 0 
L 603 3500 
z
M 603 4863 
L 1178 4863 
L 1178 4134 
L 603 4134 
L 603 4863 
z
" transform="scale(0.015625)"/>
       <path id="DejaVuSans-74" d="M 1172 4494 
L 1172 3500 
L 2356 3500 
L 2356 3053 
L 1172 3053 
L 1172 1153 
Q 1172 725 1289 603 
Q 1406 481 1766 481 
L 2356 481 
L 2356 0 
L 1766 0 
Q 1100 0 847 248 
Q 594 497 594 1153 
L 594 3053 
L 172 3053 
L 172 3500 
L 594 3500 
L 594 4494 
L 1172 4494 
z
" transform="scale(0.015625)"/>
       <path id="DejaVuSans-64" d="M 2906 2969 
L 2906 4863 
L 3481 4863 
L 3481 0 
L 2906 0 
L 2906 525 
Q 2725 213 2448 61 
Q 2172 -91 1784 -91 
Q 1150 -91 751 415 
Q 353 922 353 1747 
Q 353 2572 751 3078 
Q 1150 3584 1784 3584 
Q 2172 3584 2448 3432 
Q 2725 3281 2906 2969 
z
M 947 1747 
Q 947 1113 1208 752 
Q 1469 391 1925 391 
Q 2381 391 2643 752 
Q 2906 1113 2906 1747 
Q 2906 2381 2643 2742 
Q 2381 3103 1925 3103 
Q 1469 3103 1208 2742 
Q 947 2381 947 1747 
z
" transform="scale(0.015625)"/>
       <path id="DejaVuSans-42" d="M 1259 2228 
L 1259 519 
L 2272 519 
Q 2781 519 3026 730 
Q 3272 941 3272 1375 
Q 3272 1813 3026 2020 
Q 2781 2228 2272 2228 
L 1259 2228 
z
M 1259 4147 
L 1259 2741 
L 2194 2741 
Q 2656 2741 2882 2914 
Q 3109 3088 3109 3444 
Q 3109 3797 2882 3972 
Q 2656 4147 2194 4147 
L 1259 4147 
z
M 628 4666 
L 2241 4666 
Q 2963 4666 3353 4366 
Q 3744 4066 3744 3513 
Q 3744 3084 3544 2831 
Q 3344 2578 2956 2516 
Q 3422 2416 3680 2098 
Q 3938 1781 3938 1306 
Q 3938 681 3513 340 
Q 3088 0 2303 0 
L 628 0 
L 628 4666 
z
" transform="scale(0.015625)"/>
      </defs>
      <use xlink:href="#DejaVuSans-4d"/>
      <use xlink:href="#DejaVuSans-61" x="86.279297"/>
      <use xlink:href="#DejaVuSans-67" x="147.558594"/>
      <use xlink:href="#DejaVuSans-6e" x="211.035156"/>
      <use xlink:href="#DejaVuSans-69" x="274.414062"/>
      <use xlink:href="#DejaVuSans-74" x="302.197266"/>
      <use xlink:href="#DejaVuSans-75" x="341.40625"/>
      <use xlink:href="#DejaVuSans-64" x="404.785156"/>
      <use xlink:href="#DejaVuSans-65" x="468.261719"/>
      <use xlink:href="#DejaVuSans-20" x="529.785156"/>
      <use xlink:href="#DejaVuSans-28" x="561.572266"/>
      <use xlink:href="#DejaVuSans-64" x="600.585938"/>
      <use xlink:href="#DejaVuSans-42" x="664.0625"/>
      <use xlink:href="#DejaVuSans-29" x="732.666016"/>
     </g>
    </g>
   </g>
   <g id="line2d_11">
    <path d="M 22.325625 52.080439 
L 22.5 52.987507 
L 22.674375 54.859334 
L 22.84875 55.050291 
L 23.1975 58.064944 
L 23.371875 56.638023 
L 23.54625 56.686048 
L 23.720625 56.414011 
L 24.24375 53.546446 
L 24.418125 53.963285 
L 24.5925 53.0189 
L 24.766875 52.902891 
L 25.115625 51.730024 
L 25.29 50.847176 
L 25.63875 51.723059 
L 25.813125 52.387715 
L 25.9875 51.487508 
L 26.161875 52.043849 
L 26.33625 52.075553 
L 26.510625 52.3189 
L 26.685 52.156634 
L 26.859375 52.280023 
L 27.03375 51.288444 
L 27.208125 52.124202 
L 27.3825 53.524928 
L 27.556875 53.296446 
L 27.73125 52.520771 
L 27.905625 52.531582 
L 28.08 49.797489 
L 28.603125 47.506535 
L 28.7775 47.254976 
L 28.951875 46.350923 
L 29.300625 45.844271 
L 29.475 47.544165 
L 29.649375 47.74562 
L 29.82375 47.55061 
L 30.1725 46.47743 
L 30.695625 42.659866 
L 30.87 44.633253 
L 31.044375 44.180863 
L 31.21875 44.053316 
L 31.5675 44.955706 
L 31.91625 48.696243 
L 32.090625 49.091253 
L 32.439375 48.383769 
L 32.788125 50.751023 
L 32.9625 48.963082 
L 33.136875 48.783561 
L 33.31125 48.98907 
L 33.485625 51.708506 
L 33.66 52.487715 
L 33.834375 52.217133 
L 34.00875 52.593224 
L 34.3575 58.075236 
L 34.531875 58.356836 
L 34.70625 56.032826 
L 35.055 53.904138 
L 35.229375 54.410686 
L 36.10125 59.699039 
L 36.275625 60.147063 
L 36.45 61.540929 
L 36.624375 64.94789 
L 36.79875 65.036455 
L 36.973125 64.379595 
L 37.1475 66.229593 
L 37.321875 66.834998 
L 37.49625 67.966182 
L 37.670625 67.724914 
L 37.845 67.92377 
L 38.019375 68.811711 
L 38.19375 66.56847 
L 38.368125 65.771278 
L 38.5425 66.527618 
L 38.716875 66.415352 
L 38.89125 67.561816 
L 39.065625 66.684998 
L 39.414375 66.114936 
L 39.58875 65.486351 
L 39.763125 65.77897 
L 39.9375 63.782091 
L 40.28625 65.635831 
L 40.635 64.593524 
L 40.809375 63.619201 
L 40.98375 63.949138 
L 41.158125 63.934169 
L 41.3325 62.67336 
L 41.68125 62.244774 
L 42.03 63.294981 
L 42.204375 64.446851 
L 42.37875 64.546851 
L 42.553125 63.495812 
L 42.7275 63.981259 
L 42.901875 65.172422 
L 43.07625 65.387183 
L 43.250625 65.410052 
L 43.599375 69.431149 
L 43.77375 69.065765 
L 44.1225 73.394971 
L 44.47125 74.4405 
L 44.82 78.027295 
L 44.994375 77.620226 
L 45.16875 77.97823 
L 45.5175 80.897146 
L 45.691875 80.473966 
L 45.86625 79.251098 
L 46.040625 79.518873 
L 46.215 80.244028 
L 46.56375 78.217523 
L 46.738125 78.8064 
L 47.086875 75.644449 
L 47.26125 75.070229 
L 47.435625 73.926467 
L 48.133125 63.412964 
L 48.481875 56.928251 
L 48.65625 55.440103 
L 49.005 50.890627 
L 49.7025 45.977742 
L 49.876875 44.263087 
L 50.05125 43.903836 
L 50.4 40.492509 
L 50.574375 41.341572 
L 50.74875 41.465481 
L 50.923125 41.862466 
L 51.271875 39.331179 
L 51.44625 40.525149 
L 51.620625 40.47858 
L 51.795 39.641158 
L 51.969375 39.672551 
L 52.14375 39.382115 
L 52.318125 39.827853 
L 53.015625 45.710591 
L 53.19 46.060487 
L 53.53875 45.357161 
L 53.8875 43.235749 
L 54.061875 44.021299 
L 54.23625 44.114543 
L 54.410625 45.030966 
L 54.585 45.057473 
L 54.759375 44.203108 
L 55.2825 48.742812 
L 55.456875 50.399048 
L 55.63125 49.988861 
L 55.805625 50.189796 
L 56.154375 49.668071 
L 56.32875 49.568591 
L 56.503125 48.929299 
L 56.851875 50.445098 
L 57.02625 49.75882 
L 57.200625 49.789589 
L 57.549375 53.790105 
L 57.898125 56.811827 
L 58.0725 55.904656 
L 58.595625 60.26962 
L 58.944375 60.435732 
L 59.11875 60.647686 
L 59.4675 59.668165 
L 59.641875 59.773675 
L 59.81625 59.654964 
L 59.990625 58.507668 
L 60.165 58.880328 
L 60.339375 57.198625 
L 60.51375 57.158604 
L 60.8625 54.620561 
L 61.036875 54.600915 
L 61.21125 53.125968 
L 61.56 54.570561 
L 61.734375 54.157776 
L 61.90875 55.698731 
L 62.083125 55.831371 
L 62.2575 55.803512 
L 62.431875 56.779187 
L 62.60625 56.653511 
L 62.955 57.281993 
L 63.30375 59.38407 
L 63.478125 59.314423 
L 64.00125 61.664317 
L 64.175625 61.974088 
L 64.35 61.673465 
L 64.69875 63.43313 
L 64.873125 63.848619 
L 65.39625 68.934684 
L 65.570625 68.69352 
L 65.745 68.839466 
L 66.09375 71.369921 
L 66.79125 75.21368 
L 67.14 76.288627 
L 67.314375 75.380624 
L 67.663125 76.196423 
L 67.8375 75.631351 
L 68.011875 76.539562 
L 68.360625 75.310249 
L 68.535 74.966695 
L 68.709375 72.783225 
L 68.88375 72.554015 
L 69.058125 71.355368 
L 70.27875 54.056425 
L 70.801875 49.964849 
L 71.325 42.013089 
L 71.848125 37.411327 
L 72.0225 37.01008 
L 72.196875 35.678584 
L 72.37125 35.354676 
L 73.06875 37.325048 
L 73.243125 36.398022 
L 73.4175 34.647504 
L 73.76625 35.770684 
L 74.115 37.216733 
L 74.289375 37.483988 
L 74.46375 37.258728 
L 74.638125 37.628894 
L 74.986875 37.417772 
L 75.16125 36.968084 
L 75.335625 35.703324 
L 75.51 35.346984 
L 76.033125 38.906024 
L 76.2075 38.593654 
L 76.381875 38.635858 
L 76.730625 36.844903 
L 76.905 36.342409 
L 77.079375 37.13139 
L 77.25375 37.21455 
L 77.6025 37.836275 
L 77.95125 37.483884 
L 78.125625 37.462678 
L 78.3 36.587939 
L 78.474375 36.733261 
L 78.64875 37.493863 
L 78.823125 37.506337 
L 78.9975 37.851451 
L 79.171875 37.816004 
L 79.34625 37.613822 
L 79.695 38.444694 
L 80.04375 39.007167 
L 80.218125 39.670056 
L 80.3925 39.687312 
L 80.74125 40.750513 
L 81.09 40.289495 
L 81.264375 40.630658 
L 81.43875 40.493236 
L 81.613125 40.087416 
L 81.7875 40.192717 
L 81.961875 38.846876 
L 82.13625 38.406128 
L 82.310625 38.720681 
L 82.485 38.323488 
L 83.008125 34.626195 
L 83.356875 36.017149 
L 83.705625 38.422345 
L 84.054375 38.056129 
L 84.22875 37.130766 
L 84.403125 37.338354 
L 84.5775 38.135443 
L 84.751875 37.695942 
L 85.100625 39.290015 
L 85.275 39.333258 
L 85.62375 40.504047 
L 85.9725 41.747185 
L 86.146875 41.563818 
L 86.32125 42.072757 
L 86.67 44.534916 
L 87.3675 51.796344 
L 87.890625 54.944158 
L 88.7625 64.24394 
L 89.285625 67.386765 
L 89.46 66.803397 
L 89.80875 68.673458 
L 89.983125 70.803289 
L 90.1575 71.537072 
L 90.331875 71.547675 
L 90.855 70.181045 
L 91.029375 71.470025 
L 91.20375 71.570752 
L 91.378125 71.500586 
L 91.5525 71.158902 
L 91.90125 67.224499 
L 92.424375 64.173982 
L 92.59875 64.167641 
L 93.121875 61.211095 
L 93.99375 49.846242 
L 94.3425 47.373687 
L 94.69125 47.363916 
L 94.865625 46.868178 
L 95.7375 41.435023 
L 95.911875 41.421926 
L 96.260625 40.173382 
L 96.78375 37.785027 
L 96.958125 38.593862 
L 97.1325 38.642511 
L 97.306875 38.375463 
L 97.48125 38.31933 
L 97.655625 39.211013 
L 97.83 39.228165 
L 98.17875 39.098851 
L 98.353125 39.31725 
L 98.701875 38.392199 
L 98.87625 38.401451 
L 99.050625 38.638561 
L 99.225 38.573592 
L 99.399375 38.141264 
L 99.57375 39.977644 
L 99.9225 39.298331 
L 100.096875 39.154049 
L 100.27125 39.253841 
L 100.62 36.862367 
L 100.794375 37.12588 
L 100.96875 36.700205 
L 101.143125 36.61008 
L 101.840625 34.314968 
L 102.015 33.107069 
L 102.189375 32.76788 
L 102.36375 32.898234 
L 102.7125 34.786174 
L 102.886875 34.745945 
L 103.06125 34.13659 
L 103.235625 34.292827 
L 103.41 34.050415 
L 103.75875 34.776194 
L 103.933125 36.044176 
L 104.1075 36.118397 
L 104.281875 36.479311 
L 104.630625 35.471724 
L 105.328125 36.643344 
L 105.676875 39.963091 
L 105.85125 39.473799 
L 106.025625 39.824942 
L 106.374375 41.097082 
L 106.723125 43.82816 
L 107.071875 43.346976 
L 107.24625 44.615478 
L 107.420625 48.367657 
L 107.595 48.148218 
L 107.94375 49.606429 
L 108.118125 52.228568 
L 108.466875 61.874816 
L 108.815625 64.584688 
L 109.6875 74.006613 
L 109.861875 74.138421 
L 110.559375 81.9907 
L 110.73375 83.886644 
L 111.0825 90.114289 
L 111.43125 92.232998 
L 111.605625 92.158154 
L 111.78 92.825097 
L 111.954375 92.18175 
L 112.303125 88.333729 
L 112.4775 88.836639 
L 112.651875 88.236016 
L 112.82625 85.996102 
L 113.175 85.189761 
L 113.349375 85.185707 
L 113.52375 84.905978 
L 113.698125 83.100366 
L 113.8725 82.704629 
L 114.046875 82.803381 
L 114.22125 83.164712 
L 114.395625 81.611179 
L 114.57 82.724067 
L 114.744375 82.851926 
L 114.91875 81.931761 
L 115.093125 79.870744 
L 115.441875 78.842886 
L 115.61625 78.680516 
L 115.965 75.751309 
L 116.139375 75.532806 
L 116.31375 74.699751 
L 116.488125 73.224077 
L 116.6625 70.586762 
L 116.836875 70.300171 
L 117.185625 67.797575 
L 117.36 67.585309 
L 117.70875 65.062651 
L 118.0575 61.987602 
L 118.231875 62.280117 
L 118.40625 60.999037 
L 118.580625 60.817852 
L 118.929375 58.592283 
L 119.10375 59.009122 
L 119.626875 61.065981 
L 119.80125 59.805691 
L 119.975625 60.967852 
L 120.15 61.006937 
L 120.324375 60.194776 
L 120.49875 60.608705 
L 120.673125 60.228872 
L 120.8475 58.786773 
L 121.021875 59.481263 
L 121.19625 58.468063 
L 121.370625 58.174404 
L 121.545 57.262139 
L 121.719375 58.309955 
L 121.89375 57.761618 
L 122.068125 59.896647 
L 122.2425 58.215672 
L 122.416875 57.831993 
L 122.59125 56.858709 
L 122.765625 56.603719 
L 123.28875 53.465469 
L 123.463125 53.444991 
L 123.6375 51.622123 
L 123.811875 51.607882 
L 124.335 56.110061 
L 124.509375 56.226069 
L 124.68375 56.107878 
L 124.858125 57.124197 
L 125.206875 60.112967 
L 125.38125 61.625024 
L 125.73 65.814105 
L 125.904375 66.781984 
L 126.07875 66.072421 
L 126.253125 67.223667 
L 126.4275 69.178759 
L 126.601875 69.736554 
L 126.950625 73.664825 
L 127.125 72.856822 
L 127.8225 72.624805 
L 127.996875 70.384059 
L 128.17125 70.318674 
L 128.52 72.510772 
L 128.694375 71.080836 
L 128.86875 70.790919 
L 129.043125 70.964828 
L 129.56625 75.00079 
L 129.740625 73.812122 
L 130.26375 76.261704 
L 130.438125 75.635717 
L 130.6125 77.347358 
L 130.96125 75.989147 
L 131.135625 75.708066 
L 131.31 75.884573 
L 131.484375 76.641641 
L 131.65875 75.990082 
L 131.833125 76.030623 
L 132.0075 76.439354 
L 132.35625 80.831346 
L 132.530625 79.946523 
L 132.879375 84.608161 
L 133.05375 84.381342 
L 133.228125 85.321362 
L 133.4025 87.52188 
L 133.576875 85.314605 
L 133.75125 86.888928 
L 133.925625 86.003794 
L 134.1 87.507223 
L 134.274375 90.053894 
L 134.44875 90.813768 
L 134.623125 90.980712 
L 135.669375 100.734237 
L 135.84375 100.519892 
L 136.018125 103.150346 
L 136.366875 104.234025 
L 136.54125 105.708972 
L 136.715625 105.194419 
L 136.89 104.218121 
L 137.064375 104.304191 
L 137.413125 103.467914 
L 137.761875 100.842864 
L 137.93625 100.508249 
L 138.808125 89.395786 
L 139.33125 84.002964 
L 139.68 82.056812 
L 139.854375 80.44091 
L 140.02875 80.21118 
L 140.203125 79.158063 
L 140.3775 79.766898 
L 140.551875 79.239248 
L 140.72625 77.97033 
L 140.900625 78.008584 
L 141.075 79.600058 
L 141.249375 79.578125 
L 141.42375 79.220017 
L 141.598125 79.715651 
L 141.7725 77.368875 
L 142.12125 79.968561 
L 142.295625 80.207126 
L 142.47 79.700058 
L 142.644375 79.827189 
L 142.81875 78.905568 
L 142.993125 78.741743 
L 143.1675 80.633841 
L 143.341875 80.853487 
L 143.865 87.381027 
L 144.039375 87.959197 
L 144.21375 87.86689 
L 144.388125 89.33851 
L 144.5625 88.282586 
L 144.736875 88.421775 
L 145.085625 90.607635 
L 145.434375 92.382062 
L 145.60875 93.479774 
L 145.783125 93.826343 
L 146.131875 92.921043 
L 146.30625 93.033309 
L 146.480625 94.028526 
L 147.00375 91.785181 
L 147.178125 91.48435 
L 147.3525 89.361275 
L 147.526875 88.857013 
L 147.70125 89.019383 
L 148.573125 78.281764 
L 148.7475 77.956817 
L 148.921875 78.031245 
L 149.09625 77.097774 
L 149.270625 75.269813 
L 149.445 74.89736 
L 149.79375 71.067114 
L 150.1425 67.749342 
L 150.316875 67.993105 
L 150.665625 69.498509 
L 150.84 69.365869 
L 151.18875 67.514103 
L 151.363125 68.66088 
L 151.5375 68.433229 
L 151.711875 69.024705 
L 151.88625 69.159112 
L 152.060625 70.397884 
L 152.409375 74.410562 
L 152.758125 76.841641 
L 152.9325 77.893199 
L 153.106875 76.37054 
L 153.28125 76.910456 
L 153.63 79.548811 
L 153.804375 79.256711 
L 153.97875 79.700786 
L 154.153125 80.942261 
L 156.07125 106.512089 
L 156.245625 106.977889 
L 156.497286 109 
M 157.97383 109 
L 158.16375 107.826433 
L 158.338125 106.670613 
L 158.5125 104.126645 
L 159.21 101.477687 
L 159.384375 101.384652 
L 160.430625 94.370625 
L 160.95375 90.795057 
L 161.128125 91.994536 
L 161.476875 89.984351 
L 161.825625 90.304101 
L 162 89.361483 
L 162.174375 90.111586 
L 162.174375 90.111586 
" clip-path="url(#p991e83b428)" style="fill: none; stroke: #ff0000; stroke-width: 0.5; stroke-linecap: square"/>
   </g>
   <g id="patch_3">
    <path d="M 22.5 96.12 
L 22.5 12.96 
" style="fill: none; stroke: #000000; stroke-width: 0.8; stroke-linejoin: miter; stroke-linecap: square"/>
   </g>
   <g id="patch_4">
    <path d="M 162 96.12 
L 162 12.96 
" style="fill: none; stroke: #000000; stroke-width: 0.8; stroke-linejoin: miter; stroke-linecap: square"/>
   </g>
   <g id="patch_5">
    <path d="M 22.5 96.12 
L 162 96.12 
" style="fill: none; stroke: #000000; stroke-width: 0.8; stroke-linejoin: miter; stroke-linecap: square"/>
   </g>
   <g id="patch_6">
    <path d="M 22.5 12.96 
L 162 12.96 
" style="fill: none; stroke: #000000; stroke-width: 0.8; stroke-linejoin: miter; stroke-linecap: square"/>
   </g>
  </g>
 </g>
 <defs>
  <clipPath id="p991e83b428">
   <rect x="22.5" y="12.96" width="139.5" height="83.16"/>
  </clipPath>
 </defs>
</svg>
