<?xml version="1.0" encoding="UTF-8" standalone="no"?>
<!-- Created with Inkscape (http://www.inkscape.org/) -->

<svg
   xmlns:dc="http://purl.org/dc/elements/1.1/"
   xmlns:cc="http://creativecommons.org/ns#"
   xmlns:rdf="http://www.w3.org/1999/02/22-rdf-syntax-ns#"
   xmlns:svg="http://www.w3.org/2000/svg"
   xmlns="http://www.w3.org/2000/svg"
   xmlns:sodipodi="http://sodipodi.sourceforge.net/DTD/sodipodi-0.dtd"
   xmlns:inkscape="http://www.inkscape.org/namespaces/inkscape"
   width="8.0133104cm"
   height="9.4240818cm"
   viewBox="0 0 80.133104 94.240814"
   version="1.1"
   id="svg8"
   inkscape:version="0.92.5 (2060ec1f9f, 2020-04-08)"
   sodipodi:docname="SAW in thin film.svg">
  <defs
     id="defs2">
    <marker
       inkscape:isstock="true"
       style="overflow:visible"
       id="marker8585"
       refX="0"
       refY="0"
       orient="auto"
       inkscape:stockid="StopL">
      <path
         inkscape:connector-curvature="0"
         transform="scale(0.8)"
         style="fill:none;fill-opacity:0.75;fill-rule:evenodd;stroke:#000000;stroke-width:1.00000003pt;stroke-opacity:1"
         d="M 0,5.65 V -5.65"
         id="path8583" />
    </marker>
    <marker
       inkscape:isstock="true"
       style="overflow:visible"
       id="marker8575"
       refX="0"
       refY="0"
       orient="auto"
       inkscape:stockid="StopL">
      <path
         inkscape:connector-curvature="0"
         transform="scale(0.8)"
         style="fill:none;fill-opacity:0.75;fill-rule:evenodd;stroke:#000000;stroke-width:1.00000003pt;stroke-opacity:1"
         d="M 0,5.65 V -5.65"
         id="path8573" />
    </marker>
    <marker
       inkscape:stockid="TriangleInS"
       orient="auto"
       refY="0.0"
       refX="0.0"
       id="TriangleInS"
       style="overflow:visible"
       inkscape:isstock="true">
      <path
         id="path4325"
         d="M 5.77,0.0 L -2.88,5.0 L -2.88,-5.0 L 5.77,0.0 z "
         style="fill-rule:evenodd;stroke:#000000;stroke-width:1pt;stroke-opacity:1;fill:#000000;fill-opacity:1"
         transform="scale(-0.2)" />
    </marker>
    <marker
       inkscape:stockid="StopM"
       orient="auto"
       refY="0.0"
       refX="0.0"
       id="marker16529"
       style="overflow:visible"
       inkscape:isstock="true">
      <path
         id="path16527"
         d="M 0.0,5.65 L 0.0,-5.65"
         style="fill:none;fill-opacity:0.75;fill-rule:evenodd;stroke:#000000;stroke-width:1pt;stroke-opacity:1"
         transform="scale(0.4)" />
    </marker>
    <marker
       inkscape:stockid="StopM"
       orient="auto"
       refY="0.0"
       refX="0.0"
       id="StopM"
       style="overflow:visible"
       inkscape:isstock="true">
      <path
         id="path4358"
         d="M 0.0,5.65 L 0.0,-5.65"
         style="fill:none;fill-opacity:0.75;fill-rule:evenodd;stroke:#000000;stroke-width:1pt;stroke-opacity:1"
         transform="scale(0.4)" />
    </marker>
    <marker
       inkscape:stockid="TriangleOutS"
       orient="auto"
       refY="0"
       refX="0"
       id="marker16307"
       style="overflow:visible"
       inkscape:isstock="true">
      <path
         id="path16305"
         d="M 5.77,0 -2.88,5 V -5 Z"
         style="fill:#000000;fill-opacity:1;fill-rule:evenodd;stroke:#000000;stroke-width:1.00000003pt;stroke-opacity:1"
         transform="scale(0.2)"
         inkscape:connector-curvature="0" />
    </marker>
    <marker
       inkscape:isstock="true"
       style="overflow:visible"
       id="marker4831"
       refX="0"
       refY="0"
       orient="auto"
       inkscape:stockid="TriangleOutS">
      <path
         inkscape:connector-curvature="0"
         transform="scale(0.2)"
         style="fill:#000000;fill-opacity:1;fill-rule:evenodd;stroke:#000000;stroke-width:1.00000003pt;stroke-opacity:1"
         d="M 5.77,0 -2.88,5 V -5 Z"
         id="path4829" />
    </marker>
    <marker
       inkscape:stockid="TriangleOutS"
       orient="auto"
       refY="0"
       refX="0"
       id="TriangleOutS"
       style="overflow:visible"
       inkscape:isstock="true"
       inkscape:collect="always">
      <path
         id="path5728"
         d="M 5.77,0 -2.88,5 V -5 Z"
         style="fill:#000000;fill-opacity:1;fill-rule:evenodd;stroke:#000000;stroke-width:1.00000003pt;stroke-opacity:1"
         transform="scale(0.2)"
         inkscape:connector-curvature="0" />
    </marker>
    <marker
       inkscape:stockid="TriangleOutS"
       orient="auto"
       refY="0"
       refX="0"
       id="TriangleOutS-7"
       style="overflow:visible"
       inkscape:isstock="true">
      <path
         id="path5728-7"
         d="M 5.77,0 -2.88,5 V -5 Z"
         style="fill:#000000;fill-opacity:1;fill-rule:evenodd;stroke:#000000;stroke-width:1.00000003pt;stroke-opacity:1"
         transform="scale(0.2)"
         inkscape:connector-curvature="0" />
    </marker>
    <marker
       inkscape:stockid="TriangleOutS"
       orient="auto"
       refY="0"
       refX="0"
       id="TriangleOutS-7-9"
       style="overflow:visible"
       inkscape:isstock="true">
      <path
         id="path5728-7-1"
         d="M 5.77,0 -2.88,5 V -5 Z"
         style="fill:#000000;fill-opacity:1;fill-rule:evenodd;stroke:#000000;stroke-width:1.00000003pt;stroke-opacity:1"
         transform="scale(0.2)"
         inkscape:connector-curvature="0" />
    </marker>
    <marker
       inkscape:stockid="TriangleOutS"
       orient="auto"
       refY="0"
       refX="0"
       id="TriangleOutS-7-9-9"
       style="overflow:visible"
       inkscape:isstock="true">
      <path
         id="path5728-7-1-5"
         d="M 5.77,0 -2.88,5 V -5 Z"
         style="fill:#000000;fill-opacity:1;fill-rule:evenodd;stroke:#000000;stroke-width:1.00000003pt;stroke-opacity:1"
         transform="scale(0.2)"
         inkscape:connector-curvature="0" />
    </marker>
    <marker
       inkscape:stockid="TriangleOutS"
       orient="auto"
       refY="0"
       refX="0"
       id="TriangleOutS-1"
       style="overflow:visible"
       inkscape:isstock="true">
      <path
         id="path5728-2"
         d="M 5.77,0 -2.88,5 V -5 Z"
         style="fill:#000000;fill-opacity:1;fill-rule:evenodd;stroke:#000000;stroke-width:1.00000003pt;stroke-opacity:1"
         transform="scale(0.2)"
         inkscape:connector-curvature="0" />
    </marker>
    <marker
       inkscape:stockid="StopL"
       orient="auto"
       refY="0"
       refX="0"
       id="marker4478"
       style="overflow:visible"
       inkscape:isstock="true"
       inkscape:collect="always">
      <path
         id="path4476"
         d="M 0,5.65 V -5.65"
         style="fill:none;fill-opacity:0.75;fill-rule:evenodd;stroke:#000000;stroke-width:1.00000003pt;stroke-opacity:1"
         transform="scale(0.8)"
         inkscape:connector-curvature="0" />
    </marker>
    <marker
       inkscape:stockid="StopL"
       orient="auto"
       refY="0"
       refX="0"
       id="StopL"
       style="overflow:visible"
       inkscape:isstock="true"
       inkscape:collect="always">
      <path
         id="path4355"
         d="M 0,5.65 V -5.65"
         style="fill:none;fill-opacity:0.75;fill-rule:evenodd;stroke:#000000;stroke-width:1.00000003pt;stroke-opacity:1"
         transform="scale(0.8)"
         inkscape:connector-curvature="0" />
    </marker>
    <marker
       inkscape:stockid="StopL"
       orient="auto"
       refY="0"
       refX="0"
       id="marker4478-7"
       style="overflow:visible"
       inkscape:isstock="true">
      <path
         id="path4476-2"
         d="M 0,5.65 V -5.65"
         style="fill:none;fill-opacity:0.75;fill-rule:evenodd;stroke:#000000;stroke-width:1.00000003pt;stroke-opacity:1"
         transform="scale(0.8)"
         inkscape:connector-curvature="0" />
    </marker>
    <marker
       inkscape:stockid="StopL"
       orient="auto"
       refY="0"
       refX="0"
       id="StopL-1"
       style="overflow:visible"
       inkscape:isstock="true">
      <path
         id="path4355-2"
         d="M 0,5.65 V -5.65"
         style="fill:none;fill-opacity:0.75;fill-rule:evenodd;stroke:#000000;stroke-width:1.00000003pt;stroke-opacity:1"
         transform="scale(0.8)"
         inkscape:connector-curvature="0" />
    </marker>
    <marker
       inkscape:stockid="StopL"
       orient="auto"
       refY="0"
       refX="0"
       id="marker4478-6"
       style="overflow:visible"
       inkscape:isstock="true">
      <path
         id="path4476-5"
         d="M 0,5.65 V -5.65"
         style="fill:none;fill-opacity:0.75;fill-rule:evenodd;stroke:#000000;stroke-width:1.00000003pt;stroke-opacity:1"
         transform="scale(0.8)"
         inkscape:connector-curvature="0" />
    </marker>
    <marker
       inkscape:stockid="StopL"
       orient="auto"
       refY="0"
       refX="0"
       id="StopL-9"
       style="overflow:visible"
       inkscape:isstock="true">
      <path
         id="path4355-8"
         d="M 0,5.65 V -5.65"
         style="fill:none;fill-opacity:0.75;fill-rule:evenodd;stroke:#000000;stroke-width:1.00000003pt;stroke-opacity:1"
         transform="scale(0.8)"
         inkscape:connector-curvature="0" />
    </marker>
    <marker
       inkscape:stockid="TriangleOutS"
       orient="auto"
       refY="0"
       refX="0"
       id="TriangleOutS-7-8"
       style="overflow:visible"
       inkscape:isstock="true">
      <path
         id="path5728-7-8"
         d="M 5.77,0 -2.88,5 V -5 Z"
         style="fill:#000000;fill-opacity:1;fill-rule:evenodd;stroke:#000000;stroke-width:1.00000003pt;stroke-opacity:1"
         transform="scale(0.2)"
         inkscape:connector-curvature="0" />
    </marker>
  </defs>
  <sodipodi:namedview
     id="base"
     pagecolor="#ffffff"
     bordercolor="#666666"
     borderopacity="1.0"
     inkscape:pageopacity="0.0"
     inkscape:pageshadow="2"
     inkscape:zoom="1.979899"
     inkscape:cx="23.671362"
     inkscape:cy="178.72394"
     inkscape:document-units="mm"
     inkscape:current-layer="layer1"
     showgrid="false"
     fit-margin-top="0.1"
     fit-margin-left="0.1"
     fit-margin-right="0.1"
     fit-margin-bottom="0.1"
     inkscape:snap-bbox="true"
     inkscape:bbox-paths="true"
     inkscape:bbox-nodes="true"
     inkscape:snap-bbox-edge-midpoints="true"
     inkscape:snap-bbox-midpoints="true"
     inkscape:window-width="1669"
     inkscape:window-height="1377"
     inkscape:window-x="1912"
     inkscape:window-y="0"
     inkscape:window-maximized="0"
     units="cm"
     inkscape:snap-global="false" />
  <metadata
     id="metadata5">
    <rdf:RDF>
      <cc:Work
         rdf:about="">
        <dc:format>image/svg+xml</dc:format>
        <dc:type
           rdf:resource="http://purl.org/dc/dcmitype/StillImage" />
        <dc:title />
      </cc:Work>
    </rdf:RDF>
  </metadata>
  <g
     inkscape:label="Layer 1"
     inkscape:groupmode="layer"
     id="layer1"
     transform="translate(120.29164,-36.182597)">
    <rect
       style="fill:#dbdbdb;fill-opacity:1;stroke-width:0.30000001;stroke-miterlimit:7.70731688;stroke-dasharray:none"
       x="-106.94498"
       y="58.759544"
       width="50.844696"
       height="23.836405"
       id="rect4518" />
    <path
       style="fill:#b2b2b2;fill-opacity:1;fill-rule:evenodd;stroke-width:0.30000001;stroke-miterlimit:7.70731688;stroke-dasharray:none"
       inkscape:connector-curvature="0"
       d="M -56.100287,58.759548 -41.423128,44.13769 v 23.836405 l -14.677159,14.621857 z"
       id="path4520" />
    <path
       style="fill:#e4e4e4;fill-opacity:1;fill-rule:evenodd;stroke-width:0.30000001;stroke-miterlimit:7.70731688;stroke-dasharray:none"
       inkscape:connector-curvature="0"
       d="M -106.94499,58.759548 -92.267828,44.13769 h 50.8447 l -14.677159,14.621858 z"
       id="path4522" />
    <path
       style="fill:none;fill-rule:evenodd;stroke:#000000;stroke-width:0.30000001;stroke-miterlimit:7.70731688;stroke-dasharray:none"
       inkscape:connector-curvature="0"
       d="M -106.94499,58.759548 -92.267828,44.13769 h 50.8447 v 23.836405 l -14.677159,14.621857 h -50.844703 z m 0,0 h 50.844703 L -41.423128,44.13769 m -14.677159,14.621858 v 23.836404"
       stroke-miterlimit="8"
       id="path4524" />
    <text
       style="font-style:normal;font-variant:normal;font-weight:normal;font-stretch:normal;font-size:3.14539528px;font-family:'DejaVu Sans';-inkscape-font-specification:'DejaVu Sans';stroke-width:0.30000001;stroke-miterlimit:7.70731688;stroke-dasharray:none"
       font-weight="400"
       font-size="24"
       id="text4526"
       x="-83.265083"
       y="70.141121"
       transform="scale(1.0018938,0.99810978)">σ</text>
    <text
       style="font-style:normal;font-variant:normal;font-weight:normal;font-stretch:normal;font-size:3.14539528px;font-family:'DejaVu Sans';-inkscape-font-specification:'DejaVu Sans';stroke-width:0.30000001;stroke-miterlimit:7.70731688;stroke-dasharray:none"
       font-weight="400"
       font-size="24"
       id="text4528"
       x="-81.474045"
       y="70.141121"
       transform="scale(1.0018938,0.99810978)">,</text>
    <text
       style="font-style:normal;font-variant:normal;font-weight:normal;font-stretch:normal;font-size:3.14539528px;font-family:'DejaVu Sans';-inkscape-font-specification:'DejaVu Sans';stroke-width:0.30000001;stroke-miterlimit:7.70731688;stroke-dasharray:none"
       font-weight="400"
       font-size="24"
       id="text4530"
       x="-80.294525"
       y="70.141121"
       transform="scale(1.0018938,0.99810978)">ϵ</text>
    <path
       style="fill:none;fill-rule:evenodd;stroke:#000000;stroke-width:0.30000001;stroke-miterlimit:7.70731688;stroke-dasharray:none"
       inkscape:connector-curvature="0"
       d="m -92.960863,52.38908 c 1.502013,-1.4915 3.004158,-2.983 4.297262,-2.953175 1.293236,0.02982 2.148697,3.04278 3.46176,3.132255 1.313064,0.08947 3.103557,-2.595279 4.41662,-2.595279 1.313064,0 2.208441,2.550542 3.46176,2.595279 1.253319,0.04474 2.725657,-2.371593 4.058547,-2.326856 1.333022,0.04487 2.636106,1.320008 3.93919,2.595279"
       stroke-miterlimit="8"
       id="path4532" />
    <path
       style="fill:none;fill-rule:evenodd;stroke:#000000;stroke-width:0.30000001;stroke-miterlimit:7.70731688;stroke-dasharray:none"
       inkscape:connector-curvature="0"
       d="m -92.435638,51.865839 c 1.502013,-1.491501 3.004158,-2.983001 4.297263,-2.953176 1.293236,0.02982 2.148696,3.042781 3.46176,3.132255 1.313063,0.08947 3.103556,-2.595278 4.41662,-2.595278 1.313063,0 2.208441,2.550541 3.461759,2.595278 1.253319,0.04474 2.725657,-2.371593 4.058548,-2.326856 1.333022,0.04487 2.636106,1.320008 3.93919,2.595279"
       stroke-miterlimit="8"
       id="path4534" />
    <path
       style="fill:none;fill-rule:evenodd;stroke:#000000;stroke-width:0.30000001;stroke-miterlimit:7.70731688;stroke-dasharray:none"
       inkscape:connector-curvature="0"
       d="m -91.910413,51.473408 c 1.502014,-1.491501 3.004158,-2.983001 4.297263,-2.953177 1.293236,0.02983 2.148697,3.042781 3.46176,3.132256 1.313063,0.08947 3.103557,-2.595279 4.41662,-2.595279 1.313063,0 2.208441,2.550542 3.46176,2.595279 1.253319,0.04474 2.725657,-2.371593 4.058547,-2.326856 1.333022,0.04487 2.636106,1.320008 3.93919,2.595279"
       stroke-miterlimit="8"
       id="path4536" />
    <path
       style="fill:none;fill-rule:evenodd;stroke:#000000;stroke-width:0.30000001;stroke-miterlimit:7.70731688;stroke-dasharray:none"
       inkscape:connector-curvature="0"
       d="m -91.385187,50.950166 c 1.502013,-1.491501 3.004158,-2.983001 4.297262,-2.953176 1.293236,0.02982 2.148697,3.042781 3.46176,3.132255 1.313064,0.08948 3.103557,-2.595278 4.41662,-2.595278 1.313063,0 2.208441,2.550541 3.46176,2.595278 1.253319,0.04474 2.725657,-2.371593 4.058547,-2.326855 1.333022,0.04487 2.636106,1.320007 3.93919,2.595278"
       stroke-miterlimit="8"
       id="path4538" />
    <path
       style="fill:none;fill-rule:evenodd;stroke:#000000;stroke-width:0.30000001;stroke-miterlimit:7.70731688;stroke-dasharray:none"
       inkscape:connector-curvature="0"
       d="m -90.859962,50.426924 c 1.502013,-1.4915 3.004158,-2.983 4.297263,-2.953176 1.293236,0.02983 2.148696,3.042781 3.46176,3.132256 1.313063,0.08947 3.103556,-2.595279 4.416619,-2.595279 1.313064,0 2.208442,2.550541 3.46176,2.595279 1.253319,0.04474 2.725657,-2.371593 4.058548,-2.326856 1.333022,0.04487 2.636106,1.320008 3.939189,2.595279"
       stroke-miterlimit="8"
       id="path4540" />
    <path
       style="fill:none;fill-rule:evenodd;stroke:#000000;stroke-width:0.30000001;stroke-miterlimit:7.70731688;stroke-dasharray:none"
       inkscape:connector-curvature="0"
       d="m -90.334737,49.903683 c 1.502014,-1.491501 3.004158,-2.983001 4.297263,-2.953177 1.293236,0.02983 2.148697,3.042781 3.46176,3.132256 1.313063,0.08947 3.103557,-2.595279 4.41662,-2.595279 1.313063,0 2.208441,2.550542 3.46176,2.595279 1.253319,0.04474 2.725657,-2.371593 4.058547,-2.326856 1.333022,0.04487 2.636106,1.320008 3.93919,2.595279"
       stroke-miterlimit="8"
       id="path4542" />
    <path
       style="fill:none;fill-rule:evenodd;stroke:#000000;stroke-width:0.30000001;stroke-miterlimit:7.70731688;stroke-dasharray:none"
       inkscape:connector-curvature="0"
       d="m -89.809511,49.380441 c 1.502013,-1.491501 3.004157,-2.983001 4.297262,-2.953176 1.293236,0.02983 2.148697,3.042781 3.46176,3.132255 1.313064,0.08948 3.103557,-2.595278 4.41662,-2.595278 1.313063,0 2.208441,2.550541 3.46176,2.595278 1.253319,0.04474 2.725657,-2.371593 4.058547,-2.326855 1.333022,0.04487 2.636106,1.320007 3.93919,2.595278"
       stroke-miterlimit="8"
       id="path4544" />
    <path
       style="fill:none;fill-rule:evenodd;stroke:#000000;stroke-width:0.30000001;stroke-miterlimit:7.70731688;stroke-dasharray:none"
       inkscape:connector-curvature="0"
       d="m -89.284286,48.857199 c 1.502013,-1.4915 3.004158,-2.983001 4.297263,-2.953176 1.293236,0.02982 2.148696,3.042781 3.46176,3.132256 1.313063,0.08947 3.103556,-2.595279 4.416619,-2.595279 1.313064,0 2.208442,2.550541 3.46176,2.595279 1.253319,0.04474 2.725657,-2.371593 4.058548,-2.326856 1.333022,0.04487 2.636105,1.320008 3.939189,2.595279"
       stroke-miterlimit="8"
       id="path4546" />
    <path
       style="fill:none;fill-rule:evenodd;stroke:#000000;stroke-width:0.30000001;stroke-miterlimit:7.70731688;stroke-dasharray:none"
       inkscape:connector-curvature="0"
       d="m -88.759061,48.333958 c 1.502014,-1.491501 3.004158,-2.983001 4.297263,-2.953177 1.293236,0.02983 2.148697,3.042781 3.46176,3.132256 1.313063,0.08947 3.103556,-2.595279 4.41662,-2.595279 1.313063,0 2.208441,2.550542 3.46176,2.595279 1.253319,0.04474 2.725656,-2.371593 4.058547,-2.326856 1.333022,0.04487 2.636106,1.320008 3.93919,2.595279"
       stroke-miterlimit="8"
       id="path4548" />
    <path
       style="fill:none;fill-rule:evenodd;stroke:#000000;stroke-width:0.30000001;stroke-miterlimit:7.70731688;stroke-dasharray:none"
       inkscape:connector-curvature="0"
       d="m -88.365142,47.941526 c 1.510417,-1.4915 3.020834,-2.983001 4.32116,-2.953176 1.300327,0.02983 2.160646,3.042781 3.480931,3.132256 1.320417,0.08947 3.120889,-2.595279 4.441306,-2.595279 1.320285,0 2.220521,2.550542 3.48093,2.595279 1.260279,0.04474 2.740758,-2.371593 4.081001,-2.326856 1.340375,0.04487 2.650812,1.320008 3.961118,2.595278"
       stroke-miterlimit="8"
       id="path4550" />
    <path
       style="fill:none;fill-rule:evenodd;stroke:#000000;stroke-width:0.30000001;stroke-miterlimit:7.70731688;stroke-dasharray:none"
       inkscape:connector-curvature="0"
       d="m -87.839916,47.418284 c 1.502013,-1.4915 3.004157,-2.983 4.297262,-2.953175 1.293236,0.02982 2.148697,3.042781 3.46176,3.132255 1.313064,0.08947 3.103557,-2.595279 4.41662,-2.595279 1.313063,0 2.208441,2.550542 3.46176,2.595279 1.253319,0.04474 2.725657,-2.371593 4.058547,-2.326856 1.333022,0.04487 2.636106,1.320008 3.93919,2.595279"
       stroke-miterlimit="8"
       id="path4552" />
    <text
       style="font-style:normal;font-variant:normal;font-weight:normal;font-stretch:normal;font-size:3.53856969px;font-family:'DejaVu Sans';-inkscape-font-specification:'DejaVu Sans';stroke-width:0.29999998;stroke-miterlimit:7.70731688;stroke-dasharray:none"
       font-weight="400"
       font-size="27"
       id="text4554"
       x="-62.096313"
       y="49.594662"
       transform="scale(1.0018938,0.9981098)">SAW</text>
    <path
       style="fill:#ffffff;fill-rule:evenodd;stroke:#000000;stroke-width:0.30000001;stroke-miterlimit:7.70731688;stroke-dasharray:none"
       inkscape:connector-curvature="0"
       d="m -64.926961,51.332263 h 9.685417 V 50.5474 l 3.051297,1.569725 -3.051297,1.569725 v -0.784862 h -9.685417 z"
       stroke-miterlimit="8"
       id="path4556" />
    <text
       style="font-style:normal;font-variant:normal;font-weight:normal;font-stretch:normal;font-size:3.14539528px;font-family:'DejaVu Sans';-inkscape-font-specification:'DejaVu Sans';stroke-width:0.29999998;stroke-miterlimit:7.70731688;stroke-dasharray:none"
       font-weight="400"
       font-size="24"
       id="text4558"
       x="-79.589531"
       y="40.55051"
       transform="scale(1.0018938,0.99810978)">
      <tspan
         style="font-size:3.52777767px"
         id="tspan9043">𝜆</tspan>
    </text>
    <path
       style="fill:none;fill-rule:evenodd;stroke:#000000;stroke-width:0.30000001;stroke-miterlimit:7.70731688;stroke-dasharray:0.30000001, 0.90000003;stroke-dashoffset:0;paint-order:stroke fill markers"
       inkscape:connector-curvature="0"
       d="m -106.94482,80.900896 0.24993,-1.474036 0.24981,-1.374422 0.24993,-1.281433 0.24994,-1.194774 0.24993,-1.11402 0.24995,-1.038734 0.24981,-0.968487 0.24993,-0.903136 0.24994,-0.841956 0.24993,-0.784954 0.24981,-0.731978 0.24993,-0.682605 0.24994,-0.636253 0.24994,-0.593358 0.24993,-0.553196 0.24981,-0.515768 0.24993,-0.481076 0.24981,-0.448401 0.24993,-0.418027 0.24994,-0.389957 0.24993,-0.363471 0.24994,-0.338856 0.24981,-0.315967 0.24993,-0.294664 0.24994,-0.274654 0.28561,-0.291351 0.2856,-0.268897 0.285602,-0.248312 0.285605,-0.229166 0.285603,-0.211461 0.285604,-0.195195 0.321272,-0.201816 0.321272,-0.184398 0.321272,-0.168564 0.35707,-0.170292 0.357072,-0.154169 0.356938,-0.139486 0.39274,-0.138047 0.392737,-0.123652 0.428407,-0.120342 0.464073,-0.115014 0.464074,-0.101053 0.499872,-0.09515 0.53541,-0.0881 0.571208,-0.08046 0.642675,-0.07643 0.71401,-0.07025 0.785346,-0.06261 0.856812,-0.05441 0.963946,-0.04737 1.142416,-0.04188 1.320886,-0.03425"
       stroke-miterlimit="8"
       id="path4566"
       sodipodi:nodetypes="ccccccccccccccccccccccccccccccccccccccccccccccccccccc" />
    <text
       style="font-style:normal;font-variant:normal;font-weight:normal;font-stretch:normal;font-size:3.52777767px;font-family:'DejaVu Sans';-inkscape-font-specification:'DejaVu Sans';font-variant-ligatures:normal;font-variant-caps:normal;font-variant-numeric:normal;font-feature-settings:normal;text-align:start;writing-mode:lr-tb;text-anchor:start;stroke-width:0.30000001;stroke-miterlimit:7.70731688;stroke-dasharray:none"
       font-weight="400"
       font-size="24"
       id="text983-6"
       x="-120.15393"
       y="39.859436">(a)</text>
    <rect
       id="rect4518-6"
       height="23.967216"
       width="50.844696"
       y="105.32243"
       x="-106.99188"
       style="opacity:1;fill:#989898;fill-opacity:1;stroke-width:0.30000001;stroke-miterlimit:7.70731688;stroke-dasharray:none" />
    <path
       id="path4520-1"
       d="m -56.147142,105.32243 14.677156,-14.621862 v 23.836402 l -14.677156,14.62186 z"
       inkscape:connector-curvature="0"
       style="opacity:1;fill:#737373;fill-opacity:1;fill-rule:evenodd;stroke-width:0.30000001;stroke-miterlimit:7.70731688;stroke-dasharray:none" />
    <path
       style="fill:#dadada;fill-rule:evenodd;stroke-width:0.30000001;stroke-miterlimit:7.70731688;stroke-dasharray:none"
       inkscape:connector-curvature="0"
       d="m -106.99189,105.32243 14.677214,-14.621862 h 50.84469 l -14.677156,14.621862 z"
       id="path4522-3" />
    <path
       style="fill:none;fill-rule:evenodd;stroke:#000000;stroke-width:0.30000001;stroke-miterlimit:7.70731688;stroke-dasharray:none"
       inkscape:connector-curvature="0"
       d="m -106.99189,105.32243 14.677214,-14.621862 h 50.84469 v 23.836402 l -14.677156,14.62186 h -50.844748 z m 0,0 h 50.844748 l 14.677156,-14.621862 m -14.677156,14.621862 v 23.8364"
       stroke-miterlimit="8"
       id="path4524-5" />
    <text
       style="font-style:normal;font-variant:normal;font-weight:normal;font-stretch:normal;font-size:3.14539528px;font-family:'DejaVu Sans';-inkscape-font-specification:'DejaVu Sans';stroke-width:0.30000001;stroke-miterlimit:7.70731688;stroke-dasharray:none"
       font-weight="400"
       font-size="24"
       id="text4530-9"
       x="-82.165688"
       y="118.26308"
       transform="scale(1.0018938,0.99810978)">ϵ</text>
    <g
       id="g5454"
       transform="matrix(0.13156298,0,0,0.11846346,-140.66745,67.711937)"
       style="fill:#f3f3f3;fill-opacity:1;stroke-width:2.40304661;stroke-miterlimit:7.70731688;stroke-dasharray:none">
      <rect
         id="rect5446"
         height="14.1803"
         width="386.17999"
         y="305.82001"
         x="255"
         style="fill:#f3f3f3;fill-opacity:1;stroke-width:2.40304661;stroke-miterlimit:7.70731688;stroke-dasharray:none" />
      <path
         id="path5448"
         d="M 641.18,305.82 753,194 v 14.18 L 641.18,320 Z"
         inkscape:connector-curvature="0"
         style="fill:#f3f3f3;fill-opacity:1;fill-rule:evenodd;stroke-width:2.40304661;stroke-miterlimit:7.70731688;stroke-dasharray:none" />
      <path
         id="path5450"
         d="M 255,305.82 366.82,194 H 753 L 641.18,305.82 Z"
         inkscape:connector-curvature="0"
         style="fill:#f3f3f3;fill-opacity:1;fill-rule:evenodd;stroke-width:2.40304661;stroke-miterlimit:7.70731688;stroke-dasharray:none" />
      <path
         id="path5452"
         stroke-miterlimit="8"
         d="M 256.02672,305.82 367.84672,194 h 386.18 v 14.18 L 642.20672,320 h -386.18 z m 0,0 h 386.18 L 754.02672,194 m -111.82,111.82 V 320"
         inkscape:connector-curvature="0"
         style="fill:#f3f3f3;fill-opacity:1;fill-rule:evenodd;stroke:#000000;stroke-width:2.40304661;stroke-miterlimit:7.70731688;stroke-dasharray:none" />
    </g>
    <text
       style="font-weight:400;font-size:11.88810825px;font-family:'Cambria Math', 'Cambria Math_MSFontService', sans-serif;baseline-shift:baseline;stroke-width:0.30000001;stroke-miterlimit:7.70731688;stroke-dasharray:none"
       font-weight="400"
       font-size="24"
       id="text4526-0"
       x="-118.39149"
       y="98.981468"
       transform="scale(1.0018938,0.99810978)">
      <tspan
         style="font-style:normal;font-variant:normal;font-weight:normal;font-stretch:normal;font-size:3.14539528px;font-family:'DejaVu Sans';-inkscape-font-specification:'DejaVu Sans';font-variant-ligatures:normal;font-variant-caps:normal;font-variant-numeric:normal;font-feature-settings:normal;text-align:start;writing-mode:lr-tb;text-anchor:start;stroke-width:0.30000001;stroke-miterlimit:7.70731688;stroke-dasharray:none"
         id="tspan5572">σ<tspan
   style="font-style:normal;font-variant:normal;font-weight:normal;font-stretch:normal;font-size:2.04450679px;font-family:'DejaVu Sans';-inkscape-font-specification:'DejaVu Sans';baseline-shift:sub;stroke-width:0.30000001;stroke-miterlimit:7.70731688;stroke-dasharray:none"
   id="tspan5576">2D</tspan>
 = σ<tspan
   style="font-style:italic"
   id="tspan3041">d</tspan>
</tspan>
    </text>
    <path
       style="fill:none;fill-rule:evenodd;stroke:#000000;stroke-width:0.30000001;stroke-miterlimit:7.70731688;stroke-dasharray:none"
       inkscape:connector-curvature="0"
       d="m -93.486087,99.495128 c 1.502015,-1.491501 3.004158,-2.983001 4.297264,-2.953176 1.293236,0.02982 2.148696,3.04278 3.461758,3.132255 1.313062,0.08947 3.103555,-2.595279 4.416622,-2.595279 1.31306,0 2.208435,2.550542 3.461755,2.595279 1.253319,0.04474 2.725655,-2.371593 4.058547,-2.326856 1.333022,0.04487 2.636102,1.320008 3.939189,2.595279"
       stroke-miterlimit="8"
       id="path4532-5" />
    <path
       style="fill:none;fill-rule:evenodd;stroke:#000000;stroke-width:0.30000001;stroke-miterlimit:7.70731688;stroke-dasharray:none"
       inkscape:connector-curvature="0"
       d="m -92.960863,98.971886 c 1.502015,-1.491501 3.004158,-2.983001 4.297264,-2.953176 1.293236,0.02982 2.148696,3.042781 3.461758,3.132255 1.313066,0.08948 3.10356,-2.595278 4.41662,-2.595278 1.313062,0 2.208442,2.550541 3.461756,2.595278 1.25332,0.04474 2.725656,-2.371593 4.058547,-2.326855 1.333021,0.04487 2.636108,1.320007 3.939189,2.595278"
       stroke-miterlimit="8"
       id="path4534-4" />
    <path
       style="fill:none;fill-rule:evenodd;stroke:#000000;stroke-width:0.30000001;stroke-miterlimit:7.70731688;stroke-dasharray:none"
       inkscape:connector-curvature="0"
       d="m -92.435639,98.579455 c 1.502015,-1.491501 3.004162,-2.983001 4.297264,-2.953176 1.293235,0.02983 2.148696,3.042781 3.461762,3.132255 1.313062,0.08947 3.103555,-2.595279 4.416616,-2.595279 1.313066,0 2.208442,2.550542 3.461761,2.595279 1.253319,0.04474 2.725655,-2.371593 4.058542,-2.326856 1.333021,0.04487 2.636107,1.320008 3.939189,2.595279"
       stroke-miterlimit="8"
       id="path4536-8" />
    <path
       style="fill:none;fill-rule:evenodd;stroke:#000000;stroke-width:0.30000001;stroke-miterlimit:7.70731688;stroke-dasharray:none"
       inkscape:connector-curvature="0"
       d="m -91.91041,98.056213 c 1.502014,-1.4915 3.004157,-2.983001 4.297263,-2.953176 1.293236,0.02983 2.148696,3.042781 3.461758,3.132256 1.313061,0.08947 3.103554,-2.595279 4.416621,-2.595279 1.31306,0 2.208435,2.550541 3.461755,2.595279 1.253319,0.04474 2.725655,-2.371593 4.058547,-2.326856 1.333022,0.04487 2.636103,1.320008 3.93919,2.595278"
       stroke-miterlimit="8"
       id="path4538-8" />
    <path
       style="fill:none;fill-rule:evenodd;stroke:#000000;stroke-width:0.30000001;stroke-miterlimit:7.70731688;stroke-dasharray:none"
       inkscape:connector-curvature="0"
       d="m -91.385186,97.532971 c 1.502014,-1.4915 3.004157,-2.983 4.297263,-2.953176 1.293236,0.02982 2.148696,3.042782 3.461758,3.132256 1.313066,0.08947 3.103559,-2.595279 4.41662,-2.595279 1.313061,0 2.208441,2.550542 3.461755,2.595279 1.25332,0.04474 2.725656,-2.371593 4.058547,-2.326856 1.333022,0.04487 2.636109,1.320008 3.93919,2.595279"
       stroke-miterlimit="8"
       id="path4540-6" />
    <path
       style="fill:none;fill-rule:evenodd;stroke:#000000;stroke-width:0.30000001;stroke-miterlimit:7.70731688;stroke-dasharray:none"
       inkscape:connector-curvature="0"
       d="m -90.859962,97.00973 c 1.502014,-1.491501 3.004161,-2.983001 4.297263,-2.953177 1.293235,0.02982 2.148696,3.042782 3.461762,3.132256 1.313061,0.08947 3.103554,-2.595279 4.416615,-2.595279 1.313066,0 2.208442,2.550542 3.461761,2.595279 1.25332,0.04474 2.725655,-2.371593 4.058542,-2.326856 1.333022,0.04487 2.636108,1.320008 3.93919,2.595279"
       stroke-miterlimit="8"
       id="path4542-8" />
    <path
       style="fill:none;fill-rule:evenodd;stroke:#000000;stroke-width:0.30000001;stroke-miterlimit:7.70731688;stroke-dasharray:none"
       inkscape:connector-curvature="0"
       d="m -90.334734,96.486488 c 1.502014,-1.4915 3.004157,-2.983001 4.297263,-2.953176 1.293236,0.02983 2.148696,3.042781 3.461757,3.132255 1.313061,0.08948 3.103555,-2.595278 4.416621,-2.595278 1.31306,0 2.208435,2.550541 3.461755,2.595278 1.253319,0.04474 2.725655,-2.371592 4.058548,-2.326855 1.333022,0.04487 2.636103,1.320008 3.93919,2.595278"
       stroke-miterlimit="8"
       id="path4544-7" />
    <path
       style="fill:none;fill-rule:evenodd;stroke:#000000;stroke-width:0.30000001;stroke-miterlimit:7.70731688;stroke-dasharray:none"
       inkscape:connector-curvature="0"
       d="m -89.80951,95.963246 c 1.502014,-1.4915 3.004157,-2.983 4.297263,-2.953176 1.293235,0.02982 2.148696,3.042782 3.461757,3.132256 1.313066,0.08947 3.103559,-2.595279 4.41662,-2.595279 1.313061,0 2.208441,2.550542 3.461756,2.595279 1.253319,0.04474 2.725654,-2.371593 4.058547,-2.326856 1.333022,0.04487 2.636104,1.320008 3.93919,2.595279"
       stroke-miterlimit="8"
       id="path4546-6" />
    <path
       style="fill:none;fill-rule:evenodd;stroke:#000000;stroke-width:0.30000001;stroke-miterlimit:7.70731688;stroke-dasharray:none"
       inkscape:connector-curvature="0"
       d="m -89.284286,95.440005 c 1.502014,-1.4915 3.004161,-2.983001 4.297263,-2.953176 1.293235,0.02982 2.148695,3.042781 3.461762,3.132255 1.31306,0.08947 3.103553,-2.595279 4.416614,-2.595279 1.313066,0 2.208442,2.550542 3.461761,2.595279 1.25332,0.04474 2.725655,-2.371593 4.058543,-2.326856 1.333022,0.04487 2.636108,1.320008 3.93919,2.595279"
       stroke-miterlimit="8"
       id="path4548-6" />
    <path
       style="fill:none;fill-rule:evenodd;stroke:#000000;stroke-width:0.30000001;stroke-miterlimit:7.70731688;stroke-dasharray:none"
       inkscape:connector-curvature="0"
       d="m -88.890367,95.047574 c 1.51042,-1.491501 3.020836,-2.983001 4.321163,-2.953177 1.300328,0.02982 2.160646,3.042781 3.480928,3.132256 1.320416,0.08947 3.120889,-2.595279 4.441305,-2.595279 1.320281,0 2.220521,2.550542 3.480926,2.595279 1.260277,0.04474 2.740758,-2.371593 4.081,-2.326856 1.340377,0.04487 2.650813,1.320008 3.961121,2.595279"
       stroke-miterlimit="8"
       id="path4550-7" />
    <path
       style="fill:none;fill-rule:evenodd;stroke:#000000;stroke-width:0.30000001;stroke-miterlimit:7.70731688;stroke-dasharray:none"
       inkscape:connector-curvature="0"
       d="m -88.365139,94.524332 c 1.502014,-1.491501 3.004157,-2.983001 4.297263,-2.953176 1.293235,0.02982 2.148696,3.042781 3.461756,3.132255 1.313062,0.08948 3.103554,-2.595278 4.416621,-2.595278 1.31306,0 2.208436,2.550541 3.461755,2.595278 1.253319,0.04474 2.725656,-2.371593 4.058549,-2.326855 1.333022,0.04487 2.636103,1.320007 3.93919,2.595278"
       stroke-miterlimit="8"
       id="path4552-2" />
    <text
       style="font-style:normal;font-variant:normal;font-weight:normal;font-stretch:normal;font-size:3.53856969px;font-family:'DejaVu Sans';-inkscape-font-specification:'DejaVu Sans';stroke-width:0.30000001;stroke-miterlimit:7.70731688;stroke-dasharray:none"
       font-weight="400"
       font-size="27"
       id="text4554-4"
       x="-62.620689"
       y="96.789917"
       transform="scale(1.0018938,0.99810978)">SAW</text>
    <path
       style="fill:#ffffff;fill-rule:evenodd;stroke:#000000;stroke-width:0.30000001;stroke-miterlimit:7.70731688;stroke-dasharray:none"
       inkscape:connector-curvature="0"
       d="m -65.452191,98.43831 h 9.685415 v -0.784862 l 3.051297,1.569725 -3.051297,1.569727 v -0.78486 h -9.685415 z"
       stroke-miterlimit="8"
       id="path4556-0" />
    <text
       style="font-style:normal;font-variant:normal;font-weight:normal;font-stretch:normal;font-size:3.14539528px;font-family:'DejaVu Sans';-inkscape-font-specification:'DejaVu Sans';stroke-width:0.30000001;stroke-miterlimit:7.70731688;stroke-dasharray:none"
       font-weight="400"
       font-size="24"
       id="text4558-1"
       x="-79.780266"
       y="88.077835"
       transform="scale(1.0018938,0.99810978)">
      <tspan
         style="font-size:3.52777767px"
         id="tspan9045">𝜆</tspan>
    </text>
    <path
       style="fill:none;stroke:#000000;stroke-width:0.30000001;stroke-linecap:butt;stroke-linejoin:miter;stroke-miterlimit:7.70731688;stroke-dasharray:none;stroke-opacity:1;marker-end:url(#TriangleOutS)"
       d="m -104.10509,98.045241 6.006431,0.797379"
       id="path5578"
       inkscape:connector-curvature="0" />
    <text
       style="font-style:normal;font-variant:normal;font-weight:normal;font-stretch:normal;font-size:3.52777767px;font-family:'DejaVu Sans';-inkscape-font-specification:'DejaVu Sans';font-variant-ligatures:normal;font-variant-caps:normal;font-variant-numeric:normal;font-feature-settings:normal;text-align:start;writing-mode:lr-tb;text-anchor:start;stroke-width:0.30000001;stroke-miterlimit:7.70731688;stroke-dasharray:none"
       font-weight="400"
       font-size="24"
       id="text983-6-7"
       x="-120.19181"
       y="90.662926">(b)</text>
    <text
       style="font-style:normal;font-variant:normal;font-weight:normal;font-stretch:normal;font-size:3.14539528px;font-family:'DejaVu Sans';-inkscape-font-specification:'DejaVu Sans';stroke-width:0.30000001;stroke-miterlimit:7.70731688;stroke-dasharray:none"
       font-weight="400"
       font-size="24"
       id="text4578-7-3"
       x="-115.5392"
       y="63.215717"
       transform="scale(1.0018938,0.99810978)">
      <tspan
         y="63.215717"
         x="-115.5392"
         id="tspan915-9"
         sodipodi:role="line"
         style="font-style:normal;font-variant:normal;font-weight:normal;font-stretch:normal;font-family:'DejaVu Sans';-inkscape-font-specification:'DejaVu Sans';stroke-width:0.30000001;stroke-miterlimit:7.70731688;stroke-dasharray:none">1/<tspan
   id="tspan2760"
   style="font-style:italic">k</tspan>
</tspan>
      <tspan
         y="67.147461"
         x="-115.5392"
         id="tspan917-3"
         sodipodi:role="line"
         style="font-style:normal;font-variant:normal;font-weight:normal;font-stretch:normal;font-family:'DejaVu Sans';-inkscape-font-specification:'DejaVu Sans';stroke-width:0.30000001;stroke-miterlimit:7.70731688;stroke-dasharray:none" />
    </text>
    <path
       style="fill:none;fill-rule:evenodd;stroke:#000000;stroke-width:0.30000001;stroke-miterlimit:7.70731688;stroke-dasharray:none;stroke-dashoffset:0;stroke-opacity:1"
       inkscape:connector-curvature="0"
       d="m -106.0486,64.537178 -1.03773,1.3e-5"
       stroke-miterlimit="8"
       id="path4582-9" />
    <text
       xml:space="preserve"
       style="font-style:normal;font-weight:normal;font-size:10.58333302px;line-height:1.25;font-family:sans-serif;letter-spacing:0px;word-spacing:0px;fill:#000000;fill-opacity:1;stroke:none;stroke-width:0.26458332"
       x="-110.59861"
       y="105.97101"
       id="text2768"><tspan
         style="font-style:italic;font-variant:normal;font-weight:normal;font-stretch:normal;font-size:3.13972211px;font-family:sans-serif;-inkscape-font-specification:'sans-serif, Normal';font-variant-ligatures:normal;font-variant-caps:normal;font-variant-numeric:normal;font-feature-settings:normal;text-align:start;writing-mode:lr-tb;text-anchor:start;stroke-width:0.26458332"
         y="105.97101"
         x="-110.59861"
         id="tspan2766"
         sodipodi:role="line">d</tspan></text>
    <text
       style="font-style:normal;font-variant:normal;font-weight:normal;font-stretch:normal;font-size:3.53856969px;font-family:'DejaVu Sans';-inkscape-font-specification:'DejaVu Sans';stroke-width:0.29999998;stroke-miterlimit:7.70731688;stroke-dasharray:none"
       font-weight="400"
       font-size="27"
       id="text4554-8"
       x="-89.358986"
       y="126.83356"
       transform="scale(1.0018938,0.99810978)">Insulator</text>
    <path
       style="fill:none;stroke:#000000;stroke-width:0.25;stroke-linecap:butt;stroke-linejoin:miter;stroke-miterlimit:4;stroke-dasharray:none;stroke-opacity:1;marker-start:url(#marker4478);marker-end:url(#StopL)"
       d="m -74.993198,41.601965 c -7.844327,0 -7.844327,0 -7.844327,0"
       id="path5357-3-0-3-6-9"
       inkscape:connector-curvature="0" />
    <rect
       style="opacity:0.97000002;fill:none;fill-opacity:1;fill-rule:nonzero;stroke:#000000;stroke-width:0.25;stroke-linecap:round;stroke-linejoin:round;stroke-miterlimit:4;stroke-dasharray:none;stroke-dashoffset:0;stroke-opacity:1;paint-order:stroke fill markers"
       id="rect15793"
       width="14.081522"
       height="4.543582"
       x="-118.80725"
       y="95.643906" />
    <path
       style="fill:none;stroke:#000000;stroke-width:0.25;stroke-linecap:butt;stroke-linejoin:miter;stroke-miterlimit:4;stroke-dasharray:none;stroke-opacity:1;marker-start:url(#TriangleInS);marker-end:url(#marker16307)"
       d="m -107.71014,105.43111 c 0,-1.22475 0,-1.22475 0,-1.22475"
       id="path5357-3-0-3-6-9-8"
       inkscape:connector-curvature="0" />
    <text
       style="font-style:normal;font-variant:normal;font-weight:normal;font-stretch:normal;font-size:3.53856969px;font-family:'DejaVu Sans';-inkscape-font-specification:'DejaVu Sans';stroke-width:0.29999998;stroke-miterlimit:7.70731688;stroke-dasharray:none"
       font-weight="400"
       font-size="27"
       id="text4554-8-0"
       x="-94.815269"
       y="80.051437"
       transform="scale(1.0018938,0.99810978)">Semiconductor</text>
    <g
       id="g1135-6-3"
       transform="translate(32.085412,-0.73386358)"
       style="stroke-width:0.30000001;stroke-miterlimit:7.70731688;stroke-dasharray:none">
      <text
         transform="scale(1.0018938,0.9981098)"
         y="63.127605"
         x="-116.85621"
         id="text4568-2-5"
         font-size="24"
         font-weight="400"
         style="font-weight:400;font-size:3.14539528px;font-family:'Cambria Math', 'Cambria Math_MSFontService', sans-serif;stroke-width:0.30000001;stroke-miterlimit:7.70731688;stroke-dasharray:none">|</text>
      <text
         transform="scale(1.0018938,0.9981098)"
         y="63.127605"
         x="-115.85138"
         id="text4570-9-4"
         font-size="24"
         font-weight="400"
         style="font-weight:400;font-size:3.14539528px;font-family:'Cambria Math', 'Cambria Math_MSFontService', sans-serif;stroke-width:0.30000001;stroke-miterlimit:7.70731688;stroke-dasharray:none">𝜙</text>
      <text
         transform="scale(1.0018938,0.9981098)"
         y="63.782894"
         x="-113.79993"
         id="text4572-3-9"
         font-size="18"
         font-weight="400"
         style="font-weight:400;font-size:2.35904646px;font-family:'Cambria Math', 'Cambria Math_MSFontService', sans-serif;stroke-width:0.30000001;stroke-miterlimit:7.70731688;stroke-dasharray:none">𝑆𝐴𝑊</text>
      <text
         transform="scale(1.0018938,0.9981098)"
         y="63.127605"
         x="-108.57936"
         id="text4574-5-1"
         font-size="24"
         font-weight="400"
         style="font-weight:400;font-size:3.14539528px;font-family:'Cambria Math', 'Cambria Math_MSFontService', sans-serif;stroke-width:0.30000001;stroke-miterlimit:7.70731688;stroke-dasharray:none">|</text>
    </g>
    <path
       style="fill:none;stroke:#000000;stroke-width:0.30000001;stroke-linecap:butt;stroke-linejoin:miter;stroke-miterlimit:7.70731688;stroke-dasharray:none;stroke-opacity:1;marker-end:url(#TriangleOutS-7-8)"
       d="m -85.146989,60.990757 -1.32226,-0.8055"
       id="path5578-4-3"
       inkscape:connector-curvature="0" />
    <path
       style="fill:none;stroke:#000000;stroke-width:0.26499999;stroke-linecap:butt;stroke-linejoin:miter;stroke-miterlimit:4;stroke-dasharray:none;stroke-opacity:1;marker-start:url(#StopM);marker-end:url(#StopM)"
       d="m -109.11835,59.430456 v 5.213709"
       id="path7875"
       inkscape:connector-curvature="0" />
    <path
       inkscape:connector-curvature="0"
       id="path8571"
       d="m -74.993198,88.590626 c -7.844327,0 -7.844327,0 -7.844327,0"
       style="fill:none;stroke:#000000;stroke-width:0.25;stroke-linecap:butt;stroke-linejoin:miter;stroke-miterlimit:4;stroke-dasharray:none;stroke-opacity:1;marker-start:url(#marker8575);marker-end:url(#marker8585)" />
  </g>
</svg>
