<?xml version="1.0" encoding="UTF-8" standalone="no"?>
<!-- Created with Inkscape (http://www.inkscape.org/) -->

<svg
   xmlns:dc="http://purl.org/dc/elements/1.1/"
   xmlns:cc="http://creativecommons.org/ns#"
   xmlns:rdf="http://www.w3.org/1999/02/22-rdf-syntax-ns#"
   xmlns:svg="http://www.w3.org/2000/svg"
   xmlns="http://www.w3.org/2000/svg"
   xmlns:sodipodi="http://sodipodi.sourceforge.net/DTD/sodipodi-0.dtd"
   xmlns:inkscape="http://www.inkscape.org/namespaces/inkscape"
   width="6.782187cm"
   height="5.7871227cm"
   viewBox="0 0 67.82187 57.871224"
   version="1.1"
   id="svg13438"
   inkscape:version="0.92.5 (2060ec1f9f, 2020-04-08)"
   sodipodi:docname="SAW intro fig.svg">
  <defs
     id="defs13432">
    <radialGradient
       cx="176212"
       cy="176212"
       r="249202"
       fx="176213"
       fy="176213"
       gradientUnits="userSpaceOnUse"
       spreadMethod="pad"
       id="fill8-4-3"
       gradientTransform="matrix(4.9092958e-6,0,0,4.9092958e-6,21.918417,149.86357)">
      <stop
         offset="0"
         stop-color="#0432FF"
         id="stop21272-8" />
      <stop
         offset="0.37"
         stop-color="#0432FF"
         id="stop21274-7" />
      <stop
         offset="0.72"
         stop-color="#0432FF"
         stop-opacity="0"
         id="stop21276-6" />
      <stop
         offset="1"
         stop-color="#0432FF"
         stop-opacity="0"
         id="stop21278-9" />
    </radialGradient>
    <radialGradient
       cx="176212"
       cy="176212"
       r="249202"
       fx="176213"
       fy="176213"
       gradientUnits="userSpaceOnUse"
       spreadMethod="pad"
       id="fill8-4-1-55"
       gradientTransform="matrix(4.9092958e-6,0,0,4.9092958e-6,23.758099,150.52364)">
      <stop
         offset="0"
         stop-color="#0432FF"
         id="stop21272-2-73" />
      <stop
         offset="0.37"
         stop-color="#0432FF"
         id="stop21274-4-6" />
      <stop
         offset="0.72"
         stop-color="#0432FF"
         stop-opacity="0"
         id="stop21276-4-5" />
      <stop
         offset="1"
         stop-color="#0432FF"
         stop-opacity="0"
         id="stop21278-4-2" />
    </radialGradient>
    <radialGradient
       cx="176212"
       cy="176212"
       r="249202"
       fx="176213"
       fy="176213"
       gradientUnits="userSpaceOnUse"
       spreadMethod="pad"
       id="fill8-4-1-5-6"
       gradientTransform="matrix(4.9092958e-6,0,0,4.9092958e-6,25.753872,150.48647)">
      <stop
         offset="0"
         stop-color="#0432FF"
         id="stop21272-2-7-0" />
      <stop
         offset="0.37"
         stop-color="#0432FF"
         id="stop21274-4-5-0" />
      <stop
         offset="0.72"
         stop-color="#0432FF"
         stop-opacity="0"
         id="stop21276-4-9-4" />
      <stop
         offset="1"
         stop-color="#0432FF"
         stop-opacity="0"
         id="stop21278-4-5-6" />
    </radialGradient>
    <radialGradient
       cx="176212"
       cy="176212"
       r="249202"
       fx="176213"
       fy="176213"
       gradientUnits="userSpaceOnUse"
       spreadMethod="pad"
       id="fill8-4-1-5-8-4"
       gradientTransform="matrix(4.9092958e-6,0,0,4.9092958e-6,27.561355,149.87742)">
      <stop
         offset="0"
         stop-color="#0432FF"
         id="stop21272-2-7-6-6" />
      <stop
         offset="0.37"
         stop-color="#0432FF"
         id="stop21274-4-5-1-0" />
      <stop
         offset="0.72"
         stop-color="#0432FF"
         stop-opacity="0"
         id="stop21276-4-9-2-5" />
      <stop
         offset="1"
         stop-color="#0432FF"
         stop-opacity="0"
         id="stop21278-4-5-4-7" />
    </radialGradient>
    <radialGradient
       cx="185737"
       cy="180975"
       r="259327"
       fx="185738"
       fy="180975"
       gradientUnits="userSpaceOnUse"
       spreadMethod="pad"
       id="fill9-8-55"
       gradientTransform="matrix(4.8209136e-6,0,0,4.8209136e-6,12.492146,150.66509)">
      <stop
         offset="0"
         stop-color="#FF0000"
         id="stop21281-8" />
      <stop
         offset="0.37"
         stop-color="#FF0000"
         id="stop21283-4" />
      <stop
         offset="0.69"
         stop-color="#FF0000"
         stop-opacity="0"
         id="stop21285-2" />
      <stop
         offset="1"
         stop-color="#FF0000"
         stop-opacity="0"
         id="stop21287-3" />
    </radialGradient>
    <radialGradient
       cx="185737"
       cy="180975"
       r="259327"
       fx="185738"
       fy="180975"
       gradientUnits="userSpaceOnUse"
       spreadMethod="pad"
       id="fill9-8-5-3"
       gradientTransform="matrix(4.8209136e-6,0,0,4.8209136e-6,14.445742,150.09955)">
      <stop
         offset="0"
         stop-color="#FF0000"
         id="stop21281-2-8" />
      <stop
         offset="0.37"
         stop-color="#FF0000"
         id="stop21283-1-6" />
      <stop
         offset="0.69"
         stop-color="#FF0000"
         stop-opacity="0"
         id="stop21285-6-90" />
      <stop
         offset="1"
         stop-color="#FF0000"
         stop-opacity="0"
         id="stop21287-4-4" />
    </radialGradient>
    <radialGradient
       cx="185737"
       cy="180975"
       r="259327"
       fx="185738"
       fy="180975"
       gradientUnits="userSpaceOnUse"
       spreadMethod="pad"
       id="fill9-8-5-2-9"
       gradientTransform="matrix(4.8209136e-6,0,0,4.8209136e-6,16.446373,150.13956)">
      <stop
         offset="0"
         stop-color="#FF0000"
         id="stop21281-2-7-48" />
      <stop
         offset="0.37"
         stop-color="#FF0000"
         id="stop21283-1-7-7" />
      <stop
         offset="0.69"
         stop-color="#FF0000"
         stop-opacity="0"
         id="stop21285-6-0-8" />
      <stop
         offset="1"
         stop-color="#FF0000"
         stop-opacity="0"
         id="stop21287-4-1-9" />
    </radialGradient>
    <radialGradient
       cx="185737"
       cy="180975"
       r="259327"
       fx="185738"
       fy="180975"
       gradientUnits="userSpaceOnUse"
       spreadMethod="pad"
       id="fill9-8-5-2-7-4"
       gradientTransform="matrix(4.8209136e-6,0,0,4.8209136e-6,18.366978,150.69974)">
      <stop
         offset="0"
         stop-color="#FF0000"
         id="stop21281-2-7-1-8" />
      <stop
         offset="0.37"
         stop-color="#FF0000"
         id="stop21283-1-7-4-8" />
      <stop
         offset="0.69"
         stop-color="#FF0000"
         stop-opacity="0"
         id="stop21285-6-0-2-8" />
      <stop
         offset="1"
         stop-color="#FF0000"
         stop-opacity="0"
         id="stop21287-4-1-1-0" />
    </radialGradient>
    <radialGradient
       cx="176212"
       cy="176212"
       r="249202"
       fx="176213"
       fy="176213"
       gradientUnits="userSpaceOnUse"
       spreadMethod="pad"
       id="fill8-4-3-0"
       gradientTransform="matrix(4.9092958e-6,0,0,4.9092958e-6,40.449505,149.81676)">
      <stop
         offset="0"
         stop-color="#0432FF"
         id="stop21272-8-0" />
      <stop
         offset="0.37"
         stop-color="#0432FF"
         id="stop21274-7-9" />
      <stop
         offset="0.72"
         stop-color="#0432FF"
         stop-opacity="0"
         id="stop21276-6-4" />
      <stop
         offset="1"
         stop-color="#0432FF"
         stop-opacity="0"
         id="stop21278-9-4" />
    </radialGradient>
    <radialGradient
       cx="176212"
       cy="176212"
       r="249202"
       fx="176213"
       fy="176213"
       gradientUnits="userSpaceOnUse"
       spreadMethod="pad"
       id="fill8-4-1-55-7"
       gradientTransform="matrix(4.9092958e-6,0,0,4.9092958e-6,42.289188,150.47683)">
      <stop
         offset="0"
         stop-color="#0432FF"
         id="stop21272-2-73-0" />
      <stop
         offset="0.37"
         stop-color="#0432FF"
         id="stop21274-4-6-9" />
      <stop
         offset="0.72"
         stop-color="#0432FF"
         stop-opacity="0"
         id="stop21276-4-5-6" />
      <stop
         offset="1"
         stop-color="#0432FF"
         stop-opacity="0"
         id="stop21278-4-2-4" />
    </radialGradient>
    <radialGradient
       cx="176212"
       cy="176212"
       r="249202"
       fx="176213"
       fy="176213"
       gradientUnits="userSpaceOnUse"
       spreadMethod="pad"
       id="fill8-4-1-5-6-1"
       gradientTransform="matrix(4.9092958e-6,0,0,4.9092958e-6,44.284961,150.43966)">
      <stop
         offset="0"
         stop-color="#0432FF"
         id="stop21272-2-7-0-3" />
      <stop
         offset="0.37"
         stop-color="#0432FF"
         id="stop21274-4-5-0-0" />
      <stop
         offset="0.72"
         stop-color="#0432FF"
         stop-opacity="0"
         id="stop21276-4-9-4-9" />
      <stop
         offset="1"
         stop-color="#0432FF"
         stop-opacity="0"
         id="stop21278-4-5-6-3" />
    </radialGradient>
    <radialGradient
       cx="176212"
       cy="176212"
       r="249202"
       fx="176213"
       fy="176213"
       gradientUnits="userSpaceOnUse"
       spreadMethod="pad"
       id="fill8-4-1-5-8-4-1"
       gradientTransform="matrix(4.9092958e-6,0,0,4.9092958e-6,46.092443,149.83061)">
      <stop
         offset="0"
         stop-color="#0432FF"
         id="stop21272-2-7-6-6-0" />
      <stop
         offset="0.37"
         stop-color="#0432FF"
         id="stop21274-4-5-1-0-0" />
      <stop
         offset="0.72"
         stop-color="#0432FF"
         stop-opacity="0"
         id="stop21276-4-9-2-5-0" />
      <stop
         offset="1"
         stop-color="#0432FF"
         stop-opacity="0"
         id="stop21278-4-5-4-7-2" />
    </radialGradient>
    <radialGradient
       cx="185737"
       cy="180975"
       r="259327"
       fx="185738"
       fy="180975"
       gradientUnits="userSpaceOnUse"
       spreadMethod="pad"
       id="fill9-8-55-3"
       gradientTransform="matrix(4.8209136e-6,0,0,4.8209136e-6,31.023232,150.61828)">
      <stop
         offset="0"
         stop-color="#FF0000"
         id="stop21281-8-5" />
      <stop
         offset="0.37"
         stop-color="#FF0000"
         id="stop21283-4-6" />
      <stop
         offset="0.69"
         stop-color="#FF0000"
         stop-opacity="0"
         id="stop21285-2-8" />
      <stop
         offset="1"
         stop-color="#FF0000"
         stop-opacity="0"
         id="stop21287-3-4" />
    </radialGradient>
    <radialGradient
       cx="185737"
       cy="180975"
       r="259327"
       fx="185738"
       fy="180975"
       gradientUnits="userSpaceOnUse"
       spreadMethod="pad"
       id="fill9-8-5-3-5"
       gradientTransform="matrix(4.8209136e-6,0,0,4.8209136e-6,32.976831,150.05274)">
      <stop
         offset="0"
         stop-color="#FF0000"
         id="stop21281-2-8-4" />
      <stop
         offset="0.37"
         stop-color="#FF0000"
         id="stop21283-1-6-0" />
      <stop
         offset="0.69"
         stop-color="#FF0000"
         stop-opacity="0"
         id="stop21285-6-90-1" />
      <stop
         offset="1"
         stop-color="#FF0000"
         stop-opacity="0"
         id="stop21287-4-4-6" />
    </radialGradient>
    <radialGradient
       cx="185737"
       cy="180975"
       r="259327"
       fx="185738"
       fy="180975"
       gradientUnits="userSpaceOnUse"
       spreadMethod="pad"
       id="fill9-8-5-2-9-9"
       gradientTransform="matrix(4.8209136e-6,0,0,4.8209136e-6,34.977462,150.09275)">
      <stop
         offset="0"
         stop-color="#FF0000"
         id="stop21281-2-7-48-6" />
      <stop
         offset="0.37"
         stop-color="#FF0000"
         id="stop21283-1-7-7-1" />
      <stop
         offset="0.69"
         stop-color="#FF0000"
         stop-opacity="0"
         id="stop21285-6-0-8-3" />
      <stop
         offset="1"
         stop-color="#FF0000"
         stop-opacity="0"
         id="stop21287-4-1-9-6" />
    </radialGradient>
    <radialGradient
       cx="185737"
       cy="180975"
       r="259327"
       fx="185738"
       fy="180975"
       gradientUnits="userSpaceOnUse"
       spreadMethod="pad"
       id="fill9-8-5-2-7-4-5"
       gradientTransform="matrix(4.8209136e-6,0,0,4.8209136e-6,36.898067,150.65293)">
      <stop
         offset="0"
         stop-color="#FF0000"
         id="stop21281-2-7-1-8-1" />
      <stop
         offset="0.37"
         stop-color="#FF0000"
         id="stop21283-1-7-4-8-3" />
      <stop
         offset="0.69"
         stop-color="#FF0000"
         stop-opacity="0"
         id="stop21285-6-0-2-8-4" />
      <stop
         offset="1"
         stop-color="#FF0000"
         stop-opacity="0"
         id="stop21287-4-1-1-0-7" />
    </radialGradient>
    <marker
       inkscape:stockid="TriangleInS"
       orient="auto"
       refY="0"
       refX="0"
       id="TriangleInS-3-4"
       style="overflow:visible"
       inkscape:isstock="true">
      <path
         inkscape:connector-curvature="0"
         id="path4325-29-1"
         d="M 5.77,0 -2.88,5 V -5 Z"
         style="fill:#ffffff;fill-opacity:1;fill-rule:evenodd;stroke:#ffffff;stroke-width:1.00000003pt;stroke-opacity:1"
         transform="scale(-0.2)" />
    </marker>
    <marker
       inkscape:stockid="TriangleInS"
       orient="auto"
       refY="0"
       refX="0"
       id="TriangleInS-2-4"
       style="overflow:visible"
       inkscape:isstock="true">
      <path
         inkscape:connector-curvature="0"
         id="path4325-05-2"
         d="M 5.77,0 -2.88,5 V -5 Z"
         style="fill:#ffffff;fill-opacity:1;fill-rule:evenodd;stroke:#ffffff;stroke-width:1.00000003pt;stroke-opacity:1"
         transform="scale(-0.2)" />
    </marker>
    <marker
       inkscape:stockid="TriangleInS"
       orient="auto"
       refY="0"
       refX="0"
       id="TriangleInS-2-6"
       style="overflow:visible"
       inkscape:isstock="true">
      <path
         inkscape:connector-curvature="0"
         id="path4325-05-5"
         d="M 5.77,0 -2.88,5 V -5 Z"
         style="fill:#ffffff;fill-opacity:1;fill-rule:evenodd;stroke:#ffffff;stroke-width:1.00000003pt;stroke-opacity:1"
         transform="scale(-0.2)" />
    </marker>
    <marker
       inkscape:stockid="TriangleInS"
       orient="auto"
       refY="0"
       refX="0"
       id="TriangleInS-3"
       style="overflow:visible"
       inkscape:isstock="true">
      <path
         inkscape:connector-curvature="0"
         id="path4325-29"
         d="M 5.77,0 -2.88,5 V -5 Z"
         style="fill:#ffffff;fill-opacity:1;fill-rule:evenodd;stroke:#ffffff;stroke-width:1.00000003pt;stroke-opacity:1"
         transform="scale(-0.2)" />
    </marker>
    <marker
       inkscape:stockid="TriangleInS"
       orient="auto"
       refY="0"
       refX="0"
       id="TriangleInS-2"
       style="overflow:visible"
       inkscape:isstock="true">
      <path
         inkscape:connector-curvature="0"
         id="path4325-05"
         d="M 5.77,0 -2.88,5 V -5 Z"
         style="fill:#ffffff;fill-opacity:1;fill-rule:evenodd;stroke:#ffffff;stroke-width:1.00000003pt;stroke-opacity:1"
         transform="scale(-0.2)" />
    </marker>
    <marker
       inkscape:stockid="TriangleInS"
       orient="auto"
       refY="0"
       refX="0"
       id="TriangleInS"
       style="overflow:visible"
       inkscape:isstock="true">
      <path
         id="path4325"
         d="M 5.77,0 -2.88,5 V -5 Z"
         style="fill:#ffffff;fill-opacity:1;fill-rule:evenodd;stroke:#ffffff;stroke-width:1.00000003pt;stroke-opacity:1"
         transform="scale(-0.2)"
         inkscape:connector-curvature="0" />
    </marker>
    <marker
       inkscape:stockid="StopL"
       orient="auto"
       refY="0"
       refX="0"
       id="marker4478-0"
       style="overflow:visible"
       inkscape:isstock="true"
       inkscape:collect="always">
      <path
         id="path4476-2"
         d="M 0,5.65 V -5.65"
         style="fill:none;fill-opacity:0.75;fill-rule:evenodd;stroke:#000000;stroke-width:1.00000003pt;stroke-opacity:1"
         transform="scale(0.8)"
         inkscape:connector-curvature="0" />
    </marker>
    <marker
       inkscape:stockid="StopL"
       orient="auto"
       refY="0"
       refX="0"
       id="StopL-8"
       style="overflow:visible"
       inkscape:isstock="true"
       inkscape:collect="always">
      <path
         id="path4355-8"
         d="M 0,5.65 V -5.65"
         style="fill:none;fill-opacity:0.75;fill-rule:evenodd;stroke:#000000;stroke-width:1.00000003pt;stroke-opacity:1"
         transform="scale(0.8)"
         inkscape:connector-curvature="0" />
    </marker>
    <marker
       inkscape:stockid="TriangleOutS"
       orient="auto"
       refY="0"
       refX="0"
       id="TriangleOutS-7-8"
       style="overflow:visible"
       inkscape:isstock="true">
      <path
         id="path5728-7-8"
         d="M 5.77,0 -2.88,5 V -5 Z"
         style="fill:#000000;fill-opacity:1;fill-rule:evenodd;stroke:#000000;stroke-width:1.00000003pt;stroke-opacity:1"
         transform="scale(0.2)"
         inkscape:connector-curvature="0" />
    </marker>
    <marker
       inkscape:stockid="StopM"
       orient="auto"
       refY="0"
       refX="0"
       id="StopM"
       style="overflow:visible"
       inkscape:isstock="true">
      <path
         inkscape:connector-curvature="0"
         id="path4358"
         d="M 0,5.65 V -5.65"
         style="fill:none;fill-opacity:0.75;fill-rule:evenodd;stroke:#000000;stroke-width:1.00000003pt;stroke-opacity:1"
         transform="scale(0.4)" />
    </marker>
    <marker
       inkscape:stockid="StopM"
       orient="auto"
       refY="0"
       refX="0"
       id="marker446"
       style="overflow:visible"
       inkscape:isstock="true">
      <path
         inkscape:connector-curvature="0"
         id="path444"
         d="M 0,5.65 V -5.65"
         style="fill:none;fill-opacity:0.75;fill-rule:evenodd;stroke:#000000;stroke-width:1.00000003pt;stroke-opacity:1"
         transform="scale(0.4)" />
    </marker>
    <meshgradient
       inkscape:collect="always"
       id="meshgradient4598"
       gradientUnits="userSpaceOnUse"
       x="25.345156"
       y="208.65085"
       gradientTransform="translate(-15.768902,-84.45717)">
      <meshrow
         id="meshrow9732">
        <meshpatch
           id="meshpatch9734">
          <stop
             path="c 1.97513,0  3.95025,0  5.92538,-2.84217e-14"
             style="stop-color:#ffffff;stop-opacity:1"
             id="stop9736" />
          <stop
             path="c 0,7.9455  0,15.8909  0,23.8364"
             style="stop-color:#ff0000;stop-opacity:1"
             id="stop9738" />
          <stop
             path="c -1.97513,-2.84217e-14  -3.95025,-2.84217e-14  -5.92538,-2.84217e-14"
             style="stop-color:#dfdfdf;stop-opacity:1"
             id="stop9740" />
          <stop
             path="c 0,-7.94547  0,-15.8909  0,-23.8364"
             style="stop-color:#dbdbdb;stop-opacity:1"
             id="stop9742" />
        </meshpatch>
        <meshpatch
           id="meshpatch9744">
          <stop
             path="c 2.98451,0  7.02736,0  10.0119,0"
             id="stop9746" />
          <stop
             path="c 2.75144e-05,7.9455  2.50288e-05,15.8909  -7.45684e-06,23.8364"
             style="stop-color:#0000ff;stop-opacity:1"
             id="stop9748" />
          <stop
             path="c -2.98448,0  -7.02731,2.84217e-14  -10.0119,0"
             style="stop-color:#e5e5e5;stop-opacity:1"
             id="stop9750" />
        </meshpatch>
        <meshpatch
           id="meshpatch9752">
          <stop
             path="c 3.47452,2.84217e-14  5.89068,2.84217e-14  9.3652,2.84217e-14"
             id="stop9754" />
          <stop
             path="c 0,7.94549  0,15.8909  0,23.8364"
             style="stop-color:#ff0000;stop-opacity:1"
             id="stop9756" />
          <stop
             path="c -3.4745,-2.84217e-14  -5.89065,-8.52651e-14  -9.36521,-2.84217e-14"
             style="stop-color:#ececec;stop-opacity:1"
             id="stop9758" />
        </meshpatch>
        <meshpatch
           id="meshpatch9760">
          <stop
             path="c 3.20724,0  6.94366,0  10.1508,0"
             id="stop9762" />
          <stop
             path="c 2.72493e-05,7.94548  3.11652e-05,15.8909  1.17479e-05,23.8364"
             style="stop-color:#0000ff;stop-opacity:1"
             id="stop9764" />
          <stop
             path="c -3.20723,2.84217e-14  -6.94365,2.84217e-14  -10.1508,0"
             style="stop-color:#f3f3f3;stop-opacity:1"
             id="stop9766" />
        </meshpatch>
        <meshpatch
           id="meshpatch9768">
          <stop
             path="c 3.51907,0  6.50896,0  10.0281,0"
             id="stop9770" />
          <stop
             path="c 1.65889e-06,7.94547  3.31779e-06,15.8909  4.97668e-06,23.8364"
             style="stop-color:#ff0000;stop-opacity:1"
             id="stop9772" />
          <stop
             path="c -3.51905,0  -6.50893,0  -10.0281,0"
             style="stop-color:#fbfbfb;stop-opacity:1"
             id="stop9774" />
        </meshpatch>
        <meshpatch
           id="meshpatch9776">
          <stop
             path="c 1.7878,0  3.57561,0  5.36341,0"
             id="stop9778" />
          <stop
             path="c 0,7.94547  0,15.8909  0,23.8364"
             style="stop-color:#dbdbdb;stop-opacity:1"
             id="stop9780" />
          <stop
             path="c -1.7878,-2.84217e-14  -3.5756,-2.84217e-14  -5.36341,0"
             style="stop-color:#ffffff;stop-opacity:1"
             id="stop9782" />
        </meshpatch>
      </meshrow>
    </meshgradient>
    <meshgradient
       inkscape:collect="always"
       id="meshgradient10877"
       gradientUnits="userSpaceOnUse"
       x="25.345135"
       y="194.02899"
       gradientTransform="translate(-15.768902,-84.45717)">
      <meshrow
         id="meshrow62783">
        <meshpatch
           id="meshpatch62785">
          <stop
             path="l 19.6593,0.118314"
             style="stop-color:#ffffff;stop-opacity:1"
             id="stop62787" />
          <stop
             path="c -4.2492,4.9458  -9.09961,9.5575  -13.3489,14.5034"
             style="stop-color:#ff0000;stop-opacity:1"
             id="stop62789" />
          <stop
             path="l -6.31037,0"
             style="stop-color:#ff0000;stop-opacity:1"
             id="stop62791" />
          <stop
             path="l -3e-05,-14.6217"
             style="stop-color:#e4e4e4;stop-opacity:1"
             id="stop62793" />
        </meshpatch>
        <meshpatch
           id="meshpatch62795">
          <stop
             path="l 9.40434,0.0130076"
             id="stop62797" />
          <stop
             path="l -12.6424,14.4906"
             style="stop-color:#0000ff;stop-opacity:1"
             id="stop62799" />
          <stop
             path="l -10.1109,-0.000208"
             style="stop-color:#0000ff;stop-opacity:1"
             id="stop62801" />
        </meshpatch>
        <meshpatch
           id="meshpatch62803">
          <stop
             path="l 9.4715,-0.170276"
             id="stop62805" />
          <stop
             path="l -12.9348,14.6833"
             style="stop-color:#ff0000;stop-opacity:1"
             id="stop62807" />
          <stop
             path="l -9.17906,-0.022423"
             style="stop-color:#ff0000;stop-opacity:1"
             id="stop62809" />
        </meshpatch>
        <meshpatch
           id="meshpatch62811">
          <stop
             path="l 11.8368,-0.111842"
             id="stop62813" />
          <stop
             path="c -4.67083,4.92437  -9.34167,9.84873  -14.0125,14.7731"
             style="stop-color:#0000ff;stop-opacity:1"
             id="stop62815" />
          <stop
             path="l -10.7591,0.022042"
             style="stop-color:#0000ff;stop-opacity:1"
             id="stop62817" />
        </meshpatch>
        <meshpatch
           id="meshpatch62819">
          <stop
             path="l 8.59755,0.303684"
             id="stop62821" />
          <stop
             path="c -4.62317,4.80727  -9.24633,9.61453  -13.8695,14.4218"
             style="stop-color:#ff0000;stop-opacity:1"
             id="stop62823" />
          <stop
             path="l -8.74055,0.047616"
             style="stop-color:#ff0000;stop-opacity:1"
             id="stop62825" />
        </meshpatch>
        <meshpatch
           id="meshpatch62827">
          <stop
             path="l 6.55153,-0.152844"
             id="stop62829" />
          <stop
             path="l 0,14.6219"
             style="stop-color:#e4e4e4;stop-opacity:1"
             id="stop62831" />
          <stop
             path="l -20.421,-0.047256"
             style="stop-color:#ffffff;stop-opacity:1"
             id="stop62833" />
        </meshpatch>
      </meshrow>
    </meshgradient>
  </defs>
  <sodipodi:namedview
     id="base"
     pagecolor="#ffffff"
     bordercolor="#666666"
     borderopacity="1.0"
     inkscape:pageopacity="0.0"
     inkscape:pageshadow="2"
     inkscape:zoom="1.979899"
     inkscape:cx="93.543991"
     inkscape:cy="49.135729"
     inkscape:document-units="mm"
     inkscape:current-layer="layer1"
     showgrid="false"
     units="cm"
     inkscape:window-width="2560"
     inkscape:window-height="1377"
     inkscape:window-x="1912"
     inkscape:window-y="-8"
     inkscape:window-maximized="1"
     inkscape:snap-global="false"
     fit-margin-top="0.1"
     fit-margin-left="0.1"
     fit-margin-right="0.1"
     fit-margin-bottom="0.1" />
  <metadata
     id="metadata13435">
    <rdf:RDF>
      <cc:Work
         rdf:about="">
        <dc:format>image/svg+xml</dc:format>
        <dc:type
           rdf:resource="http://purl.org/dc/dcmitype/StillImage" />
        <dc:title />
      </cc:Work>
    </rdf:RDF>
  </metadata>
  <g
     inkscape:label="Layer 1"
     inkscape:groupmode="layer"
     id="layer1"
     transform="translate(-8.426233,-100.86019)">
    <rect
       style="opacity:0.672;fill:url(#meshgradient4598);fill-opacity:1;stroke-width:0.30000001;stroke-miterlimit:7.70731688;stroke-dasharray:none"
       x="9.5762539"
       y="124.19368"
       width="50.844696"
       height="23.836405"
       id="rect4518" />
    <path
       style="fill:#b2b2b2;fill-opacity:1;fill-rule:evenodd;stroke-width:0.30000001;stroke-miterlimit:7.70731688;stroke-dasharray:none"
       inkscape:connector-curvature="0"
       d="m 60.420943,124.19368 14.67716,-14.62186 v 23.83641 l -14.67716,14.62185 z"
       id="path4520" />
    <path
       style="opacity:0.672;fill:url(#meshgradient10877);fill-opacity:1;fill-rule:evenodd;stroke-width:0.30000001;stroke-miterlimit:7.70731688;stroke-dasharray:none"
       inkscape:connector-curvature="0"
       d="m 9.576233,124.19368 14.67716,-14.62186 h 50.84471 l -14.67716,14.62186 z"
       id="path4522" />
    <path
       style="fill:none;fill-rule:evenodd;stroke:#000000;stroke-width:0.30000001;stroke-miterlimit:7.70731688;stroke-dasharray:none"
       inkscape:connector-curvature="0"
       d="m 9.576233,124.19368 14.67716,-14.62186 h 50.84471 v 23.83641 l -14.67716,14.62185 H 9.576233 Z m 0,0 h 50.84471 l 14.67716,-14.62186 m -14.67716,14.62186 v 23.8364"
       stroke-miterlimit="8"
       id="path4524" />
    <g
       id="g582"
       transform="translate(-39.29792,-46.092587)">
      <text
         transform="scale(1.0018938,0.99810978)"
         y="199.76982"
         x="69.943756"
         id="text4554"
         font-size="27"
         font-weight="400"
         style="font-style:normal;font-variant:normal;font-weight:normal;font-stretch:normal;font-size:3.53856969px;font-family:'DejaVu Sans';-inkscape-font-specification:'DejaVu Sans';stroke-width:0.29999998;stroke-miterlimit:7.70731688;stroke-dasharray:none">SAW</text>
      <path
         id="path4556"
         stroke-miterlimit="8"
         d="m 67.363165,201.22356 h 9.68542 v -0.78486 l 3.05129,1.56972 -3.05129,1.56973 v -0.78486 h -9.68542 z"
         inkscape:connector-curvature="0"
         style="fill:#ffffff;fill-rule:evenodd;stroke:#000000;stroke-width:0.30000001;stroke-miterlimit:7.70731688;stroke-dasharray:none" />
    </g>
    <text
       style="font-style:normal;font-variant:normal;font-weight:normal;font-stretch:normal;font-size:3.14539528px;font-family:'DejaVu Sans';-inkscape-font-specification:'DejaVu Sans';stroke-width:0.29999998;stroke-miterlimit:7.70731688;stroke-dasharray:none"
       font-weight="400"
       font-size="24"
       id="text4558"
       x="36.711468"
       y="104.51806"
       transform="scale(1.0018938,0.99810978)">
      <tspan
         style="font-size:3.52777767px;stroke-width:0.29999998"
         id="tspan9043">𝜆</tspan>
    </text>
    <path
       style="fill:none;stroke:#000000;stroke-width:0.39429012;stroke-linecap:butt;stroke-linejoin:miter;stroke-miterlimit:4;stroke-dasharray:none;stroke-opacity:1;marker-start:url(#marker4478-0);marker-end:url(#StopL-8)"
       d="m 46.58102,105.71585 c -19.512238,0 -19.512238,0 -19.512238,0"
       id="path5357-3-0-3-6-9"
       inkscape:connector-curvature="0" />
    <path
       inkscape:tile-y0="20.738332"
       inkscape:tile-x0="30.317496"
       inkscape:connector-curvature="0"
       sodipodi:nodetypes="cccccccccccccccccccccccccccccccccccccccccccccccccccccccccccccccccccc"
       style="fill:none;fill-rule:evenodd;stroke:#000000;stroke-width:0.24074547;stroke-linecap:square;stroke-linejoin:round;stroke-miterlimit:10;stroke-dasharray:none"
       id="use8188"
       stroke-miterlimit="10"
       d="m 9.6092823,129.11689 1.2069727,-1.15164 1.242411,-1.17525 0.621058,-0.52873 0.621062,-0.46093 0.621349,-0.37451 0.621059,-0.27333 0.621356,-0.16116 0.621347,-0.0427 0.621356,0.0777 0.621055,0.19474 0.621069,0.3042 0.621348,0.40148 0.621055,0.48276 0.621355,0.54483 2.484526,2.34637 0.62165,0.51103 0.620764,0.43739 0.621651,0.34635 0.621056,0.24152 0.621346,0.1271 0.621064,0.007 0.621059,-0.1124 0.621355,-0.22774 0.621056,-0.33407 0.621355,-0.42704 0.621058,-0.50288 1.242412,-1.15142 1.242705,-1.19094 0.621058,-0.55095 0.621356,-0.49163 0.621055,-0.41243 0.621348,-0.31708 0.621066,-0.20884 0.621056,-0.0925 0.621348,0.0278 0.621066,0.14682 0.62135,0.25984 0.621061,0.36274 0.621642,0.45108 0.621064,0.52148 1.242405,1.16901 1.242412,1.1808 0.621054,0.53567 0.621362,0.47048 0.621052,0.38609 0.621064,0.28649 0.621347,0.17554 0.621061,0.0575 0.621649,-0.0628 0.621055,-0.18058 0.621355,-0.29123 0.621056,-0.3903 0.621355,-0.4735 0.621058,-0.53829 3.105881,-2.86787 0.621642,-0.44755 0.621064,-0.35853 0.621058,-0.25509 0.621355,-0.14163 0.621055,-0.0223 0.621351,0.0975 0.621063,0.21395 0.62135,0.32151 0.621055,0.41637 0.621062,0.49453 1.242408,1.14277 1.063149,1.10353" />
    <path
       inkscape:tile-y0="20.738332"
       inkscape:tile-x0="30.317496"
       inkscape:connector-curvature="0"
       sodipodi:nodetypes="cccccccccccccccccccccccccccccccccccccccccccccccccccccccccccccccccccc"
       style="fill:none;fill-rule:evenodd;stroke:#000000;stroke-width:0.20788464;stroke-linecap:square;stroke-linejoin:round;stroke-miterlimit:10;stroke-dasharray:none"
       id="use8190"
       stroke-miterlimit="10"
       d="m 9.586288,134.19477 1.243443,-0.87558 1.243446,-0.87559 0.621576,-0.39391 0.621579,-0.3434 0.621866,-0.27902 0.621576,-0.20364 0.621874,-0.12007 0.621865,-0.0318 0.621873,0.0579 0.621572,0.14509 0.621587,0.22663 0.621865,0.29911 0.621572,0.35967 0.621873,0.4059 2.486594,1.74809 0.622168,0.38073 0.621281,0.32586 0.622169,0.25804 0.621573,0.17993 0.621864,0.0947 0.621582,0.005 0.621575,-0.0837 0.621873,-0.16967 0.621573,-0.24889 0.621873,-0.31815 0.621575,-0.37465 1.243446,-0.85784 1.24374,-0.88727 0.621575,-0.41047 0.621874,-0.36627 0.621573,-0.30727 0.621865,-0.23623 0.621584,-0.15558 0.621572,-0.0689 0.621866,0.0207 0.621583,0.10938 0.621868,0.19359 0.621578,0.27025 0.62216,0.33606 0.62158,0.38852 1.243441,0.87093 1.243446,0.87971 0.621572,0.39909 0.62188,0.35051 0.621568,0.28765 0.621582,0.21344 0.621864,0.13078 0.621579,0.0429 0.622166,-0.0468 0.621572,-0.13454 0.621872,-0.21697 0.621574,-0.29078 0.621873,-0.35277 0.621575,-0.40103 3.108467,-2.13662 0.62216,-0.33343 0.621581,-0.26711 0.621575,-0.19005 0.621873,-0.10552 0.621573,-0.0166 0.621868,0.0726 0.621581,0.1594 0.621867,0.23952 0.621572,0.31021 0.621579,0.36843 1.243443,0.85138 1.028358,0.80296" />
    <path
       inkscape:tile-y0="20.738332"
       inkscape:tile-x0="30.317496"
       inkscape:connector-curvature="0"
       sodipodi:nodetypes="cccccccccccccccccccccccccccccccccccccccccccccccccccccccccccccccccccc"
       style="fill:none;fill-rule:evenodd;stroke:#000000;stroke-width:0.17950919;stroke-linecap:square;stroke-linejoin:round;stroke-miterlimit:10;stroke-dasharray:none"
       id="use8192"
       stroke-miterlimit="10"
       d="m 9.560064,138.47497 1.244479,-0.65233 1.244481,-0.65233 0.622093,-0.29347 0.622097,-0.25584 0.622384,-0.20787 0.622094,-0.15171 0.622391,-0.0895 0.622383,-0.0237 0.622391,0.0431 0.62209,0.10809 0.622104,0.16885 0.622384,0.22284 0.622089,0.26796 0.622391,0.3024 2.488666,1.30237 0.622686,0.28364 0.621798,0.24278 0.622687,0.19224 0.622091,0.13406 0.622382,0.0705 0.622099,0.004 0.622093,-0.0624 0.622391,-0.12641 0.622091,-0.18543 0.62239,-0.23703 0.622093,-0.27912 1.244482,-0.6391 1.244776,-0.66103 0.622093,-0.30581 0.622391,-0.27288 0.622091,-0.22892 0.622383,-0.176 0.622101,-0.11591 0.62209,-0.0513 0.622384,0.0154 0.622101,0.0815 0.622386,0.14423 0.622096,0.20134 0.622677,0.25037 0.622099,0.28945 1.244476,0.64886 1.244482,0.6554 0.622089,0.29733 0.622398,0.26114 0.622086,0.2143 0.622099,0.15902 0.622382,0.0974 0.622096,0.0319 0.622685,-0.0348 0.62209,-0.10023 0.62239,-0.16165 0.622091,-0.21664 0.622391,-0.26281 0.622093,-0.29878 3.111056,-1.59182 0.622678,-0.24842 0.622099,-0.199 0.622093,-0.14159 0.62239,-0.0786 0.622091,-0.0124 0.622386,0.0541 0.622098,0.11876 0.622385,0.17845 0.62209,0.23111 0.622096,0.27449 1.244479,0.6343 0.94632,0.56673" />
    <path
       inkscape:tile-y0="20.738332"
       inkscape:tile-x0="30.317496"
       inkscape:connector-curvature="0"
       sodipodi:nodetypes="cccccccccccccccccccccccccccccccccccccccccccccccccccccccccccccccccccc"
       style="fill:none;fill-rule:evenodd;stroke:#000000;stroke-width:0.15500689;stroke-linecap:square;stroke-linejoin:round;stroke-miterlimit:10;stroke-dasharray:none"
       id="use8194"
       stroke-miterlimit="10"
       d="m 9.588684,142.62308 1.245515,-0.486 1.245517,-0.48599 0.622612,-0.21865 0.622615,-0.1906 0.622902,-0.15487 0.622612,-0.11303 0.62291,-0.0666 0.622901,-0.0177 0.622909,0.0321 0.622608,0.0805 0.622623,0.1258 0.622902,0.16602 0.622607,0.19963 0.622909,0.2253 2.490739,0.97028 0.623204,0.21132 0.622316,0.18088 0.623206,0.14322 0.622609,0.0999 0.6229,0.0526 0.622617,0.003 0.622612,-0.0465 0.622908,-0.0942 0.622609,-0.13815 0.62291,-0.17659 0.622611,-0.20795 1.245518,-0.47614 1.245813,-0.49249 0.62261,-0.22783 0.622911,-0.2033 0.622608,-0.17055 0.622902,-0.13112 0.622619,-0.0864 0.622608,-0.0382 0.622902,0.0115 0.622619,0.0607 0.622904,0.10745 0.622614,0.15 0.623196,0.18653 0.622617,0.21565 1.245512,0.48341 1.245519,0.48829 0.622607,0.22151 0.622916,0.19456 0.622604,0.15965 0.622618,0.11847 0.622901,0.0726 0.622614,0.0238 0.623203,-0.0259 0.622608,-0.0747 0.622908,-0.12043 0.622609,-0.1614 0.62291,-0.19581 0.62261,-0.22259 3.113648,-1.18594 0.623196,-0.18507 0.622617,-0.14826 0.622611,-0.10549 0.622909,-0.0586 0.622609,-0.009 0.622904,0.0403 0.622617,0.0885 0.622903,0.13294 0.622608,0.17219 0.622614,0.2045 1.245515,0.47256 0.852472,0.39919" />
    <path
       inkscape:tile-y0="20.738332"
       inkscape:tile-x0="30.317496"
       inkscape:connector-curvature="0"
       sodipodi:nodetypes="cccccccccccccccccccccccccccccccccccccccccccccccccccccccccccccccccccc"
       style="fill:none;fill-rule:evenodd;stroke:#000000;stroke-width:0.13384904;stroke-linecap:square;stroke-linejoin:round;stroke-miterlimit:10;stroke-dasharray:none"
       id="use8196"
       stroke-miterlimit="10"
       d="m 9.520417,146.22894 1.199306,-0.34436 1.246555,-0.36207 0.62313,-0.16289 0.623133,-0.14201 0.623422,-0.11538 0.62313,-0.0842 0.623429,-0.0496 0.623419,-0.0132 0.623428,0.0239 0.623127,0.06 0.623141,0.0937 0.623421,0.12369 0.623126,0.14873 0.623428,0.16785 2.492812,0.72288 0.623724,0.15744 0.622835,0.13475 0.623724,0.1067 0.623128,0.0744 0.623419,0.0392 0.623135,0.002 0.623131,-0.0346 0.623427,-0.0702 0.623127,-0.10292 0.623428,-0.13157 0.62313,-0.15492 1.246555,-0.35474 1.246851,-0.36691 0.623129,-0.16974 0.623429,-0.15146 0.623127,-0.12706 0.62342,-0.0977 0.623138,-0.0643 0.623127,-0.0285 0.62342,0.009 0.623138,0.0452 0.623423,0.0801 0.623133,0.11175 0.623715,0.13897 0.623135,0.16066 1.24655,0.36015 1.246556,0.36379 0.623125,0.16503 0.623435,0.14494 0.623123,0.11895 0.623136,0.0883 0.62342,0.0541 0.623132,0.0177 0.623722,-0.0193 0.623127,-0.0556 0.623427,-0.0897 0.623128,-0.12025 0.623428,-0.14588 0.623129,-0.16584 3.116241,-0.88354 0.623715,-0.13788 0.623136,-0.11046 0.623129,-0.0786 0.623428,-0.0436 0.623127,-0.007 0.623423,0.03 0.623135,0.0659 0.623422,0.0991 0.623127,0.12828 0.623133,0.15236 1.246552,0.35206 0.912177,0.31988" />
    <path
       inkscape:tile-y0="20.738332"
       inkscape:tile-x0="30.317496"
       inkscape:connector-curvature="0"
       sodipodi:nodetypes="cccccccccccccccccccccccccccccccccccccccccccccccccccccccccccccccccccc"
       style="fill:none;fill-rule:evenodd;stroke:#000000;stroke-width:0.2012078;stroke-linecap:square;stroke-linejoin:round;stroke-miterlimit:10;stroke-dasharray:none"
       id="use4499"
       stroke-miterlimit="10"
       d="m 12.813873,121.00095 1.28067,-0.7964 1.280676,-0.79641 0.640184,-0.35828 0.64019,-0.31236 0.640484,-0.25378 0.640187,-0.18521 0.640492,-0.1092 0.640483,-0.029 0.640492,0.0526 0.640183,0.13196 0.640196,0.20613 0.640484,0.27208 0.64018,0.32713 0.640494,0.3692 2.561044,1.59001 0.640794,0.34628 0.639882,0.29639 0.640796,0.2347 0.640184,0.16367 0.640483,0.0862 0.64019,0.005 0.640186,-0.0762 0.640492,-0.15433 0.640182,-0.22637 0.640493,-0.28939 0.640185,-0.34076 1.280675,-0.78027 1.280977,-0.80701 0.640184,-0.37335 0.640494,-0.33315 0.640182,-0.27947 0.640483,-0.21488 0.640194,-0.14153 0.640182,-0.0626 0.640484,0.0189 0.640194,0.0995 0.640487,0.17607 0.640188,0.24582 0.640787,0.30566 0.640191,0.35338 1.280668,0.79217 1.280676,0.80015 0.640181,0.36301 0.640498,0.3188 0.640178,0.26165 0.640193,0.19412 0.640483,0.11896 0.640188,0.0389 0.640795,-0.0425 0.640182,-0.12235 0.64049,-0.19736 0.640183,-0.26449 0.640492,-0.32086 0.640185,-0.36477 3.201535,-1.94339 0.640787,-0.30329 0.640192,-0.24293 0.640185,-0.17288 0.640492,-0.096 0.640182,-0.0151 0.640486,0.066 0.640191,0.14498 0.640487,0.21786 0.64018,0.28216 0.640191,0.33511 1.280672,0.7744 0.379981,0.26371" />
    <path
       d="m 17.81067,116.14404 1.247984,-0.61689 1.247991,-0.61689 0.623844,-0.27752 0.623851,-0.24194 0.624137,-0.19658 0.623849,-0.14347 0.624144,-0.0847 0.624136,-0.0225 0.624147,0.0408 0.623843,0.10222 0.623858,0.15965 0.624137,0.21075 0.623841,0.2534 0.624148,0.28598 2.495678,1.23161 0.624442,0.26823 0.623549,0.22958 0.624442,0.18179 0.623844,0.12678 0.624136,0.0669 0.623852,0.004 0.623847,-0.0591 0.624145,-0.11954 0.623842,-0.17535 0.624148,-0.22416 0.623846,-0.26395 1.247988,-0.60439 1.248284,-0.62511 0.623846,-0.28919 0.624146,-0.25806 0.623843,-0.21647 0.624138,-0.16645 0.623854,-0.10962 0.623843,-0.0485 0.624137,0.0146 0.623855,0.0771 0.62414,0.13639 0.623848,0.1904 0.624433,0.23678 0.623852,0.27371 1.247982,0.61361 1.24799,0.6198 0.623844,0.28119 0.624151,0.24693 0.623838,0.20268 0.623854,0.15036 0.624136,0.0922 0.623849,0.0302 0.62444,-0.033 0.623844,-0.0948 0.624143,-0.15287 0.623844,-0.20487 0.624145,-0.24855 0.623846,-0.28253 3.119826,-1.50535 0.624432,-0.23493 0.623851,-0.18817 0.623847,-0.13392 0.624146,-0.0744 0.623841,-0.0117 0.62414,0.0512 0.623853,0.11228 0.62414,0.16876 0.623842,0.21857 0.623851,0.25955 1.247986,0.59986 0.902517,0.47434"
       stroke-miterlimit="10"
       id="path62844"
       style="fill:none;fill-rule:evenodd;stroke:#000000;stroke-width:0.17481053;stroke-linecap:square;stroke-linejoin:round;stroke-miterlimit:10;stroke-dasharray:none"
       sodipodi:nodetypes="cccccccccccccccccccccccccccccccccccccccccccccccccccccccccccccccccccc"
       inkscape:connector-curvature="0"
       inkscape:tile-x0="30.317496"
       inkscape:tile-y0="20.738332" />
    <path
       inkscape:tile-y0="20.738332"
       inkscape:tile-x0="30.317496"
       inkscape:connector-curvature="0"
       sodipodi:nodetypes="cccccccccccccccccccccccccccccccccccccccccccccccccccccccccccccccccccc"
       style="fill:none;fill-rule:evenodd;stroke:#000000;stroke-width:0.17720872;stroke-linecap:square;stroke-linejoin:round;stroke-miterlimit:10;stroke-dasharray:none"
       id="path62846"
       stroke-miterlimit="10"
       d="m 21.374473,112.52402 1.246088,-0.63489 1.246095,-0.6349 0.622896,-0.28562 0.622903,-0.24901 0.623189,-0.20232 0.622901,-0.14766 0.623197,-0.0871 0.623187,-0.0232 0.623197,0.042 0.622896,0.10521 0.62291,0.16431 0.623188,0.2169 0.622894,0.26079 0.623199,0.29433 2.491888,1.26756 0.623492,0.27606 0.622601,0.23628 0.623493,0.1871 0.622897,0.13047 0.623188,0.0688 0.622904,0.004 0.622899,-0.0608 0.623197,-0.12303 0.622894,-0.18047 0.623198,-0.23069 0.622899,-0.27166 1.246092,-0.62204 1.246389,-0.64335 0.622897,-0.29764 0.623198,-0.26558 0.622894,-0.2228 0.62319,-0.1713 0.622906,-0.11282 0.622895,-0.0499 0.623189,0.0151 0.622907,0.0794 0.623192,0.14037 0.622901,0.19596 0.623485,0.24368 0.622903,0.28172 1.246086,0.63152 1.246094,0.63789 0.622895,0.28939 0.623203,0.25414 0.62289,0.20859 0.622906,0.15475 0.623188,0.0949 0.622901,0.0311 0.623491,-0.0339 0.622897,-0.0976 0.623195,-0.15733 0.622896,-0.21085 0.623197,-0.2558 0.622897,-0.29078 3.115085,-1.54929 0.623484,-0.24179 0.622904,-0.19367 0.622899,-0.13781 0.623197,-0.0766 0.622894,-0.012 0.623191,0.0527 0.622906,0.11557 0.62319,0.17368 0.622895,0.22494 0.622904,0.26715 1.246088,0.61735 0.99321,0.57024" />
  </g>
</svg>
