<?xml version="1.0" encoding="utf-8" standalone="no"?>
<!DOCTYPE svg PUBLIC "-//W3C//DTD SVG 1.1//EN"
  "http://www.w3.org/Graphics/SVG/1.1/DTD/svg11.dtd">
<svg xmlns:xlink="http://www.w3.org/1999/xlink" width="460.8pt" height="345.6pt" viewBox="0 0 460.8 345.6" xmlns="http://www.w3.org/2000/svg" version="1.1">
 <metadata>
  <rdf:RDF xmlns:dc="http://purl.org/dc/elements/1.1/" xmlns:cc="http://creativecommons.org/ns#" xmlns:rdf="http://www.w3.org/1999/02/22-rdf-syntax-ns#">
   <cc:Work>
    <dc:type rdf:resource="http://purl.org/dc/dcmitype/StillImage"/>
    <dc:date>2024-06-29T14:21:01.598590</dc:date>
    <dc:format>image/svg+xml</dc:format>
    <dc:creator>
     <cc:Agent>
      <dc:title>Matplotlib v3.7.0, https://matplotlib.org/</dc:title>
     </cc:Agent>
    </dc:creator>
   </cc:Work>
  </rdf:RDF>
 </metadata>
 <defs>
  <style type="text/css">*{stroke-linejoin: round; stroke-linecap: butt}</style>
 </defs>
 <g id="figure_1">
  <g id="patch_1">
   <path d="M 0 345.6 
L 460.8 345.6 
L 460.8 0 
L 0 0 
z
" style="fill: #ffffff"/>
  </g>
  <g id="axes_1">
   <g id="patch_2">
    <path d="M 57.6 307.584 
L 414.72 307.584 
L 414.72 41.472 
L 57.6 41.472 
z
" style="fill: #ffffff"/>
   </g>
   <g id="matplotlib.axis_1">
    <g id="xtick_1">
     <g id="line2d_1">
      <defs>
       <path id="md6891bb16a" d="M 0 0 
L 0 3.5 
" style="stroke: #000000; stroke-width: 0.8"/>
      </defs>
      <g>
       <use xlink:href="#md6891bb16a" x="86.202998" y="307.584" style="stroke: #000000; stroke-width: 0.8"/>
      </g>
     </g>
     <g id="text_1">
      <!-- −4 -->
      <g transform="translate(78.831904 322.182437) scale(0.1 -0.1)">
       <defs>
        <path id="DejaVuSans-2212" d="M 678 2272 
L 4684 2272 
L 4684 1741 
L 678 1741 
L 678 2272 
z
" transform="scale(0.015625)"/>
        <path id="DejaVuSans-34" d="M 2419 4116 
L 825 1625 
L 2419 1625 
L 2419 4116 
z
M 2253 4666 
L 3047 4666 
L 3047 1625 
L 3713 1625 
L 3713 1100 
L 3047 1100 
L 3047 0 
L 2419 0 
L 2419 1100 
L 313 1100 
L 313 1709 
L 2253 4666 
z
" transform="scale(0.015625)"/>
       </defs>
       <use xlink:href="#DejaVuSans-2212"/>
       <use xlink:href="#DejaVuSans-34" x="83.789062"/>
      </g>
     </g>
    </g>
    <g id="xtick_2">
     <g id="line2d_2">
      <g>
       <use xlink:href="#md6891bb16a" x="133.387521" y="307.584" style="stroke: #000000; stroke-width: 0.8"/>
      </g>
     </g>
     <g id="text_2">
      <!-- −2 -->
      <g transform="translate(126.016427 322.182437) scale(0.1 -0.1)">
       <defs>
        <path id="DejaVuSans-32" d="M 1228 531 
L 3431 531 
L 3431 0 
L 469 0 
L 469 531 
Q 828 903 1448 1529 
Q 2069 2156 2228 2338 
Q 2531 2678 2651 2914 
Q 2772 3150 2772 3378 
Q 2772 3750 2511 3984 
Q 2250 4219 1831 4219 
Q 1534 4219 1204 4116 
Q 875 4013 500 3803 
L 500 4441 
Q 881 4594 1212 4672 
Q 1544 4750 1819 4750 
Q 2544 4750 2975 4387 
Q 3406 4025 3406 3419 
Q 3406 3131 3298 2873 
Q 3191 2616 2906 2266 
Q 2828 2175 2409 1742 
Q 1991 1309 1228 531 
z
" transform="scale(0.015625)"/>
       </defs>
       <use xlink:href="#DejaVuSans-2212"/>
       <use xlink:href="#DejaVuSans-32" x="83.789062"/>
      </g>
     </g>
    </g>
    <g id="xtick_3">
     <g id="line2d_3">
      <g>
       <use xlink:href="#md6891bb16a" x="180.572044" y="307.584" style="stroke: #000000; stroke-width: 0.8"/>
      </g>
     </g>
     <g id="text_3">
      <!-- 0 -->
      <g transform="translate(177.390794 322.182437) scale(0.1 -0.1)">
       <defs>
        <path id="DejaVuSans-30" d="M 2034 4250 
Q 1547 4250 1301 3770 
Q 1056 3291 1056 2328 
Q 1056 1369 1301 889 
Q 1547 409 2034 409 
Q 2525 409 2770 889 
Q 3016 1369 3016 2328 
Q 3016 3291 2770 3770 
Q 2525 4250 2034 4250 
z
M 2034 4750 
Q 2819 4750 3233 4129 
Q 3647 3509 3647 2328 
Q 3647 1150 3233 529 
Q 2819 -91 2034 -91 
Q 1250 -91 836 529 
Q 422 1150 422 2328 
Q 422 3509 836 4129 
Q 1250 4750 2034 4750 
z
" transform="scale(0.015625)"/>
       </defs>
       <use xlink:href="#DejaVuSans-30"/>
      </g>
     </g>
    </g>
    <g id="xtick_4">
     <g id="line2d_4">
      <g>
       <use xlink:href="#md6891bb16a" x="227.756566" y="307.584" style="stroke: #000000; stroke-width: 0.8"/>
      </g>
     </g>
     <g id="text_4">
      <!-- 2 -->
      <g transform="translate(224.575316 322.182437) scale(0.1 -0.1)">
       <use xlink:href="#DejaVuSans-32"/>
      </g>
     </g>
    </g>
    <g id="xtick_5">
     <g id="line2d_5">
      <g>
       <use xlink:href="#md6891bb16a" x="274.941089" y="307.584" style="stroke: #000000; stroke-width: 0.8"/>
      </g>
     </g>
     <g id="text_5">
      <!-- 4 -->
      <g transform="translate(271.759839 322.182437) scale(0.1 -0.1)">
       <use xlink:href="#DejaVuSans-34"/>
      </g>
     </g>
    </g>
    <g id="xtick_6">
     <g id="line2d_6">
      <g>
       <use xlink:href="#md6891bb16a" x="322.125612" y="307.584" style="stroke: #000000; stroke-width: 0.8"/>
      </g>
     </g>
     <g id="text_6">
      <!-- 6 -->
      <g transform="translate(318.944362 322.182437) scale(0.1 -0.1)">
       <defs>
        <path id="DejaVuSans-36" d="M 2113 2584 
Q 1688 2584 1439 2293 
Q 1191 2003 1191 1497 
Q 1191 994 1439 701 
Q 1688 409 2113 409 
Q 2538 409 2786 701 
Q 3034 994 3034 1497 
Q 3034 2003 2786 2293 
Q 2538 2584 2113 2584 
z
M 3366 4563 
L 3366 3988 
Q 3128 4100 2886 4159 
Q 2644 4219 2406 4219 
Q 1781 4219 1451 3797 
Q 1122 3375 1075 2522 
Q 1259 2794 1537 2939 
Q 1816 3084 2150 3084 
Q 2853 3084 3261 2657 
Q 3669 2231 3669 1497 
Q 3669 778 3244 343 
Q 2819 -91 2113 -91 
Q 1303 -91 875 529 
Q 447 1150 447 2328 
Q 447 3434 972 4092 
Q 1497 4750 2381 4750 
Q 2619 4750 2861 4703 
Q 3103 4656 3366 4563 
z
" transform="scale(0.015625)"/>
       </defs>
       <use xlink:href="#DejaVuSans-36"/>
      </g>
     </g>
    </g>
    <g id="xtick_7">
     <g id="line2d_7">
      <g>
       <use xlink:href="#md6891bb16a" x="369.310135" y="307.584" style="stroke: #000000; stroke-width: 0.8"/>
      </g>
     </g>
     <g id="text_7">
      <!-- 8 -->
      <g transform="translate(366.128885 322.182437) scale(0.1 -0.1)">
       <defs>
        <path id="DejaVuSans-38" d="M 2034 2216 
Q 1584 2216 1326 1975 
Q 1069 1734 1069 1313 
Q 1069 891 1326 650 
Q 1584 409 2034 409 
Q 2484 409 2743 651 
Q 3003 894 3003 1313 
Q 3003 1734 2745 1975 
Q 2488 2216 2034 2216 
z
M 1403 2484 
Q 997 2584 770 2862 
Q 544 3141 544 3541 
Q 544 4100 942 4425 
Q 1341 4750 2034 4750 
Q 2731 4750 3128 4425 
Q 3525 4100 3525 3541 
Q 3525 3141 3298 2862 
Q 3072 2584 2669 2484 
Q 3125 2378 3379 2068 
Q 3634 1759 3634 1313 
Q 3634 634 3220 271 
Q 2806 -91 2034 -91 
Q 1263 -91 848 271 
Q 434 634 434 1313 
Q 434 1759 690 2068 
Q 947 2378 1403 2484 
z
M 1172 3481 
Q 1172 3119 1398 2916 
Q 1625 2713 2034 2713 
Q 2441 2713 2670 2916 
Q 2900 3119 2900 3481 
Q 2900 3844 2670 4047 
Q 2441 4250 2034 4250 
Q 1625 4250 1398 4047 
Q 1172 3844 1172 3481 
z
" transform="scale(0.015625)"/>
       </defs>
       <use xlink:href="#DejaVuSans-38"/>
      </g>
     </g>
    </g>
   </g>
   <g id="matplotlib.axis_2">
    <g id="ytick_1">
     <g id="line2d_8">
      <defs>
       <path id="me523c1c392" d="M 0 0 
L -3.5 0 
" style="stroke: #000000; stroke-width: 0.8"/>
      </defs>
      <g>
       <use xlink:href="#me523c1c392" x="57.6" y="285.613717" style="stroke: #000000; stroke-width: 0.8"/>
      </g>
     </g>
     <g id="text_8">
      <!-- 0 -->
      <g transform="translate(44.2375 289.412936) scale(0.1 -0.1)">
       <use xlink:href="#DejaVuSans-30"/>
      </g>
     </g>
    </g>
    <g id="ytick_2">
     <g id="line2d_9">
      <g>
       <use xlink:href="#me523c1c392" x="57.6" y="236.242288" style="stroke: #000000; stroke-width: 0.8"/>
      </g>
     </g>
     <g id="text_9">
      <!-- 5 -->
      <g transform="translate(44.2375 240.041507) scale(0.1 -0.1)">
       <defs>
        <path id="DejaVuSans-35" d="M 691 4666 
L 3169 4666 
L 3169 4134 
L 1269 4134 
L 1269 2991 
Q 1406 3038 1543 3061 
Q 1681 3084 1819 3084 
Q 2600 3084 3056 2656 
Q 3513 2228 3513 1497 
Q 3513 744 3044 326 
Q 2575 -91 1722 -91 
Q 1428 -91 1123 -41 
Q 819 9 494 109 
L 494 744 
Q 775 591 1075 516 
Q 1375 441 1709 441 
Q 2250 441 2565 725 
Q 2881 1009 2881 1497 
Q 2881 1984 2565 2268 
Q 2250 2553 1709 2553 
Q 1456 2553 1204 2497 
Q 953 2441 691 2322 
L 691 4666 
z
" transform="scale(0.015625)"/>
       </defs>
       <use xlink:href="#DejaVuSans-35"/>
      </g>
     </g>
    </g>
    <g id="ytick_3">
     <g id="line2d_10">
      <g>
       <use xlink:href="#me523c1c392" x="57.6" y="186.870859" style="stroke: #000000; stroke-width: 0.8"/>
      </g>
     </g>
     <g id="text_10">
      <!-- 10 -->
      <g transform="translate(37.875 190.670078) scale(0.1 -0.1)">
       <defs>
        <path id="DejaVuSans-31" d="M 794 531 
L 1825 531 
L 1825 4091 
L 703 3866 
L 703 4441 
L 1819 4666 
L 2450 4666 
L 2450 531 
L 3481 531 
L 3481 0 
L 794 0 
L 794 531 
z
" transform="scale(0.015625)"/>
       </defs>
       <use xlink:href="#DejaVuSans-31"/>
       <use xlink:href="#DejaVuSans-30" x="63.623047"/>
      </g>
     </g>
    </g>
    <g id="ytick_4">
     <g id="line2d_11">
      <g>
       <use xlink:href="#me523c1c392" x="57.6" y="137.49943" style="stroke: #000000; stroke-width: 0.8"/>
      </g>
     </g>
     <g id="text_11">
      <!-- 15 -->
      <g transform="translate(37.875 141.298648) scale(0.1 -0.1)">
       <use xlink:href="#DejaVuSans-31"/>
       <use xlink:href="#DejaVuSans-35" x="63.623047"/>
      </g>
     </g>
    </g>
    <g id="ytick_5">
     <g id="line2d_12">
      <g>
       <use xlink:href="#me523c1c392" x="57.6" y="88.128" style="stroke: #000000; stroke-width: 0.8"/>
      </g>
     </g>
     <g id="text_12">
      <!-- 20 -->
      <g transform="translate(37.875 91.927219) scale(0.1 -0.1)">
       <use xlink:href="#DejaVuSans-32"/>
       <use xlink:href="#DejaVuSans-30" x="63.623047"/>
      </g>
     </g>
    </g>
   </g>
   <g id="line2d_13">
    <path d="M 57.420439 276.984497 
L 61.195201 276.33002 
L 64.73404 275.931601 
L 68.272879 275.750621 
L 71.811718 275.791145 
L 75.350558 276.052263 
L 78.889397 276.52811 
L 82.664159 277.260232 
L 86.674843 278.271404 
L 90.92145 279.572058 
L 95.875825 281.332909 
L 102.009813 283.764316 
L 118.524396 290.447838 
L 123.478771 292.136485 
L 127.725378 293.358277 
L 131.736062 294.282985 
L 135.510824 294.925366 
L 139.049663 295.31179 
L 142.588503 295.480416 
L 146.127342 295.427458 
L 149.666181 295.154104 
L 153.20502 294.666493 
L 156.979782 293.922642 
L 160.990467 292.900263 
L 165.237074 291.589501 
L 170.191449 289.819565 
L 176.561359 287.284272 
L 192.132252 280.966623 
L 197.086627 279.252528 
L 201.333234 278.003221 
L 205.343918 277.048532 
L 209.11868 276.375177 
L 212.657519 275.958003 
L 216.196358 275.757674 
L 219.735198 275.778692 
L 223.274037 276.020582 
L 226.812876 276.477914 
L 230.587638 277.191539 
L 234.598322 278.18499 
L 238.844929 279.469605 
L 243.799304 281.215961 
L 249.933292 283.636589 
L 267.155643 290.591923 
L 272.110018 292.260207 
L 276.356625 293.460178 
L 280.367309 294.361241 
L 284.142071 294.979292 
L 287.680911 295.341644 
L 291.21975 295.485528 
L 294.758589 295.407713 
L 298.297428 295.109945 
L 302.07219 294.557516 
L 305.846952 293.776613 
L 309.857636 292.718974 
L 314.340166 291.296126 
L 319.530463 289.396878 
L 326.372219 286.630791 
L 339.11204 281.436347 
L 344.302338 279.584504 
L 348.784868 278.216156 
L 352.795552 277.216263 
L 356.570314 276.495921 
L 360.345076 276.008496 
L 363.883915 275.774232 
L 367.422754 275.760942 
L 370.961593 275.968923 
L 374.500433 276.393506 
L 378.275194 277.074306 
L 382.285879 278.036179 
L 386.532486 279.292053 
L 391.250938 280.925048 
L 397.149004 283.220774 
L 414.8432 290.392889 
L 414.8432 290.392889 
" clip-path="url(#pa7435693b7)" style="fill: none; stroke: #ff0000; stroke-width: 1.5; stroke-linecap: square"/>
   </g>
   <g id="line2d_14">
    <path d="M 57.6 285.613717 
L 414.72 285.613717 
" clip-path="url(#pa7435693b7)" style="fill: none; stroke-dasharray: 5.55,2.4; stroke-dashoffset: 0; stroke: #808080; stroke-opacity: 0.5; stroke-width: 1.5"/>
   </g>
   <g id="line2d_15">
    <path d="M 57.420439 265.727803 
L 63.082582 263.539043 
L 84.079694 255.171513 
L 88.562224 253.75994 
L 92.572908 252.714318 
L 96.34767 251.946071 
L 100.122432 251.407271 
L 103.661271 251.122856 
L 107.20011 251.058644 
L 110.73895 251.216077 
L 114.277789 251.591618 
L 118.052551 252.223008 
L 121.827313 253.076771 
L 126.07392 254.2757 
L 130.792372 255.858023 
L 136.218592 257.923256 
L 144.947729 261.527953 
L 153.440943 264.961524 
L 158.63124 266.831186 
L 163.11377 268.219852 
L 167.124455 269.241174 
L 170.899216 269.983916 
L 174.673978 270.495321 
L 178.212817 270.752958 
L 181.751657 270.789948 
L 185.290496 270.60546 
L 188.829335 270.203637 
L 192.604097 269.545731 
L 196.614781 268.605978 
L 200.861388 267.370357 
L 205.579841 265.755265 
L 211.241983 263.569363 
L 222.566269 258.877301 
L 229.172102 256.287848 
L 234.126477 254.572829 
L 238.373084 253.322519 
L 242.383769 252.366733 
L 246.15853 251.692242 
L 249.69737 251.273936 
L 253.236209 251.072441 
L 256.775048 251.09228 
L 260.313887 251.333008 
L 263.852726 251.789219 
L 267.627488 252.501723 
L 271.638173 253.494098 
L 275.88478 254.777737 
L 280.839155 256.523207 
L 286.973143 258.943171 
L 304.195494 265.899416 
L 309.149868 267.568675 
L 313.396476 268.769687 
L 317.40716 269.671876 
L 321.181922 270.291083 
L 324.720761 270.654578 
L 328.2596 270.799635 
L 331.798439 270.722996 
L 335.337279 270.426383 
L 338.876118 269.916456 
L 342.65088 269.150406 
L 346.661564 268.106873 
L 351.144094 266.697263 
L 356.098469 264.900011 
L 362.704302 262.247021 
L 376.859659 256.491162 
L 382.049956 254.673024 
L 386.532486 253.342617 
L 390.54317 252.382448 
L 394.317932 251.703415 
L 397.856771 251.280591 
L 401.395611 251.074427 
L 404.93445 251.089553 
L 408.473289 251.325629 
L 412.012128 251.777354 
L 414.8432 252.287341 
L 414.8432 252.287341 
" clip-path="url(#pa7435693b7)" style="fill: none; stroke: #ff4d27; stroke-width: 1.5; stroke-linecap: square"/>
   </g>
   <g id="line2d_16">
    <path d="M 57.6 260.928003 
L 414.72 260.928003 
" clip-path="url(#pa7435693b7)" style="fill: none; stroke-dasharray: 5.55,2.4; stroke-dashoffset: 0; stroke: #808080; stroke-opacity: 0.5; stroke-width: 1.5"/>
   </g>
   <g id="line2d_17">
    <path d="M 57.420439 244.871508 
L 61.195201 245.525985 
L 64.73404 245.924404 
L 68.272879 246.105384 
L 71.811718 246.064861 
L 75.350558 245.803743 
L 78.889397 245.327895 
L 82.664159 244.595773 
L 86.674843 243.584601 
L 90.92145 242.283948 
L 95.875825 240.523096 
L 102.009813 238.091689 
L 118.524396 231.408167 
L 123.478771 229.71952 
L 127.725378 228.497728 
L 131.736062 227.57302 
L 135.510824 226.93064 
L 139.049663 226.544216 
L 142.588503 226.375589 
L 146.127342 226.428548 
L 149.666181 226.701902 
L 153.20502 227.189512 
L 156.979782 227.933363 
L 160.990467 228.955743 
L 165.237074 230.266505 
L 170.191449 232.03644 
L 176.561359 234.571733 
L 192.132252 240.889383 
L 197.086627 242.603478 
L 201.333234 243.852784 
L 205.343918 244.807473 
L 209.11868 245.480828 
L 212.657519 245.898003 
L 216.196358 246.098331 
L 219.735198 246.077314 
L 223.274037 245.835423 
L 226.812876 245.378091 
L 230.587638 244.664466 
L 234.598322 243.671015 
L 238.844929 242.3864 
L 243.799304 240.640045 
L 249.933292 238.219416 
L 267.155643 231.264082 
L 272.110018 229.595798 
L 276.356625 228.395828 
L 280.367309 227.494765 
L 284.142071 226.876713 
L 287.680911 226.514361 
L 291.21975 226.370477 
L 294.758589 226.448292 
L 298.297428 226.74606 
L 302.07219 227.298489 
L 305.846952 228.079392 
L 309.857636 229.137032 
L 314.340166 230.55988 
L 319.530463 232.459127 
L 326.372219 235.225214 
L 339.11204 240.419658 
L 344.302338 242.271501 
L 348.784868 243.63985 
L 352.795552 244.639742 
L 356.570314 245.360085 
L 360.345076 245.847509 
L 363.883915 246.081773 
L 367.422754 246.095064 
L 370.961593 245.887082 
L 374.500433 245.462499 
L 378.275194 244.7817 
L 382.285879 243.819826 
L 386.532486 242.563953 
L 391.250938 240.930957 
L 397.149004 238.635231 
L 414.8432 231.463116 
L 414.8432 231.463116 
" clip-path="url(#pa7435693b7)" style="fill: none; stroke: #ff964f; stroke-width: 1.5; stroke-linecap: square"/>
   </g>
   <g id="line2d_18">
    <path d="M 57.6 236.242288 
L 414.72 236.242288 
" clip-path="url(#pa7435693b7)" style="fill: none; stroke-dasharray: 5.55,2.4; stroke-dashoffset: 0; stroke: #808080; stroke-opacity: 0.5; stroke-width: 1.5"/>
   </g>
   <g id="line2d_19">
    <path d="M 57.420439 206.756773 
L 63.082582 208.945533 
L 84.079694 217.313063 
L 88.562224 218.724637 
L 92.572908 219.770258 
L 96.34767 220.538506 
L 100.122432 221.077305 
L 103.661271 221.36172 
L 107.20011 221.425932 
L 110.73895 221.2685 
L 114.277789 220.892958 
L 118.052551 220.261568 
L 121.827313 219.407805 
L 126.07392 218.208876 
L 130.792372 216.626553 
L 136.218592 214.56132 
L 144.947729 210.956623 
L 153.440943 207.523052 
L 158.63124 205.65339 
L 163.11377 204.264724 
L 167.124455 203.243403 
L 170.899216 202.50066 
L 174.673978 201.989255 
L 178.212817 201.731618 
L 181.751657 201.694628 
L 185.290496 201.879116 
L 188.829335 202.280939 
L 192.604097 202.938845 
L 196.614781 203.878598 
L 200.861388 205.114219 
L 205.579841 206.729311 
L 211.241983 208.915214 
L 222.566269 213.607275 
L 229.172102 216.196729 
L 234.126477 217.911747 
L 238.373084 219.162057 
L 242.383769 220.117843 
L 246.15853 220.792335 
L 249.69737 221.21064 
L 253.236209 221.412135 
L 256.775048 221.392296 
L 260.313887 221.151568 
L 263.852726 220.695357 
L 267.627488 219.982854 
L 271.638173 218.990478 
L 275.88478 217.706839 
L 280.839155 215.961369 
L 286.973143 213.541405 
L 304.195494 206.58516 
L 309.149868 204.915901 
L 313.396476 203.714889 
L 317.40716 202.812701 
L 321.181922 202.193493 
L 324.720761 201.829998 
L 328.2596 201.684942 
L 331.798439 201.76158 
L 335.337279 202.058193 
L 338.876118 202.56812 
L 342.65088 203.33417 
L 346.661564 204.377703 
L 351.144094 205.787314 
L 356.098469 207.584565 
L 362.704302 210.237555 
L 376.859659 215.993414 
L 382.049956 217.811552 
L 386.532486 219.141959 
L 390.54317 220.102128 
L 394.317932 220.781161 
L 397.856771 221.203985 
L 401.395611 221.410149 
L 404.93445 221.395024 
L 408.473289 221.158947 
L 412.012128 220.707222 
L 414.8432 220.197235 
L 414.8432 220.197235 
" clip-path="url(#pa7435693b7)" style="fill: none; stroke: #e6cd73; stroke-width: 1.5; stroke-linecap: square"/>
   </g>
   <g id="line2d_20">
    <path d="M 57.6 211.556573 
L 414.72 211.556573 
" clip-path="url(#pa7435693b7)" style="fill: none; stroke-dasharray: 5.55,2.4; stroke-dashoffset: 0; stroke: #808080; stroke-opacity: 0.5; stroke-width: 1.5"/>
   </g>
   <g id="line2d_21">
    <path d="M 57.420439 178.241639 
L 61.195201 177.587162 
L 64.73404 177.188742 
L 68.272879 177.007762 
L 71.811718 177.048286 
L 75.350558 177.309404 
L 78.889397 177.785251 
L 82.664159 178.517374 
L 86.674843 179.528546 
L 90.92145 180.829199 
L 95.875825 182.590051 
L 102.009813 185.021458 
L 118.524396 191.704979 
L 123.478771 193.393626 
L 127.725378 194.615419 
L 131.736062 195.540127 
L 135.510824 196.182507 
L 139.049663 196.568931 
L 142.588503 196.737558 
L 146.127342 196.684599 
L 149.666181 196.411245 
L 153.20502 195.923635 
L 156.979782 195.179784 
L 160.990467 194.157404 
L 165.237074 192.846642 
L 170.191449 191.076707 
L 176.561359 188.541414 
L 192.132252 182.223764 
L 197.086627 180.509669 
L 201.333234 179.260363 
L 205.343918 178.305674 
L 209.11868 177.632319 
L 212.657519 177.215144 
L 216.196358 177.014816 
L 219.735198 177.035833 
L 223.274037 177.277724 
L 226.812876 177.735056 
L 230.587638 178.448681 
L 234.598322 179.442132 
L 238.844929 180.726747 
L 243.799304 182.473102 
L 249.933292 184.893731 
L 267.155643 191.849064 
L 272.110018 193.517349 
L 276.356625 194.717319 
L 280.367309 195.618382 
L 284.142071 196.236434 
L 287.680911 196.598786 
L 291.21975 196.74267 
L 294.758589 196.664854 
L 298.297428 196.367087 
L 302.07219 195.814658 
L 305.846952 195.033755 
L 309.857636 193.976115 
L 314.340166 192.553267 
L 319.530463 190.65402 
L 326.372219 187.887933 
L 339.11204 182.693489 
L 344.302338 180.841646 
L 348.784868 179.473297 
L 352.795552 178.473405 
L 356.570314 177.753062 
L 360.345076 177.265638 
L 363.883915 177.031374 
L 367.422754 177.018083 
L 370.961593 177.226065 
L 374.500433 177.650648 
L 378.275194 178.331447 
L 382.285879 179.29332 
L 386.532486 180.549194 
L 391.250938 182.18219 
L 397.149004 184.477915 
L 414.8432 191.650031 
L 414.8432 191.650031 
" clip-path="url(#pa7435693b7)" style="fill: none; stroke: #b2f396; stroke-width: 1.5; stroke-linecap: square"/>
   </g>
   <g id="line2d_22">
    <path d="M 57.6 186.870859 
L 414.72 186.870859 
" clip-path="url(#pa7435693b7)" style="fill: none; stroke-dasharray: 5.55,2.4; stroke-dashoffset: 0; stroke: #808080; stroke-opacity: 0.5; stroke-width: 1.5"/>
   </g>
   <g id="line2d_23">
    <path d="M 57.420439 166.984945 
L 63.082582 164.796184 
L 84.079694 156.428654 
L 88.562224 155.017081 
L 92.572908 153.971459 
L 96.34767 153.203212 
L 100.122432 152.664412 
L 103.661271 152.379998 
L 107.20011 152.315786 
L 110.73895 152.473218 
L 114.277789 152.84876 
L 118.052551 153.48015 
L 121.827313 154.333913 
L 126.07392 155.532841 
L 130.792372 157.115164 
L 136.218592 159.180397 
L 144.947729 162.785095 
L 153.440943 166.218666 
L 158.63124 168.088328 
L 163.11377 169.476994 
L 167.124455 170.498315 
L 170.899216 171.241057 
L 174.673978 171.752462 
L 178.212817 172.0101 
L 181.751657 172.04709 
L 185.290496 171.862602 
L 188.829335 171.460779 
L 192.604097 170.802873 
L 196.614781 169.86312 
L 200.861388 168.627498 
L 205.579841 167.012407 
L 211.241983 164.826504 
L 222.566269 160.134443 
L 229.172102 157.544989 
L 234.126477 155.829971 
L 238.373084 154.579661 
L 242.383769 153.623875 
L 246.15853 152.949383 
L 249.69737 152.531078 
L 253.236209 152.329582 
L 256.775048 152.349421 
L 260.313887 152.590149 
L 263.852726 153.04636 
L 267.627488 153.758864 
L 271.638173 154.751239 
L 275.88478 156.034879 
L 280.839155 157.780349 
L 286.973143 160.200313 
L 304.195494 167.156558 
L 309.149868 168.825817 
L 313.396476 170.026829 
L 317.40716 170.929017 
L 321.181922 171.548225 
L 324.720761 171.911719 
L 328.2596 172.056776 
L 331.798439 171.980137 
L 335.337279 171.683524 
L 338.876118 171.173598 
L 342.65088 170.407547 
L 346.661564 169.364014 
L 351.144094 167.954404 
L 356.098469 166.157153 
L 362.704302 163.504163 
L 376.859659 157.748304 
L 382.049956 155.930166 
L 386.532486 154.599759 
L 390.54317 153.63959 
L 394.317932 152.960557 
L 397.856771 152.537733 
L 401.395611 152.331568 
L 404.93445 152.346694 
L 408.473289 152.58277 
L 412.012128 153.034495 
L 414.8432 153.544482 
L 414.8432 153.544482 
" clip-path="url(#pa7435693b7)" style="fill: none; stroke: #7effb5; stroke-width: 1.5; stroke-linecap: square"/>
   </g>
   <g id="line2d_24">
    <path d="M 57.6 162.185144 
L 414.72 162.185144 
" clip-path="url(#pa7435693b7)" style="fill: none; stroke-dasharray: 5.55,2.4; stroke-dashoffset: 0; stroke: #808080; stroke-opacity: 0.5; stroke-width: 1.5"/>
   </g>
   <g id="line2d_25">
    <path d="M 57.420439 146.12865 
L 61.195201 146.783127 
L 64.73404 147.181546 
L 68.272879 147.362526 
L 71.811718 147.322002 
L 75.350558 147.060884 
L 78.889397 146.585037 
L 82.664159 145.852915 
L 86.674843 144.841743 
L 90.92145 143.541089 
L 95.875825 141.780238 
L 102.009813 139.348831 
L 118.524396 132.665309 
L 123.478771 130.976662 
L 127.725378 129.75487 
L 131.736062 128.830162 
L 135.510824 128.187781 
L 139.049663 127.801357 
L 142.588503 127.632731 
L 146.127342 127.685689 
L 149.666181 127.959043 
L 153.20502 128.446654 
L 156.979782 129.190505 
L 160.990467 130.212884 
L 165.237074 131.523646 
L 170.191449 133.293582 
L 176.561359 135.828875 
L 192.132252 142.146524 
L 197.086627 143.860619 
L 201.333234 145.109926 
L 205.343918 146.064615 
L 209.11868 146.737969 
L 212.657519 147.155144 
L 216.196358 147.355472 
L 219.735198 147.334455 
L 223.274037 147.092565 
L 226.812876 146.635233 
L 230.587638 145.921608 
L 234.598322 144.928157 
L 238.844929 143.643542 
L 243.799304 141.897186 
L 249.933292 139.476558 
L 267.155643 132.521224 
L 272.110018 130.85294 
L 276.356625 129.652969 
L 280.367309 128.751906 
L 284.142071 128.133855 
L 287.680911 127.771503 
L 291.21975 127.627619 
L 294.758589 127.705434 
L 298.297428 128.003202 
L 302.07219 128.555631 
L 305.846952 129.336534 
L 309.857636 130.394173 
L 314.340166 131.817021 
L 319.530463 133.716269 
L 326.372219 136.482356 
L 339.11204 141.6768 
L 344.302338 143.528643 
L 348.784868 144.896991 
L 352.795552 145.896884 
L 356.570314 146.617226 
L 360.345076 147.104651 
L 363.883915 147.338915 
L 367.422754 147.352205 
L 370.961593 147.144223 
L 374.500433 146.719641 
L 378.275194 146.038841 
L 382.285879 145.076968 
L 386.532486 143.821094 
L 391.250938 142.188099 
L 397.149004 139.892373 
L 414.8432 132.720258 
L 414.8432 132.720258 
" clip-path="url(#pa7435693b7)" style="fill: none; stroke: #4df3ce; stroke-width: 1.5; stroke-linecap: square"/>
   </g>
   <g id="line2d_26">
    <path d="M 57.6 137.49943 
L 414.72 137.49943 
" clip-path="url(#pa7435693b7)" style="fill: none; stroke-dasharray: 5.55,2.4; stroke-dashoffset: 0; stroke: #808080; stroke-opacity: 0.5; stroke-width: 1.5"/>
   </g>
   <g id="line2d_27">
    <path d="M 57.420439 108.013915 
L 63.082582 110.202675 
L 84.079694 118.570205 
L 88.562224 119.981778 
L 92.572908 121.0274 
L 96.34767 121.795647 
L 100.122432 122.334447 
L 103.661271 122.618862 
L 107.20011 122.683074 
L 110.73895 122.525641 
L 114.277789 122.1501 
L 118.052551 121.51871 
L 121.827313 120.664947 
L 126.07392 119.466018 
L 130.792372 117.883695 
L 136.218592 115.818462 
L 144.947729 112.213764 
L 153.440943 108.780193 
L 158.63124 106.910531 
L 163.11377 105.521865 
L 167.124455 104.500544 
L 170.899216 103.757802 
L 174.673978 103.246397 
L 178.212817 102.98876 
L 181.751657 102.951769 
L 185.290496 103.136258 
L 188.829335 103.53808 
L 192.604097 104.195986 
L 196.614781 105.13574 
L 200.861388 106.371361 
L 205.579841 107.986452 
L 211.241983 110.172355 
L 222.566269 114.864417 
L 229.172102 117.45387 
L 234.126477 119.168889 
L 238.373084 120.419199 
L 242.383769 121.374985 
L 246.15853 122.049476 
L 249.69737 122.467781 
L 253.236209 122.669277 
L 256.775048 122.649438 
L 260.313887 122.40871 
L 263.852726 121.952499 
L 267.627488 121.239995 
L 271.638173 120.24762 
L 275.88478 118.963981 
L 280.839155 117.21851 
L 286.973143 114.798546 
L 304.195494 107.842302 
L 309.149868 106.173043 
L 313.396476 104.972031 
L 317.40716 104.069842 
L 321.181922 103.450635 
L 324.720761 103.08714 
L 328.2596 102.942083 
L 331.798439 103.018722 
L 335.337279 103.315335 
L 338.876118 103.825261 
L 342.65088 104.591312 
L 346.661564 105.634845 
L 351.144094 107.044455 
L 356.098469 108.841707 
L 362.704302 111.494697 
L 376.859659 117.250556 
L 382.049956 119.068693 
L 386.532486 120.399101 
L 390.54317 121.35927 
L 394.317932 122.038302 
L 397.856771 122.461127 
L 401.395611 122.667291 
L 404.93445 122.652165 
L 408.473289 122.416089 
L 412.012128 121.964364 
L 414.8432 121.454377 
L 414.8432 121.454377 
" clip-path="url(#pa7435693b7)" style="fill: none; stroke: #19cde4; stroke-width: 1.5; stroke-linecap: square"/>
   </g>
   <g id="line2d_28">
    <path d="M 57.6 112.813715 
L 414.72 112.813715 
" clip-path="url(#pa7435693b7)" style="fill: none; stroke-dasharray: 5.55,2.4; stroke-dashoffset: 0; stroke: #808080; stroke-opacity: 0.5; stroke-width: 1.5"/>
   </g>
   <g id="line2d_29">
    <path d="M 57.420439 79.49878 
L 61.195201 78.844303 
L 64.73404 78.445884 
L 68.272879 78.264904 
L 71.811718 78.305428 
L 75.350558 78.566546 
L 78.889397 79.042393 
L 82.664159 79.774516 
L 86.674843 80.785687 
L 90.92145 82.086341 
L 95.875825 83.847193 
L 102.009813 86.278599 
L 118.524396 92.962121 
L 123.478771 94.650768 
L 127.725378 95.87256 
L 131.736062 96.797269 
L 135.510824 97.439649 
L 139.049663 97.826073 
L 142.588503 97.994699 
L 146.127342 97.941741 
L 149.666181 97.668387 
L 153.20502 97.180776 
L 156.979782 96.436925 
L 160.990467 95.414546 
L 165.237074 94.103784 
L 170.191449 92.333848 
L 176.561359 89.798555 
L 192.132252 83.480906 
L 197.086627 81.766811 
L 201.333234 80.517504 
L 205.343918 79.562816 
L 209.11868 78.889461 
L 212.657519 78.472286 
L 216.196358 78.271958 
L 219.735198 78.292975 
L 223.274037 78.534866 
L 226.812876 78.992197 
L 230.587638 79.705822 
L 234.598322 80.699273 
L 238.844929 81.983888 
L 243.799304 83.730244 
L 249.933292 86.150872 
L 267.155643 93.106206 
L 272.110018 94.77449 
L 276.356625 95.974461 
L 280.367309 96.875524 
L 284.142071 97.493575 
L 287.680911 97.855927 
L 291.21975 97.999812 
L 294.758589 97.921996 
L 298.297428 97.624229 
L 302.07219 97.071799 
L 305.846952 96.290897 
L 309.857636 95.233257 
L 314.340166 93.810409 
L 319.530463 91.911161 
L 326.372219 89.145075 
L 339.11204 83.950631 
L 344.302338 82.098787 
L 348.784868 80.730439 
L 352.795552 79.730546 
L 356.570314 79.010204 
L 360.345076 78.522779 
L 363.883915 78.288515 
L 367.422754 78.275225 
L 370.961593 78.483207 
L 374.500433 78.90779 
L 378.275194 79.588589 
L 382.285879 80.550462 
L 386.532486 81.806336 
L 391.250938 83.439332 
L 397.149004 85.735057 
L 414.8432 92.907172 
L 414.8432 92.907172 
" clip-path="url(#pa7435693b7)" style="fill: none; stroke: #1a96f3; stroke-width: 1.5; stroke-linecap: square"/>
   </g>
   <g id="line2d_30">
    <path d="M 57.6 88.128 
L 414.72 88.128 
" clip-path="url(#pa7435693b7)" style="fill: none; stroke-dasharray: 5.55,2.4; stroke-dashoffset: 0; stroke: #808080; stroke-opacity: 0.5; stroke-width: 1.5"/>
   </g>
   <g id="line2d_31">
    <path d="M 57.420439 68.242086 
L 63.082582 66.053326 
L 84.079694 57.685796 
L 88.562224 56.274223 
L 92.572908 55.228601 
L 96.34767 54.460354 
L 100.122432 53.921554 
L 103.661271 53.637139 
L 107.20011 53.572927 
L 110.73895 53.73036 
L 114.277789 54.105901 
L 118.052551 54.737291 
L 121.827313 55.591054 
L 126.07392 56.789983 
L 130.792372 58.372306 
L 136.218592 60.437539 
L 144.947729 64.042236 
L 153.440943 67.475808 
L 158.63124 69.345469 
L 163.11377 70.734135 
L 167.124455 71.755457 
L 170.899216 72.498199 
L 174.673978 73.009604 
L 178.212817 73.267241 
L 181.751657 73.304231 
L 185.290496 73.119743 
L 188.829335 72.717921 
L 192.604097 72.060015 
L 196.614781 71.120261 
L 200.861388 69.88464 
L 205.579841 68.269549 
L 211.241983 66.083646 
L 222.566269 61.391584 
L 229.172102 58.802131 
L 234.126477 57.087112 
L 238.373084 55.836802 
L 242.383769 54.881016 
L 246.15853 54.206525 
L 249.69737 53.78822 
L 253.236209 53.586724 
L 256.775048 53.606563 
L 260.313887 53.847291 
L 263.852726 54.303502 
L 267.627488 55.016006 
L 271.638173 56.008381 
L 275.88478 57.29202 
L 280.839155 59.03749 
L 286.973143 61.457454 
L 304.195494 68.413699 
L 309.149868 70.082958 
L 313.396476 71.28397 
L 317.40716 72.186159 
L 321.181922 72.805366 
L 324.720761 73.168861 
L 328.2596 73.313918 
L 331.798439 73.237279 
L 335.337279 72.940666 
L 338.876118 72.43074 
L 342.65088 71.664689 
L 346.661564 70.621156 
L 351.144094 69.211546 
L 356.098469 67.414294 
L 362.704302 64.761304 
L 376.859659 59.005445 
L 382.049956 57.187308 
L 386.532486 55.8569 
L 390.54317 54.896731 
L 394.317932 54.217698 
L 397.856771 53.794874 
L 401.395611 53.58871 
L 404.93445 53.603836 
L 408.473289 53.839912 
L 412.012128 54.291637 
L 414.8432 54.801624 
L 414.8432 54.801624 
" clip-path="url(#pa7435693b7)" style="fill: none; stroke: #4e4dfc; stroke-width: 1.5; stroke-linecap: square"/>
   </g>
   <g id="line2d_32">
    <path d="M 57.6 63.442286 
L 414.72 63.442286 
" clip-path="url(#pa7435693b7)" style="fill: none; stroke-dasharray: 5.55,2.4; stroke-dashoffset: 0; stroke: #808080; stroke-opacity: 0.5; stroke-width: 1.5"/>
   </g>
   <g id="patch_3">
    <path d="M 57.6 307.584 
L 57.6 41.472 
" style="fill: none; stroke: #000000; stroke-width: 0.8; stroke-linejoin: miter; stroke-linecap: square"/>
   </g>
   <g id="patch_4">
    <path d="M 414.72 307.584 
L 414.72 41.472 
" style="fill: none; stroke: #000000; stroke-width: 0.8; stroke-linejoin: miter; stroke-linecap: square"/>
   </g>
   <g id="patch_5">
    <path d="M 57.6 307.584 
L 414.72 307.584 
" style="fill: none; stroke: #000000; stroke-width: 0.8; stroke-linejoin: miter; stroke-linecap: square"/>
   </g>
   <g id="patch_6">
    <path d="M 57.6 41.472 
L 414.72 41.472 
" style="fill: none; stroke: #000000; stroke-width: 0.8; stroke-linejoin: miter; stroke-linecap: square"/>
   </g>
   <g id="PathCollection_1">
    <defs>
     <path id="m9710c09991" d="M 0 3 
C 0.795609 3 1.55874 2.683901 2.12132 2.12132 
C 2.683901 1.55874 3 0.795609 3 0 
C 3 -0.795609 2.683901 -1.55874 2.12132 -2.12132 
C 1.55874 -2.683901 0.795609 -3 0 -3 
C -0.795609 -3 -1.55874 -2.683901 -2.12132 -2.12132 
C -2.683901 -1.55874 -3 -0.795609 -3 0 
C -3 0.795609 -2.683901 1.55874 -2.12132 2.12132 
C -1.55874 2.683901 -0.795609 3 0 3 
z
" style="stroke: #ff0000"/>
    </defs>
    <g clip-path="url(#pa7435693b7)">
     <use xlink:href="#m9710c09991" x="69.396131" y="275.739431" style="fill: #ff0000; stroke: #ff0000"/>
    </g>
   </g>
   <g id="PathCollection_2">
    <defs>
     <path id="mf43685a302" d="M 0 3 
C 0.795609 3 1.55874 2.683901 2.12132 2.12132 
C 2.683901 1.55874 3 0.795609 3 0 
C 3 -0.795609 2.683901 -1.55874 2.12132 -2.12132 
C 1.55874 -2.683901 0.795609 -3 0 -3 
C -0.795609 -3 -1.55874 -2.683901 -2.12132 -2.12132 
C -2.683901 -1.55874 -3 -0.795609 -3 0 
C -3 0.795609 -2.683901 1.55874 -2.12132 2.12132 
C -1.55874 2.683901 -0.795609 3 0 3 
z
" style="stroke: #ff4d27"/>
    </defs>
    <g clip-path="url(#pa7435693b7)">
     <use xlink:href="#mf43685a302" x="106.454768" y="251.053717" style="fill: #ff4d27; stroke: #ff4d27"/>
    </g>
   </g>
   <g id="PathCollection_3">
    <defs>
     <path id="m32d590bf5f" d="M 0 3 
C 0.795609 3 1.55874 2.683901 2.12132 2.12132 
C 2.683901 1.55874 3 0.795609 3 0 
C 3 -0.795609 2.683901 -1.55874 2.12132 -2.12132 
C 1.55874 -2.683901 0.795609 -3 0 -3 
C -0.795609 -3 -1.55874 -2.683901 -2.12132 -2.12132 
C -2.683901 -1.55874 -3 -0.795609 -3 0 
C -3 0.795609 -2.683901 1.55874 -2.12132 2.12132 
C -1.55874 2.683901 -0.795609 3 0 3 
z
" style="stroke: #ff964f"/>
    </defs>
    <g clip-path="url(#pa7435693b7)">
     <use xlink:href="#m32d590bf5f" x="143.513406" y="226.368002" style="fill: #ff964f; stroke: #ff964f"/>
    </g>
   </g>
   <g id="PathCollection_4">
    <defs>
     <path id="m4b88d73ec0" d="M 0 3 
C 0.795609 3 1.55874 2.683901 2.12132 2.12132 
C 2.683901 1.55874 3 0.795609 3 0 
C 3 -0.795609 2.683901 -1.55874 2.12132 -2.12132 
C 1.55874 -2.683901 0.795609 -3 0 -3 
C -0.795609 -3 -1.55874 -2.683901 -2.12132 -2.12132 
C -2.683901 -1.55874 -3 -0.795609 -3 0 
C -3 0.795609 -2.683901 1.55874 -2.12132 2.12132 
C -1.55874 2.683901 -0.795609 3 0 3 
z
" style="stroke: #e6cd73"/>
    </defs>
    <g clip-path="url(#pa7435693b7)">
     <use xlink:href="#m4b88d73ec0" x="180.572044" y="201.682288" style="fill: #e6cd73; stroke: #e6cd73"/>
    </g>
   </g>
   <g id="PathCollection_5">
    <defs>
     <path id="m05ea2d955d" d="M 0 3 
C 0.795609 3 1.55874 2.683901 2.12132 2.12132 
C 2.683901 1.55874 3 0.795609 3 0 
C 3 -0.795609 2.683901 -1.55874 2.12132 -2.12132 
C 1.55874 -2.683901 0.795609 -3 0 -3 
C -0.795609 -3 -1.55874 -2.683901 -2.12132 -2.12132 
C -2.683901 -1.55874 -3 -0.795609 -3 0 
C -3 0.795609 -2.683901 1.55874 -2.12132 2.12132 
C -1.55874 2.683901 -0.795609 3 0 3 
z
" style="stroke: #b2f396"/>
    </defs>
    <g clip-path="url(#pa7435693b7)">
     <use xlink:href="#m05ea2d955d" x="217.630681" y="176.996573" style="fill: #b2f396; stroke: #b2f396"/>
    </g>
   </g>
   <g id="PathCollection_6">
    <defs>
     <path id="m80591c4ab2" d="M 0 3 
C 0.795609 3 1.55874 2.683901 2.12132 2.12132 
C 2.683901 1.55874 3 0.795609 3 0 
C 3 -0.795609 2.683901 -1.55874 2.12132 -2.12132 
C 1.55874 -2.683901 0.795609 -3 0 -3 
C -0.795609 -3 -1.55874 -2.683901 -2.12132 -2.12132 
C -2.683901 -1.55874 -3 -0.795609 -3 0 
C -3 0.795609 -2.683901 1.55874 -2.12132 2.12132 
C -1.55874 2.683901 -0.795609 3 0 3 
z
" style="stroke: #7effb5"/>
    </defs>
    <g clip-path="url(#pa7435693b7)">
     <use xlink:href="#m80591c4ab2" x="254.689319" y="152.310858" style="fill: #7effb5; stroke: #7effb5"/>
    </g>
   </g>
   <g id="PathCollection_7">
    <defs>
     <path id="m4609f8f73b" d="M 0 3 
C 0.795609 3 1.55874 2.683901 2.12132 2.12132 
C 2.683901 1.55874 3 0.795609 3 0 
C 3 -0.795609 2.683901 -1.55874 2.12132 -2.12132 
C 1.55874 -2.683901 0.795609 -3 0 -3 
C -0.795609 -3 -1.55874 -2.683901 -2.12132 -2.12132 
C -2.683901 -1.55874 -3 -0.795609 -3 0 
C -3 0.795609 -2.683901 1.55874 -2.12132 2.12132 
C -1.55874 2.683901 -0.795609 3 0 3 
z
" style="stroke: #4df3ce"/>
    </defs>
    <g clip-path="url(#pa7435693b7)">
     <use xlink:href="#m4609f8f73b" x="291.747956" y="127.625144" style="fill: #4df3ce; stroke: #4df3ce"/>
    </g>
   </g>
   <g id="PathCollection_8">
    <defs>
     <path id="mb4e6a7c971" d="M 0 3 
C 0.795609 3 1.55874 2.683901 2.12132 2.12132 
C 2.683901 1.55874 3 0.795609 3 0 
C 3 -0.795609 2.683901 -1.55874 2.12132 -2.12132 
C 1.55874 -2.683901 0.795609 -3 0 -3 
C -0.795609 -3 -1.55874 -2.683901 -2.12132 -2.12132 
C -2.683901 -1.55874 -3 -0.795609 -3 0 
C -3 0.795609 -2.683901 1.55874 -2.12132 2.12132 
C -1.55874 2.683901 -0.795609 3 0 3 
z
" style="stroke: #19cde4"/>
    </defs>
    <g clip-path="url(#pa7435693b7)">
     <use xlink:href="#mb4e6a7c971" x="328.806594" y="102.939429" style="fill: #19cde4; stroke: #19cde4"/>
    </g>
   </g>
   <g id="PathCollection_9">
    <defs>
     <path id="mcac293be37" d="M 0 3 
C 0.795609 3 1.55874 2.683901 2.12132 2.12132 
C 2.683901 1.55874 3 0.795609 3 0 
C 3 -0.795609 2.683901 -1.55874 2.12132 -2.12132 
C 1.55874 -2.683901 0.795609 -3 0 -3 
C -0.795609 -3 -1.55874 -2.683901 -2.12132 -2.12132 
C -2.683901 -1.55874 -3 -0.795609 -3 0 
C -3 0.795609 -2.683901 1.55874 -2.12132 2.12132 
C -1.55874 2.683901 -0.795609 3 0 3 
z
" style="stroke: #1a96f3"/>
    </defs>
    <g clip-path="url(#pa7435693b7)">
     <use xlink:href="#mcac293be37" x="365.865232" y="78.253715" style="fill: #1a96f3; stroke: #1a96f3"/>
    </g>
   </g>
   <g id="PathCollection_10">
    <defs>
     <path id="mf12a9d0fe2" d="M 0 3 
C 0.795609 3 1.55874 2.683901 2.12132 2.12132 
C 2.683901 1.55874 3 0.795609 3 0 
C 3 -0.795609 2.683901 -1.55874 2.12132 -2.12132 
C 1.55874 -2.683901 0.795609 -3 0 -3 
C -0.795609 -3 -1.55874 -2.683901 -2.12132 -2.12132 
C -2.683901 -1.55874 -3 -0.795609 -3 0 
C -3 0.795609 -2.683901 1.55874 -2.12132 2.12132 
C -1.55874 2.683901 -0.795609 3 0 3 
z
" style="stroke: #4e4dfc"/>
    </defs>
    <g clip-path="url(#pa7435693b7)">
     <use xlink:href="#mf12a9d0fe2" x="402.923869" y="53.568" style="fill: #4e4dfc; stroke: #4e4dfc"/>
    </g>
   </g>
  </g>
 </g>
 <defs>
  <clipPath id="pa7435693b7">
   <rect x="57.6" y="41.472" width="357.12" height="266.112"/>
  </clipPath>
 </defs>
</svg>
