<?xml version="1.0" encoding="utf-8" standalone="no"?>
<!DOCTYPE svg PUBLIC "-//W3C//DTD SVG 1.1//EN"
  "http://www.w3.org/Graphics/SVG/1.1/DTD/svg11.dtd">
<svg xmlns:xlink="http://www.w3.org/1999/xlink" width="360pt" height="252pt" viewBox="0 0 360 252" xmlns="http://www.w3.org/2000/svg" version="1.1">
 <metadata>
  <rdf:RDF xmlns:dc="http://purl.org/dc/elements/1.1/" xmlns:cc="http://creativecommons.org/ns#" xmlns:rdf="http://www.w3.org/1999/02/22-rdf-syntax-ns#">
   <cc:Work>
    <dc:type rdf:resource="http://purl.org/dc/dcmitype/StillImage"/>
    <dc:date>2024-06-20T17:48:54.444817</dc:date>
    <dc:format>image/svg+xml</dc:format>
    <dc:creator>
     <cc:Agent>
      <dc:title>Matplotlib v3.7.0, https://matplotlib.org/</dc:title>
     </cc:Agent>
    </dc:creator>
   </cc:Work>
  </rdf:RDF>
 </metadata>
 <defs>
  <style type="text/css">*{stroke-linejoin: round; stroke-linecap: butt}</style>
 </defs>
 <g id="figure_1">
  <g id="patch_1">
   <path d="M 0 252 
L 360 252 
L 360 0 
L 0 0 
z
" style="fill: #ffffff"/>
  </g>
  <g id="axes_1">
   <g id="patch_2">
    <path d="M 45 224.28 
L 324 224.28 
L 324 30.24 
L 45 30.24 
z
" style="fill: #ffffff"/>
   </g>
   <g id="matplotlib.axis_1">
    <g id="xtick_1">
     <g id="line2d_1">
      <defs>
       <path id="m73e94673fc" d="M 0 0 
L 0 3.5 
" style="stroke: #000000; stroke-width: 0.8"/>
      </defs>
      <g>
       <use xlink:href="#m73e94673fc" x="51.975" y="224.28" style="stroke: #000000; stroke-width: 0.8"/>
      </g>
     </g>
     <g id="text_1">
      <!-- 155 -->
      <g transform="translate(42.43125 238.878438) scale(0.1 -0.1)">
       <defs>
        <path id="DejaVuSans-31" d="M 794 531 
L 1825 531 
L 1825 4091 
L 703 3866 
L 703 4441 
L 1819 4666 
L 2450 4666 
L 2450 531 
L 3481 531 
L 3481 0 
L 794 0 
L 794 531 
z
" transform="scale(0.015625)"/>
        <path id="DejaVuSans-35" d="M 691 4666 
L 3169 4666 
L 3169 4134 
L 1269 4134 
L 1269 2991 
Q 1406 3038 1543 3061 
Q 1681 3084 1819 3084 
Q 2600 3084 3056 2656 
Q 3513 2228 3513 1497 
Q 3513 744 3044 326 
Q 2575 -91 1722 -91 
Q 1428 -91 1123 -41 
Q 819 9 494 109 
L 494 744 
Q 775 591 1075 516 
Q 1375 441 1709 441 
Q 2250 441 2565 725 
Q 2881 1009 2881 1497 
Q 2881 1984 2565 2268 
Q 2250 2553 1709 2553 
Q 1456 2553 1204 2497 
Q 953 2441 691 2322 
L 691 4666 
z
" transform="scale(0.015625)"/>
       </defs>
       <use xlink:href="#DejaVuSans-31"/>
       <use xlink:href="#DejaVuSans-35" x="63.623047"/>
       <use xlink:href="#DejaVuSans-35" x="127.246094"/>
      </g>
     </g>
    </g>
    <g id="xtick_2">
     <g id="line2d_2">
      <g>
       <use xlink:href="#m73e94673fc" x="86.85" y="224.28" style="stroke: #000000; stroke-width: 0.8"/>
      </g>
     </g>
     <g id="text_2">
      <!-- 160 -->
      <g transform="translate(77.30625 238.878438) scale(0.1 -0.1)">
       <defs>
        <path id="DejaVuSans-36" d="M 2113 2584 
Q 1688 2584 1439 2293 
Q 1191 2003 1191 1497 
Q 1191 994 1439 701 
Q 1688 409 2113 409 
Q 2538 409 2786 701 
Q 3034 994 3034 1497 
Q 3034 2003 2786 2293 
Q 2538 2584 2113 2584 
z
M 3366 4563 
L 3366 3988 
Q 3128 4100 2886 4159 
Q 2644 4219 2406 4219 
Q 1781 4219 1451 3797 
Q 1122 3375 1075 2522 
Q 1259 2794 1537 2939 
Q 1816 3084 2150 3084 
Q 2853 3084 3261 2657 
Q 3669 2231 3669 1497 
Q 3669 778 3244 343 
Q 2819 -91 2113 -91 
Q 1303 -91 875 529 
Q 447 1150 447 2328 
Q 447 3434 972 4092 
Q 1497 4750 2381 4750 
Q 2619 4750 2861 4703 
Q 3103 4656 3366 4563 
z
" transform="scale(0.015625)"/>
        <path id="DejaVuSans-30" d="M 2034 4250 
Q 1547 4250 1301 3770 
Q 1056 3291 1056 2328 
Q 1056 1369 1301 889 
Q 1547 409 2034 409 
Q 2525 409 2770 889 
Q 3016 1369 3016 2328 
Q 3016 3291 2770 3770 
Q 2525 4250 2034 4250 
z
M 2034 4750 
Q 2819 4750 3233 4129 
Q 3647 3509 3647 2328 
Q 3647 1150 3233 529 
Q 2819 -91 2034 -91 
Q 1250 -91 836 529 
Q 422 1150 422 2328 
Q 422 3509 836 4129 
Q 1250 4750 2034 4750 
z
" transform="scale(0.015625)"/>
       </defs>
       <use xlink:href="#DejaVuSans-31"/>
       <use xlink:href="#DejaVuSans-36" x="63.623047"/>
       <use xlink:href="#DejaVuSans-30" x="127.246094"/>
      </g>
     </g>
    </g>
    <g id="xtick_3">
     <g id="line2d_3">
      <g>
       <use xlink:href="#m73e94673fc" x="121.725" y="224.28" style="stroke: #000000; stroke-width: 0.8"/>
      </g>
     </g>
     <g id="text_3">
      <!-- 165 -->
      <g transform="translate(112.18125 238.878438) scale(0.1 -0.1)">
       <use xlink:href="#DejaVuSans-31"/>
       <use xlink:href="#DejaVuSans-36" x="63.623047"/>
       <use xlink:href="#DejaVuSans-35" x="127.246094"/>
      </g>
     </g>
    </g>
    <g id="xtick_4">
     <g id="line2d_4">
      <g>
       <use xlink:href="#m73e94673fc" x="156.6" y="224.28" style="stroke: #000000; stroke-width: 0.8"/>
      </g>
     </g>
     <g id="text_4">
      <!-- 170 -->
      <g transform="translate(147.05625 238.878438) scale(0.1 -0.1)">
       <defs>
        <path id="DejaVuSans-37" d="M 525 4666 
L 3525 4666 
L 3525 4397 
L 1831 0 
L 1172 0 
L 2766 4134 
L 525 4134 
L 525 4666 
z
" transform="scale(0.015625)"/>
       </defs>
       <use xlink:href="#DejaVuSans-31"/>
       <use xlink:href="#DejaVuSans-37" x="63.623047"/>
       <use xlink:href="#DejaVuSans-30" x="127.246094"/>
      </g>
     </g>
    </g>
    <g id="xtick_5">
     <g id="line2d_5">
      <g>
       <use xlink:href="#m73e94673fc" x="191.475" y="224.28" style="stroke: #000000; stroke-width: 0.8"/>
      </g>
     </g>
     <g id="text_5">
      <!-- 175 -->
      <g transform="translate(181.93125 238.878438) scale(0.1 -0.1)">
       <use xlink:href="#DejaVuSans-31"/>
       <use xlink:href="#DejaVuSans-37" x="63.623047"/>
       <use xlink:href="#DejaVuSans-35" x="127.246094"/>
      </g>
     </g>
    </g>
    <g id="xtick_6">
     <g id="line2d_6">
      <g>
       <use xlink:href="#m73e94673fc" x="226.35" y="224.28" style="stroke: #000000; stroke-width: 0.8"/>
      </g>
     </g>
     <g id="text_6">
      <!-- 180 -->
      <g transform="translate(216.80625 238.878438) scale(0.1 -0.1)">
       <defs>
        <path id="DejaVuSans-38" d="M 2034 2216 
Q 1584 2216 1326 1975 
Q 1069 1734 1069 1313 
Q 1069 891 1326 650 
Q 1584 409 2034 409 
Q 2484 409 2743 651 
Q 3003 894 3003 1313 
Q 3003 1734 2745 1975 
Q 2488 2216 2034 2216 
z
M 1403 2484 
Q 997 2584 770 2862 
Q 544 3141 544 3541 
Q 544 4100 942 4425 
Q 1341 4750 2034 4750 
Q 2731 4750 3128 4425 
Q 3525 4100 3525 3541 
Q 3525 3141 3298 2862 
Q 3072 2584 2669 2484 
Q 3125 2378 3379 2068 
Q 3634 1759 3634 1313 
Q 3634 634 3220 271 
Q 2806 -91 2034 -91 
Q 1263 -91 848 271 
Q 434 634 434 1313 
Q 434 1759 690 2068 
Q 947 2378 1403 2484 
z
M 1172 3481 
Q 1172 3119 1398 2916 
Q 1625 2713 2034 2713 
Q 2441 2713 2670 2916 
Q 2900 3119 2900 3481 
Q 2900 3844 2670 4047 
Q 2441 4250 2034 4250 
Q 1625 4250 1398 4047 
Q 1172 3844 1172 3481 
z
" transform="scale(0.015625)"/>
       </defs>
       <use xlink:href="#DejaVuSans-31"/>
       <use xlink:href="#DejaVuSans-38" x="63.623047"/>
       <use xlink:href="#DejaVuSans-30" x="127.246094"/>
      </g>
     </g>
    </g>
    <g id="xtick_7">
     <g id="line2d_7">
      <g>
       <use xlink:href="#m73e94673fc" x="261.225" y="224.28" style="stroke: #000000; stroke-width: 0.8"/>
      </g>
     </g>
     <g id="text_7">
      <!-- 185 -->
      <g transform="translate(251.68125 238.878438) scale(0.1 -0.1)">
       <use xlink:href="#DejaVuSans-31"/>
       <use xlink:href="#DejaVuSans-38" x="63.623047"/>
       <use xlink:href="#DejaVuSans-35" x="127.246094"/>
      </g>
     </g>
    </g>
    <g id="xtick_8">
     <g id="line2d_8">
      <g>
       <use xlink:href="#m73e94673fc" x="296.1" y="224.28" style="stroke: #000000; stroke-width: 0.8"/>
      </g>
     </g>
     <g id="text_8">
      <!-- 190 -->
      <g transform="translate(286.55625 238.878438) scale(0.1 -0.1)">
       <defs>
        <path id="DejaVuSans-39" d="M 703 97 
L 703 672 
Q 941 559 1184 500 
Q 1428 441 1663 441 
Q 2288 441 2617 861 
Q 2947 1281 2994 2138 
Q 2813 1869 2534 1725 
Q 2256 1581 1919 1581 
Q 1219 1581 811 2004 
Q 403 2428 403 3163 
Q 403 3881 828 4315 
Q 1253 4750 1959 4750 
Q 2769 4750 3195 4129 
Q 3622 3509 3622 2328 
Q 3622 1225 3098 567 
Q 2575 -91 1691 -91 
Q 1453 -91 1209 -44 
Q 966 3 703 97 
z
M 1959 2075 
Q 2384 2075 2632 2365 
Q 2881 2656 2881 3163 
Q 2881 3666 2632 3958 
Q 2384 4250 1959 4250 
Q 1534 4250 1286 3958 
Q 1038 3666 1038 3163 
Q 1038 2656 1286 2365 
Q 1534 2075 1959 2075 
z
" transform="scale(0.015625)"/>
       </defs>
       <use xlink:href="#DejaVuSans-31"/>
       <use xlink:href="#DejaVuSans-39" x="63.623047"/>
       <use xlink:href="#DejaVuSans-30" x="127.246094"/>
      </g>
     </g>
    </g>
    <g id="text_9">
     <!-- Frequency (MHz) -->
     <g transform="translate(142.48125 252.556563) scale(0.1 -0.1)">
      <defs>
       <path id="DejaVuSans-46" d="M 628 4666 
L 3309 4666 
L 3309 4134 
L 1259 4134 
L 1259 2759 
L 3109 2759 
L 3109 2228 
L 1259 2228 
L 1259 0 
L 628 0 
L 628 4666 
z
" transform="scale(0.015625)"/>
       <path id="DejaVuSans-72" d="M 2631 2963 
Q 2534 3019 2420 3045 
Q 2306 3072 2169 3072 
Q 1681 3072 1420 2755 
Q 1159 2438 1159 1844 
L 1159 0 
L 581 0 
L 581 3500 
L 1159 3500 
L 1159 2956 
Q 1341 3275 1631 3429 
Q 1922 3584 2338 3584 
Q 2397 3584 2469 3576 
Q 2541 3569 2628 3553 
L 2631 2963 
z
" transform="scale(0.015625)"/>
       <path id="DejaVuSans-65" d="M 3597 1894 
L 3597 1613 
L 953 1613 
Q 991 1019 1311 708 
Q 1631 397 2203 397 
Q 2534 397 2845 478 
Q 3156 559 3463 722 
L 3463 178 
Q 3153 47 2828 -22 
Q 2503 -91 2169 -91 
Q 1331 -91 842 396 
Q 353 884 353 1716 
Q 353 2575 817 3079 
Q 1281 3584 2069 3584 
Q 2775 3584 3186 3129 
Q 3597 2675 3597 1894 
z
M 3022 2063 
Q 3016 2534 2758 2815 
Q 2500 3097 2075 3097 
Q 1594 3097 1305 2825 
Q 1016 2553 972 2059 
L 3022 2063 
z
" transform="scale(0.015625)"/>
       <path id="DejaVuSans-71" d="M 947 1747 
Q 947 1113 1208 752 
Q 1469 391 1925 391 
Q 2381 391 2643 752 
Q 2906 1113 2906 1747 
Q 2906 2381 2643 2742 
Q 2381 3103 1925 3103 
Q 1469 3103 1208 2742 
Q 947 2381 947 1747 
z
M 2906 525 
Q 2725 213 2448 61 
Q 2172 -91 1784 -91 
Q 1150 -91 751 415 
Q 353 922 353 1747 
Q 353 2572 751 3078 
Q 1150 3584 1784 3584 
Q 2172 3584 2448 3432 
Q 2725 3281 2906 2969 
L 2906 3500 
L 3481 3500 
L 3481 -1331 
L 2906 -1331 
L 2906 525 
z
" transform="scale(0.015625)"/>
       <path id="DejaVuSans-75" d="M 544 1381 
L 544 3500 
L 1119 3500 
L 1119 1403 
Q 1119 906 1312 657 
Q 1506 409 1894 409 
Q 2359 409 2629 706 
Q 2900 1003 2900 1516 
L 2900 3500 
L 3475 3500 
L 3475 0 
L 2900 0 
L 2900 538 
Q 2691 219 2414 64 
Q 2138 -91 1772 -91 
Q 1169 -91 856 284 
Q 544 659 544 1381 
z
M 1991 3584 
L 1991 3584 
z
" transform="scale(0.015625)"/>
       <path id="DejaVuSans-6e" d="M 3513 2113 
L 3513 0 
L 2938 0 
L 2938 2094 
Q 2938 2591 2744 2837 
Q 2550 3084 2163 3084 
Q 1697 3084 1428 2787 
Q 1159 2491 1159 1978 
L 1159 0 
L 581 0 
L 581 3500 
L 1159 3500 
L 1159 2956 
Q 1366 3272 1645 3428 
Q 1925 3584 2291 3584 
Q 2894 3584 3203 3211 
Q 3513 2838 3513 2113 
z
" transform="scale(0.015625)"/>
       <path id="DejaVuSans-63" d="M 3122 3366 
L 3122 2828 
Q 2878 2963 2633 3030 
Q 2388 3097 2138 3097 
Q 1578 3097 1268 2742 
Q 959 2388 959 1747 
Q 959 1106 1268 751 
Q 1578 397 2138 397 
Q 2388 397 2633 464 
Q 2878 531 3122 666 
L 3122 134 
Q 2881 22 2623 -34 
Q 2366 -91 2075 -91 
Q 1284 -91 818 406 
Q 353 903 353 1747 
Q 353 2603 823 3093 
Q 1294 3584 2113 3584 
Q 2378 3584 2631 3529 
Q 2884 3475 3122 3366 
z
" transform="scale(0.015625)"/>
       <path id="DejaVuSans-79" d="M 2059 -325 
Q 1816 -950 1584 -1140 
Q 1353 -1331 966 -1331 
L 506 -1331 
L 506 -850 
L 844 -850 
Q 1081 -850 1212 -737 
Q 1344 -625 1503 -206 
L 1606 56 
L 191 3500 
L 800 3500 
L 1894 763 
L 2988 3500 
L 3597 3500 
L 2059 -325 
z
" transform="scale(0.015625)"/>
       <path id="DejaVuSans-20" transform="scale(0.015625)"/>
       <path id="DejaVuSans-28" d="M 1984 4856 
Q 1566 4138 1362 3434 
Q 1159 2731 1159 2009 
Q 1159 1288 1364 580 
Q 1569 -128 1984 -844 
L 1484 -844 
Q 1016 -109 783 600 
Q 550 1309 550 2009 
Q 550 2706 781 3412 
Q 1013 4119 1484 4856 
L 1984 4856 
z
" transform="scale(0.015625)"/>
       <path id="DejaVuSans-4d" d="M 628 4666 
L 1569 4666 
L 2759 1491 
L 3956 4666 
L 4897 4666 
L 4897 0 
L 4281 0 
L 4281 4097 
L 3078 897 
L 2444 897 
L 1241 4097 
L 1241 0 
L 628 0 
L 628 4666 
z
" transform="scale(0.015625)"/>
       <path id="DejaVuSans-48" d="M 628 4666 
L 1259 4666 
L 1259 2753 
L 3553 2753 
L 3553 4666 
L 4184 4666 
L 4184 0 
L 3553 0 
L 3553 2222 
L 1259 2222 
L 1259 0 
L 628 0 
L 628 4666 
z
" transform="scale(0.015625)"/>
       <path id="DejaVuSans-7a" d="M 353 3500 
L 3084 3500 
L 3084 2975 
L 922 459 
L 3084 459 
L 3084 0 
L 275 0 
L 275 525 
L 2438 3041 
L 353 3041 
L 353 3500 
z
" transform="scale(0.015625)"/>
       <path id="DejaVuSans-29" d="M 513 4856 
L 1013 4856 
Q 1481 4119 1714 3412 
Q 1947 2706 1947 2009 
Q 1947 1309 1714 600 
Q 1481 -109 1013 -844 
L 513 -844 
Q 928 -128 1133 580 
Q 1338 1288 1338 2009 
Q 1338 2731 1133 3434 
Q 928 4138 513 4856 
z
" transform="scale(0.015625)"/>
      </defs>
      <use xlink:href="#DejaVuSans-46"/>
      <use xlink:href="#DejaVuSans-72" x="50.269531"/>
      <use xlink:href="#DejaVuSans-65" x="89.132812"/>
      <use xlink:href="#DejaVuSans-71" x="150.65625"/>
      <use xlink:href="#DejaVuSans-75" x="214.132812"/>
      <use xlink:href="#DejaVuSans-65" x="277.511719"/>
      <use xlink:href="#DejaVuSans-6e" x="339.035156"/>
      <use xlink:href="#DejaVuSans-63" x="402.414062"/>
      <use xlink:href="#DejaVuSans-79" x="457.394531"/>
      <use xlink:href="#DejaVuSans-20" x="516.574219"/>
      <use xlink:href="#DejaVuSans-28" x="548.361328"/>
      <use xlink:href="#DejaVuSans-4d" x="587.375"/>
      <use xlink:href="#DejaVuSans-48" x="673.654297"/>
      <use xlink:href="#DejaVuSans-7a" x="748.849609"/>
      <use xlink:href="#DejaVuSans-29" x="801.339844"/>
     </g>
    </g>
   </g>
   <g id="matplotlib.axis_2">
    <g id="ytick_1">
     <g id="line2d_9">
      <defs>
       <path id="m9697185da9" d="M 0 0 
L -3.5 0 
" style="stroke: #000000; stroke-width: 0.8"/>
      </defs>
      <g>
       <use xlink:href="#m9697185da9" x="45" y="205.795478" style="stroke: #000000; stroke-width: 0.8"/>
      </g>
     </g>
     <g id="text_10">
      <!-- 0 -->
      <g transform="translate(31.6375 209.594697) scale(0.1 -0.1)">
       <use xlink:href="#DejaVuSans-30"/>
      </g>
     </g>
    </g>
    <g id="ytick_2">
     <g id="line2d_10">
      <g>
       <use xlink:href="#m9697185da9" x="45" y="147.811893" style="stroke: #000000; stroke-width: 0.8"/>
      </g>
     </g>
     <g id="text_11">
      <!-- 100 -->
      <g transform="translate(18.9125 151.611112) scale(0.1 -0.1)">
       <use xlink:href="#DejaVuSans-31"/>
       <use xlink:href="#DejaVuSans-30" x="63.623047"/>
       <use xlink:href="#DejaVuSans-30" x="127.246094"/>
      </g>
     </g>
    </g>
    <g id="ytick_3">
     <g id="line2d_11">
      <g>
       <use xlink:href="#m9697185da9" x="45" y="89.828309" style="stroke: #000000; stroke-width: 0.8"/>
      </g>
     </g>
     <g id="text_12">
      <!-- 200 -->
      <g transform="translate(18.9125 93.627528) scale(0.1 -0.1)">
       <defs>
        <path id="DejaVuSans-32" d="M 1228 531 
L 3431 531 
L 3431 0 
L 469 0 
L 469 531 
Q 828 903 1448 1529 
Q 2069 2156 2228 2338 
Q 2531 2678 2651 2914 
Q 2772 3150 2772 3378 
Q 2772 3750 2511 3984 
Q 2250 4219 1831 4219 
Q 1534 4219 1204 4116 
Q 875 4013 500 3803 
L 500 4441 
Q 881 4594 1212 4672 
Q 1544 4750 1819 4750 
Q 2544 4750 2975 4387 
Q 3406 4025 3406 3419 
Q 3406 3131 3298 2873 
Q 3191 2616 2906 2266 
Q 2828 2175 2409 1742 
Q 1991 1309 1228 531 
z
" transform="scale(0.015625)"/>
       </defs>
       <use xlink:href="#DejaVuSans-32"/>
       <use xlink:href="#DejaVuSans-30" x="63.623047"/>
       <use xlink:href="#DejaVuSans-30" x="127.246094"/>
      </g>
     </g>
    </g>
    <g id="ytick_4">
     <g id="line2d_12">
      <g>
       <use xlink:href="#m9697185da9" x="45" y="31.844724" style="stroke: #000000; stroke-width: 0.8"/>
      </g>
     </g>
     <g id="text_13">
      <!-- 300 -->
      <g transform="translate(18.9125 35.643943) scale(0.1 -0.1)">
       <defs>
        <path id="DejaVuSans-33" d="M 2597 2516 
Q 3050 2419 3304 2112 
Q 3559 1806 3559 1356 
Q 3559 666 3084 287 
Q 2609 -91 1734 -91 
Q 1441 -91 1130 -33 
Q 819 25 488 141 
L 488 750 
Q 750 597 1062 519 
Q 1375 441 1716 441 
Q 2309 441 2620 675 
Q 2931 909 2931 1356 
Q 2931 1769 2642 2001 
Q 2353 2234 1838 2234 
L 1294 2234 
L 1294 2753 
L 1863 2753 
Q 2328 2753 2575 2939 
Q 2822 3125 2822 3475 
Q 2822 3834 2567 4026 
Q 2313 4219 1838 4219 
Q 1578 4219 1281 4162 
Q 984 4106 628 3988 
L 628 4550 
Q 988 4650 1302 4700 
Q 1616 4750 1894 4750 
Q 2613 4750 3031 4423 
Q 3450 4097 3450 3541 
Q 3450 3153 3228 2886 
Q 3006 2619 2597 2516 
z
" transform="scale(0.015625)"/>
       </defs>
       <use xlink:href="#DejaVuSans-33"/>
       <use xlink:href="#DejaVuSans-30" x="63.623047"/>
       <use xlink:href="#DejaVuSans-30" x="127.246094"/>
      </g>
     </g>
    </g>
    <g id="text_14">
     <!-- $\mathrm{Impedance} \; (\Omega)$ -->
     <g transform="translate(12.8125 164.01) rotate(-90) scale(0.1 -0.1)">
      <defs>
       <path id="DejaVuSans-49" d="M 628 4666 
L 1259 4666 
L 1259 0 
L 628 0 
L 628 4666 
z
" transform="scale(0.015625)"/>
       <path id="DejaVuSans-6d" d="M 3328 2828 
Q 3544 3216 3844 3400 
Q 4144 3584 4550 3584 
Q 5097 3584 5394 3201 
Q 5691 2819 5691 2113 
L 5691 0 
L 5113 0 
L 5113 2094 
Q 5113 2597 4934 2840 
Q 4756 3084 4391 3084 
Q 3944 3084 3684 2787 
Q 3425 2491 3425 1978 
L 3425 0 
L 2847 0 
L 2847 2094 
Q 2847 2600 2669 2842 
Q 2491 3084 2119 3084 
Q 1678 3084 1418 2786 
Q 1159 2488 1159 1978 
L 1159 0 
L 581 0 
L 581 3500 
L 1159 3500 
L 1159 2956 
Q 1356 3278 1631 3431 
Q 1906 3584 2284 3584 
Q 2666 3584 2933 3390 
Q 3200 3197 3328 2828 
z
" transform="scale(0.015625)"/>
       <path id="DejaVuSans-70" d="M 1159 525 
L 1159 -1331 
L 581 -1331 
L 581 3500 
L 1159 3500 
L 1159 2969 
Q 1341 3281 1617 3432 
Q 1894 3584 2278 3584 
Q 2916 3584 3314 3078 
Q 3713 2572 3713 1747 
Q 3713 922 3314 415 
Q 2916 -91 2278 -91 
Q 1894 -91 1617 61 
Q 1341 213 1159 525 
z
M 3116 1747 
Q 3116 2381 2855 2742 
Q 2594 3103 2138 3103 
Q 1681 3103 1420 2742 
Q 1159 2381 1159 1747 
Q 1159 1113 1420 752 
Q 1681 391 2138 391 
Q 2594 391 2855 752 
Q 3116 1113 3116 1747 
z
" transform="scale(0.015625)"/>
       <path id="DejaVuSans-64" d="M 2906 2969 
L 2906 4863 
L 3481 4863 
L 3481 0 
L 2906 0 
L 2906 525 
Q 2725 213 2448 61 
Q 2172 -91 1784 -91 
Q 1150 -91 751 415 
Q 353 922 353 1747 
Q 353 2572 751 3078 
Q 1150 3584 1784 3584 
Q 2172 3584 2448 3432 
Q 2725 3281 2906 2969 
z
M 947 1747 
Q 947 1113 1208 752 
Q 1469 391 1925 391 
Q 2381 391 2643 752 
Q 2906 1113 2906 1747 
Q 2906 2381 2643 2742 
Q 2381 3103 1925 3103 
Q 1469 3103 1208 2742 
Q 947 2381 947 1747 
z
" transform="scale(0.015625)"/>
       <path id="DejaVuSans-61" d="M 2194 1759 
Q 1497 1759 1228 1600 
Q 959 1441 959 1056 
Q 959 750 1161 570 
Q 1363 391 1709 391 
Q 2188 391 2477 730 
Q 2766 1069 2766 1631 
L 2766 1759 
L 2194 1759 
z
M 3341 1997 
L 3341 0 
L 2766 0 
L 2766 531 
Q 2569 213 2275 61 
Q 1981 -91 1556 -91 
Q 1019 -91 701 211 
Q 384 513 384 1019 
Q 384 1609 779 1909 
Q 1175 2209 1959 2209 
L 2766 2209 
L 2766 2266 
Q 2766 2663 2505 2880 
Q 2244 3097 1772 3097 
Q 1472 3097 1187 3025 
Q 903 2953 641 2809 
L 641 3341 
Q 956 3463 1253 3523 
Q 1550 3584 1831 3584 
Q 2591 3584 2966 3190 
Q 3341 2797 3341 1997 
z
" transform="scale(0.015625)"/>
       <path id="DejaVuSans-3a9" d="M 4647 556 
L 4647 0 
L 2772 0 
L 2772 556 
Q 3325 859 3634 1378 
Q 3944 1897 3944 2528 
Q 3944 3278 3531 3731 
Q 3119 4184 2444 4184 
Q 1769 4184 1355 3729 
Q 941 3275 941 2528 
Q 941 1897 1250 1378 
Q 1563 859 2119 556 
L 2119 0 
L 244 0 
L 244 556 
L 1241 556 
Q 747 991 519 1456 
Q 294 1922 294 2497 
Q 294 3491 894 4106 
Q 1491 4722 2444 4722 
Q 3391 4722 3994 4106 
Q 4594 3494 4594 2528 
Q 4594 1922 4372 1459 
Q 4150 997 3647 556 
L 4647 556 
z
" transform="scale(0.015625)"/>
      </defs>
      <use xlink:href="#DejaVuSans-49" transform="translate(0 0.015625)"/>
      <use xlink:href="#DejaVuSans-6d" transform="translate(25.867188 0.015625)"/>
      <use xlink:href="#DejaVuSans-70" transform="translate(123.279297 0.015625)"/>
      <use xlink:href="#DejaVuSans-65" transform="translate(186.755859 0.015625)"/>
      <use xlink:href="#DejaVuSans-64" transform="translate(248.279297 0.015625)"/>
      <use xlink:href="#DejaVuSans-61" transform="translate(311.755859 0.015625)"/>
      <use xlink:href="#DejaVuSans-6e" transform="translate(373.035156 0.015625)"/>
      <use xlink:href="#DejaVuSans-63" transform="translate(436.414062 0.015625)"/>
      <use xlink:href="#DejaVuSans-65" transform="translate(491.394531 0.015625)"/>
      <use xlink:href="#DejaVuSans-28" transform="translate(579.977104 0.015625)"/>
      <use xlink:href="#DejaVuSans-3a9" transform="translate(618.990776 0.015625)"/>
      <use xlink:href="#DejaVuSans-29" transform="translate(695.406792 0.015625)"/>
     </g>
    </g>
   </g>
   <g id="line2d_13">
    <path d="M 44.965125 214.139293 
L 45.20925 213.849111 
L 45.34875 213.970923 
L 45.453375 213.989306 
L 45.558 214.221791 
L 45.62775 214.156376 
L 45.76725 214.027813 
L 45.802125 214.08319 
L 45.90675 213.981986 
L 45.941625 214.041483 
L 46.290375 214.114731 
L 46.395 214.139031 
L 47.02275 214.211727 
L 47.197125 214.161017 
L 47.266875 214.199828 
L 47.336625 214.344722 
L 47.3715 214.300491 
L 47.476125 214.147608 
L 47.511 214.20666 
L 47.615625 214.177129 
L 47.685375 214.28188 
L 47.72025 214.23476 
L 47.755125 214.18247 
L 47.824875 214.255706 
L 48.243375 214.191672 
L 48.382875 214.297356 
L 48.627 214.229426 
L 48.69675 214.341919 
L 48.731625 214.232515 
L 48.83625 214.187635 
L 49.0455 214.328056 
L 49.150125 214.154515 
L 49.185 214.251349 
L 49.464 214.260789 
L 49.638375 214.143268 
L 49.917375 214.206181 
L 50.056875 214.063206 
L 50.1615 214.190824 
L 50.301 214.109219 
L 50.51025 214.30982 
L 50.545125 214.252558 
L 50.614875 214.250843 
L 50.684625 214.500311 
L 50.754375 214.389176 
L 50.92875 214.315748 
L 51.521625 214.227497 
L 51.696 214.020182 
L 51.76575 214.14909 
L 51.90525 214.39643 
L 51.940125 214.353676 
L 52.149375 214.177258 
L 52.254 214.222854 
L 52.498125 214.008895 
L 52.6725 214.301221 
L 52.707375 214.227555 
L 52.812 214.226852 
L 52.916625 214.175118 
L 53.125875 214.375341 
L 53.30025 214.320171 
L 53.404875 214.163015 
L 53.43975 214.187331 
L 53.614125 214.306641 
L 53.71875 214.333029 
L 53.823375 214.415376 
L 53.85825 214.377728 
L 54.207 214.151011 
L 54.27675 214.288892 
L 54.381375 214.178632 
L 54.765 214.018574 
L 55.009125 214.202159 
L 55.044 214.119906 
L 55.11375 214.216463 
L 55.323 214.304623 
L 55.427625 214.332682 
L 55.567125 214.369328 
L 55.636875 214.291727 
L 55.67175 214.390523 
L 55.706625 214.441346 
L 55.776375 214.352628 
L 55.95075 214.375468 
L 55.985625 214.463474 
L 56.055375 214.378143 
L 56.09025 214.346179 
L 56.404125 213.264682 
L 56.439 213.148333 
L 56.50875 213.29023 
L 56.683125 213.192407 
L 56.752875 213.126053 
L 56.78775 213.250434 
L 56.892375 212.962537 
L 56.962125 212.995472 
L 57.4155 212.577166 
L 57.450375 212.478491 
L 57.520125 212.593728 
L 57.589875 212.53277 
L 57.62475 212.555367 
L 57.868875 212.760661 
L 57.9735 212.623292 
L 57.938625 212.801861 
L 58.008375 212.669138 
L 58.392 212.776682 
L 58.426875 212.733001 
L 58.46175 212.847248 
L 58.60125 212.953681 
L 58.671 212.669809 
L 58.705875 212.709756 
L 58.74075 212.902911 
L 58.8105 212.707969 
L 58.88025 212.553268 
L 58.915125 212.695311 
L 59.194125 213.125509 
L 59.229 213.000188 
L 59.29875 213.073272 
L 59.333625 213.137608 
L 59.3685 213.012787 
L 59.43825 212.904964 
L 59.473125 212.918299 
L 59.612625 212.984814 
L 59.752125 213.01003 
L 59.9265 213.207021 
L 60.589125 212.72226 
L 60.658875 213.006477 
L 60.728625 212.896173 
L 61.3215 213.139897 
L 61.461 213.09443 
L 61.495875 213.141643 
L 61.53075 213.093831 
L 61.635375 213.059737 
L 61.74 213.1024 
L 61.914375 213.010991 
L 61.94925 213.052487 
L 62.08875 212.981716 
L 62.298 212.672572 
L 62.332875 212.727259 
L 62.36775 212.668324 
L 62.50725 212.566765 
L 62.751375 212.829227 
L 62.856 212.881475 
L 62.92575 212.896266 
L 62.960625 212.785467 
L 63.030375 212.889406 
L 63.135 212.883186 
L 63.2745 213.031591 
L 63.379125 213.106573 
L 63.448875 213.201051 
L 63.518625 213.110756 
L 64.006875 212.539603 
L 64.076625 212.662459 
L 64.251 212.604954 
L 64.32075 212.387387 
L 64.3905 212.507431 
L 64.495125 212.293762 
L 64.53 212.403425 
L 64.73925 212.391092 
L 64.983375 212.496995 
L 65.01825 212.442684 
L 65.053125 212.502043 
L 65.2275 212.619319 
L 65.367 212.592989 
L 65.57625 212.907526 
L 65.611125 212.973182 
L 65.646 212.932382 
L 65.85525 212.7052 
L 65.925 212.616381 
L 66.029625 212.506254 
L 66.0645 212.573881 
L 66.099375 212.426947 
L 66.41325 212.357595 
L 66.55275 212.418177 
L 66.6225 212.180001 
L 66.762 211.590979 
L 66.796875 211.90418 
L 66.866625 211.64132 
L 66.936375 211.965726 
L 67.006125 211.815583 
L 67.075875 211.865507 
L 67.1805 211.982707 
L 67.32 211.842066 
L 67.354875 212.025819 
L 67.424625 211.908558 
L 67.494375 211.954497 
L 67.599 211.614643 
L 67.66875 211.858225 
L 67.703625 211.704705 
L 67.878 211.928655 
L 68.157 211.490662 
L 68.191875 211.561125 
L 68.22675 211.442529 
L 68.331375 211.38369 
L 68.470875 211.402821 
L 68.610375 211.301225 
L 68.78475 211.662557 
L 68.889375 211.670065 
L 69.06375 211.989174 
L 69.168375 211.849392 
L 69.20325 211.801267 
L 69.238125 211.884724 
L 69.273 212.017227 
L 69.34275 211.919503 
L 69.48225 211.77577 
L 69.517125 211.802916 
L 69.552 211.808468 
L 69.586875 211.688358 
L 69.656625 211.818134 
L 69.831 212.007593 
L 69.935625 211.889542 
L 69.9705 211.910193 
L 70.075125 211.883473 
L 70.11 212.007181 
L 70.144875 211.844045 
L 70.214625 211.713457 
L 70.2495 211.786287 
L 70.31925 211.700189 
L 70.493625 211.50176 
L 70.563375 211.576235 
L 70.59825 211.674458 
L 70.668 211.550231 
L 70.702875 211.566727 
L 70.73775 211.417788 
L 70.8075 211.498638 
L 70.981875 211.399906 
L 71.01675 211.527858 
L 71.0865 211.452072 
L 71.121375 211.401994 
L 71.15625 211.511767 
L 71.3655 211.704367 
L 71.470125 211.327269 
L 71.539875 211.343653 
L 71.749125 211.081447 
L 71.784 211.15567 
L 71.85375 211.051718 
L 72.237375 211.226697 
L 72.342 211.103425 
L 72.376875 211.119333 
L 72.586125 211.322515 
L 72.621 211.287523 
L 72.7605 211.203212 
L 72.795375 211.144775 
L 72.83025 211.280593 
L 72.865125 211.411376 
L 72.934875 211.264458 
L 73.074375 211.354582 
L 73.179 211.454283 
L 73.213875 211.401929 
L 73.24875 211.661204 
L 73.3185 211.622327 
L 73.423125 211.406827 
L 73.492875 211.458143 
L 73.5975 211.568265 
L 73.632375 211.491942 
L 74.190375 210.90624 
L 74.22525 210.99577 
L 74.295 210.907399 
L 74.36475 211.020567 
L 74.50425 211.371613 
L 74.539125 211.298116 
L 74.678625 211.482357 
L 74.7135 211.437994 
L 74.748375 211.552615 
L 74.887875 211.408086 
L 74.957625 211.280512 
L 75.097125 211.539989 
L 75.132 211.469846 
L 75.20175 211.570588 
L 75.306375 211.517576 
L 75.411 211.42995 
L 75.655125 210.961449 
L 75.8295 210.919324 
L 76.003875 210.3803 
L 76.03875 210.4806 
L 76.073625 210.352249 
L 76.17825 210.043149 
L 76.213125 210.254078 
L 76.248 210.27163 
L 76.3875 210.076523 
L 76.422375 210.144262 
L 76.492125 210.054863 
L 76.527 210.047553 
L 76.771125 211.135675 
L 76.806 211.143137 
L 76.840875 211.033433 
L 76.87575 211.207776 
L 77.01525 211.001947 
L 77.085 210.760897 
L 77.119875 210.863001 
L 77.259375 211.036449 
L 77.329125 210.907023 
L 77.43375 210.644124 
L 77.468625 210.710452 
L 77.538375 210.882634 
L 77.57325 210.688681 
L 77.677875 210.38406 
L 77.747625 210.793487 
L 77.85225 210.775711 
L 77.99175 210.442996 
L 78.0615 210.16602 
L 78.096375 210.309655 
L 78.13125 210.419128 
L 78.201 210.320355 
L 78.305625 210.070275 
L 78.375375 210.320728 
L 78.41025 210.120297 
L 78.54975 210.076289 
L 78.654375 209.743668 
L 78.68925 209.818988 
L 78.793875 210.284941 
L 78.82875 210.221264 
L 78.96825 210.521303 
L 79.003125 210.737517 
L 79.072875 210.529683 
L 79.142625 210.59212 
L 79.282125 210.107826 
L 79.317 210.158402 
L 79.421625 210.572612 
L 79.4565 210.530493 
L 79.630875 209.956015 
L 79.770375 210.203952 
L 79.94475 209.82856 
L 80.08425 209.986579 
L 80.119125 210.17485 
L 80.154 209.937917 
L 80.22375 209.895836 
L 80.258625 209.661353 
L 80.328375 209.850292 
L 80.537625 210.193107 
L 80.5725 210.024242 
L 80.78175 210.167911 
L 80.816625 210.277534 
L 80.886375 210.219299 
L 80.991 210.29893 
L 81.095625 210.037797 
L 81.20025 210.357498 
L 81.235125 210.248428 
L 81.549 209.938536 
L 81.723375 209.683821 
L 81.862875 209.843064 
L 81.89775 209.818614 
L 82.107 209.315671 
L 82.141875 209.391215 
L 82.281375 209.553112 
L 82.490625 209.820444 
L 82.665 210.316408 
L 82.839375 209.949351 
L 82.944 210.056951 
L 82.978875 209.977927 
L 83.01375 209.889101 
L 83.0835 209.925613 
L 83.257875 210.194641 
L 83.29275 210.174473 
L 83.43225 210.080318 
L 83.502 209.869749 
L 83.57175 209.929084 
L 83.606625 209.978747 
L 83.6415 209.948182 
L 83.71125 209.783618 
L 83.781 209.840286 
L 83.85075 209.887408 
L 83.885625 209.860977 
L 83.955375 209.833867 
L 84.12975 210.357813 
L 84.164625 210.329411 
L 84.1995 210.222496 
L 84.234375 210.361869 
L 84.26925 210.355813 
L 84.304125 210.293941 
L 84.373875 210.368524 
L 84.54825 210.609274 
L 84.652875 210.86134 
L 84.68775 210.793492 
L 84.7575 210.630705 
L 84.792375 210.803435 
L 84.82725 210.809543 
L 84.931875 211.011446 
L 85.350375 210.062043 
L 85.38525 210.205186 
L 85.455 210.424439 
L 85.489875 210.250227 
L 85.66425 209.694773 
L 85.768875 209.905057 
L 85.838625 210.1441 
L 85.8735 210.021704 
L 85.978125 210.014748 
L 86.1525 210.507953 
L 86.257125 210.199201 
L 86.326875 208.816578 
L 86.36175 209.927863 
L 86.4315 209.937685 
L 86.466375 209.501239 
L 86.50125 210.024832 
L 86.571 209.633885 
L 86.675625 209.605668 
L 86.78025 209.949322 
L 86.815125 209.898176 
L 86.85 209.97199 
L 86.884875 209.814168 
L 86.91975 209.912303 
L 86.954625 209.832063 
L 86.9895 209.997173 
L 87.024375 209.920373 
L 87.094125 210.251171 
L 87.129 210.00503 
L 87.303375 209.377157 
L 87.33825 209.502991 
L 87.47775 209.427637 
L 87.582375 209.224459 
L 87.5475 209.454817 
L 87.61725 209.271913 
L 87.721875 209.389438 
L 87.89625 208.824245 
L 88.03575 209.405599 
L 88.140375 209.299757 
L 88.279875 210.074105 
L 88.489125 210.094906 
L 88.59375 210.534852 
L 88.628625 210.51772 
L 88.768125 210.167807 
L 88.803 210.213139 
L 89.116875 210.472487 
L 89.2215 210.416149 
L 89.361 210.576259 
L 89.5005 210.128126 
L 89.535375 210.136949 
L 89.64 210.222225 
L 89.674875 210.034928 
L 89.70975 210.164668 
L 89.814375 210.426555 
L 89.84925 210.306936 
L 89.919 210.200111 
L 89.953875 210.397861 
L 90.0585 210.366647 
L 90.232875 210.239543 
L 90.442125 210.706827 
L 90.54675 210.716713 
L 90.581625 210.660082 
L 90.6165 210.756033 
L 90.68625 210.883749 
L 90.721125 210.750096 
L 90.8955 210.234679 
L 91.209375 210.693085 
L 91.279125 210.609256 
L 91.4535 210.327438 
L 91.627875 210.429882 
L 91.872 211.113134 
L 92.185875 211.078988 
L 92.22075 211.185029 
L 92.2905 211.142166 
L 92.325375 211.070594 
L 92.36025 211.123498 
L 92.534625 211.546081 
L 92.5695 211.518865 
L 92.604375 211.588035 
L 92.63925 211.547371 
L 92.77875 211.303712 
L 92.813625 211.382794 
L 92.883375 211.359994 
L 93.1275 211.04282 
L 93.162375 211.163184 
L 93.232125 211.103277 
L 93.441375 211.1164 
L 93.511125 211.231312 
L 93.61575 210.937214 
L 93.650625 210.955839 
L 93.720375 210.929114 
L 93.859875 211.294855 
L 93.89475 211.264108 
L 93.929625 211.354096 
L 94.03425 211.30614 
L 94.069125 211.259283 
L 94.17375 211.621643 
L 94.31325 211.353526 
L 94.348125 211.389758 
L 94.383 211.110816 
L 94.45275 211.240299 
L 94.487625 211.217916 
L 94.627125 211.415809 
L 94.73175 211.239744 
L 94.836375 211.481965 
L 94.87125 211.381191 
L 95.01075 211.069313 
L 95.0805 211.186453 
L 95.185125 211.313294 
L 95.22 211.224814 
L 95.254875 211.078497 
L 95.324625 211.145357 
L 95.603625 211.576876 
L 95.778 211.648414 
L 95.812875 211.539589 
L 95.882625 211.583572 
L 96.12675 212.076813 
L 96.161625 212.035544 
L 96.649875 212.055272 
L 96.68475 211.97887 
L 96.7545 212.084797 
L 96.928875 212.00695 
L 96.998625 212.183696 
L 97.068375 212.021821 
L 97.24275 211.840517 
L 97.277625 211.878191 
L 97.38225 211.731857 
L 97.417125 211.771026 
L 97.731 212.289991 
L 97.835625 212.06736 
L 97.905375 212.108055 
L 98.114625 212.263789 
L 98.254125 212.446998 
L 98.289 212.423198 
L 98.63775 212.379818 
L 98.742375 212.249779 
L 98.77725 212.302154 
L 98.951625 212.488498 
L 99.05625 212.321168 
L 99.091125 212.42925 
L 99.126 212.405014 
L 99.160875 212.509667 
L 99.439875 212.492495 
L 99.5445 212.486877 
L 99.579375 212.453815 
L 99.61425 212.526406 
L 99.75375 212.78647 
L 99.788625 212.76837 
L 99.997875 212.659382 
L 100.17225 212.923068 
L 100.276875 213.046726 
L 100.486125 213.123412 
L 100.6605 213.108053 
L 100.8 213.02996 
L 100.974375 213.220384 
L 101.00925 213.190527 
L 101.2185 212.891251 
L 101.253375 212.967395 
L 101.323125 212.929036 
L 101.358 213.019875 
L 101.56725 213.112502 
L 101.637 213.171396 
L 101.7765 213.219249 
L 101.916 213.227217 
L 102.020625 213.121383 
L 102.0555 213.138998 
L 102.26475 213.262978 
L 102.6135 213.401324 
L 102.648375 213.32369 
L 102.718125 213.383527 
L 102.787875 213.508911 
L 102.857625 213.454322 
L 103.764375 213.408211 
L 104.0085 213.57065 
L 104.148 213.501649 
L 104.810625 213.573143 
L 104.950125 213.52354 
L 105.229125 213.625075 
L 105.264 213.597525 
L 105.298875 213.651925 
L 105.4035 213.820779 
L 105.47325 213.71353 
L 105.717375 213.698597 
L 105.787125 213.864602 
L 105.856875 213.785594 
L 105.996375 213.655324 
L 106.03125 213.684993 
L 106.205625 213.794634 
L 106.58925 213.639705 
L 106.693875 213.833476 
L 106.72875 213.801566 
L 107.00775 213.772236 
L 107.740125 213.920211 
L 107.84475 213.759175 
L 107.879625 213.796955 
L 107.98425 213.943485 
L 108.019125 213.886257 
L 108.228375 213.877895 
L 108.367875 213.955982 
L 108.40275 213.901398 
L 108.4725 213.957289 
L 108.786375 213.842543 
L 108.82125 213.762842 
L 108.891 213.877422 
L 109.10025 213.803645 
L 109.274625 213.808003 
L 109.414125 214.038252 
L 109.483875 213.992895 
L 109.623375 214.034771 
L 109.79775 213.936411 
L 109.8675 213.966705 
L 109.902375 213.917847 
L 110.181375 213.991248 
L 110.35575 214.053083 
L 110.460375 214.075347 
L 111.088125 213.919399 
L 111.227625 213.879412 
L 111.2625 213.947562 
L 111.33225 213.87899 
L 111.89025 213.882997 
L 112.204125 213.757491 
L 112.343625 213.829472 
L 112.518 213.714184 
L 112.58775 213.77743 
L 112.622625 213.747825 
L 112.72725 213.706632 
L 112.762125 213.786017 
L 112.831875 213.705093 
L 113.00625 213.695351 
L 113.110875 213.658449 
L 113.56425 213.480924 
L 113.738625 213.596763 
L 113.878125 213.511532 
L 114.26175 213.699735 
L 114.68025 213.655074 
L 114.95925 213.692766 
L 115.09875 213.682944 
L 115.273125 213.657013 
L 115.4475 213.600953 
L 115.552125 213.586546 
L 115.7265 213.521665 
L 115.93575 213.523954 
L 116.145 213.428467 
L 116.2845 213.513609 
L 116.35425 213.464648 
L 116.458875 212.029568 
L 116.528625 212.452845 
L 116.5635 212.76552 
L 116.598375 212.084226 
L 116.63325 212.75419 
L 116.807625 212.323458 
L 117.05175 212.28678 
L 117.365625 212.048603 
L 117.47025 212.021006 
L 117.714375 211.639299 
L 117.74925 211.661252 
L 117.853875 211.714539 
L 117.88875 211.66877 
L 118.202625 211.284792 
L 118.2375 211.373349 
L 118.30725 211.277256 
L 118.44675 211.35278 
L 118.481625 211.299304 
L 118.760625 211.333239 
L 118.969875 211.641562 
L 119.179125 211.889073 
L 119.3535 212.027058 
L 119.527875 212.068229 
L 119.70225 211.995349 
L 119.9115 212.042826 
L 120.085875 211.814435 
L 120.295125 211.257189 
L 120.33 211.322191 
L 120.67875 211.328128 
L 120.783375 211.426129 
L 120.888 211.205531 
L 121.0275 211.569289 
L 121.09725 211.604942 
L 121.167 211.511295 
L 121.271625 211.681744 
L 121.3065 211.643735 
L 121.341375 211.414863 
L 121.411125 211.499559 
L 121.550625 211.270401 
L 122.457375 209.694036 
L 122.666625 209.081506 
L 122.77125 209.048091 
L 122.875875 208.831146 
L 122.91075 208.926155 
L 123.015375 208.931485 
L 123.364125 209.593096 
L 123.643125 210.436826 
L 123.74775 210.373239 
L 123.922125 210.389133 
L 124.3755 209.62243 
L 124.58475 208.820803 
L 124.794 208.284849 
L 125.2125 209.230785 
L 125.56125 210.599786 
L 125.7705 211.101356 
L 125.84025 211.06336 
L 126.781875 207.391365 
L 127.09575 205.589718 
L 127.1655 205.834235 
L 127.23525 205.737737 
L 127.37475 205.247653 
L 127.479375 205.325896 
L 127.51425 205.252895 
L 127.618875 205.467249 
L 128.037375 207.735817 
L 128.107125 207.799976 
L 128.142 207.879535 
L 128.176875 207.827269 
L 128.874375 202.536531 
L 129.04875 201.63004 
L 129.083625 201.737779 
L 129.1185 201.60501 
L 129.153375 201.156042 
L 129.18825 201.306118 
L 129.362625 202.591295 
L 130.339125 209.124826 
L 130.5135 208.338187 
L 130.86225 205.614751 
L 131.211 202.005661 
L 131.3505 201.345171 
L 131.385375 201.534358 
L 131.455125 201.736456 
L 131.49 201.626413 
L 131.594625 201.506109 
L 131.664375 201.869633 
L 131.734125 201.821817 
L 131.83875 201.449741 
L 131.9085 201.020967 
L 131.97825 201.158386 
L 132.1875 202.336831 
L 132.361875 203.134151 
L 132.39675 203.062076 
L 132.431625 203.0574 
L 132.501375 202.596035 
L 132.710625 201.030104 
L 132.919875 198.143975 
L 133.477875 189.459038 
L 133.65225 192.930486 
L 133.687125 192.796432 
L 134.1405 196.51771 
L 134.384625 200.13636 
L 134.663625 201.754301 
L 134.76825 202.246676 
L 134.803125 202.098767 
L 134.90775 202.609099 
L 134.942625 202.402712 
L 135.04725 201.761651 
L 135.082125 201.780125 
L 135.117 201.862707 
L 135.18675 200.438806 
L 135.430875 196.788556 
L 135.60525 194.743049 
L 135.709875 195.70206 
L 135.919125 198.015131 
L 135.954 197.911667 
L 135.988875 198.038879 
L 136.16325 198.388058 
L 136.3725 197.50934 
L 136.512 196.616796 
L 136.546875 196.756921 
L 136.6515 195.494445 
L 137.07 191.37054 
L 137.104875 191.719924 
L 137.174625 191.330125 
L 137.802375 179.836771 
L 137.83725 180.204478 
L 138.220875 184.2971 
L 138.290625 185.02009 
L 138.6045 188.245636 
L 138.639375 188.167231 
L 138.709125 189.006414 
L 138.744 188.834162 
L 138.81375 186.91225 
L 138.8835 187.535042 
L 139.302 193.425955 
L 139.4415 195.804524 
L 139.476375 195.740048 
L 139.65075 195.787941 
L 139.79025 194.139494 
L 139.964625 192.41496 
L 139.9995 192.428178 
L 140.06925 192.922766 
L 140.139 192.906264 
L 140.2785 191.991285 
L 140.522625 193.070928 
L 140.697 192.541689 
L 140.90625 189.487031 
L 141.1155 184.90576 
L 141.150375 184.272976 
L 141.220125 184.69122 
L 141.255 184.555743 
L 141.289875 184.637748 
L 141.534 187.547657 
L 141.60375 189.064761 
L 141.6735 188.751569 
L 141.708375 188.770198 
L 141.74325 188.405727 
L 141.813 188.679956 
L 141.847875 188.84155 
L 142.092 184.756434 
L 142.126875 184.935856 
L 142.5105 177.936571 
L 142.58025 178.320678 
L 142.71975 180.27494 
L 142.963875 184.060433 
L 142.99875 184.646307 
L 143.0685 184.319298 
L 143.173125 183.537173 
L 143.208 183.663926 
L 143.382375 185.645806 
L 143.41725 185.198609 
L 143.452125 185.7465 
L 143.487 185.462463 
L 143.6265 187.038624 
L 143.83575 191.225514 
L 143.9055 191.18313 
L 144.149625 193.873006 
L 144.498375 191.569396 
L 144.67275 188.257306 
L 144.707625 188.539176 
L 144.777375 188.195643 
L 144.847125 188.230271 
L 145.265625 190.921983 
L 145.3005 190.908652 
L 145.335375 190.728251 
L 145.37025 190.855123 
L 145.474875 191.20156 
L 145.50975 191.042036 
L 145.544625 191.018362 
L 145.64925 190.324097 
L 145.684125 190.482269 
L 145.719 190.448171 
L 145.753875 191.004008 
L 145.823625 190.940932 
L 145.8585 190.725567 
L 145.893375 190.968186 
L 145.92825 191.095879 
L 145.963125 191.011908 
L 146.032875 190.335993 
L 146.06775 190.508536 
L 146.1375 191.078778 
L 146.311875 191.993761 
L 146.381625 192.122559 
L 146.590875 190.02188 
L 146.800125 185.327551 
L 146.869875 185.347062 
L 146.9745 184.573106 
L 147.009375 185.133506 
L 147.114 186.478269 
L 147.18375 186.340099 
L 147.218625 186.096432 
L 147.2535 186.21743 
L 147.393 187.459361 
L 147.672 186.374305 
L 147.74175 186.959231 
L 147.776625 186.648282 
L 147.985875 185.083175 
L 148.0905 185.965234 
L 148.264875 182.005146 
L 148.334625 183.082951 
L 148.788 190.502403 
L 148.892625 189.794417 
L 148.9275 189.829327 
L 149.067 189.262022 
L 149.101875 189.373343 
L 149.171625 188.956299 
L 149.346 187.25701 
L 149.380875 187.398878 
L 149.625 185.030291 
L 149.659875 185.132706 
L 149.69475 184.644563 
L 149.7645 185.156505 
L 149.869125 185.939168 
L 149.938875 185.832586 
L 150.078375 185.320749 
L 150.11325 186.050209 
L 150.183 185.600387 
L 150.217875 185.739651 
L 150.25275 185.69001 
L 150.39225 184.572336 
L 151.02 194.257527 
L 151.054875 194.093121 
L 151.264125 192.621589 
L 151.299 192.568298 
L 151.578 188.300305 
L 151.78725 183.272052 
L 151.9965 179.937829 
L 152.031375 179.974509 
L 152.240625 174.74985 
L 152.380125 176.068406 
L 152.415 175.352449 
L 152.659125 171.013226 
L 152.694 171.453881 
L 152.76375 170.763365 
L 152.798625 170.915263 
L 153.217125 180.219652 
L 153.252 179.62534 
L 153.286875 179.991263 
L 153.496125 181.393018 
L 153.60075 180.344863 
L 153.635625 180.396225 
L 154.2285 159.519247 
L 154.263375 160.627207 
L 154.333125 160.368015 
L 154.368 158.429827 
L 154.472625 158.474773 
L 154.647 163.061088 
L 154.99575 178.772183 
L 155.449125 186.001489 
L 155.484 186.027472 
L 155.518875 185.368267 
L 155.55375 185.937391 
L 155.588625 186.337539 
L 155.6235 186.284724 
L 156.321 166.840494 
L 156.6 153.839592 
L 156.634875 154.433896 
L 156.66975 154.603237 
L 156.844125 148.895689 
L 156.879 150.110244 
L 157.262625 157.568271 
L 157.2975 157.757625 
L 157.36725 160.455161 
L 157.437 159.386388 
L 157.471875 159.071502 
L 157.50675 159.455647 
L 157.541625 159.951423 
L 157.92525 148.936801 
L 157.960125 149.58639 
L 157.995 148.553542 
L 158.029875 149.305158 
L 158.06475 148.92754 
L 158.6925 112.329229 
L 158.76225 115.443427 
L 159.2505 156.696739 
L 159.494625 166.976392 
L 159.564375 166.035934 
L 159.59925 166.902522 
L 159.773625 169.595297 
L 160.0875 162.244574 
L 160.331625 157.792638 
L 161.13375 123.793111 
L 161.168625 124.684033 
L 161.238375 124.589765 
L 161.27325 124.391627 
L 161.55225 140.168742 
L 161.622 138.581317 
L 161.726625 141.078528 
L 161.7615 140.700305 
L 162.5985 105.776935 
L 162.633375 104.794333 
L 162.703125 105.618641 
L 162.738 105.600253 
L 162.80775 107.721406 
L 162.8775 107.150958 
L 162.912375 106.113324 
L 162.94725 106.868721 
L 162.982125 108.330844 
L 163.017 106.844078 
L 163.121625 104.498881 
L 163.749375 140.006388 
L 163.78425 139.853092 
L 164.028375 144.23225 
L 164.586375 127.75781 
L 164.62125 127.453803 
L 164.656125 126.100536 
L 164.725875 126.883593 
L 164.76075 126.874967 
L 165.074625 132.028465 
L 165.144375 129.468646 
L 165.17925 132.189205 
L 165.59775 122.863715 
L 165.73725 122.995842 
L 165.911625 129.698817 
L 165.9465 129.712065 
L 166.086 127.603865 
L 166.365 117.559921 
L 166.57425 104.252703 
L 166.71375 107.217337 
L 166.748625 106.236877 
L 166.7835 106.133961 
L 166.99275 111.927723 
L 167.027625 110.725165 
L 167.097375 114.960947 
L 167.167125 114.350642 
L 167.446125 123.424899 
L 167.481 122.52104 
L 167.515875 120.697541 
L 167.585625 122.479681 
L 167.6205 122.62747 
L 167.69025 124.80511 
L 167.725125 123.704892 
L 167.96925 115.819563 
L 168.039 117.419319 
L 168.10875 118.093113 
L 168.143625 117.839983 
L 168.1785 116.546831 
L 168.213375 119.32061 
L 168.283125 122.35044 
L 168.38775 122.234839 
L 168.422625 122.291068 
L 168.701625 130.345005 
L 168.7365 129.910464 
L 168.80625 127.576038 
L 168.910875 127.75487 
L 168.94575 127.455394 
L 168.980625 127.901635 
L 169.0155 128.716694 
L 169.155 125.717211 
L 169.538625 139.890243 
L 169.5735 139.500269 
L 169.678125 144.03705 
L 169.713 143.273133 
L 169.817625 141.311907 
L 170.236125 128.819948 
L 170.34075 131.128128 
L 170.4105 129.520345 
L 170.445375 129.905578 
L 170.515125 129.579295 
L 170.61975 133.48644 
L 170.654625 133.382781 
L 171.073125 144.884105 
L 171.108 144.446819 
L 171.387 138.314786 
L 171.421875 138.488881 
L 171.45675 140.113473 
L 171.5265 138.680861 
L 171.59625 140.955753 
L 171.666 140.114453 
L 171.73575 140.520882 
L 171.910125 137.479746 
L 172.0845 132.201788 
L 172.119375 131.378126 
L 172.15425 132.227033 
L 172.189125 133.050936 
L 172.398375 120.966453 
L 172.43325 121.443996 
L 172.468125 121.135485 
L 172.503 121.726945 
L 172.85175 128.93579 
L 172.886625 128.089203 
L 172.9215 129.048685 
L 173.095875 135.284845 
L 173.2005 133.155162 
L 173.27025 133.606593 
L 173.444625 138.130168 
L 173.4795 137.154213 
L 173.514375 137.377174 
L 173.898 145.763749 
L 173.932875 144.497816 
L 173.96775 145.455107 
L 174.142125 146.790701 
L 174.177 147.100892 
L 174.211875 146.53003 
L 174.281625 145.744766 
L 174.3165 146.676669 
L 174.351375 146.373757 
L 174.490875 141.678344 
L 174.52575 141.986504 
L 174.560625 142.278651 
L 174.5955 140.21958 
L 174.700125 140.390375 
L 174.735 139.237546 
L 174.769875 140.913004 
L 174.94425 145.960453 
L 174.979125 145.683307 
L 175.188375 155.883 
L 175.4325 161.869856 
L 175.467375 161.85148 
L 175.537125 160.809127 
L 175.64175 162.758461 
L 175.676625 162.2459 
L 175.746375 163.14774 
L 175.78125 162.365041 
L 175.816125 162.528029 
L 176.025375 158.586343 
L 176.33925 150.928737 
L 176.374125 151.090379 
L 176.47875 149.601578 
L 176.653125 141.554878 
L 176.75775 142.341079 
L 176.792625 142.675938 
L 176.8275 142.591093 
L 176.932125 139.672977 
L 176.967 140.118747 
L 177.001875 140.242153 
L 177.141375 133.209741 
L 177.17625 134.452441 
L 177.31575 132.831563 
L 177.350625 133.123505 
L 177.559875 123.099596 
L 177.6645 125.829671 
L 177.699375 123.144126 
L 177.73425 124.536493 
L 177.908625 132.32123 
L 177.9435 131.707547 
L 177.978375 131.912584 
L 178.117875 134.670098 
L 178.15275 134.20882 
L 178.187625 135.689336 
L 178.2225 134.008525 
L 178.29225 131.273524 
L 178.5015 124.581641 
L 178.57125 123.863895 
L 178.606125 123.906445 
L 178.7805 118.776351 
L 178.885125 121.065191 
L 178.92 120.300919 
L 178.98975 120.49059 
L 179.024625 118.848452 
L 180.001125 165.345731 
L 180.070875 165.333006 
L 180.140625 164.518865 
L 180.1755 164.687921 
L 180.24525 166.361937 
L 180.315 165.834412 
L 180.419625 162.346316 
L 181.117125 135.82296 
L 181.22175 127.178152 
L 181.2915 128.186728 
L 181.326375 129.122878 
L 181.36125 127.236142 
L 181.77975 108.243079 
L 181.814625 109.189046 
L 181.8495 109.219796 
L 182.023875 101.32194 
L 182.05875 101.791148 
L 182.19825 104.07424 
L 182.268 102.620985 
L 182.302875 103.57544 
L 182.4075 107.992081 
L 182.442375 105.935346 
L 182.512125 104.891579 
L 182.547 105.046655 
L 183.000375 70.613964 
L 183.03525 72.329029 
L 183.105 70.702521 
L 183.31425 64.489946 
L 183.558375 87.660369 
L 184.116375 133.113068 
L 184.395375 143.609721 
L 184.43025 142.666739 
L 184.5 143.35866 
L 184.6395 146.134944 
L 184.674375 145.838816 
L 184.70925 145.917143 
L 184.813875 142.741606 
L 185.092875 128.306561 
L 185.511375 103.927951 
L 185.82525 87.001137 
L 185.929875 84.210799 
L 185.999625 87.285848 
L 186.0345 85.247485 
L 186.069375 85.207519 
L 186.10425 85.445722 
L 186.174 79.29334 
L 186.278625 71.182039 
L 186.3135 71.200339 
L 186.348375 71.199828 
L 186.487875 65.425251 
L 186.52275 67.619571 
L 186.5925 66.204205 
L 187.255125 40.418792 
L 187.29 42.80277 
L 187.324875 43.146108 
L 187.394625 40.939317 
L 187.4295 42.665509 
L 187.49925 41.421605 
L 187.534125 39.06 
L 187.569 41.794169 
L 187.848 66.504913 
L 188.19675 107.005806 
L 188.406 115.179597 
L 188.440875 113.20326 
L 188.8245 119.646816 
L 189.1035 112.400463 
L 189.138375 112.528275 
L 189.243 104.873887 
L 189.31275 105.93533 
L 189.347625 106.698582 
L 189.522 99.843026 
L 189.696375 91.704284 
L 189.835875 84.959316 
L 189.87075 86.53615 
L 189.905625 83.780927 
L 190.01025 79.275395 
L 190.08 80.041691 
L 190.254375 86.109695 
L 190.28925 84.040905 
L 190.324125 86.46824 
L 190.393875 88.595486 
L 190.42875 87.006068 
L 190.4985 85.589864 
L 190.533375 87.662762 
L 190.603125 86.338331 
L 190.638 86.743593 
L 190.812375 83.853087 
L 190.882125 84.689338 
L 190.917 84.303423 
L 190.951875 83.124569 
L 191.021625 84.478171 
L 191.230875 77.489845 
L 191.300625 78.519651 
L 191.509875 88.279867 
L 191.54475 89.790867 
L 191.579625 87.752021 
L 191.6145 88.454053 
L 191.649375 88.169133 
L 191.754 91.526704 
L 191.788875 91.073091 
L 191.928375 89.128197 
L 192.033 90.739781 
L 192.067875 89.931005 
L 192.416625 116.715694 
L 192.486375 116.691647 
L 192.52125 116.616975 
L 192.66075 120.366851 
L 192.695625 120.819089 
L 192.7305 120.665548 
L 192.87 126.579466 
L 192.904875 126.309997 
L 193.183875 132.766879 
L 193.21875 132.526169 
L 193.253625 131.771816 
L 193.323375 132.117507 
L 193.35825 132.105636 
L 193.5675 139.079229 
L 193.77675 136.23479 
L 193.811625 136.843694 
L 193.881375 136.298887 
L 193.91625 136.364422 
L 194.090625 132.144059 
L 194.265 129.802032 
L 194.299875 130.600659 
L 194.61375 144.70272 
L 194.6835 143.696106 
L 194.718375 143.390283 
L 194.75325 143.555159 
L 194.927625 147.282962 
L 194.9625 147.24785 
L 194.997375 147.311209 
L 195.067125 145.369031 
L 195.136875 145.422734 
L 195.346125 149.862618 
L 195.415875 148.40672 
L 195.485625 148.685062 
L 195.625125 149.871321 
L 195.66 149.32321 
L 195.72975 151.517892 
L 195.764625 150.584255 
L 195.7995 149.13494 
L 195.86925 149.408195 
L 196.00875 151.390108 
L 196.043625 150.531098 
L 196.322625 147.524409 
L 196.3575 147.794035 
L 196.531875 144.195099 
L 196.741125 147.464935 
L 196.810875 146.718119 
L 196.98525 139.063605 
L 197.020125 139.171387 
L 197.055 139.907039 
L 197.089875 139.705025 
L 197.12475 138.910846 
L 197.1945 139.572522 
L 197.40375 147.611081 
L 197.68275 155.897384 
L 197.82225 155.501916 
L 197.892 155.243484 
L 197.996625 157.185153 
L 198.0315 156.422331 
L 198.066375 157.219882 
L 198.10125 157.362049 
L 198.65925 142.621282 
L 198.729 144.145075 
L 198.93825 148.349941 
L 198.973125 148.416836 
L 199.07775 152.858052 
L 199.35675 165.878299 
L 199.531125 170.059864 
L 199.566 169.6577 
L 199.600875 169.544471 
L 199.63575 169.766328 
L 199.845 171.986082 
L 200.19375 163.360079 
L 200.2635 163.901227 
L 200.298375 163.933845 
L 200.368125 162.894614 
L 201.24 122.158927 
L 201.44925 127.190241 
L 201.519 129.062569 
L 201.86775 145.302676 
L 201.9375 146.192863 
L 201.972375 145.389109 
L 202.111875 139.747396 
L 202.390875 127.613944 
L 202.460625 127.809309 
L 202.4955 126.709257 
L 202.56525 122.531695 
L 202.739625 110.255443 
L 202.7745 110.46381 
L 202.809375 110.066116 
L 202.914 115.600095 
L 203.227875 144.975698 
L 203.855625 169.617686 
L 204.309 159.461513 
L 204.51825 150.808421 
L 204.553125 151.200955 
L 204.588 150.553261 
L 204.867 133.950579 
L 205.180875 113.744928 
L 205.21575 113.31756 
L 205.250625 114.059196 
L 205.320375 114.399742 
L 205.390125 112.584242 
L 205.425 112.89391 
L 205.599375 117.173184 
L 205.878375 125.277251 
L 205.983 128.71043 
L 206.017875 127.428753 
L 206.1225 125.185069 
L 206.157375 125.872805 
L 206.227125 124.719546 
L 206.506125 109.850873 
L 206.541 108.317405 
L 206.785125 122.336032 
L 206.82 122.7107 
L 206.88975 114.52324 
L 206.924625 115.240281 
L 207.064125 129.416182 
L 207.099 130.053784 
L 207.30825 146.324352 
L 207.622125 152.610592 
L 207.691875 152.871993 
L 207.831375 154.850627 
L 207.86625 154.5369 
L 207.901125 155.403838 
L 207.936 154.012429 
L 207.970875 154.248899 
L 208.110375 157.515862 
L 208.14525 157.300027 
L 208.459125 153.225464 
L 208.494 153.584485 
L 208.84275 138.824311 
L 208.877625 140.164173 
L 208.9125 140.14177 
L 208.98225 137.677886 
L 209.1915 130.046575 
L 209.296125 132.548337 
L 209.331 131.890219 
L 209.40075 129.117829 
L 209.505375 129.214063 
L 209.575125 132.361923 
L 209.644875 131.208475 
L 209.67975 130.810503 
L 209.7495 134.030994 
L 209.784375 132.857682 
L 209.81925 133.110741 
L 209.854125 131.587934 
L 209.923875 132.684474 
L 210.202875 137.921192 
L 210.726 155.044627 
L 210.760875 154.857568 
L 210.8655 153.590759 
L 210.900375 154.026344 
L 211.1445 158.831168 
L 211.005 153.972668 
L 211.179375 158.641382 
L 211.21425 157.767836 
L 211.249125 158.865259 
L 211.284 158.840651 
L 211.35375 158.712608 
L 211.4235 160.091938 
L 211.737375 169.375058 
L 211.9815 174.620977 
L 212.016375 174.430809 
L 212.05125 174.089947 
L 212.086125 174.321248 
L 212.4 177.567859 
L 212.434875 177.195859 
L 212.46975 177.487226 
L 212.60925 182.174388 
L 212.679 181.542863 
L 212.713875 182.216018 
L 212.783625 181.790641 
L 213.0975 178.992599 
L 213.341625 175.588818 
L 213.481125 174.514804 
L 213.516 173.727372 
L 213.58575 174.033091 
L 213.760125 177.573622 
L 213.829875 177.334037 
L 213.899625 176.561662 
L 213.9345 176.823858 
L 214.318125 182.517232 
L 214.353 182.338064 
L 214.876125 187.849269 
L 214.911 187.869129 
L 215.19 190.30364 
L 215.224875 190.131374 
L 215.434125 186.297343 
L 215.469 186.674466 
L 215.6085 185.883233 
L 215.643375 186.102189 
L 215.67825 186.207845 
L 215.713125 186.13685 
L 215.922375 189.167447 
L 216.061875 187.952949 
L 216.1665 189.444458 
L 216.340875 193.601895 
L 216.37575 193.628882 
L 216.4455 194.861408 
L 216.585 195.955819 
L 216.619875 195.854623 
L 216.7245 193.701222 
L 216.759375 196.169516 
L 216.79425 193.50204 
L 216.829125 194.848746 
L 216.864 194.176286 
L 216.93375 194.394092 
L 217.0035 194.934612 
L 217.108125 195.85247 
L 217.21275 196.760062 
L 217.2825 196.3654 
L 217.35225 196.894879 
L 217.387125 196.677238 
L 217.735875 193.345704 
L 217.945125 194.821879 
L 217.98 194.515979 
L 218.04975 194.545349 
L 218.084625 194.74548 
L 218.1195 194.594673 
L 218.18925 193.855942 
L 218.259 193.105731 
L 218.293875 193.545563 
L 218.3985 194.317132 
L 218.572875 196.957695 
L 218.642625 197.398604 
L 218.6775 197.297199 
L 218.817 198.515313 
L 218.851875 198.649517 
L 219.16575 194.976269 
L 219.44475 198.124717 
L 219.654 196.101602 
L 219.758625 194.704526 
L 219.828375 194.831788 
L 220.037625 196.327844 
L 220.0725 196.241759 
L 220.212 195.265809 
L 220.3515 196.358921 
L 220.456125 195.727813 
L 220.944375 200.911503 
L 221.223375 198.933927 
L 221.328 199.73142 
L 221.362875 199.651514 
L 221.39775 199.260311 
L 221.432625 199.747069 
L 221.607 201.047869 
L 221.781375 201.734724 
L 221.886 201.089787 
L 222.0255 200.05513 
L 222.199875 202.185011 
L 222.269625 201.941319 
L 222.3045 201.621746 
L 222.339375 201.930117 
L 222.409125 202.361445 
L 222.444 202.290554 
L 222.548625 202.131722 
L 222.5835 202.568884 
L 222.618375 201.997933 
L 222.757875 201.297342 
L 222.79275 201.316314 
L 222.827625 201.256023 
L 223.002 203.104095 
L 223.036875 202.87112 
L 223.106625 202.999647 
L 223.1415 202.929315 
L 223.35075 201.805336 
L 223.385625 201.78327 
L 223.455375 201.343584 
L 223.49025 201.630995 
L 223.525125 201.699377 
L 223.664625 203.006893 
L 223.6995 202.859427 
L 223.873875 202.22791 
L 223.9785 202.972289 
L 224.013375 202.950122 
L 224.04825 203.030618 
L 224.083125 202.862254 
L 224.222625 202.15783 
L 224.431875 204.292889 
L 224.46675 204.447279 
L 224.501625 204.227291 
L 224.5365 204.070419 
L 224.60625 203.207169 
L 224.676 203.352748 
L 224.710875 203.310288 
L 224.8155 203.759996 
L 224.850375 203.748432 
L 224.955 203.202881 
L 224.989875 202.689384 
L 225.059625 202.968208 
L 225.30375 204.522827 
L 225.3735 204.656687 
L 225.408375 204.151738 
L 225.478125 204.323871 
L 225.58275 204.815533 
L 225.617625 204.335166 
L 225.687375 204.473086 
L 225.826875 205.869843 
L 225.86175 205.743015 
L 225.966375 206.08292 
L 226.036125 205.843661 
L 226.071 205.70632 
L 226.105875 205.786322 
L 226.245375 206.494433 
L 226.28025 206.486292 
L 226.4895 205.170867 
L 226.69875 206.689504 
L 226.733625 206.538932 
L 226.7685 206.677647 
L 226.83825 206.832927 
L 226.942875 205.572469 
L 227.012625 204.504628 
L 227.0475 204.884046 
L 227.11725 205.648801 
L 227.152125 205.021176 
L 227.221875 204.964716 
L 227.500875 206.076108 
L 227.67525 206.685514 
L 227.710125 206.622235 
L 227.849625 205.84134 
L 227.8845 205.727057 
L 228.09375 207.245614 
L 228.128625 207.075929 
L 228.1635 207.29686 
L 228.23325 207.058282 
L 228.268125 207.004601 
L 228.337875 207.59912 
L 228.407625 207.404521 
L 228.65175 205.498136 
L 228.7215 205.713294 
L 228.93075 206.86125 
L 228.965625 206.61348 
L 229.105125 207.132551 
L 229.174875 206.950542 
L 229.34925 206.263771 
L 229.419 206.367985 
L 229.802625 207.712096 
L 229.8375 207.70108 
L 229.872375 207.839978 
L 229.90725 207.522708 
L 230.18625 206.914403 
L 230.3955 207.856589 
L 230.46525 207.565285 
L 230.500125 207.930863 
L 230.535 207.495087 
L 230.569875 207.384432 
L 230.60475 207.557601 
L 230.639625 207.519268 
L 230.709375 207.595205 
L 230.74425 207.458086 
L 230.918625 205.959696 
L 231.127875 207.45031 
L 231.197625 206.953899 
L 231.267375 207.248168 
L 231.5115 207.880177 
L 231.546375 207.999579 
L 231.651 207.965079 
L 231.685875 207.719478 
L 231.72075 207.850411 
L 231.895125 208.271788 
L 231.93 208.341819 
L 231.964875 208.224398 
L 232.0695 208.149875 
L 232.3485 206.265721 
L 232.592625 208.035531 
L 232.6275 207.81506 
L 232.732125 207.856064 
L 232.767 208.084929 
L 232.801875 208.005778 
L 233.011125 206.742482 
L 233.080875 206.816855 
L 233.25525 207.977872 
L 233.290125 208.098974 
L 233.325 208.023783 
L 233.359875 207.577461 
L 233.429625 207.707239 
L 233.53425 207.88255 
L 233.638875 207.382685 
L 233.67375 207.447066 
L 233.7435 207.572169 
L 233.917875 208.162982 
L 234.057375 208.011736 
L 234.09225 208.027929 
L 234.23175 207.893333 
L 234.266625 207.910683 
L 234.5805 206.311955 
L 234.615375 206.807045 
L 234.72 207.703758 
L 234.754875 207.641058 
L 234.824625 207.170223 
L 234.894375 207.320426 
L 234.964125 207.501379 
L 234.999 207.217383 
L 235.033875 207.315798 
L 235.103625 207.933034 
L 235.173375 207.699624 
L 235.20825 207.218078 
L 235.278 207.637877 
L 235.382625 207.942241 
L 235.62675 206.903084 
L 235.661625 206.921964 
L 235.76625 207.567743 
L 235.836 207.558393 
L 235.90575 207.516065 
L 235.940625 207.748154 
L 236.115 206.817323 
L 236.219625 207.588933 
L 236.289375 207.533036 
L 236.394 207.779812 
L 236.5335 206.930027 
L 236.568375 207.300779 
L 236.60325 207.448385 
L 236.638125 207.17274 
L 236.74275 206.548678 
L 236.777625 206.966117 
L 236.8125 206.977852 
L 236.88225 207.557164 
L 236.917125 207.205578 
L 236.986875 206.803588 
L 237.056625 204.493152 
L 237.126375 205.978981 
L 237.16125 205.010914 
L 237.231 205.456857 
L 237.265875 205.523746 
L 237.335625 205.984883 
L 237.3705 205.906209 
L 237.405375 205.546774 
L 237.475125 205.933183 
L 237.57975 205.995312 
L 237.684375 205.581838 
L 237.823875 203.851029 
L 237.893625 204.230527 
L 237.963375 204.372292 
L 237.99825 204.331875 
L 238.102875 203.807574 
L 238.172625 204.172605 
L 238.2075 204.117806 
L 238.347 203.439702 
L 238.41675 204.10943 
L 238.4865 203.842689 
L 238.7655 204.930932 
L 238.870125 204.061195 
L 238.905 204.172995 
L 238.97475 204.247767 
L 239.009625 204.153728 
L 239.079375 204.230765 
L 239.184 203.320617 
L 239.218875 203.038788 
L 239.25375 203.3459 
L 239.39325 204.017829 
L 239.707125 205.30206 
L 239.742 205.247222 
L 239.986125 204.057071 
L 240.021 204.356825 
L 240.265125 205.781932 
L 240.3 205.707975 
L 240.579 203.478452 
L 240.753375 205.012896 
L 240.78825 204.969193 
L 240.823125 205.034724 
L 240.858 205.169787 
L 240.892875 205.028005 
L 240.92775 204.734685 
L 240.9975 204.838744 
L 241.171875 205.685674 
L 241.20675 205.449155 
L 241.416 204.133489 
L 241.48575 204.360121 
L 241.5555 204.944576 
L 241.590375 204.936524 
L 241.729875 204.243206 
L 241.799625 205.390183 
L 241.8345 205.215893 
L 242.008875 203.537047 
L 242.18325 204.938253 
L 242.253 204.738236 
L 242.287875 204.775777 
L 242.46225 206.06333 
L 242.811 203.232066 
L 242.845875 203.40895 
L 243.02025 204.625947 
L 243.055125 204.369794 
L 243.124875 204.542395 
L 243.194625 204.409068 
L 243.369 204.871193 
L 243.543375 203.872956 
L 243.613125 203.455654 
L 243.648 203.603245 
L 243.927 205.036732 
L 243.961875 204.892721 
L 243.99675 204.796792 
L 244.171125 202.537836 
L 244.206 202.724332 
L 244.485 205.246226 
L 244.519875 205.010245 
L 244.55475 205.091205 
L 244.6245 205.596536 
L 244.659375 205.355057 
L 244.798875 204.999003 
L 244.97325 203.653458 
L 245.077875 203.90613 
L 245.11275 203.814423 
L 245.25225 203.682935 
L 245.53125 204.757123 
L 245.67075 203.674281 
L 245.705625 203.958156 
L 245.775375 203.764836 
L 245.845125 203.94747 
L 245.984625 204.464248 
L 246.0195 204.379118 
L 246.08925 204.906653 
L 246.124125 204.816343 
L 246.2985 202.346512 
L 246.36825 202.48612 
L 246.50775 203.669306 
L 246.682125 204.816832 
L 246.821625 205.110023 
L 246.961125 204.294443 
L 246.996 204.380716 
L 247.06575 203.779466 
L 247.240125 202.954705 
L 247.309875 202.694534 
L 247.34475 202.825636 
L 247.379625 202.92234 
L 247.449375 202.526659 
L 247.48425 202.837517 
L 247.519125 202.723837 
L 247.588875 203.507791 
L 247.658625 203.320244 
L 247.798125 202.536734 
L 247.9725 204.19017 
L 248.04225 204.045348 
L 248.077125 204.164358 
L 248.2515 204.831099 
L 248.286375 204.784296 
L 248.5305 201.941303 
L 248.60025 202.325429 
L 248.704875 202.957193 
L 248.73975 202.583527 
L 248.774625 202.938998 
L 249.01875 204.448301 
L 249.193125 203.365018 
L 249.228 203.539249 
L 249.29775 203.669611 
L 249.611625 202.191894 
L 249.71625 203.001255 
L 249.786 202.811167 
L 249.820875 202.72894 
L 249.9255 202.275886 
L 249.960375 202.321582 
L 250.344 203.702966 
L 250.378875 203.680115 
L 250.518375 203.222637 
L 250.55325 203.448557 
L 250.588125 203.551558 
L 250.797375 201.684906 
L 250.83225 201.696991 
L 250.902 202.042245 
L 250.936875 201.736348 
L 251.006625 201.169514 
L 251.076375 201.572138 
L 251.285625 202.362824 
L 251.3205 202.249976 
L 251.355375 202.444029 
L 251.494875 203.242878 
L 251.52975 203.594962 
L 251.5995 203.226305 
L 251.843625 201.662119 
L 252.018 202.329113 
L 252.08775 202.105589 
L 252.1575 202.720495 
L 252.192375 202.453882 
L 252.297 202.145392 
L 252.471375 203.063356 
L 252.541125 203.097374 
L 252.610875 202.819172 
L 252.64575 202.85782 
L 252.750375 204.089497 
L 252.820125 203.806487 
L 252.9945 202.324577 
L 253.029375 202.387887 
L 253.06425 202.340563 
L 253.20375 200.5247 
L 253.238625 200.860555 
L 253.413 202.906094 
L 253.447875 202.626224 
L 253.48275 202.261421 
L 253.5525 202.468279 
L 253.726875 203.732389 
L 253.76175 203.341052 
L 253.796625 203.352415 
L 253.90125 202.534361 
L 253.971 202.551036 
L 254.04075 202.814345 
L 254.075625 202.689874 
L 254.18025 202.073055 
L 254.215125 202.242333 
L 254.25 202.433752 
L 254.3895 201.583343 
L 254.424375 201.759996 
L 254.45925 201.448761 
L 254.494125 201.076069 
L 254.563875 201.435684 
L 254.6685 201.954359 
L 254.773125 202.477868 
L 254.842875 202.074061 
L 254.87775 202.134703 
L 255.01725 203.139661 
L 255.052125 202.948043 
L 255.261375 201.54091 
L 255.366 200.038817 
L 255.400875 200.184567 
L 255.57525 201.931625 
L 255.645 201.745079 
L 255.749625 201.034688 
L 255.7845 201.436144 
L 255.924 202.948425 
L 255.958875 202.816771 
L 256.0635 202.295364 
L 256.098375 202.395414 
L 256.168125 202.467481 
L 256.3425 201.800393 
L 256.41225 203.275002 
L 256.482 202.517948 
L 256.726125 199.831096 
L 256.761 200.198787 
L 256.97025 201.687366 
L 257.005125 201.597002 
L 257.353875 203.511959 
L 257.598 201.635209 
L 257.772375 203.138927 
L 257.80725 202.973218 
L 258.190875 201.775778 
L 258.330375 203.005559 
L 258.400125 202.521008 
L 258.469875 202.529066 
L 258.539625 202.698502 
L 258.64425 203.666731 
L 258.679125 203.31773 
L 258.993 201.377476 
L 259.1325 202.552079 
L 259.06275 201.346915 
L 259.20225 202.539366 
L 259.237125 202.204243 
L 259.272 202.374714 
L 259.4115 203.342723 
L 259.446375 203.103328 
L 259.48125 203.134275 
L 259.516125 203.038022 
L 259.62075 202.764331 
L 259.655625 203.216669 
L 259.725375 202.844012 
L 259.864875 202.628863 
L 259.9695 203.272329 
L 260.03925 202.982616 
L 260.143875 202.261533 
L 260.283375 200.258731 
L 260.353125 200.461242 
L 260.701875 202.879113 
L 260.73675 202.890203 
L 260.841375 203.767026 
L 260.87625 203.446745 
L 260.980875 202.303138 
L 261.225 200.950927 
L 261.608625 203.695481 
L 261.678375 203.302023 
L 261.817875 202.874544 
L 261.85275 203.167049 
L 261.887625 203.14203 
L 261.9225 203.2395 
L 262.062 202.635075 
L 262.236375 204.178625 
L 262.27125 203.813395 
L 262.55025 200.462705 
L 263.0385 204.482589 
L 263.073375 204.096517 
L 263.352375 202.014705 
L 263.38725 201.997781 
L 263.52675 202.745888 
L 263.5965 202.56987 
L 263.631375 202.49844 
L 263.66625 202.582217 
L 263.770875 202.948339 
L 263.80575 202.833237 
L 263.8755 202.026692 
L 263.94525 202.288927 
L 263.980125 202.252863 
L 264.119625 203.245881 
L 264.189375 203.083154 
L 264.22425 202.931185 
L 264.259125 203.178337 
L 264.294 203.146063 
L 264.4335 203.841096 
L 264.468375 203.570423 
L 264.607875 201.816965 
L 264.64275 201.970949 
L 264.7125 201.731963 
L 264.747375 201.870737 
L 264.78225 201.30759 
L 264.886875 201.321268 
L 264.92175 201.438004 
L 265.20075 204.16983 
L 265.235625 204.269475 
L 265.2705 204.190664 
L 265.444875 203.159272 
L 265.47975 203.151815 
L 265.514625 203.384012 
L 265.584375 203.119241 
L 265.654125 203.037572 
L 265.689 203.266498 
L 265.75875 203.073863 
L 265.863375 202.757249 
L 265.89825 203.06301 
L 265.933125 203.058797 
L 266.1075 202.065689 
L 266.142375 201.841736 
L 266.212125 202.055657 
L 266.630625 204.292984 
L 266.6655 204.228008 
L 266.73525 203.522989 
L 266.87475 202.347332 
L 266.909625 202.376459 
L 266.979375 202.446136 
L 267.01425 202.17042 
L 267.118875 202.328575 
L 267.188625 200.707348 
L 267.2235 201.772823 
L 267.258375 204.189676 
L 267.328125 204.159556 
L 267.43275 203.128717 
L 267.467625 203.355938 
L 267.537375 203.872729 
L 267.57225 203.801556 
L 267.676875 203.52688 
L 267.71175 203.648195 
L 267.746625 203.40879 
L 267.816375 203.584994 
L 267.85125 203.477881 
L 268.234875 201.118498 
L 268.26975 201.554191 
L 268.304625 201.319889 
L 268.40925 200.666097 
L 268.444125 200.738366 
L 268.583625 201.858643 
L 268.6185 201.812088 
L 268.653375 201.443588 
L 268.723125 201.539532 
L 268.862625 203.108774 
L 268.8975 202.963451 
L 269.002125 201.892635 
L 269.10675 201.935483 
L 269.141625 202.079527 
L 269.1765 201.789051 
L 269.281125 201.478944 
L 269.316 202.092862 
L 269.38575 202.024146 
L 269.420625 201.942045 
L 269.490375 202.664426 
L 269.560125 202.170859 
L 269.595 202.14353 
L 269.94375 204.545138 
L 270.0135 204.134075 
L 270.08325 203.399558 
L 270.187875 201.602322 
L 270.257625 201.829311 
L 270.2925 202.069982 
L 270.327375 201.922397 
L 270.36225 201.409327 
L 270.432 201.781529 
L 270.466875 201.814009 
L 270.536625 201.878026 
L 270.676125 201.188246 
L 270.885375 203.705133 
L 270.92025 203.469389 
L 270.955125 203.826235 
L 271.05975 204.500471 
L 271.094625 204.246383 
L 271.269 203.548975 
L 271.33875 203.570989 
L 271.443375 203.626768 
L 271.792125 202.40863 
L 271.931625 203.580956 
L 272.106 204.882195 
L 272.17575 205.566654 
L 272.2455 205.29456 
L 272.385 203.331628 
L 272.419875 203.449281 
L 272.489625 204.5182 
L 272.5245 204.263265 
L 272.59425 203.525768 
L 272.664 203.765151 
L 272.73375 203.253829 
L 272.8035 203.422225 
L 272.908125 203.463167 
L 273.117375 205.05429 
L 273.15225 205.039735 
L 273.29175 205.30045 
L 273.3615 204.690418 
L 273.396375 204.889895 
L 273.57075 205.747418 
L 273.605625 205.486332 
L 273.84975 202.855104 
L 273.884625 202.991193 
L 274.1985 204.600273 
L 274.303125 205.156995 
L 274.40775 206.006311 
L 274.442625 205.688647 
L 274.617 204.817595 
L 274.721625 205.038686 
L 274.7565 205.062428 
L 274.930875 204.310042 
L 274.96575 204.299369 
L 275.000625 204.568911 
L 275.070375 204.436331 
L 275.175 204.065767 
L 275.209875 203.732811 
L 275.279625 204.056548 
L 275.454 206.060652 
L 275.52375 206.613327 
L 275.558625 206.513353 
L 275.733 205.486661 
L 275.767875 205.518537 
L 275.837625 206.063658 
L 275.8725 205.613108 
L 276.012 203.806433 
L 276.046875 203.906098 
L 276.186375 206.088474 
L 276.325875 205.60674 
L 276.36075 205.639594 
L 276.465375 205.068449 
L 276.50025 205.303805 
L 276.604875 206.366897 
L 276.63975 205.914841 
L 276.7095 206.060744 
L 276.77925 206.042036 
L 276.883875 206.54277 
L 276.91875 206.883118 
L 276.9885 206.500279 
L 277.19775 204.744855 
L 277.232625 204.814663 
L 277.2675 204.78078 
L 277.302375 204.923569 
L 277.33725 204.715046 
L 277.407 204.271509 
L 277.47675 204.308089 
L 277.511625 204.322432 
L 277.75575 207.377828 
L 277.89525 206.857444 
L 278.17425 205.200597 
L 278.209125 205.448917 
L 278.3835 206.418249 
L 278.59275 205.74801 
L 278.697375 206.512828 
L 278.73225 206.329857 
L 278.767125 206.127909 
L 278.802 206.224447 
L 278.836875 206.456591 
L 278.87175 206.370893 
L 278.9415 205.828053 
L 278.976375 205.963149 
L 279.081 207.23586 
L 279.185625 206.834891 
L 279.2205 206.76724 
L 279.394875 205.657535 
L 279.464625 205.965072 
L 279.4995 205.662538 
L 279.673875 204.347369 
L 279.84825 207.669026 
L 279.883125 207.511237 
L 279.98775 207.418847 
L 280.022625 207.57308 
L 280.0575 207.504485 
L 280.162125 207.230758 
L 280.197 207.45612 
L 280.26675 207.36348 
L 280.301625 207.318498 
L 280.476 206.135378 
L 280.510875 206.14812 
L 280.650375 206.997436 
L 280.789875 205.920822 
L 280.82475 206.160313 
L 280.96425 206.510068 
L 280.999125 206.595762 
L 281.034 206.480573 
L 281.10375 206.271424 
L 281.24325 207.273026 
L 281.278125 207.214008 
L 281.417625 206.568501 
L 281.4525 206.773623 
L 281.557125 206.615692 
L 281.80125 205.091561 
L 281.836125 205.411744 
L 282.0105 207.546631 
L 282.08025 207.893597 
L 282.115125 207.827032 
L 282.324375 207.170042 
L 282.35925 207.31516 
L 282.463875 208.291196 
L 282.49875 207.965306 
L 282.533625 208.050069 
L 282.5685 207.908129 
L 282.91725 206.188701 
L 282.987 206.485484 
L 283.161375 207.185587 
L 283.19625 207.198634 
L 283.266 206.78929 
L 283.300875 206.949422 
L 283.440375 207.708413 
L 283.545 206.788896 
L 283.61475 207.217044 
L 283.6845 207.424093 
L 283.719375 207.138095 
L 283.75425 207.231942 
L 283.858875 208.178065 
L 283.928625 207.931876 
L 283.998375 207.275335 
L 284.03325 207.418504 
L 284.17275 207.844168 
L 284.277375 208.45749 
L 284.347125 208.338701 
L 284.486625 207.869342 
L 284.5215 207.917655 
L 284.695875 208.830328 
L 284.905125 207.657567 
L 285.114375 206.494458 
L 285.184125 206.510633 
L 285.498 208.749495 
L 285.56775 208.371997 
L 285.742125 207.821439 
L 286.056 209.056022 
L 286.090875 209.143743 
L 286.12575 208.967967 
L 286.160625 209.007039 
L 286.369875 208.313258 
L 286.4745 208.487159 
L 286.509375 208.452602 
L 286.614 207.917046 
L 286.648875 207.961317 
L 286.96275 209.014172 
L 287.137125 207.522198 
L 287.172 207.655418 
L 287.24175 207.495174 
L 287.3115 206.500229 
L 287.38125 206.99798 
L 287.555625 208.588447 
L 287.66025 209.146229 
L 287.695125 209.033037 
L 287.79975 208.78486 
L 287.904375 209.019744 
L 287.974125 208.601334 
L 288.009 208.798561 
L 288.043875 208.918121 
L 288.07875 208.783102 
L 288.1485 208.407638 
L 288.288 209.226963 
L 288.35775 209.132849 
L 288.7065 207.240935 
L 288.741375 207.487897 
L 288.77625 207.474185 
L 288.950625 208.867567 
L 288.9855 208.770829 
L 289.090125 208.587057 
L 289.125 208.717203 
L 289.159875 208.605437 
L 289.33425 207.347449 
L 289.369125 207.593025 
L 289.61325 208.722894 
L 289.75275 209.689361 
L 289.927125 209.059294 
L 289.996875 208.561201 
L 290.03175 208.845578 
L 290.066625 209.110752 
L 290.136375 208.897622 
L 290.17125 208.894716 
L 290.345625 209.23187 
L 290.415375 209.526644 
L 290.45025 209.501779 
L 290.485125 209.690319 
L 290.52 209.329251 
L 290.694375 207.727053 
L 290.799 206.409565 
L 290.903625 207.909014 
L 290.9385 207.77951 
L 291.00825 208.214826 
L 291.182625 209.290053 
L 291.322125 209.047174 
L 291.357 209.188835 
L 291.391875 209.270873 
L 291.4965 208.660992 
L 291.531375 208.736496 
L 291.636 208.991597 
L 291.670875 208.941145 
L 291.84525 209.799062 
L 291.98475 210.075494 
L 292.0545 210.126316 
L 292.40325 208.731402 
L 292.438125 208.965073 
L 292.473 208.669321 
L 292.507875 208.628835 
L 292.6125 209.32834 
L 292.647375 209.077741 
L 292.752 208.158844 
L 292.82175 208.296479 
L 292.96125 207.310248 
L 292.996125 207.874755 
L 293.10075 208.918562 
L 293.135625 208.544401 
L 293.1705 208.407414 
L 293.205375 208.45749 
L 293.31 209.787632 
L 293.37975 209.774074 
L 293.414625 209.763581 
L 293.4495 209.929027 
L 293.51925 209.845165 
L 293.65875 209.639182 
L 293.79825 210.194318 
L 293.833125 210.164335 
L 293.93775 209.443663 
L 293.972625 209.264719 
L 294.0075 209.463828 
L 294.112125 209.763989 
L 294.147 209.638005 
L 294.35625 209.051293 
L 294.460875 209.12669 
L 294.5655 209.531367 
L 294.600375 209.427067 
L 294.809625 208.853059 
L 295.018875 208.084721 
L 295.158375 208.923911 
L 295.228125 209.677162 
L 295.297875 209.375025 
L 295.367625 209.043957 
L 295.4025 209.340307 
L 295.542 210.469005 
L 295.576875 210.291173 
L 295.646625 210.410416 
L 295.6815 210.366855 
L 295.786125 209.914054 
L 295.821 209.935342 
L 295.89075 209.932688 
L 295.995375 210.218793 
L 296.379 208.388082 
L 296.44875 208.781874 
L 296.623125 209.839098 
L 296.692875 209.709443 
L 296.86725 209.224065 
L 296.937 209.578983 
L 296.971875 209.46114 
L 297.00675 209.422297 
L 297.0765 208.988642 
L 297.14625 209.163267 
L 297.216 209.705247 
L 297.250875 209.628926 
L 297.3555 207.448012 
L 297.42525 207.837051 
L 297.460125 209.730367 
L 297.529875 208.737236 
L 297.56475 208.432997 
L 297.599625 208.571373 
L 297.70425 209.177582 
L 297.739125 209.065836 
L 297.774 209.201654 
L 297.9135 208.588387 
L 297.948375 208.557433 
L 297.98325 208.244837 
L 298.018125 208.6355 
L 298.087875 208.816831 
L 298.12275 208.531812 
L 298.1925 208.804468 
L 298.227375 209.00991 
L 298.26225 208.612989 
L 298.332 207.899242 
L 298.576125 205.396 
L 298.89 208.700656 
L 299.0295 208.170392 
L 299.064375 208.26513 
L 299.09925 208.103549 
L 299.343375 207.609044 
L 299.51775 208.360443 
L 299.552625 208.523392 
L 299.5875 208.193485 
L 299.622375 208.284706 
L 299.727 208.784114 
L 299.93625 208.272493 
L 299.971125 208.371051 
L 300.006 208.152674 
L 300.040875 208.288388 
L 300.110625 208.164595 
L 300.1455 208.235226 
L 300.319875 209.087712 
L 300.35475 208.811983 
L 300.7035 207.128755 
L 300.738375 207.267636 
L 300.9825 209.065926 
L 301.017375 209.0535 
L 301.05225 209.205068 
L 301.087125 209.003714 
L 301.122 209.162131 
L 301.19175 209.197906 
L 301.33125 209.575024 
L 301.61025 208.9444 
L 301.714875 209.356465 
L 301.74975 209.1448 
L 301.8195 209.231845 
L 302.0985 207.583372 
L 302.133375 207.630269 
L 302.342625 209.343419 
L 302.3775 209.224278 
L 302.482125 209.786569 
L 302.517 209.492682 
L 302.761125 208.140628 
L 302.86575 207.628203 
L 302.900625 207.993964 
L 303.109875 209.717895 
L 303.14475 209.439923 
L 303.179625 209.706058 
L 303.249375 209.855019 
L 303.28425 209.843267 
L 303.42375 209.311123 
L 303.458625 209.359954 
L 303.4935 209.519782 
L 303.528375 209.36515 
L 303.633 209.04978 
L 303.667875 209.151217 
L 303.807375 209.827067 
L 303.84225 209.573808 
L 303.946875 208.999203 
L 304.016625 209.063011 
L 304.0515 209.213464 
L 304.191 208.30383 
L 304.225875 208.431035 
L 304.26075 208.466553 
L 304.3305 208.167513 
L 304.365375 208.397533 
L 304.53975 209.95139 
L 304.644375 209.806377 
L 304.749 209.773474 
L 304.923375 209.356864 
L 305.062875 208.495225 
L 305.307 209.447424 
L 305.341875 209.38779 
L 305.37675 209.615768 
L 305.4465 209.589297 
L 305.586 209.113355 
L 305.620875 209.31479 
L 305.690625 209.502781 
L 305.7255 209.351437 
L 305.79525 209.251687 
L 305.969625 209.928954 
L 306.318375 207.677165 
L 306.527625 209.50575 
L 306.63225 209.259285 
L 306.667125 209.050279 
L 306.702 209.455384 
L 306.736875 209.84358 
L 306.806625 209.762897 
L 306.8415 209.739221 
L 306.876375 209.818347 
L 306.91125 209.895661 
L 306.946125 209.807708 
L 307.1205 209.037095 
L 307.19025 208.188141 
L 307.26 208.553447 
L 307.294875 208.452012 
L 307.434375 208.929769 
L 307.504125 208.81217 
L 307.539 208.878082 
L 307.74825 207.875948 
L 307.818 207.621162 
L 307.852875 207.889353 
L 308.097 209.72248 
L 308.16675 209.512966 
L 308.2365 208.83874 
L 308.480625 207.587205 
L 308.5155 207.627317 
L 308.899125 209.675774 
L 309.00375 208.555461 
L 309.0735 208.99701 
L 309.108375 209.193726 
L 309.14325 208.815573 
L 309.213 208.580421 
L 309.317625 207.527654 
L 309.3525 207.837005 
L 309.596625 208.702375 
L 309.666375 208.659963 
L 310.015125 207.332618 
L 310.05 207.602538 
L 310.25925 209.138248 
L 310.294125 209.159685 
L 310.4685 208.453994 
L 310.503375 208.558991 
L 310.53825 208.584364 
L 310.642875 208.226406 
L 310.7475 208.412945 
L 310.852125 208.144884 
L 311.061375 209.330866 
L 311.131125 209.105737 
L 311.200875 208.789951 
L 311.270625 208.90199 
L 311.340375 208.93887 
L 311.549625 207.798247 
L 311.689125 209.340975 
L 311.758875 209.043083 
L 311.898375 207.252588 
L 311.93325 207.260188 
L 312.07275 208.265682 
L 312.107625 208.13998 
L 312.1425 208.2737 
L 312.177375 208.131183 
L 312.21225 207.779484 
L 312.247125 207.970593 
L 312.386625 209.089369 
L 312.595875 208.824247 
L 312.63075 208.896754 
L 312.77025 208.204123 
L 312.805125 208.350858 
L 312.874875 208.696375 
L 312.90975 208.587287 
L 313.014375 207.99504 
L 313.04925 208.288569 
L 313.153875 208.985655 
L 313.18875 208.869043 
L 313.398 208.144122 
L 313.432875 208.241726 
L 313.46775 208.486798 
L 313.5375 208.44566 
L 313.711875 208.140265 
L 313.88625 208.730703 
L 313.956 208.680697 
L 314.0955 208.18361 
L 314.130375 208.205621 
L 314.235 208.582187 
L 314.269875 208.444805 
L 314.3745 208.444365 
L 314.618625 209.030796 
L 314.72325 208.939507 
L 314.758125 208.665128 
L 314.827875 208.982169 
L 314.86275 208.844256 
L 314.897625 208.964224 
L 315.037125 209.44965 
L 315.072 209.265019 
L 315.2115 208.240349 
L 315.246375 208.283591 
L 315.316125 208.348878 
L 315.351 208.234748 
L 315.42075 208.122989 
L 315.56025 208.592055 
L 315.63 208.319617 
L 315.664875 208.417348 
L 315.734625 208.518524 
L 315.909 209.017418 
L 315.97875 208.863678 
L 316.11825 208.11203 
L 316.153125 208.204704 
L 316.188 208.275811 
L 316.222875 208.234527 
L 316.3275 208.915162 
L 316.362375 208.876758 
L 316.432125 209.003282 
L 316.501875 208.529407 
L 316.571625 208.745276 
L 316.6065 208.768828 
L 316.711125 209.233504 
L 316.746 209.194776 
L 316.95525 208.294354 
L 316.990125 208.302487 
L 317.09475 208.616538 
L 317.129625 208.556088 
L 317.1645 208.576697 
L 317.338875 209.322562 
L 317.37375 209.487621 
L 317.408625 209.339643 
L 317.65275 207.914639 
L 317.827125 208.600839 
L 318.036375 209.040597 
L 318.141 208.772458 
L 318.175875 208.790322 
L 318.21075 208.882608 
L 318.245625 208.815497 
L 318.2805 208.579724 
L 318.35025 208.742592 
L 318.454875 208.974208 
L 318.48975 208.910438 
L 318.5595 208.642835 
L 318.594375 208.782058 
L 318.76875 209.142476 
L 318.873375 209.327338 
L 318.90825 209.176283 
L 319.18725 207.598088 
L 319.222125 208.093331 
L 319.32675 209.121102 
L 319.361625 209.088795 
L 319.3965 209.007009 
L 319.46625 209.286714 
L 319.501125 209.26558 
L 319.60575 208.753825 
L 319.6755 208.275493 
L 319.74525 208.318485 
L 319.88475 208.686458 
L 319.989375 207.972368 
L 320.02425 208.100623 
L 320.198625 209.544665 
L 320.30325 209.230137 
L 320.338125 209.18806 
L 320.5125 208.667146 
L 320.617125 208.985018 
L 320.652 208.900098 
L 320.686875 209.007036 
L 320.72175 208.777497 
L 320.756625 208.551314 
L 320.7915 208.784813 
L 320.931 209.286023 
L 321.105375 208.536523 
L 321.175125 208.617309 
L 321.244875 208.68185 
L 321.3495 207.990882 
L 321.384375 208.460526 
L 321.523875 209.402413 
L 321.55875 209.49156 
L 321.6285 209.385951 
L 321.733125 208.814152 
L 321.802875 208.946203 
L 321.872625 208.885815 
L 321.97725 209.182602 
L 322.012125 209.143229 
L 322.151625 208.030749 
L 322.221375 208.379642 
L 322.39575 209.69474 
L 322.430625 209.577343 
L 322.4655 209.673605 
L 322.53525 209.599559 
L 322.709625 209.00536 
L 322.81425 209.047743 
L 322.849125 208.915601 
L 322.918875 209.066052 
L 322.988625 209.141947 
L 323.128125 209.462733 
L 323.23275 208.621042 
L 323.3025 208.954712 
L 323.476875 209.165647 
L 323.546625 208.954496 
L 323.5815 209.113101 
L 323.616375 209.182847 
L 323.686125 208.871316 
L 323.721 208.984735 
L 323.755875 208.971464 
L 323.895375 209.308999 
L 324 208.947769 
L 324.034875 209.063725 
L 324.034875 209.063725 
" clip-path="url(#pd957ddec98)" style="fill: none; stroke: #000000; stroke-linecap: square"/>
   </g>
   <g id="line2d_14">
    <path d="M 44.993025 205.716256 
L 50.935725 205.780851 
L 63.741825 205.666291 
L 69.6357 205.787615 
L 74.14155 205.607592 
L 79.02405 205.465639 
L 82.9161 205.60461 
L 88.377525 205.793257 
L 91.7325 205.649317 
L 98.3169 205.300983 
L 101.364975 205.436209 
L 107.670375 205.792342 
L 110.27205 205.643606 
L 118.2654 204.987608 
L 120.657825 205.183041 
L 126.64935 205.795202 
L 128.5605 205.672916 
L 130.63905 205.306823 
L 136.1493 204.201681 
L 137.78145 204.19727 
L 139.42755 204.419231 
L 141.534 204.947911 
L 144.540225 205.688276 
L 145.963125 205.794881 
L 147.218625 205.668233 
L 148.4532 205.317771 
L 149.7924 204.697506 
L 151.5222 203.628063 
L 154.500525 201.769134 
L 155.700225 201.306418 
L 156.718575 201.146725 
L 157.667175 201.222587 
L 158.62275 201.526806 
L 159.662025 202.100179 
L 160.959375 203.089856 
L 163.874925 205.404255 
L 164.711925 205.739449 
L 165.395475 205.783423 
L 166.009275 205.600374 
L 166.609125 205.181279 
L 167.2299 204.462635 
L 167.8995 203.325237 
L 168.6249 201.628644 
L 169.42005 199.173136 
L 170.2989 195.699261 
L 171.282375 190.8518 
L 172.3914 184.208677 
L 173.695725 174.970363 
L 175.397625 161.18658 
L 179.6454 126.078351 
L 180.866025 118.179978 
L 181.842525 113.21075 
L 182.651625 110.157346 
L 183.321225 108.425203 
L 183.865275 107.573055 
L 184.3047 107.256532 
L 184.674375 107.24981 
L 185.037075 107.473841 
L 185.455575 108.014493 
L 185.957775 109.056678 
L 186.5646 110.873036 
L 187.29 113.806054 
L 188.1549 118.300581 
L 189.20115 124.996321 
L 190.54035 135.124446 
L 192.709575 153.517987 
L 195.2694 174.704966 
L 196.73415 185.020299 
L 197.9478 192.076472 
L 199.008 197.004395 
L 199.9566 200.416169 
L 200.80755 202.700345 
L 201.581775 204.182302 
L 202.28625 205.081381 
L 202.9419 205.575602 
L 203.56965 205.779058 
L 204.218325 205.754468 
L 204.9507 205.495365 
L 205.8714 204.917048 
L 207.371025 203.667562 
L 209.310075 202.118665 
L 210.440025 201.499955 
L 211.430475 201.204347 
L 212.379075 201.151561 
L 213.36255 201.323806 
L 214.4646 201.752173 
L 215.87355 202.557742 
L 220.1283 205.148987 
L 221.432625 205.592118 
L 222.674175 205.781346 
L 223.971525 205.751129 
L 225.49905 205.482748 
L 228.8889 204.568686 
L 230.7582 204.237333 
L 232.3764 204.177117 
L 234.06435 204.342902 
L 236.261475 204.802965 
L 240.167475 205.637558 
L 242.09955 205.791884 
L 244.0944 205.721983 
L 246.947175 205.368781 
L 250.3161 205.006067 
L 252.58995 204.996719 
L 255.191625 205.222425 
L 260.84835 205.781424 
L 263.463975 205.750912 
L 267.8652 205.419529 
L 271.122525 205.300035 
L 274.2264 205.422468 
L 281.347875 205.79472 
L 285.03765 205.66265 
L 290.6595 205.464884 
L 294.6213 205.595358 
L 300.6756 205.794904 
L 305.29305 205.664917 
L 310.67775 205.563833 
L 316.446075 205.740591 
L 321.328575 205.782015 
L 324.006975 205.716256 
L 324.006975 205.716256 
" clip-path="url(#pd957ddec98)" style="fill: none; stroke: #ff4500; stroke-width: 1.5; stroke-linecap: square"/>
   </g>
   <g id="patch_3">
    <path d="M 45 224.28 
L 45 30.24 
" style="fill: none; stroke: #000000; stroke-width: 0.8; stroke-linejoin: miter; stroke-linecap: square"/>
   </g>
   <g id="patch_4">
    <path d="M 324 224.28 
L 324 30.24 
" style="fill: none; stroke: #000000; stroke-width: 0.8; stroke-linejoin: miter; stroke-linecap: square"/>
   </g>
   <g id="patch_5">
    <path d="M 45 224.28 
L 324 224.28 
" style="fill: none; stroke: #000000; stroke-width: 0.8; stroke-linejoin: miter; stroke-linecap: square"/>
   </g>
   <g id="patch_6">
    <path d="M 45 30.24 
L 324 30.24 
" style="fill: none; stroke: #000000; stroke-width: 0.8; stroke-linejoin: miter; stroke-linecap: square"/>
   </g>
  </g>
  <g id="legend_1">
   <g id="patch_7">
    <path d="M 290.973437 37.35625 
L 353 37.35625 
Q 355 37.35625 355 35.35625 
L 355 7 
Q 355 5 353 5 
L 290.973437 5 
Q 288.973437 5 288.973437 7 
L 288.973437 35.35625 
Q 288.973437 37.35625 290.973437 37.35625 
z
" style="fill: #ffffff; opacity: 0.8; stroke: #cccccc; stroke-linejoin: miter"/>
   </g>
   <g id="line2d_15">
    <path d="M 292.973437 13.098437 
L 302.973437 13.098437 
L 312.973437 13.098437 
" style="fill: none; stroke: #000000; stroke-linecap: square"/>
   </g>
   <g id="text_15">
    <!-- $Z_{IDT}$ -->
    <g transform="translate(320.973437 16.598437) scale(0.1 -0.1)">
     <defs>
      <path id="DejaVuSans-Oblique-5a" d="M 838 4666 
L 4500 4666 
L 4409 4184 
L 794 531 
L 3769 531 
L 3669 0 
L -141 0 
L -50 481 
L 3566 4134 
L 738 4134 
L 838 4666 
z
" transform="scale(0.015625)"/>
      <path id="DejaVuSans-Oblique-49" d="M 1081 4666 
L 1716 4666 
L 806 0 
L 172 0 
L 1081 4666 
z
" transform="scale(0.015625)"/>
      <path id="DejaVuSans-Oblique-44" d="M 1081 4666 
L 2438 4666 
Q 3519 4666 4070 4208 
Q 4622 3750 4622 2847 
Q 4622 2250 4412 1698 
Q 4203 1147 3834 769 
Q 3463 381 2891 190 
Q 2319 0 1538 0 
L 172 0 
L 1081 4666 
z
M 1613 4147 
L 909 519 
L 1734 519 
Q 2794 519 3375 1128 
Q 3956 1738 3956 2847 
Q 3956 3519 3581 3833 
Q 3206 4147 2406 4147 
L 1613 4147 
z
" transform="scale(0.015625)"/>
      <path id="DejaVuSans-Oblique-54" d="M 378 4666 
L 4325 4666 
L 4225 4134 
L 2559 4134 
L 1759 0 
L 1125 0 
L 1925 4134 
L 275 4134 
L 378 4666 
z
" transform="scale(0.015625)"/>
     </defs>
     <use xlink:href="#DejaVuSans-Oblique-5a" transform="translate(0 0.09375)"/>
     <use xlink:href="#DejaVuSans-Oblique-49" transform="translate(68.505859 -16.3125) scale(0.7)"/>
     <use xlink:href="#DejaVuSans-Oblique-44" transform="translate(89.150391 -16.3125) scale(0.7)"/>
     <use xlink:href="#DejaVuSans-Oblique-54" transform="translate(143.051758 -16.3125) scale(0.7)"/>
    </g>
   </g>
   <g id="line2d_16">
    <path d="M 292.973437 27.776562 
L 302.973437 27.776562 
L 312.973437 27.776562 
" style="fill: none; stroke: #ff4500; stroke-width: 1.5; stroke-linecap: square"/>
   </g>
   <g id="text_16">
    <!-- Model -->
    <g transform="translate(320.973437 31.276562) scale(0.1 -0.1)">
     <defs>
      <path id="DejaVuSans-6f" d="M 1959 3097 
Q 1497 3097 1228 2736 
Q 959 2375 959 1747 
Q 959 1119 1226 758 
Q 1494 397 1959 397 
Q 2419 397 2687 759 
Q 2956 1122 2956 1747 
Q 2956 2369 2687 2733 
Q 2419 3097 1959 3097 
z
M 1959 3584 
Q 2709 3584 3137 3096 
Q 3566 2609 3566 1747 
Q 3566 888 3137 398 
Q 2709 -91 1959 -91 
Q 1206 -91 779 398 
Q 353 888 353 1747 
Q 353 2609 779 3096 
Q 1206 3584 1959 3584 
z
" transform="scale(0.015625)"/>
      <path id="DejaVuSans-6c" d="M 603 4863 
L 1178 4863 
L 1178 0 
L 603 0 
L 603 4863 
z
" transform="scale(0.015625)"/>
     </defs>
     <use xlink:href="#DejaVuSans-4d"/>
     <use xlink:href="#DejaVuSans-6f" x="86.279297"/>
     <use xlink:href="#DejaVuSans-64" x="147.460938"/>
     <use xlink:href="#DejaVuSans-65" x="210.9375"/>
     <use xlink:href="#DejaVuSans-6c" x="272.460938"/>
    </g>
   </g>
  </g>
 </g>
 <defs>
  <clipPath id="pd957ddec98">
   <rect x="45" y="30.24" width="279" height="194.04"/>
  </clipPath>
 </defs>
</svg>
